<?xml version="1.0" encoding="UTF-8" standalone="no"?>
<!-- Created with Inkscape (http://www.inkscape.org/) -->

<svg
   xmlns:dc="http://purl.org/dc/elements/1.1/"
   xmlns:cc="http://creativecommons.org/ns#"
   xmlns:rdf="http://www.w3.org/1999/02/22-rdf-syntax-ns#"
   xmlns:svg="http://www.w3.org/2000/svg"
   xmlns="http://www.w3.org/2000/svg"
   xmlns:sodipodi="http://sodipodi.sourceforge.net/DTD/sodipodi-0.dtd"
   xmlns:inkscape="http://www.inkscape.org/namespaces/inkscape"
   width="36.19323mm"
   height="37.424759mm"
   viewBox="0 0 128.24373 132.60741"
   id="svg2"
   version="1.1"
   inkscape:version="0.91 r13725"
   sodipodi:docname="robot2.svg"
   inkscape:export-filename="/home/algot/Documents/runeman.org/clipart/robot2.png"
   inkscape:export-xdpi="105.2683"
   inkscape:export-ydpi="105.2683">
  <title
     id="title3597">Robot 2</title>
  <defs
     id="defs4" />
  <sodipodi:namedview
     id="base"
     pagecolor="#ffffff"
     bordercolor="#666666"
     borderopacity="1.0"
     inkscape:pageopacity="0.0"
     inkscape:pageshadow="2"
     inkscape:zoom="4"
     inkscape:cx="26.13489"
     inkscape:cy="69.434541"
     inkscape:document-units="px"
     inkscape:current-layer="layer1"
     showgrid="false"
     inkscape:window-width="1366"
     inkscape:window-height="712"
     inkscape:window-x="0"
     inkscape:window-y="0"
     inkscape:window-maximized="1"
     fit-margin-top="0"
     fit-margin-left="0"
     fit-margin-right="0"
     fit-margin-bottom="0">
    <inkscape:grid
       type="xygrid"
       id="grid3336"
       originx="246.97619"
       originy="-543.89205" />
  </sodipodi:namedview>
  <metadata
     id="metadata7">
    <rdf:RDF>
      <cc:Work
         rdf:about="">
        <dc:format>image/svg+xml</dc:format>
        <dc:type
           rdf:resource="http://purl.org/dc/dcmitype/StillImage" />
        <dc:title>Robot 2</dc:title>
        <dc:date>2015-12-24</dc:date>
        <dc:creator>
          <cc:Agent>
            <dc:title>Algot Runeman</dc:title>
          </cc:Agent>
        </dc:creator>
        <dc:rights>
          <cc:Agent>
            <dc:title>Algot Runeman</dc:title>
          </cc:Agent>
        </dc:rights>
        <dc:publisher>
          <cc:Agent>
            <dc:title>runeman.org</dc:title>
          </cc:Agent>
        </dc:publisher>
        <dc:identifier>robot2.svg</dc:identifier>
        <cc:license
           rdf:resource="http://creativecommons.org/publicdomain/zero/1.0/" />
      </cc:Work>
      <cc:License
         rdf:about="http://creativecommons.org/publicdomain/zero/1.0/">
        <cc:permits
           rdf:resource="http://creativecommons.org/ns#Reproduction" />
        <cc:permits
           rdf:resource="http://creativecommons.org/ns#Distribution" />
        <cc:permits
           rdf:resource="http://creativecommons.org/ns#DerivativeWorks" />
      </cc:License>
    </rdf:RDF>
  </metadata>
  <g
     inkscape:label="Layer 1"
     inkscape:groupmode="layer"
     id="layer1"
     transform="translate(246.97619,-375.86276)">
    <path
       sodipodi:nodetypes="ccccc"
       inkscape:connector-curvature="0"
       id="path3490"
       d="m -144.88813,454.35277 19.97649,-0.14756 c 4.28506,17.70161 7.73216,29.18769 4.81816,49.19127 l -21.74728,3.66676 z"
       style="fill:#333333;fill-rule:evenodd;stroke:#000000;stroke-width:0.56418896px;stroke-linecap:butt;stroke-linejoin:miter;stroke-opacity:1" />
    <path
       sodipodi:nodetypes="ccccc"
       inkscape:connector-curvature="0"
       id="path3492"
       d="m -142.26773,456.40368 4.1423,11.26147 3.3533,0.32176 -1.97253,-12.87026 z"
       style="fill:#000000;fill-rule:evenodd;stroke:#000000;stroke-width:0.50385422px;stroke-linecap:butt;stroke-linejoin:miter;stroke-opacity:1" />
    <path
       style="fill:#000000;fill-rule:evenodd;stroke:#000000;stroke-width:0.53051221px;stroke-linecap:butt;stroke-linejoin:miter;stroke-opacity:1"
       d="m -135.21831,455.88188 1.17798,12.90164 6.28259,0 -1.96332,-14.33515 z"
       id="path3494"
       inkscape:connector-curvature="0" />
    <path
       sodipodi:nodetypes="ccccc"
       inkscape:connector-curvature="0"
       id="path3496"
       d="m -127.68164,456.00457 0.19386,11.17731 4.65055,0 -1.64716,-12.40789 z"
       style="fill:#000000;fill-rule:evenodd;stroke:#000000;stroke-width:0.48831683px;stroke-linecap:butt;stroke-linejoin:miter;stroke-opacity:1" />
    <path
       sodipodi:nodetypes="ccccc"
       style="fill:#000000;fill-rule:evenodd;stroke:#000000;stroke-width:0.56418896px;stroke-linecap:butt;stroke-linejoin:miter;stroke-opacity:1"
       d="m -137.54338,472.02786 -0.39066,14.66597 4.68804,0 -1.95335,-16.29553 z"
       id="path3498"
       inkscape:connector-curvature="0" />
    <path
       inkscape:connector-curvature="0"
       id="path3500"
       d="m -133.63667,472.84264 1.17201,14.66597 6.25073,0 -1.95335,-16.29554 z"
       style="fill:#000000;fill-rule:evenodd;stroke:#000000;stroke-width:0.56418896px;stroke-linecap:butt;stroke-linejoin:miter;stroke-opacity:1" />
    <path
       style="fill:#000000;fill-rule:evenodd;stroke:#000000;stroke-width:0.56418896px;stroke-linecap:butt;stroke-linejoin:miter;stroke-opacity:1"
       d="m -126.99527,471.21307 1.17201,14.66599 6.25073,0 -1.95335,-16.29554 z"
       id="path3502"
       inkscape:connector-curvature="0" />
    <path
       sodipodi:nodetypes="ccccc"
       inkscape:connector-curvature="0"
       id="path3504"
       d="m -137.73871,491.1751 -3.12537,13.44381 9.18077,-0.81478 -1.95336,-16.29552 z"
       style="fill:#000000;fill-rule:evenodd;stroke:#000000;stroke-width:0.56418896px;stroke-linecap:butt;stroke-linejoin:miter;stroke-opacity:1" />
    <path
       style="fill:#000000;fill-rule:evenodd;stroke:#000000;stroke-width:0.56418896px;stroke-linecap:butt;stroke-linejoin:miter;stroke-opacity:1"
       d="m -132.07399,489.95294 1.17201,14.66597 6.25073,0 -1.95335,-16.29552 z"
       id="path3506"
       inkscape:connector-curvature="0" />
    <path
       sodipodi:nodetypes="ccccc"
       inkscape:connector-curvature="0"
       id="path3508"
       d="m -125.43258,488.32339 1.17201,14.66597 2.53936,0.40739 1.75801,-16.70292 z"
       style="fill:#000000;fill-rule:evenodd;stroke:#000000;stroke-width:0.56418896px;stroke-linecap:butt;stroke-linejoin:miter;stroke-opacity:1" />
    <ellipse
       transform="matrix(0.97624518,-0.21666875,0.06423451,0.99793483,0,0)"
       ry="26.440363"
       rx="6.1819587"
       cy="443.10687"
       cx="-176.24826"
       id="ellipse3510"
       style="opacity:1;fill:#000000;fill-opacity:1;stroke:none;stroke-width:1;stroke-linecap:round;stroke-miterlimit:4;stroke-dasharray:none;stroke-opacity:1" />
    <ellipse
       style="opacity:1;fill:#808080;fill-opacity:1;stroke:none;stroke-width:1;stroke-linecap:round;stroke-miterlimit:4;stroke-dasharray:none;stroke-opacity:1"
       id="path3539"
       cx="-194.52448"
       cy="462.84061"
       rx="3"
       ry="8.75"
       transform="matrix(0.99417334,-0.10779316,0.10779316,0.99417334,0,0)" />
    <path
       style="fill:#000000;fill-rule:evenodd;stroke:#000000;stroke-width:1px;stroke-linecap:butt;stroke-linejoin:miter;stroke-opacity:1"
       d="m -204.75,479.8622 59.75,-0.75 c 1.59221,1.3026 3.07258,2.64247 0.75,5.25 l -60.25,1 z"
       id="path3552"
       inkscape:connector-curvature="0"
       sodipodi:nodetypes="ccccc" />
    <path
       inkscape:connector-curvature="0"
       id="path3556"
       d="m -200.25,449.3622 39,0 1.25,38.75 -40.25,-0.25 z"
       style="fill:#ffff00;fill-rule:evenodd;stroke:#000000;stroke-width:1px;stroke-linecap:butt;stroke-linejoin:miter;stroke-opacity:1" />
    <path
       style="fill:#ffff00;fill-rule:evenodd;stroke:#000000;stroke-width:1px;stroke-linecap:butt;stroke-linejoin:miter;stroke-opacity:1"
       d="m -193.5,451.1122 39,0 1.25,38.75 -40.25,-0.25 z"
       id="path3554"
       inkscape:connector-curvature="0" />
    <g
       id="g3419">
      <g
         id="g3362">
        <path
           sodipodi:nodetypes="ccccc"
           inkscape:connector-curvature="0"
           id="path3358"
           d="m -215.97517,382.38162 c 21.85156,-9.82382 38.70112,-5.9604 54.78433,0 11.70251,19.64781 16.76169,42.32536 10.95687,69.95753 -17.78158,2.87917 -36.06,2.77731 -54.78433,0 -8.48676,-23.31918 -11.21503,-46.63836 -10.95687,-69.95753 z"
           style="fill:#008000;fill-rule:evenodd;stroke:#000000;stroke-width:1.04643297px;stroke-linecap:butt;stroke-linejoin:miter;stroke-opacity:1" />
        <path
           inkscape:connector-curvature="0"
           id="path3354"
           d="m -141.85453,407.21067 -10.76653,0 0,20.30306 10.76653,0 z"
           style="fill:#00ff00;fill-rule:evenodd;stroke:#000000;stroke-width:0.60359132px;stroke-linecap:butt;stroke-linejoin:miter;stroke-opacity:1" />
        <path
           id="ellipse3356"
           style="opacity:1;fill:#008000;fill-opacity:1;stroke:none;stroke-width:2;stroke-linecap:round;stroke-miterlimit:4;stroke-dasharray:none;stroke-opacity:1"
           transform="scale(-1,1)"
           sodipodi:type="arc"
           sodipodi:cx="142.12988"
           sodipodi:cy="417.36221"
           sodipodi:rx="1.8701165"
           sodipodi:ry="10.10732"
           sodipodi:start="0"
           sodipodi:end="5.779301"
           sodipodi:open="true"
           d="m 144,417.36221 a 1.8701165,10.10732 0 0 1 -1.63516,10.02723 1.8701165,10.10732 0 0 1 -2.04603,-7.50762 1.8701165,10.10732 0 0 1 1.12103,-11.91372 1.8701165,10.10732 0 0 1 2.32773,4.51399" />
        <path
           style="fill:#008000;fill-rule:evenodd;stroke:#000000;stroke-width:1px;stroke-linecap:butt;stroke-linejoin:miter;stroke-opacity:1"
           d="m -210,382.3622 c 19.94326,-9.82978 35.32134,-5.96401 50,0 10.68052,19.65974 15.29788,42.35106 10,70 -16.66667,3.83178 -33.33333,4.63739 -50,0 -7.7456,-23.33333 -10.23561,-46.66667 -10,-70 z"
           id="path3338"
           inkscape:connector-curvature="0"
           sodipodi:nodetypes="ccccc" />
        <ellipse
           style="opacity:1;fill:#000000;fill-opacity:1;stroke:#000000;stroke-width:2;stroke-linecap:round;stroke-miterlimit:4;stroke-dasharray:none;stroke-opacity:1"
           id="path3340"
           cx="-187"
           cy="405.36221"
           rx="5"
           ry="10" />
        <ellipse
           ry="4.1666665"
           rx="2.0833333"
           cy="409.77887"
           cx="-185.5"
           id="ellipse3342"
           style="opacity:1;fill:#ffffff;fill-opacity:1;stroke:none;stroke-width:0.83333331;stroke-linecap:round;stroke-miterlimit:4;stroke-dasharray:none;stroke-opacity:1" />
        <ellipse
           ry="10"
           rx="5"
           cy="405.36221"
           cx="-169"
           id="ellipse3344"
           style="opacity:1;fill:#000000;fill-opacity:1;stroke:#000000;stroke-width:2;stroke-linecap:round;stroke-miterlimit:4;stroke-dasharray:none;stroke-opacity:1" />
        <ellipse
           style="opacity:1;fill:#ffffff;fill-opacity:1;stroke:none;stroke-width:0.83333331;stroke-linecap:round;stroke-miterlimit:4;stroke-dasharray:none;stroke-opacity:1"
           id="ellipse3346"
           cx="-167.5"
           cy="409.77887"
           rx="2.0833333"
           ry="4.1666665" />
        <path
           style="fill:#ffff00;fill-rule:evenodd;stroke:none;stroke-width:1px;stroke-linecap:butt;stroke-linejoin:miter;stroke-opacity:1"
           d="m -188,426.1622 5.6,0 0,5.6 16.8,0 0,-5.6 5.6,0 0,11.2 -28,0 z"
           id="path3348"
           inkscape:connector-curvature="0" />
        <path
           style="fill:#00ff00;fill-rule:evenodd;stroke:#000000;stroke-width:0.69200653px;stroke-linecap:butt;stroke-linejoin:miter;stroke-opacity:1"
           d="m -225.0277,407.25488 14.21365,0 c 0.57102,5.36992 2.88558,10.29151 0,20.21464 l -14.21365,0 z"
           id="path3352"
           inkscape:connector-curvature="0"
           sodipodi:nodetypes="ccccc" />
        <ellipse
           style="opacity:1;fill:#008000;fill-opacity:1;stroke:none;stroke-width:2;stroke-linecap:round;stroke-miterlimit:4;stroke-dasharray:none;stroke-opacity:1"
           id="path3350"
           cx="-224.55391"
           cy="417.36221"
           rx="2.3689415"
           ry="10.10732" />
        <path
           sodipodi:nodetypes="cc"
           style="fill:none;fill-rule:evenodd;stroke:#000000;stroke-width:1px;stroke-linecap:butt;stroke-linejoin:miter;stroke-opacity:1"
           d="m -210.36427,382.02498 -5.65685,0.58579"
           id="path3360"
           inkscape:connector-curvature="0" />
      </g>
      <g
         transform="matrix(0,1,-1,0,337.19018,557.64014)"
         id="g3394">
        <path
           style="fill:none;fill-rule:evenodd;stroke:#000000;stroke-width:1px;stroke-linecap:butt;stroke-linejoin:miter;stroke-opacity:1"
           d="m -142.48202,480.66637 1.41422,-22.62742 2.12132,22.62742 z"
           id="path3376"
           inkscape:connector-curvature="0"
           sodipodi:nodetypes="cccc" />
        <ellipse
           style="opacity:1;fill:#00ff00;fill-opacity:1;stroke:none;stroke-width:2;stroke-linecap:round;stroke-miterlimit:4;stroke-dasharray:none;stroke-opacity:1"
           id="path3378"
           cx="-140.9857"
           cy="471.49542"
           rx="6.3639612"
           ry="1.4142135" />
        <ellipse
           style="opacity:1;fill:#00ff00;fill-opacity:1;stroke:none;stroke-width:2;stroke-linecap:round;stroke-miterlimit:4;stroke-dasharray:none;stroke-opacity:1"
           id="path3380"
           cx="-141.06781"
           cy="463.16547"
           rx="3.8890872"
           ry="0.88388348" />
        <ellipse
           style="opacity:1;fill:#00ff00;fill-opacity:1;stroke:none;stroke-width:2;stroke-linecap:round;stroke-miterlimit:4;stroke-dasharray:none;stroke-opacity:1"
           id="path3382"
           cx="-141.03748"
           cy="478.09866"
           rx="6.8942909"
           ry="1.4249369" />
        <path
           sodipodi:nodetypes="cccc"
           inkscape:connector-curvature="0"
           id="path3388"
           d="m -141.75,468.8622 -0.25,2.25 c 1.12769,0.80241 1.57463,0.38185 2.375,-0.125 l -0.375,-2.25"
           style="fill:#ffffff;fill-rule:evenodd;stroke:#000000;stroke-width:1;stroke-linecap:butt;stroke-linejoin:miter;stroke-opacity:1" />
        <path
           style="fill:#ffffff;fill-rule:evenodd;stroke:#000000;stroke-width:0.75709391;stroke-linecap:butt;stroke-linejoin:miter;stroke-opacity:1"
           d="m -141.46373,460.00261 -0.19995,2.41884 c 0.60127,0.86262 1.03952,0.41051 1.46626,-0.13438 l -0.33325,-2.41884"
           id="path3390"
           inkscape:connector-curvature="0"
           sodipodi:nodetypes="cccc" />
        <path
           style="fill:#ffffff;fill-rule:evenodd;stroke:#000000;stroke-width:1.1034869;stroke-linecap:butt;stroke-linejoin:miter;stroke-opacity:1"
           d="m -142.07702,475.03628 -0.22242,2.17482 c 1.42064,0.7756 1.9561,0.36909 2.96439,-0.12082 l -0.28736,-2.17482"
           id="path3392"
           inkscape:connector-curvature="0"
           sodipodi:nodetypes="cccc" />
      </g>
      <g
         id="g3403"
         transform="matrix(0,1,1,0,-704.96847,558.14014)">
        <path
           sodipodi:nodetypes="cccc"
           inkscape:connector-curvature="0"
           id="path3405"
           d="m -142.48202,480.66637 1.41422,-22.62742 2.12132,22.62742 z"
           style="fill:none;fill-rule:evenodd;stroke:#000000;stroke-width:1px;stroke-linecap:butt;stroke-linejoin:miter;stroke-opacity:1" />
        <ellipse
           ry="1.4142135"
           rx="6.3639612"
           cy="471.49542"
           cx="-140.9857"
           id="ellipse3407"
           style="opacity:1;fill:#00ff00;fill-opacity:1;stroke:none;stroke-width:2;stroke-linecap:round;stroke-miterlimit:4;stroke-dasharray:none;stroke-opacity:1" />
        <ellipse
           ry="0.88388348"
           rx="3.8890872"
           cy="463.16547"
           cx="-141.06781"
           id="ellipse3409"
           style="opacity:1;fill:#00ff00;fill-opacity:1;stroke:none;stroke-width:2;stroke-linecap:round;stroke-miterlimit:4;stroke-dasharray:none;stroke-opacity:1" />
        <ellipse
           ry="1.4249369"
           rx="6.8942909"
           cy="478.09866"
           cx="-141.03748"
           id="ellipse3411"
           style="opacity:1;fill:#00ff00;fill-opacity:1;stroke:none;stroke-width:2;stroke-linecap:round;stroke-miterlimit:4;stroke-dasharray:none;stroke-opacity:1" />
        <path
           style="fill:#ffffff;fill-rule:evenodd;stroke:#000000;stroke-width:1;stroke-linecap:butt;stroke-linejoin:miter;stroke-opacity:1"
           d="m -141.75,468.8622 -0.25,2.25 c 1.12769,0.80241 1.57463,0.38185 2.375,-0.125 l -0.375,-2.25"
           id="path3413"
           inkscape:connector-curvature="0"
           sodipodi:nodetypes="cccc" />
        <path
           sodipodi:nodetypes="cccc"
           inkscape:connector-curvature="0"
           id="path3415"
           d="m -141.46373,460.00261 -0.19995,2.41884 c 0.60127,0.86262 1.03952,0.41051 1.46626,-0.13438 l -0.33325,-2.41884"
           style="fill:#ffffff;fill-rule:evenodd;stroke:#000000;stroke-width:0.75709391;stroke-linecap:butt;stroke-linejoin:miter;stroke-opacity:1" />
        <path
           sodipodi:nodetypes="cccc"
           inkscape:connector-curvature="0"
           id="path3417"
           d="m -142.07702,475.03628 -0.22242,2.17482 c 1.42064,0.7756 1.9561,0.36909 2.96439,-0.12082 l -0.28736,-2.17482"
           style="fill:#ffffff;fill-rule:evenodd;stroke:#000000;stroke-width:1.1034869;stroke-linecap:butt;stroke-linejoin:miter;stroke-opacity:1" />
      </g>
    </g>
    <path
       style="fill:#ffff00;fill-rule:evenodd;stroke:#000000;stroke-width:0.97600287px;stroke-linecap:butt;stroke-linejoin:miter;stroke-opacity:1"
       d="m -193.74019,489.63277 0.75357,-35.78118 -6.775,-1 -0.50179,34.6455 z"
       id="path3558"
       inkscape:connector-curvature="0"
       sodipodi:nodetypes="ccccc" />
    <path
       style="fill:#000000;fill-rule:evenodd;stroke:#000000;stroke-width:1px;stroke-linecap:butt;stroke-linejoin:miter;stroke-opacity:1"
       d="m -204,480.1122 7,0 c 1.64024,1.6294 2.09435,3.4565 -0.25,5.75 l -6.75,0.5 z"
       id="path3560"
       inkscape:connector-curvature="0"
       sodipodi:nodetypes="ccccc" />
    <g
       id="g3474"
       transform="matrix(0.42543772,0,0,0.79993053,-70.874466,83.004763)">
      <path
         sodipodi:nodetypes="ccccc"
         inkscape:connector-curvature="0"
         id="path3470"
         d="m -374,466.3622 55.5,-3.62337 c 10.96846,21.72573 17.45897,42.07237 10,66.62337 l -54.5,2 z"
         style="fill:#333333;fill-rule:evenodd;stroke:#000000;stroke-width:1px;stroke-linecap:butt;stroke-linejoin:miter;stroke-opacity:1" />
      <path
         sodipodi:nodetypes="ccccc"
         inkscape:connector-curvature="0"
         id="path3450"
         d="m -364,465.3622 10.5,17.5 8.5,0.5 -5,-18.43615 z"
         style="fill:#000000;fill-rule:evenodd;stroke:#000000;stroke-width:1px;stroke-linecap:butt;stroke-linejoin:miter;stroke-opacity:1" />
      <path
         style="fill:#000000;fill-rule:evenodd;stroke:#000000;stroke-width:1px;stroke-linecap:butt;stroke-linejoin:miter;stroke-opacity:1"
         d="m -346,466.3622 3,18 16,0 -5,-20 z"
         id="path3452"
         inkscape:connector-curvature="0" />
      <path
         sodipodi:nodetypes="ccccc"
         inkscape:connector-curvature="0"
         id="path3454"
         d="m -329,464.3622 3,18 16,0 -8,-18.56169 z"
         style="fill:#000000;fill-rule:evenodd;stroke:#000000;stroke-width:1px;stroke-linecap:butt;stroke-linejoin:miter;stroke-opacity:1" />
      <path
         sodipodi:nodetypes="ccccc"
         style="fill:#000000;fill-rule:evenodd;stroke:#000000;stroke-width:1px;stroke-linecap:butt;stroke-linejoin:miter;stroke-opacity:1"
         d="m -352,488.3622 -1,18 12,0 -5,-20 z"
         id="path3456"
         inkscape:connector-curvature="0" />
      <path
         inkscape:connector-curvature="0"
         id="path3458"
         d="m -342,489.3622 3,18 16,0 -5,-20 z"
         style="fill:#000000;fill-rule:evenodd;stroke:#000000;stroke-width:1px;stroke-linecap:butt;stroke-linejoin:miter;stroke-opacity:1" />
      <path
         style="fill:#000000;fill-rule:evenodd;stroke:#000000;stroke-width:1px;stroke-linecap:butt;stroke-linejoin:miter;stroke-opacity:1"
         d="m -325,487.3622 3,18 16,0 -5,-20 z"
         id="path3460"
         inkscape:connector-curvature="0" />
      <path
         sodipodi:nodetypes="ccccc"
         inkscape:connector-curvature="0"
         id="path3462"
         d="m -352.5,511.8622 -8,16.5 23.5,-1 -5,-20 z"
         style="fill:#000000;fill-rule:evenodd;stroke:#000000;stroke-width:1px;stroke-linecap:butt;stroke-linejoin:miter;stroke-opacity:1" />
      <path
         style="fill:#000000;fill-rule:evenodd;stroke:#000000;stroke-width:1px;stroke-linecap:butt;stroke-linejoin:miter;stroke-opacity:1"
         d="m -338,510.3622 3,18 16,0 -5,-20 z"
         id="path3464"
         inkscape:connector-curvature="0" />
      <path
         sodipodi:nodetypes="ccccc"
         inkscape:connector-curvature="0"
         id="path3466"
         d="m -321,508.3622 3,18 6.5,0.5 4.5,-20.5 z"
         style="fill:#000000;fill-rule:evenodd;stroke:#000000;stroke-width:1px;stroke-linecap:butt;stroke-linejoin:miter;stroke-opacity:1" />
      <ellipse
         transform="matrix(0.99438539,-0.1058192,0.13305016,0.9911093,0,0)"
         ry="32.674553"
         rx="15.535295"
         cy="457.09607"
         cx="-430.73511"
         id="path3468"
         style="opacity:1;fill:#000000;fill-opacity:1;stroke:none;stroke-width:1;stroke-linecap:round;stroke-miterlimit:4;stroke-dasharray:none;stroke-opacity:1" />
      <ellipse
         style="opacity:1;fill:#808080;fill-opacity:1;stroke:none;stroke-width:1;stroke-linecap:round;stroke-miterlimit:4;stroke-dasharray:none;stroke-opacity:1"
         id="ellipse3472"
         cx="-433.04684"
         cy="457.46249"
         rx="10.453063"
         ry="21.985367"
         transform="matrix(0.99438539,-0.1058192,0.13305016,0.99110931,0,0)" />
    </g>
    <g
       id="g3573"
       style="fill:#ff0000;stroke:none"
       transform="matrix(0.42468914,0,0,0.42468914,-48.69121,286.6532)">
      <path
         id="path3562"
         d="m -293.75,415.36133 a 15.25,15.25 0 0 0 -15.25,15.25 15.25,15.25 0 0 0 15.25,15.25 15.25,15.25 0 0 0 15.25,-15.25 15.25,15.25 0 0 0 -15.25,-15.25 z m 0,6.75 a 8.5,8.5 0 0 1 8.5,8.5 8.5,8.5 0 0 1 -8.5,8.5 8.5,8.5 0 0 1 -8.5,-8.5 8.5,8.5 0 0 1 8.5,-8.5 z"
         style="opacity:1;fill:#ff0000;fill-opacity:1;stroke:none;stroke-width:1;stroke-linecap:round;stroke-miterlimit:4;stroke-dasharray:none;stroke-opacity:1"
         inkscape:connector-curvature="0" />
      <path
         inkscape:connector-curvature="0"
         id="path3569"
         d="m -272.25151,415.3588 c 0,0 0.99995,7.00922 0,6.25824 -0.99993,-0.75098 -43.99701,0.50066 -43.99701,0.50066 l 0.24998,-6.7589 z"
         style="fill:#ff0000;fill-rule:evenodd;stroke:none;stroke-width:1.0006249px;stroke-linecap:butt;stroke-linejoin:miter;stroke-opacity:1" />
      <path
         style="fill:#ff0000;fill-rule:evenodd;stroke:none;stroke-width:1.00000143px;stroke-linecap:butt;stroke-linejoin:miter;stroke-opacity:1"
         d="m -271.50001,439.36219 c 0,0 1.00001,7.00002 0,6.25003 -0.99999,-0.75001 -43.99999,0.5 -43.99999,0.5 l 0.25,-6.75003 z"
         id="path3571"
         inkscape:connector-curvature="0" />
    </g>
  </g>
</svg>
