<?xml version="1.0" encoding="UTF-8" standalone="no"?>
<!-- Created with Inkscape (http://www.inkscape.org/) -->

<svg
   xmlns:dc="http://purl.org/dc/elements/1.1/"
   xmlns:cc="http://creativecommons.org/ns#"
   xmlns:rdf="http://www.w3.org/1999/02/22-rdf-syntax-ns#"
   xmlns:svg="http://www.w3.org/2000/svg"
   xmlns="http://www.w3.org/2000/svg"
   xmlns:sodipodi="http://sodipodi.sourceforge.net/DTD/sodipodi-0.dtd"
   xmlns:inkscape="http://www.inkscape.org/namespaces/inkscape"
   width="52.649487mm"
   height="88.464745mm"
   viewBox="0 0 52.649487 88.464745"
   version="1.1"
   id="svg4291"
   inkscape:version="0.91+devel r"
   sodipodi:docname="beet.svg">
  <title
     id="title5049">Beet Root (Vegetable)</title>
  <defs
     id="defs4285" />
  <sodipodi:namedview
     id="base"
     pagecolor="#ffffff"
     bordercolor="#666666"
     borderopacity="1.0"
     inkscape:pageopacity="0.0"
     inkscape:pageshadow="2"
     inkscape:zoom="1"
     inkscape:cx="99.351049"
     inkscape:cy="232.49793"
     inkscape:document-units="mm"
     inkscape:current-layer="layer1"
     showgrid="false"
     inkscape:snap-global="false"
     fit-margin-top="0"
     fit-margin-left="0"
     fit-margin-right="0"
     fit-margin-bottom="0"
     inkscape:window-width="1855"
     inkscape:window-height="1056"
     inkscape:window-x="65"
     inkscape:window-y="24"
     inkscape:window-maximized="1" />
  <metadata
     id="metadata4288">
    <rdf:RDF>
      <cc:Work
         rdf:about="">
        <dc:format>image/svg+xml</dc:format>
        <dc:type
           rdf:resource="http://purl.org/dc/dcmitype/StillImage" />
        <dc:title>Beet Root (Vegetable)</dc:title>
        <cc:license
           rdf:resource="http://creativecommons.org/publicdomain/zero/1.0/" />
        <dc:date>2015-10-12</dc:date>
        <dc:creator>
          <cc:Agent>
            <dc:title>Devonique Scolley &amp; Martin Owens</dc:title>
          </cc:Agent>
        </dc:creator>
        <dc:rights>
          <cc:Agent>
            <dc:title>None Retained</dc:title>
          </cc:Agent>
        </dc:rights>
        <dc:publisher>
          <cc:Agent>
            <dc:title>OpenClipart.org</dc:title>
          </cc:Agent>
        </dc:publisher>
        <dc:source>https://openclipart.org/detail/229772/vector-vegetables</dc:source>
        <dc:subject>
          <rdf:Bag>
            <rdf:li>beet</rdf:li>
            <rdf:li>vegetable</rdf:li>
            <rdf:li>root</rdf:li>
            <rdf:li>red</rdf:li>
            <rdf:li>beat</rdf:li>
            <rdf:li>greens</rdf:li>
            <rdf:li>hearty</rdf:li>
            <rdf:li>soup</rdf:li>
            <rdf:li>ingrediant</rdf:li>
            <rdf:li>salad</rdf:li>
          </rdf:Bag>
        </dc:subject>
        <dc:description>A modified beet from Devonique</dc:description>
      </cc:Work>
      <cc:License
         rdf:about="http://creativecommons.org/publicdomain/zero/1.0/">
        <cc:permits
           rdf:resource="http://creativecommons.org/ns#Reproduction" />
        <cc:permits
           rdf:resource="http://creativecommons.org/ns#Distribution" />
        <cc:permits
           rdf:resource="http://creativecommons.org/ns#DerivativeWorks" />
      </cc:License>
    </rdf:RDF>
  </metadata>
  <g
     inkscape:label="Layer 1"
     inkscape:groupmode="layer"
     id="layer1"
     transform="translate(-57.586285,-93.261656)">
    <path
       style="opacity:1;fill:#aa0000;stroke:none;stroke-width:1.007406"
       d="m 288.26562,488.12305 a 70.72554,68.181453 22.173362 0 0 -65.74609,41.82812 70.72554,68.181453 22.173362 0 0 16.41016,74.56055 c 2.78638,5.36522 15.70332,30.81934 13.18359,37.00195 -2.81875,6.91635 -8.54012,9.96202 -11.2168,18.72852 -2.67665,8.7665 -2.39252,12.46567 -3.8164,18.1582 -1.4239,5.69257 -1.59571,8.3125 -1.5957,8.3125 0,0 5.46703,-11.21363 6.91992,-21.375 1.4529,-10.16137 5.77973,-11.98243 9.82226,-17.50391 4.04252,-5.52143 5.25136,-7.9407 8.52539,-13.77539 3.27405,-5.83464 29.1211,-8.73828 29.1211,-8.73828 0.001,-0.0654 -0.008,-0.13272 -0.0117,-0.19922 a 70.72554,68.181453 22.173362 0 0 63.64844,-41.78515 70.72554,68.181453 22.173362 0 0 -39.76172,-89.83203 70.72554,68.181453 22.173362 0 0 -25.48243,-5.38086 z"
       transform="scale(0.26458333)"
       id="path4340"
       inkscape:connector-curvature="0" />
    <path
       sodipodi:nodetypes="cssscsssscc"
       inkscape:connector-curvature="0"
       id="path4345"
       d="m 64.248499,133.23548 c 0,0 3.408391,3.23942 6.650458,4.86911 3.242067,1.62969 11.219485,4.50583 13.75201,5.60463 4.77724,2.07273 10.616473,0.75056 9.875301,0.32189 -0.219292,-0.12684 0.675029,4.90799 0.131659,4.88721 0,0 -2.334241,-2.59606 -3.463946,-2.85088 -1.129699,-0.25482 -5.191435,-0.88222 -7.463809,-2.11671 -2.272374,-1.23449 -7.102845,-3.15541 -10.260086,-4.23655 -3.157242,-1.08114 -7.630406,-4.41602 -8.84826,-4.70676 -1.217856,-0.29075 -2.561215,0.31747 -2.561215,0.31747 z"
       style="fill:#800000;fill-rule:evenodd;stroke:none;stroke-width:0.26458332px;stroke-linecap:butt;stroke-linejoin:miter;stroke-opacity:1" />
    <path
       sodipodi:nodetypes="cccc"
       inkscape:connector-curvature="0"
       id="path4347"
       d="m 59.348452,139.20515 c 2.331617,3.38219 5.387601,4.92768 9.926269,7.35105 -6.705514,-1.99493 -8.617457,-3.8313 -10.819541,-5.2223 z"
       style="fill:#800000;fill-rule:evenodd;stroke:none;stroke-width:0.26458332px;stroke-linecap:butt;stroke-linejoin:miter;stroke-opacity:1" />
    <path
       sodipodi:nodetypes="cccc"
       inkscape:connector-curvature="0"
       id="path4349"
       d="m 92.843227,155.86403 c -2.532756,1.19173 -5.989061,0.0958 -8.902179,-0.82818 3.844994,2.16695 5.126252,2.2431 8.20583,2.03234 z"
       style="fill:#800000;fill-rule:evenodd;stroke:none;stroke-width:0.26458332px;stroke-linecap:butt;stroke-linejoin:miter;stroke-opacity:1" />
    <path
       sodipodi:nodetypes="cscsc"
       inkscape:connector-curvature="0"
       id="path4351"
       d="m 72.037089,144.12656 c 0.933029,0.52563 4.454792,2.25168 6.303886,2.93259 1.849093,0.68091 4.618484,1.30076 4.618484,1.30076 0,0 -3.654393,-0.50806 -5.74063,-1.431 -2.086237,-0.92293 -5.18174,-2.80235 -5.18174,-2.80235 z"
       style="fill:#800000;fill-rule:evenodd;stroke:none;stroke-width:0.26458332px;stroke-linecap:butt;stroke-linejoin:miter;stroke-opacity:1" />
    <path
       style="fill:#800000;fill-rule:evenodd;stroke:none;stroke-width:0.26458332px;stroke-linecap:butt;stroke-linejoin:miter;stroke-opacity:1"
       d="m 74.830364,155.45458 c 0.957204,0.4802 4.557824,2.03506 6.437453,2.62647 1.879666,0.59128 4.67564,1.07737 4.67564,1.07737 0,0 -3.674584,-0.33191 -5.802749,-1.15355 -2.128168,-0.82165 -5.310386,-2.55018 -5.310386,-2.55018 z"
       id="path4353"
       inkscape:connector-curvature="0"
       sodipodi:nodetypes="cscsc" />
    <path
       sodipodi:nodetypes="cscsc"
       inkscape:connector-curvature="0"
       id="path4355"
       d="m 61.479007,136.26111 c 0.725354,0.55957 3.496419,2.41695 4.980346,3.16964 1.483933,0.75268 3.757849,1.48506 3.757849,1.48506 0,0 -3.04045,-0.66042 -4.694789,-1.6624 -1.654338,-1.00198 -4.043406,-2.9923 -4.043406,-2.9923 z"
       style="fill:#800000;fill-rule:evenodd;stroke:none;stroke-width:0.26458332px;stroke-linecap:butt;stroke-linejoin:miter;stroke-opacity:1" />
    <path
       style="fill:#800000;fill-rule:evenodd;stroke:none;stroke-width:0.26458332px;stroke-linecap:butt;stroke-linejoin:miter;stroke-opacity:1"
       d="m 60.40823,151.01645 c 0.725354,0.55957 3.49642,2.41696 4.980347,3.16965 1.483932,0.75268 3.757847,1.48505 3.757847,1.48505 0,0 -3.04045,-0.66041 -4.694788,-1.66239 -1.654339,-1.00198 -4.043406,-2.99231 -4.043406,-2.99231 z"
       id="path4357"
       inkscape:connector-curvature="0"
       sodipodi:nodetypes="cscsc" />
    <path
       sodipodi:nodetypes="ccccscscc"
       inkscape:connector-curvature="0"
       id="path4359"
       d="m 63.400619,175.99662 c -0.05818,-0.004 -0.219127,1.01186 -0.261429,1.26485 -0.145126,0.97949 -0.26993,1.74357 -0.513469,2.74016 -0.158326,0.613 -0.324974,1.72477 -0.324974,1.72477 0,0 0.197555,-0.52005 0.336818,-0.82645 0.121625,-0.26757 0.33218,-0.75553 0.541237,-1.34109 0.259887,-0.50772 0.598225,-1.89792 0.72025,-2.36631 0.05696,-0.21863 0.298719,-1.42492 0.274859,-1.49416 -0.271654,0.29204 -0.407525,0.36297 -0.773285,0.29824 z"
       style="fill:#d35f5f;fill-rule:evenodd;stroke:none;stroke-width:0.26458332px;stroke-linecap:butt;stroke-linejoin:miter;stroke-opacity:1" />
    <path
       sodipodi:nodetypes="cssscscssscccsscsssssssssssssssscscsscsscssscc"
       inkscape:connector-curvature="0"
       id="path4361"
       d="m 73.609455,134.48063 c 0.244832,0.40817 2.442025,2.3316 4.293256,3.08607 1.851231,0.75447 3.304278,0.2159 4.326197,0.73518 1.021919,0.51928 4.472895,2.6453 5.181455,2.42009 0.708559,-0.2252 1.041545,0.21889 1.041545,0.21889 0,0 -1.368219,1.08712 -2.625328,1.39715 -1.257112,0.31004 -2.213833,0.6397 -2.213833,0.6397 0,0 -0.431125,1.05785 0.927109,1.5086 1.358238,0.45075 2.736103,0.60111 1.991616,0.91448 -0.74449,0.31336 -2.87981,-0.24851 -4.048765,0.0975 -1.168956,0.34596 -2.194203,0.3393 -2.194203,0.3393 l 0.858583,1.17229 -1.753433,0.51894 c 0,0 -0.404844,-0.2678 1.142672,0.97967 1.547516,1.24747 1.384178,1.90047 0.675619,2.12568 -0.70856,0.2252 -1.66528,0.55486 -1.66528,0.55486 0,0 5.707388,0.37293 5.419971,1.07816 -0.287416,0.70523 -2.35754,0.99231 -3.435014,0.86157 -1.077473,-0.13073 -1.312666,0.69858 -1.812319,1.42011 -0.49965,0.72153 -1.22451,0.7345 -1.93307,0.95971 -0.708559,0.2252 -1.044871,0.29373 -1.776388,1.33195 -0.731512,1.03822 -1.120056,0.98266 -1.828615,1.20787 -0.708562,0.22521 -1.067832,1.10675 -1.299694,1.42344 -0.231863,0.31668 -2.671581,5.79853 -3.905736,5.29554 -1.234154,-0.50297 0.320358,-3.05611 0.170334,-4.4536 -0.150025,-1.39749 -1.015266,-1.54453 -2.102384,-2.91275 -1.087118,-1.36822 -0.894509,-1.08413 -0.205578,-1.00895 0.688932,0.0752 1.606398,0.3463 0.218889,-1.04154 -1.387505,-1.38785 -1.384179,-1.90047 -0.290404,-1.5575 1.093774,0.34297 4.365452,0.1344 3.275006,-0.72119 -1.090446,-0.8556 -2.474625,-2.75607 -1.557159,-2.48495 0.917467,0.27112 3.793945,1.03224 2.177904,-0.55154 -1.616041,-1.58378 -1.681239,-2.43272 -1.681239,-2.43272 0,0 2.892779,0.97336 2.171246,0.47371 -0.721529,-0.49966 -3.418033,-4.47691 -3.418033,-4.47691 0,0 -0.176308,-0.0719 0.865238,0.14704 1.041547,0.21889 1.453047,-0.53856 1.978642,0.18962 0.525595,0.72819 2.967963,0.28443 2.967963,0.28443 0,0 -2.027541,-0.82633 -2.553136,-1.55451 -0.525598,-0.72819 -0.0489,-0.63671 1.0808,-0.38189 1.129703,0.25482 2.566449,-0.49598 2.566449,-0.49598 0,0 -1.354908,-0.96338 -1.563815,-1.4597 -0.208907,-0.49633 2.510893,-0.10745 0.963377,-1.35491 -1.547516,-1.24747 -1.345263,0.27411 -1.808649,-1.86787 -0.463386,-2.14198 -0.597112,-3.32723 -0.597112,-3.32723 z"
       style="opacity:0.48800001;fill:#d35f5f;fill-rule:evenodd;stroke:none;stroke-width:0.26458332px;stroke-linecap:butt;stroke-linejoin:miter;stroke-opacity:1" />
    <path
       inkscape:connector-curvature="0"
       id="path4363"
       d="m 80.072355,129.67311 -1.14187,-24.53752 2.002091,0.26359 0.738609,24.91894 z"
       style="fill:#800000;fill-rule:evenodd;stroke:none;stroke-width:0.26458332px;stroke-linecap:butt;stroke-linejoin:miter;stroke-opacity:1" />
    <path
       style="fill:#800000;fill-rule:evenodd;stroke:none;stroke-width:0.26458332px;stroke-linecap:butt;stroke-linejoin:miter;stroke-opacity:1"
       d="m 85.102405,131.93034 18.318235,-16.3657 -1.59004,-1.24484 -18.308187,16.92068 z"
       id="path4365"
       inkscape:connector-curvature="0" />
    <path
       inkscape:connector-curvature="0"
       id="path4367"
       d="M 84.714536,131.19402 100.65715,112.50641 98.9137,111.48748 83.055911,130.72363 Z"
       style="fill:#800000;fill-rule:evenodd;stroke:none;stroke-width:0.26458332px;stroke-linecap:butt;stroke-linejoin:miter;stroke-opacity:1" />
    <path
       style="fill:#800000;fill-rule:evenodd;stroke:none;stroke-width:0.26458332px;stroke-linecap:butt;stroke-linejoin:miter;stroke-opacity:1"
       d="m 81.194863,130.11936 1.661684,-24.50781 1.959015,0.49001 -2.105782,24.8408 z"
       id="path4369"
       inkscape:connector-curvature="0" />
    <path
       style="fill:#800000;fill-rule:evenodd;stroke:none;stroke-width:0.26458332px;stroke-linecap:butt;stroke-linejoin:miter;stroke-opacity:1"
       d="m 84.022624,131.05732 11.45866,-21.7277 -1.924397,-0.61199 -11.255658,22.24431 z"
       id="path4371"
       inkscape:connector-curvature="0" />
    <path
       inkscape:connector-curvature="0"
       id="path4373"
       d="m 83.579227,130.4729 7.882314,-23.26506 -1.996914,-0.3003 -7.600244,23.74312 z"
       style="fill:#800000;fill-rule:evenodd;stroke:none;stroke-width:0.26458332px;stroke-linecap:butt;stroke-linejoin:miter;stroke-opacity:1" />
    <path
       style="fill:#005500;fill-rule:evenodd;stroke:none;stroke-width:0.26458332px;stroke-linecap:butt;stroke-linejoin:miter;stroke-opacity:1"
       d="m 77.757812,96.088076 c 1.017378,-0.55829 2.398929,-0.796671 2.958822,-0.37868 0.55993,0.418023 -0.609782,1.556181 -0.609782,1.556181 0,0 1.209108,-0.660577 1.886413,-0.336306 0.677306,0.324268 1.488032,1.356386 0.52543,1.667372 -0.962702,0.310989 -1.827744,0.289383 -1.827744,0.289383 0,0 3.178315,0.158692 2.673837,1.019868 -0.504468,0.861186 -1.909326,1.423626 -2.570951,1.137736 -0.661612,-0.28587 0.109731,0.26866 0.109731,0.26866 0,0 1.789133,0.75952 1.143579,1.27528 -0.645557,0.51576 -2.301261,0.4641 -2.301261,0.4641 0,0 3.300095,1.02858 2.333781,1.90243 -0.966343,0.87384 -2.038771,0.91616 -2.56332,0.77529 -1.085967,1.2058 -2.80038,0.72276 -1.178129,-0.0259 0,0 -2.469674,0.2423 -2.438699,-0.44417 0.03094,-0.68649 0.754896,-1.01034 0.754896,-1.01034 0,0 -2.187858,0.16996 -1.800789,-0.59748 0.387109,-0.76741 1.09537,-1.12965 1.09537,-1.12965 0,0 -3.103952,-0.16718 -2.059234,-0.84914 1.044697,-0.68193 1.788324,-0.767 1.788324,-0.767 0,0 -2.818534,-0.80244 -1.781474,-1.121945 1.037074,-0.31949 1.67902,-0.27237 1.67902,-0.27237 0,0 -2.199934,-0.431311 -1.288283,-1.057849 0.911672,-0.626539 1.698305,-0.796878 1.698305,-0.796878 0,0 -1.929815,-0.341675 -1.166897,-0.951208 0.762939,-0.609529 1.393211,-0.400413 1.393211,-0.400413 0,0 -1.907881,-1.400011 -0.0048,-1.726917 2.128189,-0.36562 1.550728,1.509898 1.550728,1.509898 z"
       id="path4375"
       inkscape:connector-curvature="0"
       sodipodi:nodetypes="cscsccsccscsccscccscccscccscc" />
    <path
       style="fill:#005500;fill-rule:evenodd;stroke:none;stroke-width:0.26458332px;stroke-linecap:butt;stroke-linejoin:miter;stroke-opacity:1"
       d="m 92.889762,98.960316 c 1.153784,-0.124603 2.520897,0.186055 2.877245,0.787064 0.356373,0.60105 -1.160822,1.20251 -1.160822,1.20251 0,0 1.370097,-0.14539 1.870853,0.41419 0.500761,0.55959 0.852768,1.82396 -0.155437,1.74128 -1.008301,-0.0827 -1.798659,-0.43498 -1.798659,-0.43498 0,0 2.873452,1.36752 2.076852,1.96881 -0.796597,0.6013 -2.30972,0.58087 -2.810745,0.0628 -0.501018,-0.51811 -0.0019,0.29019 -0.0019,0.29019 0,0 1.360061,1.38856 0.565906,1.61674 -0.794155,0.22818 -2.30296,-0.45557 -2.30296,-0.45557 0,0 2.651708,2.21744 1.423842,2.653 -1.227888,0.43554 -2.234276,0.0626 -2.664462,-0.26895 -1.465858,0.69608 -2.863146,-0.40852 -1.077778,-0.47649 0,0 -2.373241,-0.72508 -2.080927,-1.34696 0.292302,-0.62192 1.08511,-0.64281 1.08511,-0.64281 0,0 -2.085266,-0.68358 -1.433068,-1.24343 0.652216,-0.55981 1.445286,-0.62216 1.445286,-0.62216 0,0 -2.801538,-1.34679 -1.575009,-1.57506 1.226503,-0.22826 1.945749,-0.0211 1.945749,-0.0211 0,0 -2.29398,-1.82365 -1.213753,-1.72024 1.080231,0.10344 1.65481,0.39356 1.65481,0.39356 0,0 -1.865421,-1.24335 -0.783029,-1.471587 1.082408,-0.228227 1.874113,-0.0833 1.874113,-0.0833 0,0 -1.650468,-1.056825 -0.711928,-1.326499 0.938551,-0.269658 1.440125,0.165539 1.440125,0.165539 0,0 -1.223637,-2.025526 0.659008,-1.596237 2.10534,0.480015 0.851678,1.989773 0.851678,1.989773 z"
       id="path4377"
       inkscape:connector-curvature="0"
       sodipodi:nodetypes="cscsccsccscsccscccscccscccscc" />
    <path
       sodipodi:nodetypes="cscsccsccscsccscccscccscccscc"
       inkscape:connector-curvature="0"
       id="path4379"
       d="m 101.40861,103.74056 c 1.15379,-0.12461 2.5209,0.18605 2.87725,0.78706 0.35637,0.60105 -1.16082,1.2025 -1.16082,1.2025 0,0 1.37009,-0.14538 1.87085,0.4142 0.50076,0.55958 0.85277,1.82396 -0.15544,1.74128 -1.0083,-0.0827 -1.79866,-0.43498 -1.79866,-0.43498 0,0 2.87345,1.36751 2.07685,1.9688 -0.79659,0.60131 -2.30972,0.58088 -2.81074,0.0628 -0.50102,-0.5181 -0.002,0.2902 -0.002,0.2902 0,0 1.36006,1.38856 0.56591,1.61674 -0.79416,0.22818 -2.30296,-0.45557 -2.30296,-0.45557 0,0 2.6517,2.21744 1.42384,2.65299 -1.22789,0.43555 -2.234281,0.0626 -2.664465,-0.26894 -1.46586,0.69608 -2.863149,-0.40852 -1.07778,-0.4765 0,0 -2.373241,-0.72507 -2.080924,-1.34695 0.292298,-0.62193 1.085109,-0.64281 1.085109,-0.64281 0,0 -2.085266,-0.68358 -1.433068,-1.24343 0.652214,-0.55981 1.445284,-0.62216 1.445284,-0.62216 0,0 -2.801535,-1.34679 -1.575009,-1.57506 1.226505,-0.22827 1.945751,-0.0211 1.945751,-0.0211 0,0 -2.293977,-1.82366 -1.213752,-1.72024 1.08023,0.10343 1.65481,0.39355 1.65481,0.39355 0,0 -1.865421,-1.24335 -0.783032,-1.47158 1.08241,-0.22823 1.874115,-0.0833 1.874115,-0.0833 0,0 -1.650468,-1.05683 -0.711927,-1.3265 0.938551,-0.26966 1.440121,0.16554 1.440121,0.16554 0,0 -1.223634,-2.02553 0.659007,-1.59624 2.10534,0.48002 0.85168,1.98977 0.85168,1.98977 z"
       style="fill:#005500;fill-rule:evenodd;stroke:none;stroke-width:0.26458332px;stroke-linecap:butt;stroke-linejoin:miter;stroke-opacity:1" />
    <path
       style="color:#000000;clip-rule:nonzero;display:inline;overflow:visible;visibility:visible;opacity:0.13300003;isolation:auto;mix-blend-mode:normal;color-interpolation:sRGB;color-interpolation-filters:linearRGB;solid-color:#000000;solid-opacity:1;fill:#000000;fill-opacity:1;fill-rule:nonzero;stroke:none;stroke-width:0.99999994px;stroke-linecap:butt;stroke-linejoin:miter;stroke-miterlimit:4;stroke-dasharray:none;stroke-dashoffset:0;stroke-opacity:1;marker:none;color-rendering:auto;image-rendering:auto;shape-rendering:auto;text-rendering:auto;enable-background:accumulate"
       d="m 378.99609,392.23242 c -1.61168,0.5946 -6.43713,0.40495 -3.48632,3.04688 2.12097,0.54085 3.6631,1.57447 3.64257,3.97851 0.80818,0.69884 1.77921,2.15761 -0.15039,1.49805 -1.74262,0.1886 -2.72254,-0.46862 -3.70898,-1.89063 -3.04025,0.23622 -0.9252,3.61472 -1.21094,4.88672 -2.65985,0.96397 0.17189,3.28426 -0.0781,4.25586 -2.86628,0.77197 -2.60778,-2.88026 -5.4336,-2.66211 -0.0996,-0.038 -0.20035,-0.0628 -0.30078,-0.0898 0.3032,0.24993 0.75391,0.62695 0.75391,0.62695 0,0 -1.09772,-0.31326 -3.07617,-0.32422 -1.02216,0.62595 -1.42153,1.8711 -0.0957,3.11524 0.80645,0.57418 0.72349,1.61006 0.4961,2.58789 0.64904,0.33734 1.27539,0.65234 1.27539,0.65234 0,0 -0.62819,0.0603 -1.52735,0.3086 -0.14529,0.52913 -0.25544,0.99328 -0.15039,1.22265 -0.63295,-0.22662 -1.46303,-0.30602 -2.2539,-0.22851 -0.51325,0.28782 -1.03236,0.62061 -1.53125,1.04882 -2.465,2.11597 5.41601,4.70118 5.41601,4.70118 0,0 -2.99681,0.0771 -4.10156,2.42773 -1.10482,2.35041 7.86523,5.0918 7.86523,5.0918 -6.74785,0.25693 -1.46604,4.43163 4.07422,1.80078 0.65403,0.50405 1.67377,1.02352 2.94532,1.36914 0.49983,0.034 0.9956,0.1313 1.49023,0.28516 0.56605,0.0718 1.16512,0.10143 1.79687,0.082 1.15822,-0.31483 1.99488,-1.32228 2.54688,-2.20117 0.68209,-0.0326 1.60637,0.0108 2.51562,-0.0391 0.0191,-1.73559 -2.24299,-4.3324 -4.13086,-6.20898 -1.32376,0.15521 -2.58653,0.29841 -2.73242,-0.70703 0.56508,-0.11498 1.10418,-0.22822 1.65235,-0.3418 -0.77995,-0.7228 -1.39453,-1.24805 -1.39453,-1.24805 0,0 1.13258,0.50212 2.63086,0.99024 0.89938,-0.1986 1.77998,-0.41209 2.64257,-0.66016 1.71087,2.28568 3.82419,0.0304 3.47071,-2.01172 -0.90894,-1.41063 -2.17969,-2.70703 -2.17969,-2.70703 0,0 -1.88581,-3.05583 0.008,-1.09765 0.79299,0.81999 2.25922,1.30578 3.91406,1.43164 1.14512,-0.28986 2.3453,-0.58407 2.81055,-1.69532 -0.38358,-2.9066 -5.1066,-0.83672 -5.78125,-3.54101 -0.53934,-1.69739 -2.44157,-2.47081 -1.37695,-4.35547 -2.7473,-0.83917 -3.01423,3.36869 -1.17969,4.53906 1.47167,2.22856 -4.032,1.08345 -2.11914,4.10938 0.91578,0.86861 1.72774,2.05316 -0.15234,0.8789 -2.44366,-1.64651 -4.97396,0.81306 -3.12305,2.57032 -2.1899,-0.33941 -4.07117,1.47686 -4.74414,3.41992 -1.46989,-1.18976 -3.29579,-1.88049 -5.24805,-1.17383 -1.17124,-1.31724 -2.73537,-2.97753 -0.81836,-4.22852 -0.90725,-1.89951 -1.21837,-5.25339 1.3086,-5.58398 1.77752,-0.46655 4.31549,2.06586 6.44921,0.53516 1.01212,-1.65238 4.33284,-0.721 3.92579,-3.7168 -0.0491,-2.49566 3.68463,-2.85369 3.60742,-5.5 -0.33449,-1.75015 -2.21737,-3.02093 -1.22656,-4.87891 -0.96121,-1.83745 -3.24339,-2.12701 -3.92579,-4.36914 z m -0.50976,13.75391 c -0.14811,1.47303 -2.25207,-0.26284 -0.18945,0.0371 l 0.14648,-0.0312 z m -2.78906,6.68164 c -1.06702,-0.057 -1.88747,1.64201 -2.1211,2.1875 0.95626,1.35225 4.78043,-0.63702 2.1211,-2.1875 z m -2.1211,2.1875 c -0.002,-0.003 -0.006,-0.005 -0.008,-0.008 -0.099,0.27504 -0.0791,0.2107 0.008,0.008 z m -1.93555,7.06836 c 1.10292,0.0205 0.54566,2.31246 -0.24218,0.0273 0.0887,-0.0209 0.16866,-0.0287 0.24218,-0.0273 z"
       transform="scale(0.26458333)"
       id="path5010"
       inkscape:connector-curvature="0" />
    <path
       style="fill:#006700;fill-opacity:1;fill-rule:evenodd;stroke:none;stroke-width:0.26458332px;stroke-linecap:butt;stroke-linejoin:miter;stroke-opacity:1"
       d="m 107.81241,109.61897 c 1.10759,0.34638 2.23701,1.17701 2.32379,1.87031 0.0868,0.69334 -1.54438,0.63908 -1.54438,0.63908 0,0 1.31421,0.41369 1.54993,1.12666 0.23572,0.71297 0.0537,2.01274 -0.83769,1.53444 -0.89144,-0.47839 -1.47544,-1.1169 -1.47544,-1.1169 0,0 2.08857,2.40098 1.11815,2.63425 -0.97042,0.23327 -2.34957,-0.38954 -2.60209,-1.0646 -0.25251,-0.67505 -0.11759,0.26531 -0.11759,0.26531 0,0 0.69261,1.81608 -0.1266,1.70823 -0.81922,-0.10785 -1.92959,-1.33711 -1.92959,-1.33711 0,0 1.54594,3.09171 0.24629,3.00085 -1.29968,-0.0909 -2.0735,-0.83458 -2.33555,-1.31032 -1.62187,0.053 -2.461979,-1.51761 -0.79792,-0.86716 0,0 -1.886441,-1.61225 -1.370155,-2.06573 0.516285,-0.45351 1.251515,-0.15614 1.251515,-0.15614 0,0 -1.638976,-1.45924 -0.8175,-1.71217 0.82148,-0.25288 1.5735,0.007 1.5735,0.007 0,0 -2.030909,-2.35327 -0.81524,-2.0729 1.21566,0.28038 1.7924,0.75744 1.7924,0.75744 0,0 -1.37517,-2.58785 -0.42605,-2.06177 0.94911,0.52609 1.36009,1.02148 1.36009,1.02148 0,0 -1.21393,-1.8847 -0.13042,-1.66184 1.08352,0.22289 1.75154,0.67184 1.75154,0.67184 0,0 -1.09132,-1.62787 -0.12316,-1.50043 0.96817,0.12747 1.25429,0.72672 1.25429,0.72672 0,0 -0.31323,-2.34562 1.24148,-1.20041 1.73865,1.28062 -0.0135,2.16434 -0.0135,2.16434 z"
       id="path4381"
       inkscape:connector-curvature="0"
       sodipodi:nodetypes="cscsccsccscsccscccscccscccscc" />
    <path
       style="color:#000000;clip-rule:nonzero;display:inline;overflow:visible;visibility:visible;opacity:0.13300003;isolation:auto;mix-blend-mode:normal;color-interpolation:sRGB;color-interpolation-filters:linearRGB;solid-color:#000000;solid-opacity:1;fill:#000000;fill-opacity:1;fill-rule:nonzero;stroke:none;stroke-width:0.99999994px;stroke-linecap:butt;stroke-linejoin:miter;stroke-miterlimit:4;stroke-dasharray:none;stroke-dashoffset:0;stroke-opacity:1;marker:none;color-rendering:auto;image-rendering:auto;shape-rendering:auto;text-rendering:auto;enable-background:accumulate"
       d="m 345.9043,375.70703 c -1.49923,0.0121 -1.96738,0.41106 -1.31446,1.89649 -1.16039,1.68063 -5.58421,-1.25202 -6.00976,1.6621 1.3342,1.92715 4.52253,2.3166 5.03711,4.93555 -1.12307,0.0609 -2.4762,-0.1214 -3.25391,0.65821 -1.6284,0.36881 -3.54652,0.78874 -4.51367,2.14453 0.47634,0.39806 0.97656,0.81054 0.97656,0.81054 0,0 -0.52556,-0.11281 -1.30859,-0.20703 -0.0141,0.0334 -0.0357,0.0595 -0.0488,0.0937 -0.0433,-0.0452 -0.0915,-0.0751 -0.13672,-0.11523 -0.71808,-0.0758 -1.60821,-0.13051 -2.82422,-0.0625 -0.7988,0.62076 -0.97613,1.70882 0.63672,2.4707 0.75438,0.53432 0.39935,1.68171 0.0527,2.68555 1.22636,0.67557 2.22851,1.16797 2.22851,1.16797 0,0 -1.48223,0.131 -3.21484,0.93164 -0.79168,1.09874 -0.71117,2.84305 -1.32813,4.0332 1.74242,1.17814 4.4961,2.08594 4.4961,2.08594 0,0 -2.99485,0.0791 -4.09961,2.42968 -0.57084,1.21442 1.54523,2.52671 3.72656,3.51758 0.67265,0.13451 1.28827,0.29937 1.65039,0.69336 1.37414,0.53386 2.48633,0.88086 2.48633,0.88086 -6.74785,0.2569 -1.46603,4.43164 4.07422,1.80078 0.81352,0.627 2.17219,1.29275 3.9082,1.59571 0.14164,-0.27774 0.20057,-0.67181 0.13086,-1.22071 -0.47916,-1.68264 -3.40265,-2.65194 -3.16797,-4.08008 2.37911,-0.67906 0.96873,-3.72967 1.48633,-5.26953 1.27468,-1.77826 -3.20378,-1.11384 -1.79297,-2.4414 1.72484,0.73383 2.83151,-1.16544 4.49023,-0.28125 2.9904,-0.3394 0.61468,-3.0508 -0.5664,-4.00782 -4.78062,-11.74393 0.65399,0.41549 5.44531,-3.4414 0.48759,-1.86501 -3.03808,-1.32786 -2.23633,-3.44727 -1.50203,-1.82536 0.24898,-2.74863 1.6211,-1.23047 2.73136,2.09194 2.96324,-2.36934 2.0039,-3.50781 2.02501,0.62944 3.93766,-1.83096 1.92188,-3.125 -2.54534,1.1359 -4.24389,-1.51565 -5.77149,-2.39062 -0.28722,0.21845 -0.0126,0.97312 0.13086,1.51367 -0.0273,-0.0435 -0.0763,-0.0588 -0.084,0.0859 0.0857,0.0349 0.0979,-0.005 0.0918,-0.0469 0.0888,0.34644 0.12925,0.61282 -0.13867,0.49219 -0.3578,-1.33731 -0.94328,-2.04152 -0.63476,-0.20899 0.8074,1.24808 3.75038,2.35422 1.06054,3.59375 -2.25061,0.4153 -5.10438,1.33014 -3.26171,4.08008 -0.3063,1.14013 -4.35821,-0.59418 -1.7793,-1.77343 2.13742,-1.38082 -4.04193,-4.98937 -0.29688,-4.38086 2.95896,-0.52706 0.65779,-3.57791 0.12696,-5.02149 z m 5.76953,2.77539 c 0.13171,0.0575 -0.12231,0.23358 0,0 z m -9.35352,2.05664 c 1.34357,0.0609 -0.92597,1.86029 0,0 z m 1.56641,6.9336 c -0.24378,2.40336 -4.81615,0.99293 -4.4336,3.75781 1.16843,1.07607 1.07206,2.75558 1.8418,4.29101 -2.07932,1.31762 -0.81355,5.00673 -3.64453,4.91016 -0.61209,2.65092 -2.47647,-1.42498 -2.82812,-2.66992 1.03053,-1.59405 1.2422,-3.84659 2.86328,-5.13477 0.0689,-1.88061 0.025,-4.42777 2.65234,-3.8125 1.39511,0.0113 2.51759,-0.79694 3.54883,-1.34179 z m -3.26563,11.79101 c 0.053,-0.0151 0.11887,-0.0162 0.18555,0.0137 -0.3884,0.19843 -0.34443,0.0315 -0.18555,-0.0137 z m 0.89063,2.38867 c 2.12255,0.81566 -2.14686,1.10041 0,0 z m -7.54102,0.13086 c 0.0196,-0.014 0.0675,-0.019 0.16016,0 -0.0213,0.16895 -0.2189,0.0421 -0.16016,0 z"
       transform="scale(0.26458333)"
       id="path4980"
       inkscape:connector-curvature="0" />
    <path
       style="fill:#006400;fill-opacity:1;fill-rule:evenodd;stroke:none;stroke-width:0.26458332px;stroke-linecap:butt;stroke-linejoin:miter;stroke-opacity:1"
       d="m 98.066321,101.49436 c 1.133399,0.2493 2.330409,0.97914 2.476819,1.66234 0.14641,0.68325 -1.483329,0.77024 -1.483329,0.77024 0,0 1.345069,0.29849 1.641549,0.98841 0.29649,0.68992 0.22754,2.00057 -0.70185,1.60113 -0.929471,-0.39951 -1.5665,-0.98512 -1.5665,-0.98512 0,0 2.28837,2.21137 1.341766,2.52768 -0.946611,0.31632 -2.374456,-0.18489 -2.684405,-0.83559 -0.309943,-0.65068 -0.09422,0.27448 -0.09422,0.27448 0,0 0.847069,1.74939 0.02159,1.71279 -0.825474,-0.0366 -2.037988,-1.16524 -2.037988,-1.16524 0,0 1.807515,2.94644 0.50487,2.96831 -1.302665,0.0219 -2.137904,-0.65214 -2.440106,-1.10344 -1.611212,0.19304 -2.583998,-1.29902 -0.869926,-0.79491 0,0 -2.018795,-1.44308 -1.543654,-1.93951 0.475131,-0.49646 1.233316,-0.26378 1.233316,-0.26378 0,0 -1.759019,-1.31205 -0.962491,-1.63507 0.796534,-0.32296 1.56817,-0.12951 1.56817,-0.12951 0,0 -2.226802,-2.16883 -0.991434,-1.99463 1.235345,0.1742 1.851179,0.5996 1.851179,0.5996 0,0 -1.593811,-2.45923 -0.602753,-2.0172 0.991055,0.44205 1.443331,0.90004 1.443331,0.90004 0,0 -1.372356,-1.77267 -0.273637,-1.64433 1.098738,0.12835 1.803072,0.51785 1.803072,0.51785 0,0 -1.227997,-1.527401 -0.252442,-1.48415 0.975567,0.0433 1.312434,0.61552 1.312434,0.61552 0,0 -0.514903,-2.309739 1.133025,-1.30327 1.842874,1.12547 0.173697,2.1574 0.173697,2.1574 z"
       id="path4383"
       inkscape:connector-curvature="0"
       sodipodi:nodetypes="cscsccsccscsccscccscccscccscc" />
    <path
       sodipodi:nodetypes="cscsccsccscsccscccscccscccscc"
       inkscape:connector-curvature="0"
       id="path4385"
       d="m 86.692482,95.588458 c 1.357542,-0.101923 2.980759,0.288097 3.420517,0.969348 0.439791,0.681302 -1.331322,1.30305 -1.331322,1.30305 0,0 1.612132,-0.118158 2.220973,0.521551 0.608846,0.639705 1.064726,2.060153 -0.127661,1.935723 -1.192496,-0.12448 -2.136445,-0.542403 -2.136445,-0.542403 0,0 3.434628,1.616153 2.513854,2.260803 -0.920774,0.64465 -2.706994,0.57343 -3.314827,-0.0201 -0.607822,-0.59349 0.007,0.32337 0.007,0.32337 0,0 1.649418,1.59115 0.71958,1.82002 -0.929842,0.22888 -2.732212,-0.5815 -2.732212,-0.5815 0,0 3.200175,2.55632 1.765175,3.00244 -1.435028,0.4461 -2.634562,-0.002 -3.152822,-0.38508 -1.707505,0.72885 -3.391758,-0.547 -1.287101,-0.56558 0,0 -2.823773,-0.88412 -2.498743,-1.56787 0.325011,-0.68379 1.259901,-0.68167 1.259901,-0.68167 0,0 -2.482617,-0.82865 -1.73092,-1.43174 0.751723,-0.60303 1.685591,-0.64712 1.685591,-0.64712 0,0 -3.349098,-1.590753 -1.909037,-1.805889 1.440032,-0.215127 2.295414,0.03877 2.295414,0.03877 0,0 -2.765425,-2.105975 -1.487387,-1.956125 1.278043,0.149878 1.965372,0.491625 1.965372,0.491625 0,0 -2.241118,-1.445493 -0.97115,-1.665198 1.269995,-0.219699 2.208893,-0.03282 2.208893,-0.03282 0,0 -1.981489,-1.23072 -0.882598,-1.501219 1.098908,-0.270484 1.704727,0.230619 1.704727,0.230619 0,0 -1.508827,-2.29669 0.726548,-1.757942 2.499786,0.602414 1.06875,2.244928 1.06875,2.244928 z"
       style="fill:#006900;fill-opacity:1;fill-rule:evenodd;stroke:none;stroke-width:0.26458332px;stroke-linecap:butt;stroke-linejoin:miter;stroke-opacity:1" />
    <path
       sodipodi:nodetypes="ccccc"
       inkscape:connector-curvature="0"
       id="path4387"
       d="m 80.137019,129.68824 c 1.591861,-0.0146 3.621641,1.34853 5.483506,2.1834 1.134359,0.7601 2.930685,1.98235 3.974902,3.13597 -3.702483,1.62002 -13.621876,-2.64454 -14.584811,-5.81422 1.254133,-0.1557 3.966793,0.23847 5.126403,0.49485 z"
       style="fill:#800000;fill-opacity:0.86082476;fill-rule:evenodd;stroke:none;stroke-width:0.26458332px;stroke-linecap:butt;stroke-linejoin:miter;stroke-opacity:1" />
    <path
       style="opacity:0.13300003;fill:#000000;fill-opacity:1;fill-rule:evenodd;stroke:none;stroke-width:0.99999994px;stroke-linecap:butt;stroke-linejoin:miter;stroke-opacity:1"
       d="m 338.83216,510.38899 c 0,0 -0.60698,5.67549 1.1444,13.77117 1.75138,8.09567 0.98706,2.3457 6.83594,7.06054 5.84888,4.71481 -4.43019,3.2452 -3.64062,5.1211 0.78955,1.87585 5.91015,5.51562 5.91015,5.51562 0,0 -5.42947,2.8381 -9.69922,1.875 -4.26973,-0.9631 -6.07245,-1.30885 -4.08593,1.44336 1.98649,2.75218 9.65039,5.875 9.65039,5.875 0,0 -9.2303,1.678 -11.2168,-1.07422 -1.9865,-2.75217 -3.54196,0.11051 -7.47852,-0.71679 -3.93655,-0.82749 -3.27148,-0.55665 -3.27148,-0.55665 0,0 10.19288,15.0334 12.91992,16.92188 2.72705,1.88844 -8.20703,-1.79102 -8.20703,-1.79102 0,0 0.2476,3.20938 6.35547,9.19532 6.10787,5.98594 -4.76483,3.10869 -8.23242,2.08398 -3.46759,-1.0247 1.76339,6.15882 5.88476,9.39258 4.12137,3.23373 -8.243,4.02087 -12.37695,2.72461 -0.31372,-0.0984 -0.59558,-0.17133 -0.86133,-0.23242 -0.33432,-0.40656 -0.28906,-0.27539 -0.28906,-0.27539 0,0 -0.0276,0.19718 -0.0293,0.20898 -2.15731,-0.4001 -2.39877,0.65963 -0.44336,3.16602 -0.72948,5.3405 -2.00148,15.46341 -1.46875,17.82617 0.72963,3.23584 -4.83008,-6.87305 -4.83008,-6.87305 0,0 -1.9885,2.5299 -1.54296,11.07031 0.44552,8.54045 -5.61135,-0.93597 -7.47071,-4.03711 -1.85936,-3.10114 -2.86909,5.72854 -2.02344,10.89844 0.84568,5.16987 -8.79089,-2.61908 -10.95703,-6.37109 -2.16615,-3.75205 -3.48657,-2.33454 -3.17578,5.07617 0.31084,7.41071 -1.54884,4.31128 -3.27344,2.33984 -1.72465,-1.97136 -1.53495,-3.25568 -2.00976,3.33204 -0.0893,1.23883 -0.0779,2.3031 -0.041,3.29882 5.00387,-0.88825 8.96485,-1.33789 8.96485,-1.33789 0.001,-0.0654 -0.008,-0.13272 -0.0117,-0.19922 28.23117,-0.006 53.29152,-16.45819 63.64844,-41.78515 9.63908,-23.66562 4.74237,-50.93567 -12.68555,-70.64649 z"
       transform="scale(0.26458333)"
       id="path4902"
       inkscape:connector-curvature="0"
       sodipodi:nodetypes="cscscccccccccsccccccccccsccccccccccc" />
    <path
       style="opacity:0.13300003;fill:#000000;fill-opacity:1;fill-rule:evenodd;stroke:none;stroke-width:0.26458332px;stroke-linecap:butt;stroke-linejoin:miter;stroke-miterlimit:4;stroke-dasharray:none;stroke-dashoffset:0;stroke-opacity:1"
       d="m 80.100311,129.63243 c 0.844256,-4.36695 0.811004,-8.23246 1.14324,-12.30683 l 0.253135,12.0337 c 1.291728,-5.32778 1.834843,-10.65556 2.687331,-15.98334 -0.662205,5.50649 -0.631625,11.35938 -1.98666,16.51945 l 6.556345,-14.81806 c -1.938362,5.02223 -2.862976,9.89965 -5.857849,15.07281 4.754218,-6.13984 7.581432,-12.90006 11.526176,-19.24227 -3.680317,6.48278 -6.31013,13.65216 -10.732894,19.6948 5.690566,-4.85558 9.760599,-10.54093 14.777527,-15.69591 -4.800862,5.29551 -8.765541,10.93012 -13.781654,16.15751 5.726867,-4.36286 10.776076,-9.08758 16.427322,-13.59048 l -15.849498,14.22146 c -1.80326,0.78745 -4.917415,-0.85626 -5.162521,-2.06284 z"
       id="path4934"
       inkscape:connector-curvature="0"
       sodipodi:nodetypes="cccccccccccccc" />
    <path
       style="color:#000000;clip-rule:nonzero;display:inline;overflow:visible;visibility:visible;opacity:0.13300003;isolation:auto;mix-blend-mode:normal;color-interpolation:sRGB;color-interpolation-filters:linearRGB;solid-color:#000000;solid-opacity:1;fill:#000000;fill-opacity:1;fill-rule:nonzero;stroke:none;stroke-width:0.99999994px;stroke-linecap:butt;stroke-linejoin:miter;stroke-miterlimit:4;stroke-dasharray:none;stroke-dashoffset:0;stroke-opacity:1;marker:none;color-rendering:auto;image-rendering:auto;shape-rendering:auto;text-rendering:auto;enable-background:accumulate"
       d="m 297.66797,379.16797 c -0.70374,-0.0227 -1.85858,0.88577 -1.58985,1.81055 -0.31426,0.14589 -0.52591,0.52228 -0.47851,1.23828 0.0555,0.10431 0.1162,0.18468 0.17773,0.26367 1.37301,0.56451 -0.81095,1.45593 -1.09179,2.32617 -1.03686,-0.12775 -2.18548,0.008 -2.89453,0.41406 -0.19771,0.55699 3.701,0.56707 0.39062,3.11133 -0.5336,0.46023 -0.80214,1.11625 -0.49219,2.02735 3.5576,-2.10203 4.9769,1.50743 7.14258,2.43164 0.91271,0.13152 2.21195,0.17218 3.18164,-0.20313 -0.51481,1.27034 -1.92414,1.15534 -2.15234,2.55664 -3.0811,3.4995 -6.29115,3.31983 -9.26563,3.84375 -0.15481,0.034 -0.29465,0.0796 -0.42578,0.13477 -0.29033,0.0757 -0.5043,0.19603 -0.65625,0.34179 2.72384,0.41716 6.56836,0.0449 6.56836,0.0449 -2.54417,1.17412 -2.89973,2.16527 -2.17187,2.60937 1.60055,-0.22491 3.19006,-0.53805 4.75781,-0.94531 0.64108,-0.4066 1.27951,-0.91388 1.86719,-1.56641 1.57905,0.42406 4.47225,0.40341 7.42968,-1.28906 0.0524,-0.11157 0.0958,-0.23001 0.13282,-0.35547 1.57308,-1.09893 0.83782,-3.65962 -1.23828,-3.51562 -0.38428,-0.0302 -0.76816,-0.0479 -1.1504,-0.0547 -0.0433,-0.12662 -0.11026,-0.24731 -0.1914,-0.36524 1.44637,-0.85801 2.09515,-1.43598 2.24804,-1.86132 -2.76622,-1.55212 -6.36328,-2.67969 -6.36328,-2.67969 0,0 0.7638,0.0175 1.83204,-0.0312 -0.30816,-0.82021 -0.9391,-1.09061 -1.53907,-1.02539 -0.4994,-0.24945 -1.00309,-0.25534 -1.3457,0.16797 -2.43409,2.04442 -2.1213,-0.4626 -2.94531,-1.125 -0.34405,-0.0639 -3.08906,-0.21314 0.041,-2.78711 -1.18734,-0.63863 -0.69031,0.0624 0.14258,-0.875 0.72206,-0.59161 -0.8502,-2.16755 0.34961,-1.89063 0.36813,-0.61924 0.4462,-1.34022 -0.18359,-1.59961 -1.52007,0.14778 -0.58727,-0.52442 0.40429,-0.40234 0.0716,-0.52173 -0.15818,-0.73931 -0.49023,-0.75 z"
       transform="scale(0.26458333)"
       id="path4959"
       inkscape:connector-curvature="0" />
    <path
       style="color:#000000;clip-rule:nonzero;display:inline;overflow:visible;visibility:visible;opacity:0.13300003;isolation:auto;mix-blend-mode:normal;color-interpolation:sRGB;color-interpolation-filters:linearRGB;solid-color:#000000;solid-opacity:1;fill:#000000;fill-opacity:1;fill-rule:nonzero;stroke:none;stroke-width:0.99999994px;stroke-linecap:butt;stroke-linejoin:miter;stroke-miterlimit:4;stroke-dasharray:none;stroke-dashoffset:0;stroke-opacity:1;marker:none;color-rendering:auto;image-rendering:auto;shape-rendering:auto;text-rendering:auto;enable-background:accumulate"
       d="m 324.51367,374.36523 c 0.85903,1.97924 0.78561,5.33661 0.0527,7.93946 1.28127,2.43772 -0.7826,4.8412 -2.66797,5.3164 -0.49543,2.93741 -1.12042,3.84513 -2.14453,3.76953 -3.64469,-0.29933 -1.72965,-5.59872 -4.55469,-5.62695 -2.51448,3.04135 1.80898,5.63321 2.95312,8.11133 -0.24918,4.0766 -10.36137,-0.86518 -12.69336,0.11523 -0.10691,0.0337 -0.18645,0.0762 -0.2539,0.12305 0.86169,2.42166 9.4668,5.11914 9.4668,5.11914 -7.95461,0.0702 -1.58833,4.89143 4.86523,2.13672 0.35307,0.26098 0.81565,0.52553 1.32617,0.78125 0.82281,0.19754 1.61937,0.5386 2.41406,0.89453 2.21609,0.5854 5.0369,0.75507 8.17578,-0.2207 1.57723,-0.49034 1.64974,-1.66282 0.99219,-3.06836 -0.0809,-0.0618 -0.1435,-0.12377 -0.23437,-0.18555 -0.007,-0.0956 -0.002,-0.1893 0.002,-0.2832 -1.89754,-3.38399 -7.43164,-7.81055 -7.43164,-7.81055 0,0 5.93983,2.6691 9.58789,2.31836 -0.0208,-0.14898 -0.0536,-0.29902 -0.10547,-0.45312 -5.19136,-2.09488 -7.51146,-6.97411 -5.60156,-7.86328 -1.04897,-1.32685 -1.84673,-2.18554 -0.1582,-3.46094 -3.37933,-1.27314 -1.57814,-5.46561 -3.99024,-7.65235 z m -8.25,12.14844 c 0.37429,0.67026 -0.69355,0.63477 0,0 z m 6.80469,7.51953 c 0.82634,0.68013 3.34052,3.14032 1.40234,3.90821 -2.99946,-0.58678 -2.77505,-1.95861 -1.40234,-3.90821 z m 5.47656,5.3125 c 1.74551,0.17877 -0.3549,1.95251 0,0 z m 2.67383,1.97071 c 0.0615,0.009 0.15021,0.0324 0.27344,0.0723 0.20438,0.42867 -0.70365,-0.13765 -0.27344,-0.0723 z"
       transform="scale(0.26458333)"
       id="path4961"
       inkscape:connector-curvature="0" />
    <path
       style="color:#000000;clip-rule:nonzero;display:inline;overflow:visible;visibility:visible;opacity:0.13300003;isolation:auto;mix-blend-mode:normal;color-interpolation:sRGB;color-interpolation-filters:linearRGB;solid-color:#000000;solid-opacity:1;fill:#000000;fill-opacity:1;fill-rule:nonzero;stroke:none;stroke-width:0.99999994px;stroke-linecap:butt;stroke-linejoin:miter;stroke-miterlimit:4;stroke-dasharray:none;stroke-dashoffset:0;stroke-opacity:1;marker:none;color-rendering:auto;image-rendering:auto;shape-rendering:auto;text-rendering:auto;enable-background:accumulate"
       d="m 345.7168,390.35352 c -1.90305,-1.40925 -1.23609,0.53421 -0.94922,1.39648 1.16008,2.12025 4.1965,5.13228 4.54687,5.47656 0.12163,-0.0161 0.24511,-0.0397 0.37305,-0.0762 1.09991,-0.82908 -0.0246,-1.9384 -1.08398,-1.66016 -0.1033,-1.05913 -1.45271,-3.1266 -1.9336,-4.60156 l -0.25976,-0.28711 -0.30078,-0.24414 c -0.14306,-0.0102 -0.27396,-0.011 -0.39258,-0.004 z m 9.25586,3.06054 c -1.28694,-0.13153 -1.61498,1.90614 -2.92383,2.19336 0.99008,1.54379 0.35491,3.67024 -1.21875,5.73828 0.0707,1.51144 -0.7959,3.28134 -1.22656,4.88477 -0.36809,0.67718 0.59608,2.31416 -0.89454,1.10547 -2.05097,0.44753 -2.63607,-1.85727 -4.19921,-2.73242 -0.12159,-0.21638 -0.27761,-0.37474 -0.45313,-0.48438 -0.5312,0.18043 -1.05625,0.47713 -1.51367,0.95508 -1.79581,1.87627 5.83398,7.33008 5.83398,7.33008 -1.72115,-0.50619 -2.70785,-0.46982 -3.14062,-0.17188 -0.0425,0.3305 -0.0678,0.66278 -0.0742,1.00391 0.68378,1.12615 3.23625,2.56509 6.50195,2.17383 1.05008,1.56816 3.80728,3.84163 8.07032,4.13476 0.75922,-0.0888 1.51013,-0.21804 2.23242,-0.45312 1.36219,-1.3335 -0.82067,-2.71397 -1.92383,-2.58985 -1.25017,-0.95338 -2.59337,-1.10474 -3.32227,-2.54297 -1.03495,-0.25285 -3.51212,-1.53734 -1.24609,-2.10351 1.50223,-0.83536 1.16874,-2.80645 -0.11914,-2.85742 0.84089,-0.36148 0.43811,-1.61338 -0.75977,-0.85938 -0.29835,0.64883 -0.71223,3.26758 -0.79687,1.28711 -1.13939,-1.04655 -0.8786,-3.40618 -0.55664,-4.19531 0.89128,-0.95274 1.63501,-0.99002 2.53906,-0.30078 1.89741,0.33297 2.63061,-1.62342 3.86328,-2.65625 -0.19468,0.33562 -3.2824,-0.16473 -2.97656,-0.46289 -1.03512,0.78931 -2.40522,-0.0619 -3.52539,0.22265 -0.83323,-1.80903 1.54032,-2.62468 1.78515,-4.29882 -0.55844,-0.33638 -0.3941,-2.48374 0.66016,-4.11915 -0.22863,-0.11874 -0.43139,-0.18238 -0.61523,-0.20117 z m -11.05078,4.60156 c -0.27764,-0.0116 -0.50659,0.0235 -0.70118,0.0879 -2.02858,1.48242 3.98242,5.9746 3.98242,5.9746 0,0 -0.98752,-0.29062 -2.1621,-0.16406 1.2063,0.641 2.64582,0.69189 3.1875,-0.67383 0.1008,-1.62156 -2.37565,-1.37453 -2.88086,-2.98242 -0.78133,-0.58696 -0.37112,-2.12135 -1.42578,-2.24219 z m 3.97656,5.83204 0.0527,0.008 z m 11.43945,3.3789 c -1.66162,0.76357 -0.84063,1.80814 0.26953,2.24024 -0.27012,-0.47281 -0.6289,-1.10547 -0.6289,-1.10547 0,0 1.90119,1.75833 4.08593,3.05469 0.30923,0.006 0.6063,-0.10049 0.87891,-0.36914 0.33544,0.40822 0.48755,1.01523 0.73047,1.19726 0.0359,0.0151 0.0716,0.0343 0.10742,0.0488 0.16254,0.0287 0.36748,-0.11345 0.68164,-0.5918 0.13123,-2.38802 -3.50721,-1.91671 -4.35351,-3.92383 -0.53062,-0.33448 -1.15405,-0.48811 -1.77149,-0.55078 z m -8.91211,0.45508 c 0.33434,1.04867 -1.58343,0.10858 -0.0879,0.22461 z m 13.51758,2.91016 c 0.0108,-0.006 0.0494,-0.005 0.13281,0.008 0.0466,0.0791 -0.16518,0.01 -0.13281,-0.008 z"
       transform="scale(0.26458333)"
       id="path4990"
       inkscape:connector-curvature="0"
       sodipodi:nodetypes="ccccccccccccccccccccccccccccccccccccccccccccccccccccccccccccccc" />
    <path
       style="color:#000000;clip-rule:nonzero;display:inline;overflow:visible;visibility:visible;opacity:0.13300003;isolation:auto;mix-blend-mode:normal;color-interpolation:sRGB;color-interpolation-filters:linearRGB;solid-color:#000000;solid-opacity:1;fill:#000000;fill-opacity:1;fill-rule:nonzero;stroke:none;stroke-width:0.99999994px;stroke-linecap:butt;stroke-linejoin:miter;stroke-miterlimit:4;stroke-dasharray:none;stroke-dashoffset:0;stroke-opacity:1;marker:none;color-rendering:auto;image-rendering:auto;shape-rendering:auto;text-rendering:auto;enable-background:accumulate"
       d="m 381.42578,425.82031 c -0.68123,0.0462 -1.41244,0.1585 -2.16016,0.38867 -3.10479,0.95596 3.08985,6.47266 3.08985,6.47266 0,0 -2.7772,-1.12421 -4.72852,0.58984 -1.95131,1.71394 5.17774,7.80664 5.17774,7.80664 -6.28936,-2.45839 -3.11428,3.47766 3.01562,3.27735 0.85777,1.55723 3.16896,3.87162 6.96289,4.6875 0.75691,-0.13129 1.37106,-0.53807 1.43555,-1.45117 0.21959,-2.029 -2.43332,-2.13159 -3.32227,-2.45508 -0.84173,-1.01322 -2.36689,-1.12808 -2.76367,-2.46289 -2.28041,-0.88165 -0.88955,-3.93769 0.24805,-5.39258 1.10804,-1.40886 1.86651,-3.65996 3.50781,-4.27148 1.50543,1.03347 2.8249,-1.24033 4.01367,-2.06446 1.18727,-0.20825 0.98178,-1.44748 0.94727,-1.8164 0.27893,0.87825 1.07001,1.52563 0.82227,0.12304 -1.07895,-1.8017 -3.1082,0.32574 -4.10743,1.16211 -1.92491,-0.72971 -4.17811,-0.66519 -5.1914,1.41211 -0.58651,0.55975 -2.16804,0.72655 -2.39258,1.11524 -0.90365,-1.36022 -0.99794,-3.15742 -2.08399,-4.38868 -1.32601,-0.11157 -1.54752,-1.86292 -2.4707,-2.73242 z m 15.61133,4.59375 c -0.0153,-0.007 -0.0804,-0.005 -0.23438,0.0117 -0.13067,0.0944 0.28016,0.008 0.23438,-0.0117 z m -4.81055,1.73242 c 0.55355,-0.11603 -0.008,0.3481 0,0 z m 0.0937,0.36914 c 0.0267,0.0214 -0.0944,0.14502 -0.0859,0.0254 0.0522,-0.0283 0.077,-0.0325 0.0859,-0.0254 z m 0.33399,0.002 c 0.16988,0.0294 -0.0875,0.20041 -0.32813,0.0351 0.16832,-0.0395 0.2715,-0.045 0.32813,-0.0351 z"
       transform="scale(0.26458333)"
       id="path5024"
       inkscape:connector-curvature="0" />
  </g>
</svg>
