<?xml version="1.0" encoding="UTF-8"?>
<!DOCTYPE svg PUBLIC "-//W3C//DTD SVG 1.1//EN" "http://www.w3.org/Graphics/SVG/1.1/DTD/svg11.dtd">
<!-- Creator: CorelDRAW X7 -->
<svg xmlns="http://www.w3.org/2000/svg" xml:space="preserve" width="25.4mm" height="25.4mm" version="1.1" style="shape-rendering:geometricPrecision; text-rendering:geometricPrecision; image-rendering:optimizeQuality; fill-rule:evenodd; clip-rule:evenodd"
viewBox="0 0 2540 2540"
 xmlns:xlink="http://www.w3.org/1999/xlink"
 sodipodi:docname="szymonraj_Shopping_bag.svg"
 sodipodi:version="0.32"
 inkscape:version="0.44.1"
 sodipodi:docbase="C:\Documents and Settings\Molumen\Desktop"
 xmlns:rdf="http://www.w3.org/1999/02/22-rdf-syntax-ns#"
 xmlns:cc="http://web.resource.org/cc/"
 xmlns:dc="http://purl.org/dc/elements/1.1/"
 xmlns:svg="http://www.w3.org/2000/svg"
 xmlns:inkscape="http://www.inkscape.org/namespaces/inkscape"
 xmlns:sodipodi="http://sodipodi.sourceforge.net/DTD/sodipodi-0.dtd"
 xmlns:ns1="http://sozi.baierouge.fr">
 <defs>
  <style type="text/css">
   <![CDATA[
    .str1 {stroke:black;stroke-width:111.59;stroke-linecap:round;stroke-linejoin:round;stroke-opacity:0.501961}
    .str14 {stroke:#D4AA00;stroke-width:43.63;stroke-linecap:round;stroke-linejoin:round}
    .str2 {stroke:#806600;stroke-width:74.4;stroke-linecap:round;stroke-linejoin:round}
    .str5 {stroke:#AA8800;stroke-width:46.5;stroke-linecap:round;stroke-linejoin:round}
    .str4 {stroke:#D4AA00;stroke-width:46.5;stroke-linecap:round;stroke-linejoin:round}
    .str10 {stroke:#D4AA00;stroke-width:41.72;stroke-linecap:round;stroke-linejoin:round}
    .str15 {stroke:#AA8800;stroke-width:44.31;stroke-linecap:round;stroke-linejoin:round}
    .str16 {stroke:#D4AA00;stroke-width:44.41;stroke-linecap:round;stroke-linejoin:round}
    .str9 {stroke:#AA8800;stroke-width:41.91;stroke-linecap:round;stroke-linejoin:round}
    .str3 {stroke:#AA8800;stroke-width:54.99;stroke-linecap:round;stroke-linejoin:round}
    .str0 {stroke:#806600;stroke-width:111.59;stroke-linecap:round;stroke-linejoin:round}
    .str12 {stroke:#D4AA00;stroke-width:42.63;stroke-linecap:round;stroke-linejoin:round}
    .str22 {stroke:#FFCE00;stroke-width:14.48;stroke-linecap:round;stroke-linejoin:round}
    .str20 {stroke:#FFCF00;stroke-width:14.48;stroke-linecap:round;stroke-linejoin:round}
    .str19 {stroke:#E4C440;stroke-width:45.24;stroke-linecap:round;stroke-linejoin:round}
    .str21 {stroke:#EAC115;stroke-width:45.24;stroke-linecap:round;stroke-linejoin:round}
    .str11 {stroke:#AA8800;stroke-width:42.69;stroke-linecap:round;stroke-linejoin:round}
    .str6 {stroke:#D4AA00;stroke-width:40.16;stroke-linecap:round;stroke-linejoin:round}
    .str18 {stroke:#D4AA00;stroke-width:45.37;stroke-linecap:round;stroke-linejoin:round}
    .str17 {stroke:#AA8800;stroke-width:45.51;stroke-linecap:round;stroke-linejoin:round}
    .str7 {stroke:#AA8800;stroke-width:40.71;stroke-linecap:round;stroke-linejoin:round}
    .str8 {stroke:#D4AA00;stroke-width:40.72;stroke-linecap:round;stroke-linejoin:round}
    .str13 {stroke:#AA8800;stroke-width:43.46;stroke-linecap:round;stroke-linejoin:round}
    .fil2 {fill:none}
    .fil3 {fill:none}
    .fil1 {fill:#504416}
    .fil4 {fill:#666666}
    .fil21 {fill:#C7791F}
    .fil14 {fill:black;fill-opacity:0.000000}
    .fil0 {fill:black;fill-opacity:0.149020}
    .fil19 {fill:url(#id0)}
    .fil13 {fill:url(#id1)}
    .fil15 {fill:url(#id2)}
    .fil20 {fill:url(#id3)}
    .fil12 {fill:url(#id4)}
    .fil17 {fill:url(#id5)}
    .fil7 {fill:url(#id6)}
    .fil18 {fill:url(#id7)}
    .fil16 {fill:url(#id8)}
    .fil8 {fill:url(#id9)}
    .fil10 {fill:url(#id10)}
    .fil6 {fill:url(#id11)}
    .fil9 {fill:url(#id12)}
    .fil11 {fill:url(#id13)}
    .fil5 {fill:url(#id14)}
   ]]>
  </style>
  <linearGradient id="id0" gradientUnits="userSpaceOnUse" x1="525.08" y1="903.28" x2="1380.02" y2="2136.86">
   <stop offset="0" style="stop-opacity:1; stop-color:#FF9A00"/>
   <stop offset="1" style="stop-opacity:1; stop-color:#E96B10"/>
  </linearGradient>
  <linearGradient id="id1" gradientUnits="userSpaceOnUse" x1="1817.89" y1="445.54" x2="1477.47" y2="778.94">
   <stop offset="0" style="stop-opacity:1; stop-color:#BA7F26"/>
   <stop offset="1" style="stop-opacity:1; stop-color:#E96B10"/>
  </linearGradient>
  <linearGradient id="id2" gradientUnits="userSpaceOnUse" x1="910.28" y1="440.23" x2="1044.42" y2="746.87">
   <stop offset="0" style="stop-opacity:1; stop-color:black"/>
   <stop offset="1" style="stop-opacity:0; stop-color:black"/>
  </linearGradient>
  <linearGradient id="id3" gradientUnits="userSpaceOnUse" xlink:href="#id0" x1="1308.84" y1="919.24" x2="2116.94" y2="2085.22">
  </linearGradient>
  <linearGradient id="id4" gradientUnits="userSpaceOnUse" xlink:href="#id1" x1="781.03" y1="406.03" x2="1062.73" y2="812.49">
  </linearGradient>
  <linearGradient id="id5" gradientUnits="userSpaceOnUse" xlink:href="#id2" x1="1694.81" y1="443.39" x2="1624.51" y2="740.27">
  </linearGradient>
  <linearGradient id="id6" gradientUnits="userSpaceOnUse" x1="4917.14" y1="695.26" x2="3200" y2="1463.44">
   <stop offset="0" style="stop-opacity:1; stop-color:white"/>
   <stop offset="1" style="stop-opacity:0; stop-color:white"/>
  </linearGradient>
  <linearGradient id="id7" gradientUnits="userSpaceOnUse" xlink:href="#id1" x1="1876.07" y1="457.23" x2="1439.85" y2="710.85">
  </linearGradient>
  <linearGradient id="id8" gradientUnits="userSpaceOnUse" xlink:href="#id1" x1="683.02" y1="419.3" x2="1172.24" y2="727.74">
  </linearGradient>
  <linearGradient id="id9" gradientUnits="userSpaceOnUse" x1="5004.01" y1="750.99" x2="3687.97" y2="1350.25">
   <stop offset="0" style="stop-opacity:1; stop-color:#B3B3B3"/>
   <stop offset="1" style="stop-opacity:0; stop-color:#B3B3B3"/>
  </linearGradient>
  <radialGradient id="id10" gradientUnits="userSpaceOnUse" gradientTransform="matrix(0.996799 -0 -0 0.910897 14 98)" cx="4393.75" cy="1100.98" r="338.06" fx="4393.75" fy="1100.98">
   <stop offset="0" style="stop-opacity:1; stop-color:#666666"/>
   <stop offset="1" style="stop-opacity:0; stop-color:#666666"/>
  </radialGradient>
  <radialGradient id="id11" gradientUnits="userSpaceOnUse" gradientTransform="matrix(0.996466 -0 -0 0.370044 14 1087)" cx="4058.57" cy="1725.82" r="1118.74" fx="4058.57" fy="1725.82">
   <stop offset="0" style="stop-opacity:1; stop-color:#CCCCCC"/>
   <stop offset="0.619608" style="stop-opacity:1; stop-color:#E8E8E8"/>
   <stop offset="0.901961" style="stop-opacity:1; stop-color:#EDEDED"/>
   <stop offset="1" style="stop-opacity:1; stop-color:#CCCCCC"/>
  </radialGradient>
  <radialGradient id="id12" gradientUnits="userSpaceOnUse" gradientTransform="matrix(1.34769 -0 -0 1.21395 -1297 -246)" cx="3729" cy="1150.4" r="251.93" fx="3729" fy="1150.4">
   <stop offset="0" style="stop-opacity:1; stop-color:white"/>
   <stop offset="1" style="stop-opacity:0; stop-color:white"/>
  </radialGradient>
  <radialGradient id="id13" gradientUnits="userSpaceOnUse" gradientTransform="matrix(1.95693 -0.0268631 0.00194827 0.33582 -4412 916)" xlink:href="#id12" cx="4608.18" cy="1192.44" r="466.09" fx="4608.18" fy="1192.44">
  </radialGradient>
  <radialGradient id="id14" gradientUnits="userSpaceOnUse" gradientTransform="matrix(1.01683 -0 -0 0.377605 -69 1085)" cx="4101.98" cy="1743.8" r="1116.52" fx="4101.98" fy="1743.8">
   <stop offset="0" style="stop-opacity:1; stop-color:#CCCCCC"/>
   <stop offset="0.929412" style="stop-opacity:1; stop-color:#A3A3A3"/>
   <stop offset="0.960784" style="stop-opacity:1; stop-color:#EAEAEA"/>
   <stop offset="0.960784" style="stop-opacity:1; stop-color:#EAEAEA"/>
   <stop offset="1" style="stop-opacity:1; stop-color:#CCCCCC"/>
  </radialGradient>
 </defs>
 <g id="Capa_x0020_1">
  <metadata id="CorelCorpID_0Corel-Layer"/>
  <g id="cesta-vacia.svg">
   <sodipodi:namedview id="base" bordercolor="#666666" inkscape:pageshadow="2" inkscape:window-y="-4" fit-margin-left="0" pagecolor="#ffffff" fit-margin-top="0" inkscape:window-maximized="1" inkscape:zoom="1.2074968" inkscape:window-x="-4" inkscape:window-height="844" showgrid="false" borderopacity="1.0" inkscape:current-layer="layer1" inkscape:cx="273.13568" inkscape:cy="267.08145" fit-margin-right="0" fit-margin-bottom="0" inkscape:window-width="1440" inkscape:pageopacity="0.0" inkscape:document-units="px"/>
   <g id="layer1" inkscape:label="Capa 1" inkscape:groupmode="layer">
    <path id="path4601" class="fil0" d="M-149 1697c0,151 -468,272 -1045,272 -577,0 -1045,-121 -1045,-272 0,-150 468,-272 1045,-272 577,0 1045,122 1045,272z" sodipodi:rx="181.33849" sodipodi:ry="36.87384" sodipodi:type="arc" inkscape:export-ydpi="63.570896" inkscape:export-filename="C:\wamp-120428\www\sanmiguel\img\cesta_llena_400.png" sodipodi:cy="472.38339" sodipodi:cx="266.19882" inkscape:export-xdpi="63.570896"/>
    <path id="path4605" class="fil1" d="M-2327 781l1807 0 -277 946c0,0 -170,84 -626,84 -457,0 -627,-84 -627,-84l-277 -946z" inkscape:export-ydpi="63.570896" sodipodi:nodetypes="ccczcc" inkscape:export-filename="C:\wamp-120428\www\sanmiguel\img\cesta_llena_400.png" inkscape:connector-curvature="0" inkscape:export-xdpi="63.570896"/>
    <path id="path4823" class="fil2 str0" d="M-2216 1086c0,0 -122,-315 -112,-479 37,-591 472,-786 912,-786 439,0 904,340 911,786 3,165 -121,479 -121,479" sodipodi:nodetypes="cszsc" inkscape:connector-curvature="0"/>
    <path id="path4825" class="fil3 str1" d="M-2216 1086c0,0 -122,-315 -112,-479 37,-591 472,-786 912,-786 439,0 904,340 911,786 3,165 -121,479 -121,479" sodipodi:nodetypes="cszsc" inkscape:connector-curvature="0"/>
    <line id="path4989" class="fil2 str2" x1="-1410" y1="814" x2="-1413" y2= "1704"  inkscape:export-ydpi="63.570896" sodipodi:nodetypes="cc" inkscape:export-filename="C:\wamp-120428\www\sanmiguel\img\cesta_llena_400.png" inkscape:connector-curvature="0" inkscape:export-xdpi="63.570896"/>
    <line id="path4991" class="fil2 str2" x1="-2338" y1="778" x2="-2072" y2= "1689"  inkscape:export-ydpi="63.570896" sodipodi:nodetypes="cc" inkscape:export-filename="C:\wamp-120428\www\sanmiguel\img\cesta_llena_400.png" inkscape:connector-curvature="0" inkscape:export-xdpi="63.570896"/>
    <line id="path4994" class="fil2 str2" x1="-1865" y1="775" x2="-1738" y2= "1710"  inkscape:export-ydpi="63.570896" sodipodi:nodetypes="cc" inkscape:export-filename="C:\wamp-120428\www\sanmiguel\img\cesta_llena_400.png" inkscape:connector-curvature="0" inkscape:export-xdpi="63.570896"/>
    <line id="path4996" class="fil2 str2" x1="-493" y1="763" x2="-754" y2= "1686"  inkscape:export-ydpi="63.570896" sodipodi:nodetypes="cc" inkscape:export-filename="C:\wamp-120428\www\sanmiguel\img\cesta_llena_400.png" inkscape:connector-curvature="0" inkscape:export-xdpi="63.570896"/>
    <line id="path4998" class="fil2 str2" x1="-960" y1="780" x2="-1085" y2= "1714"  inkscape:export-ydpi="63.570896" sodipodi:nodetypes="cc" inkscape:export-filename="C:\wamp-120428\www\sanmiguel\img\cesta_llena_400.png" inkscape:connector-curvature="0" inkscape:export-xdpi="63.570896"/>
    <g id="g5000" inkscape:export-ydpi="63.570896" inkscape:export-filename="C:\wamp-120428\www\sanmiguel\img\cesta_llena_400.png" inkscape:export-xdpi="63.570896">
     <path id="path5002" class="fil2 str3" d="M-1882 805c0,0 164,-32 248,-32 84,0 248,32 248,32" sodipodi:nodetypes="cac" inkscape:connector-curvature="0"/>
     <path id="path5004" class="fil2 str3" d="M-1440 805c0,0 164,-32 248,-32 84,0 248,32 248,32" sodipodi:nodetypes="cac" inkscape:connector-curvature="0"/>
     <path id="path5006" class="fil2 str3" d="M-997 805c0,0 164,-39 248,-50 91,-12 276,-15 276,-15" sodipodi:nodetypes="cac" inkscape:connector-curvature="0"/>
     <path id="path5008" class="fil2 str3" d="M-2334 759c0,0 172,-3 257,5 83,8 248,41 248,41" sodipodi:nodetypes="cac" inkscape:connector-curvature="0"/>
    </g>
    <g id="g5010" inkscape:export-ydpi="63.570896" inkscape:export-filename="C:\wamp-120428\www\sanmiguel\img\cesta_llena_400.png" inkscape:export-xdpi="63.570896">
     <path id="path5012" class="fil2 str4" d="M-1759 1775c0,0 120,47 183,47 63,0 183,-47 183,-47" sodipodi:nodetypes="cac" inkscape:connector-curvature="0"/>
     <path id="path5014" class="fil2 str4" d="M-1433 1775c0,0 120,47 183,47 63,0 183,-47 183,-47" sodipodi:nodetypes="cac" inkscape:connector-curvature="0"/>
     <path id="path5016" class="fil2 str4" d="M-1106 1747c0,0 121,40 183,37 63,-3 183,-55 183,-55" sodipodi:nodetypes="cac" inkscape:connector-curvature="0"/>
     <path id="path5018" class="fil2 str4" d="M-2086 1729c0,0 120,52 183,55 62,3 183,-37 183,-37" sodipodi:nodetypes="cac" inkscape:connector-curvature="0"/>
    </g>
    <g id="g5020" inkscape:export-ydpi="63.570896" inkscape:export-filename="C:\wamp-120428\www\sanmiguel\img\cesta_llena_400.png" inkscape:export-xdpi="63.570896">
     <path id="path5022" class="fil2 str5" d="M-1602 1709c0,0 125,35 189,35 65,0 190,-35 190,-35" sodipodi:nodetypes="cac" inkscape:connector-curvature="0"/>
     <path id="path5024" class="fil2 str5" d="M-1255 1700c0,0 125,35 190,35 64,0 189,-35 189,-35" sodipodi:nodetypes="cac" inkscape:connector-curvature="0"/>
     <path id="path5026" class="fil2 str5" d="M-1894 1700c0,0 125,35 190,35 64,0 189,-35 189,-35" sodipodi:nodetypes="cac" inkscape:connector-curvature="0"/>
     <path id="path5028" class="fil2 str5" d="M-2115 1690c0,0 83,35 127,35 43,0 126,-35 126,-35" sodipodi:nodetypes="cac" inkscape:connector-curvature="0"/>
     <path id="path5030" class="fil2 str5" d="M-716 1690c0,0 -83,35 -126,35 -44,0 -127,-35 -127,-35" sodipodi:nodetypes="cac" inkscape:connector-curvature="0"/>
    </g>
    <g id="g5032" inkscape:export-ydpi="63.570896" inkscape:export-filename="C:\wamp-120428\www\sanmiguel\img\cesta_llena_400.png" inkscape:export-xdpi="63.570896">
     <path id="path5034" class="fil2 str6" d="M-1781 1636c0,0 129,46 195,46 65,0 194,-46 194,-46" sodipodi:nodetypes="cac" inkscape:connector-curvature="0"/>
     <path id="path5036" class="fil2 str6" d="M-1434 1636c0,0 129,46 194,46 66,0 195,-46 195,-46" sodipodi:nodetypes="cac" inkscape:connector-curvature="0"/>
     <path id="path5038" class="fil2 str6" d="M-1087 1636c0,0 128,46 194,46 66,0 194,-46 194,-46" sodipodi:nodetypes="cac" inkscape:connector-curvature="0"/>
     <path id="path5040" class="fil2 str6" d="M-2127 1636c0,0 128,46 194,46 66,0 194,-46 194,-46" sodipodi:nodetypes="cac" inkscape:connector-curvature="0"/>
    </g>
    <g id="g5042" inkscape:export-ydpi="63.570896" inkscape:export-filename="C:\wamp-120428\www\sanmiguel\img\cesta_llena_400.png" inkscape:export-xdpi="63.570896">
     <path id="path5044" class="fil2 str7" d="M-1607 1580c0,0 129,46 194,46 66,0 195,-46 195,-46" sodipodi:nodetypes="cac" inkscape:connector-curvature="0"/>
     <path id="path5046" class="fil2 str7" d="M-1251 1580c0,0 129,46 195,46 66,0 195,-46 195,-46" sodipodi:nodetypes="cac" inkscape:connector-curvature="0"/>
     <path id="path5048" class="fil2 str7" d="M-1907 1580c0,0 129,46 195,46 66,0 195,-46 195,-46" sodipodi:nodetypes="cac" inkscape:connector-curvature="0"/>
     <path id="path5050" class="fil2 str7" d="M-2133 1580c0,0 85,46 130,46 44,0 129,-46 129,-46" sodipodi:nodetypes="cac" inkscape:connector-curvature="0"/>
     <path id="path5052" class="fil2 str7" d="M-697 1580c0,0 -85,46 -130,46 -45,0 -130,-46 -130,-46" sodipodi:nodetypes="cac" inkscape:connector-curvature="0"/>
    </g>
    <g id="g5054" inkscape:export-ydpi="63.570896" inkscape:export-filename="C:\wamp-120428\www\sanmiguel\img\cesta_llena_400.png" inkscape:export-xdpi="63.570896">
     <path id="path5056" class="fil2 str8" d="M-1791 1533c0,0 132,47 200,47 67,0 199,-47 199,-47" sodipodi:nodetypes="cac" inkscape:connector-curvature="0"/>
     <path id="path5058" class="fil2 str8" d="M-1434 1533c0,0 132,47 199,47 68,0 200,-47 200,-47" sodipodi:nodetypes="cac" inkscape:connector-curvature="0"/>
     <path id="path5060" class="fil2 str8" d="M-1078 1533c0,0 132,47 200,47 67,0 200,-47 200,-47" sodipodi:nodetypes="cac" inkscape:connector-curvature="0"/>
     <path id="path5062" class="fil2 str8" d="M-2148 1533c0,0 132,47 200,47 68,0 200,-47 200,-47" sodipodi:nodetypes="cac" inkscape:connector-curvature="0"/>
    </g>
    <g id="g5064" inkscape:export-ydpi="63.570896" inkscape:export-filename="C:\wamp-120428\www\sanmiguel\img\cesta_llena_400.png" inkscape:export-xdpi="63.570896">
     <path id="path5066" class="fil2 str9" d="M-1619 1468c0,0 137,47 207,47 70,0 206,-47 206,-47" sodipodi:nodetypes="cac" inkscape:connector-curvature="0"/>
     <path id="path5068" class="fil2 str9" d="M-1241 1468c0,0 136,47 206,47 70,0 207,-47 207,-47" sodipodi:nodetypes="cac" inkscape:connector-curvature="0"/>
     <path id="path5070" class="fil2 str9" d="M-1936 1468c0,0 136,47 206,47 70,0 207,-47 207,-47" sodipodi:nodetypes="cac" inkscape:connector-curvature="0"/>
     <path id="path5072" class="fil2 str9" d="M-2176 1468c0,0 90,47 137,47 48,0 138,-47 138,-47" sodipodi:nodetypes="cac" inkscape:connector-curvature="0"/>
     <path id="path5074" class="fil2 str9" d="M-654 1468c0,0 -91,47 -138,47 -48,0 -138,-47 -138,-47" sodipodi:nodetypes="cac" inkscape:connector-curvature="0"/>
    </g>
    <g id="g5076" inkscape:export-ydpi="63.570896" inkscape:export-filename="C:\wamp-120428\www\sanmiguel\img\cesta_llena_400.png" inkscape:export-xdpi="63.570896">
     <path id="path5078" class="fil2 str10" d="M-1810 1412c0,0 139,47 210,47 71,0 209,-47 209,-47" sodipodi:nodetypes="cac" inkscape:connector-curvature="0"/>
     <path id="path5080" class="fil2 str10" d="M-1435 1412c0,0 138,47 209,47 71,0 210,-47 210,-47" sodipodi:nodetypes="cac" inkscape:connector-curvature="0"/>
     <path id="path5082" class="fil2 str10" d="M-1061 1412c0,0 139,47 209,47 71,0 210,-47 210,-47" sodipodi:nodetypes="cac" inkscape:connector-curvature="0"/>
     <path id="path5084" class="fil2 str10" d="M-2184 1412c0,0 138,47 209,47 71,0 210,-47 210,-47" sodipodi:nodetypes="cac" inkscape:connector-curvature="0"/>
    </g>
    <g id="g5086" inkscape:export-ydpi="63.570896" inkscape:export-filename="C:\wamp-120428\www\sanmiguel\img\cesta_llena_400.png" inkscape:export-xdpi="63.570896">
     <path id="path5088" class="fil2 str11" d="M-1626 1347c0,0 141,47 214,47 72,0 214,-47 214,-47" sodipodi:nodetypes="cac" inkscape:connector-curvature="0"/>
     <path id="path5090" class="fil2 str11" d="M-1235 1347c0,0 142,47 215,47 72,0 214,-47 214,-47" sodipodi:nodetypes="cac" inkscape:connector-curvature="0"/>
     <path id="path5092" class="fil2 str11" d="M-1956 1347c0,0 142,47 215,47 72,0 214,-47 214,-47" sodipodi:nodetypes="cac" inkscape:connector-curvature="0"/>
     <path id="path5094" class="fil2 str11" d="M-2205 1347c0,0 94,47 143,47 49,0 143,-47 143,-47" sodipodi:nodetypes="cac" inkscape:connector-curvature="0"/>
     <path id="path5096" class="fil2 str11" d="M-626 1347c0,0 -93,47 -143,47 -49,0 -142,-47 -142,-47" sodipodi:nodetypes="cac" inkscape:connector-curvature="0"/>
    </g>
    <g id="g5098" inkscape:export-ydpi="63.570896" inkscape:export-filename="C:\wamp-120428\www\sanmiguel\img\cesta_llena_400.png" inkscape:export-xdpi="63.570896">
     <path id="path5100" class="fil2 str12" d="M-1827 1292c0,0 144,46 218,46 75,0 219,-46 219,-46" sodipodi:nodetypes="cac" inkscape:connector-curvature="0"/>
     <path id="path5102" class="fil2 str12" d="M-1436 1292c0,0 144,46 218,46 75,0 219,-46 219,-46" sodipodi:nodetypes="cac" inkscape:connector-curvature="0"/>
     <path id="path5104" class="fil2 str12" d="M-1046 1292c0,0 145,46 219,46 75,0 219,-46 219,-46" sodipodi:nodetypes="cac" inkscape:connector-curvature="0"/>
     <path id="path5106" class="fil2 str12" d="M-2218 1292c0,0 144,46 219,46 74,0 218,-46 218,-46" sodipodi:nodetypes="cac" inkscape:connector-curvature="0"/>
    </g>
    <g id="g5108" inkscape:export-ydpi="63.570896" inkscape:export-filename="C:\wamp-120428\www\sanmiguel\img\cesta_llena_400.png" inkscape:export-xdpi="63.570896">
     <path id="path5110" class="fil2 str13" d="M-1634 1227c0,0 147,46 222,46 75,0 222,-46 222,-46" sodipodi:nodetypes="cac" inkscape:connector-curvature="0"/>
     <path id="path5112" class="fil2 str13" d="M-1228 1227c0,0 147,46 222,46 75,0 222,-46 222,-46" sodipodi:nodetypes="cac" inkscape:connector-curvature="0"/>
     <path id="path5114" class="fil2 str13" d="M-1975 1227c0,0 147,46 222,46 75,0 222,-46 222,-46" sodipodi:nodetypes="cac" inkscape:connector-curvature="0"/>
     <path id="path5116" class="fil2 str13" d="M-2234 1227c0,0 97,46 148,46 52,0 149,-46 149,-46" sodipodi:nodetypes="cac" inkscape:connector-curvature="0"/>
     <path id="path5118" class="fil2 str13" d="M-597 1227c0,0 -97,46 -148,46 -51,0 -148,-46 -148,-46" sodipodi:nodetypes="cac" inkscape:connector-curvature="0"/>
    </g>
    <g id="g5121" inkscape:export-ydpi="63.570896" inkscape:export-filename="C:\wamp-120428\www\sanmiguel\img\cesta_llena_400.png" inkscape:export-xdpi="63.570896">
     <path id="path5123" class="fil2 str14" d="M-1847 1171c0,0 152,46 229,46 78,0 230,-46 230,-46" sodipodi:nodetypes="cac" inkscape:connector-curvature="0"/>
     <path id="path5125" class="fil2 str14" d="M-1438 1171c0,0 152,46 230,46 77,0 229,-46 229,-46" sodipodi:nodetypes="cac" inkscape:connector-curvature="0"/>
     <path id="path5127" class="fil2 str14" d="M-1028 1171c0,0 152,46 229,46 78,0 229,-46 229,-46" sodipodi:nodetypes="cac" inkscape:connector-curvature="0"/>
     <path id="path5129" class="fil2 str14" d="M-2256 1171c0,0 151,46 229,46 77,0 229,-46 229,-46" sodipodi:nodetypes="cac" inkscape:connector-curvature="0"/>
    </g>
    <g id="g5131" inkscape:export-ydpi="63.570896" inkscape:export-filename="C:\wamp-120428\www\sanmiguel\img\cesta_llena_400.png" inkscape:export-xdpi="63.570896">
     <path id="path5133" class="fil2 str15" d="M-1643 1096c0,0 153,47 231,47 78,0 231,-47 231,-47" sodipodi:nodetypes="cac" inkscape:connector-curvature="0"/>
     <path id="path5135" class="fil2 str15" d="M-1221 1096c0,0 153,47 231,47 78,0 231,-47 231,-47" sodipodi:nodetypes="cac" inkscape:connector-curvature="0"/>
     <path id="path5137" class="fil2 str15" d="M-1997 1096c0,0 152,47 230,47 79,0 231,-47 231,-47" sodipodi:nodetypes="cac" inkscape:connector-curvature="0"/>
     <path id="path5139" class="fil2 str15" d="M-2266 1096c0,0 101,47 154,47 53,0 154,-47 154,-47" sodipodi:nodetypes="cac" inkscape:connector-curvature="0"/>
     <path id="path5141" class="fil2 str15" d="M-565 1096c0,0 -101,47 -154,47 -53,0 -154,-47 -154,-47" sodipodi:nodetypes="cac" inkscape:connector-curvature="0"/>
    </g>
    <g id="g5143" inkscape:export-ydpi="63.570896" inkscape:export-filename="C:\wamp-120428\www\sanmiguel\img\cesta_llena_400.png" inkscape:export-xdpi="63.570896">
     <path id="path5145" class="fil2 str16" d="M-1863 1041c0,0 157,46 238,46 80,0 237,-46 237,-46" sodipodi:nodetypes="cac" inkscape:connector-curvature="0"/>
     <path id="path5147" class="fil2 str16" d="M-1438 1041c0,0 157,46 237,46 81,0 238,-46 238,-46" sodipodi:nodetypes="cac" inkscape:connector-curvature="0"/>
     <path id="path5149" class="fil2 str16" d="M-1014 1041c0,0 157,46 237,46 81,0 238,-46 238,-46" sodipodi:nodetypes="cac" inkscape:connector-curvature="0"/>
     <path id="path5151" class="fil2 str16" d="M-2287 1041c0,0 157,46 238,46 80,0 237,-46 237,-46" sodipodi:nodetypes="cac" inkscape:connector-curvature="0"/>
    </g>
    <g id="g5153" inkscape:export-ydpi="63.570896" inkscape:export-filename="C:\wamp-120428\www\sanmiguel\img\cesta_llena_400.png" inkscape:export-xdpi="63.570896">
     <path id="path5155" class="fil2 str17" d="M-1655 966c0,0 161,47 243,47 83,0 244,-47 244,-47" sodipodi:nodetypes="cac" inkscape:connector-curvature="0"/>
     <path id="path5157" class="fil2 str17" d="M-1210 966c0,0 161,47 244,47 82,0 243,-47 243,-47" sodipodi:nodetypes="cac" inkscape:connector-curvature="0"/>
     <path id="path5159" class="fil2 str17" d="M-2029 966c0,0 161,47 243,47 83,0 244,-47 244,-47" sodipodi:nodetypes="cac" inkscape:connector-curvature="0"/>
     <path id="path5161" class="fil2 str17" d="M-2322 957c0,0 112,55 172,56 56,1 162,-47 162,-47" sodipodi:nodetypes="cac" inkscape:connector-curvature="0"/>
     <path id="path5163" class="fil2 str17" d="M-509 957c0,0 -111,55 -172,56 -56,1 -162,-47 -162,-47" sodipodi:nodetypes="cac" inkscape:connector-curvature="0"/>
    </g>
    <g id="g5165" inkscape:export-ydpi="63.570896" inkscape:export-filename="C:\wamp-120428\www\sanmiguel\img\cesta_llena_400.png" inkscape:export-xdpi="63.570896">
     <path id="path5167" class="fil2 str18" d="M-1882 910c0,0 164,47 248,47 84,0 248,-47 248,-47" sodipodi:nodetypes="cac" inkscape:connector-curvature="0"/>
     <path id="path5169" class="fil2 str18" d="M-1440 910c0,0 164,47 248,47 84,0 248,-47 248,-47" sodipodi:nodetypes="cac" inkscape:connector-curvature="0"/>
     <path id="path5171" class="fil2 str18" d="M-997 910c0,0 178,33 267,28 84,-5 248,-56 248,-56" sodipodi:nodetypes="cac" inkscape:connector-curvature="0"/>
     <path id="path5173" class="fil2 str18" d="M-2344 882c0,0 163,60 248,66 90,5 267,-38 267,-38" sodipodi:nodetypes="cac" inkscape:connector-curvature="0"/>
    </g>
    <g id="g5175" inkscape:export-ydpi="63.570896" inkscape:export-filename="C:\wamp-120428\www\sanmiguel\img\cesta_llena_400.png" inkscape:export-xdpi="63.570896">
     <path id="path5177" class="fil2 str5" d="M-1666 836c0,0 168,46 254,46 86,0 254,-46 254,-46" sodipodi:nodetypes="cac" inkscape:connector-curvature="0"/>
     <path id="path5179" class="fil2 str5" d="M-1201 836c0,0 168,46 254,46 86,0 254,-46 254,-46" sodipodi:nodetypes="cac" inkscape:connector-curvature="0"/>
     <path id="path5181" class="fil2 str5" d="M-2056 836c0,0 168,46 254,46 86,0 254,-46 254,-46" sodipodi:nodetypes="cac" inkscape:connector-curvature="0"/>
     <path id="path5183" class="fil2 str5" d="M-2361 817c0,0 117,44 178,47 58,2 170,-28 170,-28" sodipodi:nodetypes="cac" inkscape:connector-curvature="0"/>
     <path id="path5185" class="fil2 str5" d="M-469 808c0,0 -111,46 -170,47 -61,0 -179,-47 -179,-47" sodipodi:nodetypes="cac" inkscape:connector-curvature="0"/>
    </g>
    <g id="g5187" inkscape:export-ydpi="63.570896" inkscape:export-filename="C:\wamp-120428\www\sanmiguel\img\cesta_llena_400.png" inkscape:export-xdpi="63.570896">
     <path id="path5189" class="fil2 str4" d="M-1866 762c0,0 146,77 226,83 80,7 236,-46 236,-46" sodipodi:nodetypes="cac" inkscape:connector-curvature="0"/>
     <path id="path5191" class="fil2 str4" d="M-1422 799c0,0 156,50 236,46 85,-4 245,-74 245,-74" sodipodi:nodetypes="cac" inkscape:connector-curvature="0"/>
     <path id="path5193" class="fil2 str4" d="M-968 762c0,0 169,41 254,37 88,-5 254,-65 254,-65" sodipodi:nodetypes="cac" inkscape:connector-curvature="0"/>
     <path id="path5195" class="fil2 str4" d="M-2357 743c0,0 167,62 254,65 86,3 254,-46 254,-46" sodipodi:nodetypes="cac" inkscape:connector-curvature="0"/>
    </g>
   </g>
  </g>
  <g id="plate.svg">
   <sodipodi:namedview id="base" bordercolor="#666666" inkscape:pageshadow="2" inkscape:window-y="25" pagecolor="#ffffff" inkscape:window-height="820" inkscape:window-maximized="1" inkscape:zoom="0.49497475" inkscape:window-x="0" showgrid="false" borderopacity="1.0" inkscape:current-layer="layer2" inkscape:cx="269.34047" inkscape:cy="573.63134" inkscape:window-width="1600" inkscape:pageopacity="0.0" inkscape:document-units="px"/>
   <g id="layer2" inkscape:label="above" inkscape:groupmode="layer">
    <g id="g3949">
     <path id="path3900" class="fil4" d="M4087 627c-8,0 -16,0 -25,0 -26,0 -53,1 -79,2 -188,7 -364,36 -518,81 2,1 4,1 7,1 -357,103 -600,289 -597,493 0,2 0,4 0,7 0,4 0,8 0,12 3,302 515,525 1145,500 629,-25 1136,-290 1133,-592l-6 -53c-51,-233 -406,-406 -866,-442 -1,0 -2,0 -3,0 -1,0 -2,0 -4,0 -60,-6 -123,-9 -187,-9l0 0z" inkscape:connector-curvature="0"/>
     <path id="path2997" class="fil5" d="M5218 1051c4,302 -504,567 -1133,592 -629,26 -1142,-198 -1145,-500 -3,-301 504,-566 1133,-592 586,-23 1079,170 1139,447m6 53l0 0 0 0z" sodipodi:rx="293.44931" sodipodi:ry="113.13708" sodipodi:type="arc" sodipodi:open="true" sodipodi:cy="435.32983" sodipodi:cx="474.26663" sodipodi:end="6.1846048" sodipodi:start="0"/>
     <path id="path3767" class="fil6" d="M5177 1035c3,292 -495,548 -1113,572 -618,25 -1121,-192 -1124,-483 -3,-292 495,-548 1113,-573 575,-22 1059,164 1118,432m6 52l0 0 0 0z" sodipodi:rx="293.44931" sodipodi:ry="113.13708" sodipodi:type="arc" sodipodi:open="true" sodipodi:cy="435.32983" sodipodi:cx="474.26663" sodipodi:end="6.1846048" sodipodi:start="0"/>
     <path id="path3797" class="fil7" d="M5177 1035c3,292 -495,548 -1113,572 -618,25 -1121,-192 -1124,-483 -3,-292 495,-548 1113,-573 575,-22 1059,164 1118,432m6 52l0 0 0 0z" sodipodi:rx="293.44931" sodipodi:ry="113.13708" sodipodi:type="arc" sodipodi:open="true" sodipodi:cy="435.32983" sodipodi:cx="474.26663" sodipodi:end="6.1846048" sodipodi:start="0"/>
     <path id="path3861" class="fil8" d="M4128 547c-27,0 -53,1 -80,2 -187,7 -364,36 -518,81 191,32 335,78 445,134 12,7 23,21 36,20 741,-72 973,406 354,571 -8,3 4,17 6,25 13,60 27,118 48,174 434,-88 745,-295 743,-525l-6 -52c-56,-253 -494,-433 -1028,-430l0 0z" inkscape:connector-curvature="0"/>
     <path id="path3821" class="fil9" d="M4162 786c-14,0 -29,0 -44,1 -337,14 -609,164 -607,334 2,165 262,289 587,283 -276,-7 -491,-127 -492,-283 -2,-170 249,-320 560,-334 9,-1 17,-1 26,-1 -10,0 -20,0 -30,0z" inkscape:connector-curvature="0"/>
     <path id="path3823" class="fil10" d="M4162 786c-4,0 -7,0 -11,0 267,4 482,108 511,253l3 30c1,170 -256,320 -574,334 -12,0 -24,1 -35,1 22,0 45,0 69,-1 337,-14 609,-164 607,-334l-3 -30c-31,-149 -273,-255 -567,-253l0 0z" inkscape:connector-curvature="0"/>
     <path id="path3888" class="fil11" d="M4650 1069c1,153 -230,288 -516,301 -286,13 -519,-101 -520,-254 -2,-154 229,-288 515,-301 266,-12 490,86 518,227m3 27l0 0 0 0z" sodipodi:rx="293.44931" sodipodi:ry="113.13708" sodipodi:type="arc" sodipodi:open="true" sodipodi:cy="435.32983" sodipodi:cx="474.26663" sodipodi:end="6.1846048" sodipodi:start="0"/>
    </g>
   </g>
  </g>
  <g id="szymonraj-Shopping-bag.svg">
   <sodipodi:namedview id="base" bordercolor="#666666" inkscape:pageshadow="2" guidetolerance="10.0" pagecolor="#ffffff" gridtolerance="10.0" inkscape:zoom="1.0132605" objecttolerance="10.0" borderopacity="1.0" inkscape:current-layer="svg2" inkscape:cx="224.48493" inkscape:cy="267.56869" inkscape:window-y="20" inkscape:window-x="13" inkscape:window-height="1086" inkscape:pageopacity="0.0" inkscape:window-width="1173"/>
   <g id="g2008">
    <path id="path10793" class="fil2 str19" d="M648 618c0,0 145,-484 261,-521 116,-37 289,412 289,412"/>
    <path id="path16161" class="fil2 str20" d="M648 618c0,0 145,-484 261,-521 116,-37 289,412 289,412"/>
    <polygon id="path5456" class="fil12" points="1327,472 517,596 1312,746 "/>
    <polygon id="path6355" class="fil13" points="1327,472 1309,746 1344,752 1987,560 "/>
    <polygon id="rect7244" class="fil14" points="1308,478 1334,475 1338,723 1308,723 "/>
    <polygon id="path11694" class="fil15" points="1327,508 623,616 956,679 1332,624 1327,508 "/>
    <polygon id="path11700" class="fil16" points="1329,473 516,589 517,596 932,674 1339,617 "/>
    <polygon id="path12593" class="fil17" points="1329,483 1990,572 1955,700 1331,624 1329,484 "/>
    <polygon id="path12597" class="fil18" points="1328,472 1987,561 1955,696 1337,618 1328,472 "/>
    <polygon id="rect2778" class="fil19" points="515,595 1344,752 1448,2445 457,2202 515,595 "/>
    <polygon id="path5450" class="fil20" points="1988,560 1343,753 1446,2445 2083,2097 1988,560 "/>
    <path id="path10800" class="fil21" d="M1449 842c0,12 -6,23 -16,29 -10,6 -23,6 -33,0 -10,-6 -16,-17 -16,-29 0,-12 6,-22 16,-28 10,-6 23,-6 33,0 10,6 16,16 16,28z"/>
    <path id="path11688" class="fil21" d="M1971 665c0,10 -5,20 -15,26 -9,5 -20,5 -30,0 -9,-6 -15,-16 -15,-26 0,-11 6,-21 15,-26 10,-6 21,-6 30,0 10,5 15,15 15,26z"/>
    <path id="path9904" class="fil2 str21" d="M1416 830c0,0 97,-605 213,-642 116,-37 311,466 311,466"/>
    <path id="path13504" class="fil2 str22" d="M1416 830c0,0 97,-605 213,-642 116,-37 311,466 311,466"/>
   </g>
  </g>
 </g>
 <g id="Capa_x0020_1_0">
  <metadata id="CorelCorpID_1Corel-Layer"/>
 </g>
</svg>
