<?xml version="1.0" encoding="UTF-8"?>
<!DOCTYPE svg PUBLIC "-//W3C//DTD SVG 1.1//EN" "http://www.w3.org/Graphics/SVG/1.1/DTD/svg11.dtd">
<!-- Creator: CorelDRAW X7 -->
<svg xmlns="http://www.w3.org/2000/svg" xml:space="preserve" width="25.4mm" height="25.4mm" version="1.1" style="shape-rendering:geometricPrecision; text-rendering:geometricPrecision; image-rendering:optimizeQuality; fill-rule:evenodd; clip-rule:evenodd"
viewBox="0 0 2540 2540"
 xmlns:xlink="http://www.w3.org/1999/xlink"
 sodipodi:docname="dish.svg"
 inkscape:version="0.48.3.1 r9886"
 xmlns:rdf="http://www.w3.org/1999/02/22-rdf-syntax-ns#"
 xmlns:cc="http://web.resource.org/cc/"
 xmlns:dc="http://purl.org/dc/elements/1.1/"
 xmlns:svg="http://www.w3.org/2000/svg"
 xmlns:inkscape="http://www.inkscape.org/namespaces/inkscape"
 xmlns:sodipodi="http://sodipodi.sourceforge.net/DTD/sodipodi-0.dtd"
 xmlns:ns1="http://sozi.baierouge.fr">
 <defs>
  <style type="text/css">
   <![CDATA[
    .str1 {stroke:black;stroke-width:111.59;stroke-linecap:round;stroke-linejoin:round;stroke-opacity:0.501961}
    .str14 {stroke:#D4AA00;stroke-width:43.63;stroke-linecap:round;stroke-linejoin:round}
    .str2 {stroke:#806600;stroke-width:74.4;stroke-linecap:round;stroke-linejoin:round}
    .str5 {stroke:#AA8800;stroke-width:46.5;stroke-linecap:round;stroke-linejoin:round}
    .str4 {stroke:#D4AA00;stroke-width:46.5;stroke-linecap:round;stroke-linejoin:round}
    .str10 {stroke:#D4AA00;stroke-width:41.72;stroke-linecap:round;stroke-linejoin:round}
    .str15 {stroke:#AA8800;stroke-width:44.31;stroke-linecap:round;stroke-linejoin:round}
    .str16 {stroke:#D4AA00;stroke-width:44.41;stroke-linecap:round;stroke-linejoin:round}
    .str9 {stroke:#AA8800;stroke-width:41.91;stroke-linecap:round;stroke-linejoin:round}
    .str3 {stroke:#AA8800;stroke-width:54.99;stroke-linecap:round;stroke-linejoin:round}
    .str0 {stroke:#806600;stroke-width:111.59;stroke-linecap:round;stroke-linejoin:round}
    .str12 {stroke:#D4AA00;stroke-width:42.63;stroke-linecap:round;stroke-linejoin:round}
    .str11 {stroke:#AA8800;stroke-width:42.69;stroke-linecap:round;stroke-linejoin:round}
    .str6 {stroke:#D4AA00;stroke-width:40.16;stroke-linecap:round;stroke-linejoin:round}
    .str18 {stroke:#D4AA00;stroke-width:45.37;stroke-linecap:round;stroke-linejoin:round}
    .str17 {stroke:#AA8800;stroke-width:45.51;stroke-linecap:round;stroke-linejoin:round}
    .str7 {stroke:#AA8800;stroke-width:40.71;stroke-linecap:round;stroke-linejoin:round}
    .str8 {stroke:#D4AA00;stroke-width:40.72;stroke-linecap:round;stroke-linejoin:round}
    .str13 {stroke:#AA8800;stroke-width:43.46;stroke-linecap:round;stroke-linejoin:round}
    .fil2 {fill:none}
    .fil3 {fill:none}
    .fil1 {fill:#504416}
    .fil4 {fill:#666666}
    .fil0 {fill:black;fill-opacity:0.149020}
    .fil8 {fill:url(#id0)}
    .fil7 {fill:url(#id1)}
    .fil6 {fill:url(#id2)}
    .fil10 {fill:url(#id3)}
    .fil9 {fill:url(#id4)}
    .fil11 {fill:url(#id5)}
    .fil5 {fill:url(#id6)}
   ]]>
  </style>
  <linearGradient id="id0" gradientUnits="userSpaceOnUse" x1="5270.43" y1="1147.48" x2="3954.39" y2="1746.74">
   <stop offset="0" style="stop-opacity:1; stop-color:#B3B3B3"/>
   <stop offset="1" style="stop-opacity:0; stop-color:#B3B3B3"/>
  </linearGradient>
  <linearGradient id="id1" gradientUnits="userSpaceOnUse" x1="5183.56" y1="1091.75" x2="3466.42" y2="1859.93">
   <stop offset="0" style="stop-opacity:1; stop-color:white"/>
   <stop offset="1" style="stop-opacity:0; stop-color:white"/>
  </linearGradient>
  <radialGradient id="id2" gradientUnits="userSpaceOnUse" gradientTransform="matrix(0.996466 -0 -0 0.370044 15 1337)" cx="4324.99" cy="2122.31" r="1118.74" fx="4324.99" fy="2122.31">
   <stop offset="0" style="stop-opacity:1; stop-color:#CCCCCC"/>
   <stop offset="0.619608" style="stop-opacity:1; stop-color:#E8E8E8"/>
   <stop offset="0.901961" style="stop-opacity:1; stop-color:#EDEDED"/>
   <stop offset="1" style="stop-opacity:1; stop-color:#CCCCCC"/>
  </radialGradient>
  <radialGradient id="id3" gradientUnits="userSpaceOnUse" gradientTransform="matrix(0.996799 -0 -0 0.910897 15 133)" cx="4660.17" cy="1497.47" r="338.06" fx="4660.17" fy="1497.47">
   <stop offset="0" style="stop-opacity:1; stop-color:#666666"/>
   <stop offset="1" style="stop-opacity:0; stop-color:#666666"/>
  </radialGradient>
  <radialGradient id="id4" gradientUnits="userSpaceOnUse" gradientTransform="matrix(1.34769 -0 -0 1.21395 -1389 -331)" cx="3995.42" cy="1546.89" r="251.93" fx="3995.42" fy="1546.89">
   <stop offset="0" style="stop-opacity:1; stop-color:white"/>
   <stop offset="1" style="stop-opacity:0; stop-color:white"/>
  </radialGradient>
  <radialGradient id="id5" gradientUnits="userSpaceOnUse" gradientTransform="matrix(1.95693 -0.0268631 0.00194827 0.33582 -4668 1186)" xlink:href="#id4" cx="4874.6" cy="1588.93" r="466.09" fx="4874.6" fy="1588.93">
  </radialGradient>
  <radialGradient id="id6" gradientUnits="userSpaceOnUse" gradientTransform="matrix(1.01683 -0 -0 0.377605 -74 1332)" cx="4368.4" cy="2140.29" r="1116.52" fx="4368.4" fy="2140.29">
   <stop offset="0" style="stop-opacity:1; stop-color:#CCCCCC"/>
   <stop offset="0.929412" style="stop-opacity:1; stop-color:#A3A3A3"/>
   <stop offset="0.960784" style="stop-opacity:1; stop-color:#EAEAEA"/>
   <stop offset="0.960784" style="stop-opacity:1; stop-color:#EAEAEA"/>
   <stop offset="1" style="stop-opacity:1; stop-color:#CCCCCC"/>
  </radialGradient>
 </defs>
 <g id="Capa_x0020_1">
  <metadata id="CorelCorpID_0Corel-Layer"/>
  <g id="cesta-vacia.svg">
   <sodipodi:namedview id="base" bordercolor="#666666" inkscape:pageshadow="2" inkscape:window-y="-4" fit-margin-left="0" pagecolor="#ffffff" fit-margin-top="0" inkscape:window-maximized="1" inkscape:zoom="1.2074968" inkscape:window-x="-4" inkscape:window-height="844" showgrid="false" borderopacity="1.0" inkscape:current-layer="layer1" inkscape:cx="273.13568" inkscape:cy="267.08145" fit-margin-right="0" fit-margin-bottom="0" inkscape:window-width="1440" inkscape:pageopacity="0.0" inkscape:document-units="px"/>
   <g id="layer1" inkscape:label="Capa 1" inkscape:groupmode="layer">
    <path id="path4601" class="fil0" d="M2579 2089c0,151 -468,273 -1045,273 -577,0 -1045,-122 -1045,-273 0,-150 468,-272 1045,-272 577,0 1045,122 1045,272z" sodipodi:rx="181.33849" sodipodi:ry="36.87384" sodipodi:type="arc" inkscape:export-ydpi="63.570896" inkscape:export-filename="C:\wamp-120428\www\sanmiguel\img\cesta_llena_400.png" sodipodi:cy="472.38339" sodipodi:cx="266.19882" inkscape:export-xdpi="63.570896"/>
    <path id="path4605" class="fil1" d="M401 1173l1808 0 -277 946c0,0 -171,84 -627,84 -457,0 -627,-84 -627,-84l-277 -946z" inkscape:export-ydpi="63.570896" sodipodi:nodetypes="ccczcc" inkscape:export-filename="C:\wamp-120428\www\sanmiguel\img\cesta_llena_400.png" inkscape:connector-curvature="0" inkscape:export-xdpi="63.570896"/>
    <path id="path4823" class="fil2 str0" d="M512 1478c0,0 -122,-315 -112,-479 37,-591 472,-785 912,-785 440,0 905,339 911,785 3,165 -120,479 -120,479" sodipodi:nodetypes="cszsc" inkscape:connector-curvature="0"/>
    <path id="path4825" class="fil3 str1" d="M512 1478c0,0 -122,-315 -112,-479 37,-591 472,-785 912,-785 440,0 905,339 911,785 3,165 -120,479 -120,479" sodipodi:nodetypes="cszsc" inkscape:connector-curvature="0"/>
    <line id="path4989" class="fil2 str2" x1="1318" y1="1206" x2="1315" y2= "2096"  inkscape:export-ydpi="63.570896" sodipodi:nodetypes="cc" inkscape:export-filename="C:\wamp-120428\www\sanmiguel\img\cesta_llena_400.png" inkscape:connector-curvature="0" inkscape:export-xdpi="63.570896"/>
    <line id="path4991" class="fil2 str2" x1="390" y1="1171" x2="656" y2= "2081"  inkscape:export-ydpi="63.570896" sodipodi:nodetypes="cc" inkscape:export-filename="C:\wamp-120428\www\sanmiguel\img\cesta_llena_400.png" inkscape:connector-curvature="0" inkscape:export-xdpi="63.570896"/>
    <line id="path4994" class="fil2 str2" x1="863" y1="1168" x2="990" y2= "2102"  inkscape:export-ydpi="63.570896" sodipodi:nodetypes="cc" inkscape:export-filename="C:\wamp-120428\www\sanmiguel\img\cesta_llena_400.png" inkscape:connector-curvature="0" inkscape:export-xdpi="63.570896"/>
    <line id="path4996" class="fil2 str2" x1="2235" y1="1155" x2="1974" y2= "2078"  inkscape:export-ydpi="63.570896" sodipodi:nodetypes="cc" inkscape:export-filename="C:\wamp-120428\www\sanmiguel\img\cesta_llena_400.png" inkscape:connector-curvature="0" inkscape:export-xdpi="63.570896"/>
    <line id="path4998" class="fil2 str2" x1="1768" y1="1172" x2="1643" y2= "2106"  inkscape:export-ydpi="63.570896" sodipodi:nodetypes="cc" inkscape:export-filename="C:\wamp-120428\www\sanmiguel\img\cesta_llena_400.png" inkscape:connector-curvature="0" inkscape:export-xdpi="63.570896"/>
    <g id="g5000" inkscape:export-ydpi="63.570896" inkscape:export-filename="C:\wamp-120428\www\sanmiguel\img\cesta_llena_400.png" inkscape:export-xdpi="63.570896">
     <path id="path5002" class="fil2 str3" d="M846 1197c0,0 164,-31 248,-31 84,0 248,31 248,31" sodipodi:nodetypes="cac" inkscape:connector-curvature="0"/>
     <path id="path5004" class="fil2 str3" d="M1289 1197c0,0 164,-31 248,-31 83,0 247,31 247,31" sodipodi:nodetypes="cac" inkscape:connector-curvature="0"/>
     <path id="path5006" class="fil2 str3" d="M1731 1197c0,0 165,-39 248,-50 92,-12 276,-15 276,-15" sodipodi:nodetypes="cac" inkscape:connector-curvature="0"/>
     <path id="path5008" class="fil2 str3" d="M394 1151c0,0 172,-3 257,5 84,8 248,41 248,41" sodipodi:nodetypes="cac" inkscape:connector-curvature="0"/>
    </g>
    <g id="g5010" inkscape:export-ydpi="63.570896" inkscape:export-filename="C:\wamp-120428\www\sanmiguel\img\cesta_llena_400.png" inkscape:export-xdpi="63.570896">
     <path id="path5012" class="fil2 str4" d="M969 2167c0,0 120,47 183,47 63,0 183,-47 183,-47" sodipodi:nodetypes="cac" inkscape:connector-curvature="0"/>
     <path id="path5014" class="fil2 str4" d="M1296 2167c0,0 120,47 182,47 63,0 183,-47 183,-47" sodipodi:nodetypes="cac" inkscape:connector-curvature="0"/>
     <path id="path5016" class="fil2 str4" d="M1622 2139c0,0 121,41 183,38 64,-3 183,-56 183,-56" sodipodi:nodetypes="cac" inkscape:connector-curvature="0"/>
     <path id="path5018" class="fil2 str4" d="M643 2121c0,0 119,53 182,56 63,3 183,-38 183,-38" sodipodi:nodetypes="cac" inkscape:connector-curvature="0"/>
    </g>
    <g id="g5020" inkscape:export-ydpi="63.570896" inkscape:export-filename="C:\wamp-120428\www\sanmiguel\img\cesta_llena_400.png" inkscape:export-xdpi="63.570896">
     <path id="path5022" class="fil2 str5" d="M1126 2101c0,0 125,35 190,35 64,0 189,-35 189,-35" sodipodi:nodetypes="cac" inkscape:connector-curvature="0"/>
     <path id="path5024" class="fil2 str5" d="M1473 2092c0,0 126,35 190,35 64,0 190,-35 190,-35" sodipodi:nodetypes="cac" inkscape:connector-curvature="0"/>
     <path id="path5026" class="fil2 str5" d="M834 2092c0,0 126,35 190,35 64,0 190,-35 190,-35" sodipodi:nodetypes="cac" inkscape:connector-curvature="0"/>
     <path id="path5028" class="fil2 str5" d="M613 2083c0,0 83,34 127,34 44,0 126,-34 126,-34" sodipodi:nodetypes="cac" inkscape:connector-curvature="0"/>
     <path id="path5030" class="fil2 str5" d="M2012 2083c0,0 -82,34 -126,34 -44,0 -127,-34 -127,-34" sodipodi:nodetypes="cac" inkscape:connector-curvature="0"/>
    </g>
    <g id="g5032" inkscape:export-ydpi="63.570896" inkscape:export-filename="C:\wamp-120428\www\sanmiguel\img\cesta_llena_400.png" inkscape:export-xdpi="63.570896">
     <path id="path5034" class="fil2 str6" d="M948 2028c0,0 128,46 194,46 66,0 194,-46 194,-46" sodipodi:nodetypes="cac" inkscape:connector-curvature="0"/>
     <path id="path5036" class="fil2 str6" d="M1294 2028c0,0 129,46 195,46 65,0 194,-46 194,-46" sodipodi:nodetypes="cac" inkscape:connector-curvature="0"/>
     <path id="path5038" class="fil2 str6" d="M1641 2028c0,0 129,46 194,46 66,0 195,-46 195,-46" sodipodi:nodetypes="cac" inkscape:connector-curvature="0"/>
     <path id="path5040" class="fil2 str6" d="M601 2028c0,0 128,46 194,46 66,0 194,-46 194,-46" sodipodi:nodetypes="cac" inkscape:connector-curvature="0"/>
    </g>
    <g id="g5042" inkscape:export-ydpi="63.570896" inkscape:export-filename="C:\wamp-120428\www\sanmiguel\img\cesta_llena_400.png" inkscape:export-xdpi="63.570896">
     <path id="path5044" class="fil2 str7" d="M1121 1972c0,0 129,47 195,47 66,0 195,-47 195,-47" sodipodi:nodetypes="cac" inkscape:connector-curvature="0"/>
     <path id="path5046" class="fil2 str7" d="M1477 1972c0,0 129,47 195,47 66,0 195,-47 195,-47" sodipodi:nodetypes="cac" inkscape:connector-curvature="0"/>
     <path id="path5048" class="fil2 str7" d="M821 1972c0,0 129,47 195,47 66,0 195,-47 195,-47" sodipodi:nodetypes="cac" inkscape:connector-curvature="0"/>
     <path id="path5050" class="fil2 str7" d="M595 1972c0,0 85,47 130,47 45,0 130,-47 130,-47" sodipodi:nodetypes="cac" inkscape:connector-curvature="0"/>
     <path id="path5052" class="fil2 str7" d="M2031 1972c0,0 -85,47 -130,47 -45,0 -130,-47 -130,-47" sodipodi:nodetypes="cac" inkscape:connector-curvature="0"/>
    </g>
    <g id="g5054" inkscape:export-ydpi="63.570896" inkscape:export-filename="C:\wamp-120428\www\sanmiguel\img\cesta_llena_400.png" inkscape:export-xdpi="63.570896">
     <path id="path5056" class="fil2 str8" d="M937 1926c0,0 132,46 200,46 68,0 200,-46 200,-46" sodipodi:nodetypes="cac" inkscape:connector-curvature="0"/>
     <path id="path5058" class="fil2 str8" d="M1294 1926c0,0 132,46 199,46 68,0 200,-46 200,-46" sodipodi:nodetypes="cac" inkscape:connector-curvature="0"/>
     <path id="path5060" class="fil2 str8" d="M1650 1926c0,0 132,46 200,46 68,0 200,-46 200,-46" sodipodi:nodetypes="cac" inkscape:connector-curvature="0"/>
     <path id="path5062" class="fil2 str8" d="M581 1926c0,0 132,46 199,46 68,0 200,-46 200,-46" sodipodi:nodetypes="cac" inkscape:connector-curvature="0"/>
    </g>
    <g id="g5064" inkscape:export-ydpi="63.570896" inkscape:export-filename="C:\wamp-120428\www\sanmiguel\img\cesta_llena_400.png" inkscape:export-xdpi="63.570896">
     <path id="path5066" class="fil2 str9" d="M1109 1860c0,0 137,47 207,47 70,0 206,-47 206,-47" sodipodi:nodetypes="cac" inkscape:connector-curvature="0"/>
     <path id="path5068" class="fil2 str9" d="M1487 1860c0,0 137,47 207,47 70,0 206,-47 206,-47" sodipodi:nodetypes="cac" inkscape:connector-curvature="0"/>
     <path id="path5070" class="fil2 str9" d="M792 1860c0,0 137,47 207,47 69,0 206,-47 206,-47" sodipodi:nodetypes="cac" inkscape:connector-curvature="0"/>
     <path id="path5072" class="fil2 str9" d="M552 1860c0,0 90,47 138,47 47,0 137,-47 137,-47" sodipodi:nodetypes="cac" inkscape:connector-curvature="0"/>
     <path id="path5074" class="fil2 str9" d="M2074 1860c0,0 -90,47 -138,47 -47,0 -138,-47 -138,-47" sodipodi:nodetypes="cac" inkscape:connector-curvature="0"/>
    </g>
    <g id="g5076" inkscape:export-ydpi="63.570896" inkscape:export-filename="C:\wamp-120428\www\sanmiguel\img\cesta_llena_400.png" inkscape:export-xdpi="63.570896">
     <path id="path5078" class="fil2 str10" d="M918 1805c0,0 139,46 210,46 71,0 210,-46 210,-46" sodipodi:nodetypes="cac" inkscape:connector-curvature="0"/>
     <path id="path5080" class="fil2 str10" d="M1293 1805c0,0 138,46 209,46 71,0 210,-46 210,-46" sodipodi:nodetypes="cac" inkscape:connector-curvature="0"/>
     <path id="path5082" class="fil2 str10" d="M1667 1805c0,0 139,46 210,46 71,0 209,-46 209,-46" sodipodi:nodetypes="cac" inkscape:connector-curvature="0"/>
     <path id="path5084" class="fil2 str10" d="M544 1805c0,0 139,46 210,46 71,0 209,-46 209,-46" sodipodi:nodetypes="cac" inkscape:connector-curvature="0"/>
    </g>
    <g id="g5086" inkscape:export-ydpi="63.570896" inkscape:export-filename="C:\wamp-120428\www\sanmiguel\img\cesta_llena_400.png" inkscape:export-xdpi="63.570896">
     <path id="path5088" class="fil2 str11" d="M1102 1740c0,0 141,46 214,46 73,0 214,-46 214,-46" sodipodi:nodetypes="cac" inkscape:connector-curvature="0"/>
     <path id="path5090" class="fil2 str11" d="M1494 1740c0,0 141,46 214,46 72,0 214,-46 214,-46" sodipodi:nodetypes="cac" inkscape:connector-curvature="0"/>
     <path id="path5092" class="fil2 str11" d="M773 1740c0,0 141,46 214,46 72,0 214,-46 214,-46" sodipodi:nodetypes="cac" inkscape:connector-curvature="0"/>
     <path id="path5094" class="fil2 str11" d="M523 1740c0,0 94,46 143,46 50,0 143,-46 143,-46" sodipodi:nodetypes="cac" inkscape:connector-curvature="0"/>
     <path id="path5096" class="fil2 str11" d="M2102 1740c0,0 -93,46 -142,46 -50,0 -143,-46 -143,-46" sodipodi:nodetypes="cac" inkscape:connector-curvature="0"/>
    </g>
    <g id="g5098" inkscape:export-ydpi="63.570896" inkscape:export-filename="C:\wamp-120428\www\sanmiguel\img\cesta_llena_400.png" inkscape:export-xdpi="63.570896">
     <path id="path5100" class="fil2 str12" d="M901 1684c0,0 145,46 219,46 74,0 219,-46 219,-46" sodipodi:nodetypes="cac" inkscape:connector-curvature="0"/>
     <path id="path5102" class="fil2 str12" d="M1292 1684c0,0 145,46 219,46 74,0 219,-46 219,-46" sodipodi:nodetypes="cac" inkscape:connector-curvature="0"/>
     <path id="path5104" class="fil2 str12" d="M1683 1684c0,0 145,46 219,46 74,0 219,-46 219,-46" sodipodi:nodetypes="cac" inkscape:connector-curvature="0"/>
     <path id="path5106" class="fil2 str12" d="M510 1684c0,0 145,46 219,46 74,0 219,-46 219,-46" sodipodi:nodetypes="cac" inkscape:connector-curvature="0"/>
    </g>
    <g id="g5108" inkscape:export-ydpi="63.570896" inkscape:export-filename="C:\wamp-120428\www\sanmiguel\img\cesta_llena_400.png" inkscape:export-xdpi="63.570896">
     <path id="path5110" class="fil2 str13" d="M1094 1619c0,0 147,46 222,46 75,0 222,-46 222,-46" sodipodi:nodetypes="cac" inkscape:connector-curvature="0"/>
     <path id="path5112" class="fil2 str13" d="M1500 1619c0,0 147,46 222,46 75,0 222,-46 222,-46" sodipodi:nodetypes="cac" inkscape:connector-curvature="0"/>
     <path id="path5114" class="fil2 str13" d="M753 1619c0,0 147,46 222,46 75,0 222,-46 222,-46" sodipodi:nodetypes="cac" inkscape:connector-curvature="0"/>
     <path id="path5116" class="fil2 str13" d="M495 1619c0,0 97,46 148,46 51,0 148,-46 148,-46" sodipodi:nodetypes="cac" inkscape:connector-curvature="0"/>
     <path id="path5118" class="fil2 str13" d="M2131 1619c0,0 -97,46 -148,46 -51,0 -148,-46 -148,-46" sodipodi:nodetypes="cac" inkscape:connector-curvature="0"/>
    </g>
    <g id="g5121" inkscape:export-ydpi="63.570896" inkscape:export-filename="C:\wamp-120428\www\sanmiguel\img\cesta_llena_400.png" inkscape:export-xdpi="63.570896">
     <path id="path5123" class="fil2 str14" d="M881 1563c0,0 152,46 229,46 78,0 230,-46 230,-46" sodipodi:nodetypes="cac" inkscape:connector-curvature="0"/>
     <path id="path5125" class="fil2 str14" d="M1291 1563c0,0 151,46 229,46 78,0 229,-46 229,-46" sodipodi:nodetypes="cac" inkscape:connector-curvature="0"/>
     <path id="path5127" class="fil2 str14" d="M1700 1563c0,0 152,46 229,46 78,0 230,-46 230,-46" sodipodi:nodetypes="cac" inkscape:connector-curvature="0"/>
     <path id="path5129" class="fil2 str14" d="M472 1563c0,0 151,46 229,46 78,0 229,-46 229,-46" sodipodi:nodetypes="cac" inkscape:connector-curvature="0"/>
    </g>
    <g id="g5131" inkscape:export-ydpi="63.570896" inkscape:export-filename="C:\wamp-120428\www\sanmiguel\img\cesta_llena_400.png" inkscape:export-xdpi="63.570896">
     <path id="path5133" class="fil2 str15" d="M1085 1488c0,0 153,47 231,47 78,0 231,-47 231,-47" sodipodi:nodetypes="cac" inkscape:connector-curvature="0"/>
     <path id="path5135" class="fil2 str15" d="M1508 1488c0,0 152,47 230,47 79,0 231,-47 231,-47" sodipodi:nodetypes="cac" inkscape:connector-curvature="0"/>
     <path id="path5137" class="fil2 str15" d="M731 1488c0,0 152,47 231,47 78,0 230,-47 230,-47" sodipodi:nodetypes="cac" inkscape:connector-curvature="0"/>
     <path id="path5139" class="fil2 str15" d="M462 1488c0,0 101,47 154,47 53,0 154,-47 154,-47" sodipodi:nodetypes="cac" inkscape:connector-curvature="0"/>
     <path id="path5141" class="fil2 str15" d="M2163 1488c0,0 -100,47 -154,47 -53,0 -153,-47 -153,-47" sodipodi:nodetypes="cac" inkscape:connector-curvature="0"/>
    </g>
    <g id="g5143" inkscape:export-ydpi="63.570896" inkscape:export-filename="C:\wamp-120428\www\sanmiguel\img\cesta_llena_400.png" inkscape:export-xdpi="63.570896">
     <path id="path5145" class="fil2 str16" d="M866 1433c0,0 157,46 237,46 81,0 238,-46 238,-46" sodipodi:nodetypes="cac" inkscape:connector-curvature="0"/>
     <path id="path5147" class="fil2 str16" d="M1290 1433c0,0 157,46 237,46 81,0 238,-46 238,-46" sodipodi:nodetypes="cac" inkscape:connector-curvature="0"/>
     <path id="path5149" class="fil2 str16" d="M1714 1433c0,0 157,46 238,46 80,0 237,-46 237,-46" sodipodi:nodetypes="cac" inkscape:connector-curvature="0"/>
     <path id="path5151" class="fil2 str16" d="M441 1433c0,0 157,46 238,46 80,0 237,-46 237,-46" sodipodi:nodetypes="cac" inkscape:connector-curvature="0"/>
    </g>
    <g id="g5153" inkscape:export-ydpi="63.570896" inkscape:export-filename="C:\wamp-120428\www\sanmiguel\img\cesta_llena_400.png" inkscape:export-xdpi="63.570896">
     <path id="path5155" class="fil2 str17" d="M1073 1358c0,0 161,47 243,47 83,0 244,-47 244,-47" sodipodi:nodetypes="cac" inkscape:connector-curvature="0"/>
     <path id="path5157" class="fil2 str17" d="M1518 1358c0,0 161,47 244,47 82,0 243,-47 243,-47" sodipodi:nodetypes="cac" inkscape:connector-curvature="0"/>
     <path id="path5159" class="fil2 str17" d="M699 1358c0,0 161,47 243,47 83,0 244,-47 244,-47" sodipodi:nodetypes="cac" inkscape:connector-curvature="0"/>
     <path id="path5161" class="fil2 str17" d="M406 1349c0,0 112,55 172,56 56,1 162,-47 162,-47" sodipodi:nodetypes="cac" inkscape:connector-curvature="0"/>
     <path id="path5163" class="fil2 str17" d="M2219 1349c0,0 -111,55 -171,56 -57,1 -163,-47 -163,-47" sodipodi:nodetypes="cac" inkscape:connector-curvature="0"/>
    </g>
    <g id="g5165" inkscape:export-ydpi="63.570896" inkscape:export-filename="C:\wamp-120428\www\sanmiguel\img\cesta_llena_400.png" inkscape:export-xdpi="63.570896">
     <path id="path5167" class="fil2 str18" d="M846 1303c0,0 164,46 248,46 84,0 248,-46 248,-46" sodipodi:nodetypes="cac" inkscape:connector-curvature="0"/>
     <path id="path5169" class="fil2 str18" d="M1289 1303c0,0 164,46 248,46 84,0 248,-46 248,-46" sodipodi:nodetypes="cac" inkscape:connector-curvature="0"/>
     <path id="path5171" class="fil2 str18" d="M1731 1303c0,0 178,33 267,27 84,-5 248,-55 248,-55" sodipodi:nodetypes="cac" inkscape:connector-curvature="0"/>
     <path id="path5173" class="fil2 str18" d="M385 1275c0,0 162,60 247,65 90,5 267,-37 267,-37" sodipodi:nodetypes="cac" inkscape:connector-curvature="0"/>
    </g>
    <g id="g5175" inkscape:export-ydpi="63.570896" inkscape:export-filename="C:\wamp-120428\www\sanmiguel\img\cesta_llena_400.png" inkscape:export-xdpi="63.570896">
     <path id="path5177" class="fil2 str5" d="M1062 1228c0,0 168,47 255,47 86,0 254,-47 254,-47" sodipodi:nodetypes="cac" inkscape:connector-curvature="0"/>
     <path id="path5179" class="fil2 str5" d="M1527 1228c0,0 168,47 254,47 87,0 255,-47 255,-47" sodipodi:nodetypes="cac" inkscape:connector-curvature="0"/>
     <path id="path5181" class="fil2 str5" d="M672 1228c0,0 168,47 254,47 86,0 254,-47 254,-47" sodipodi:nodetypes="cac" inkscape:connector-curvature="0"/>
     <path id="path5183" class="fil2 str5" d="M367 1210c0,0 117,43 179,46 57,3 169,-28 169,-28" sodipodi:nodetypes="cac" inkscape:connector-curvature="0"/>
     <path id="path5185" class="fil2 str5" d="M2259 1200c0,0 -111,46 -170,47 -61,0 -178,-47 -178,-47" sodipodi:nodetypes="cac" inkscape:connector-curvature="0"/>
    </g>
    <g id="g5187" inkscape:export-ydpi="63.570896" inkscape:export-filename="C:\wamp-120428\www\sanmiguel\img\cesta_llena_400.png" inkscape:export-xdpi="63.570896">
     <path id="path5189" class="fil2 str4" d="M862 1154c0,0 146,77 226,83 80,7 236,-46 236,-46" sodipodi:nodetypes="cac" inkscape:connector-curvature="0"/>
     <path id="path5191" class="fil2 str4" d="M1307 1191c0,0 155,50 235,46 85,-4 245,-74 245,-74" sodipodi:nodetypes="cac" inkscape:connector-curvature="0"/>
     <path id="path5193" class="fil2 str4" d="M1760 1154c0,0 169,41 255,37 87,-5 254,-65 254,-65" sodipodi:nodetypes="cac" inkscape:connector-curvature="0"/>
     <path id="path5195" class="fil2 str4" d="M371 1135c0,0 167,62 254,65 86,3 254,-46 254,-46" sodipodi:nodetypes="cac" inkscape:connector-curvature="0"/>
    </g>
   </g>
  </g>
  <g id="plate.svg">
   <sodipodi:namedview id="base" bordercolor="#666666" inkscape:pageshadow="2" inkscape:window-y="25" pagecolor="#ffffff" inkscape:window-height="820" inkscape:window-maximized="1" inkscape:zoom="0.49497475" inkscape:window-x="0" showgrid="false" borderopacity="1.0" inkscape:current-layer="layer2" inkscape:cx="269.34047" inkscape:cy="573.63134" inkscape:window-width="1600" inkscape:pageopacity="0.0" inkscape:document-units="px"/>
   <g id="layer2" inkscape:label="above" inkscape:groupmode="layer">
    <g id="g3949">
     <path id="path3900" class="fil4" d="M4354 1023c-9,0 -17,0 -25,0 -27,1 -53,1 -80,2 -187,8 -363,37 -518,82 2,0 5,0 7,1 -357,102 -599,288 -597,492 0,2 0,5 0,7 0,4 0,8 0,13 3,301 516,525 1145,500 629,-26 1137,-291 1134,-592l-7 -54c-50,-232 -406,-406 -865,-441 -1,-1 -2,-1 -3,-1 -2,0 -3,0 -4,0 -61,-5 -123,-8 -187,-9l0 0z" inkscape:connector-curvature="0"/>
     <path id="path2997" class="fil5" d="M5485 1448c3,301 -504,566 -1134,592 -629,25 -1141,-199 -1145,-500 -3,-302 505,-567 1134,-592 586,-24 1078,169 1139,446m6 54l0 0 0 0z" sodipodi:rx="293.44931" sodipodi:ry="113.13708" sodipodi:type="arc" sodipodi:open="true" sodipodi:cy="435.32983" sodipodi:cx="474.26663" sodipodi:end="6.1846048" sodipodi:start="0"/>
     <path id="path3767" class="fil6" d="M5444 1431c3,292 -495,548 -1113,573 -618,24 -1122,-192 -1125,-484 -3,-291 495,-548 1113,-572 576,-23 1059,164 1119,432m6 51l0 0 0 0z" sodipodi:rx="293.44931" sodipodi:ry="113.13708" sodipodi:type="arc" sodipodi:open="true" sodipodi:cy="435.32983" sodipodi:cx="474.26663" sodipodi:end="6.1846048" sodipodi:start="0"/>
     <path id="path3797" class="fil7" d="M5444 1431c3,292 -495,548 -1113,573 -618,24 -1122,-192 -1125,-484 -3,-291 495,-548 1113,-572 576,-23 1059,164 1119,432m6 51l0 0 0 0z" sodipodi:rx="293.44931" sodipodi:ry="113.13708" sodipodi:type="arc" sodipodi:open="true" sodipodi:cy="435.32983" sodipodi:cx="474.26663" sodipodi:end="6.1846048" sodipodi:start="0"/>
     <path id="path3861" class="fil8" d="M4394 944c-26,0 -53,0 -80,1 -187,8 -363,37 -518,82 192,32 336,78 446,134 12,6 22,20 35,19 741,-71 973,407 355,572 -8,2 4,16 5,25 14,59 28,118 48,174 435,-88 746,-296 743,-526l-6 -51c-56,-254 -494,-434 -1028,-430l0 0z" inkscape:connector-curvature="0"/>
     <path id="path3821" class="fil9" d="M4429 1182c-15,0 -29,1 -44,1 -337,14 -609,164 -607,334 1,166 262,290 587,283 -277,-7 -492,-126 -493,-283 -2,-170 249,-320 560,-334 9,0 18,-1 26,-1 -9,0 -19,0 -29,0z" inkscape:connector-curvature="0"/>
     <path id="path3823" class="fil10" d="M4429 1182c-4,0 -8,0 -12,0 267,5 483,109 511,253l3 30c2,171 -255,320 -574,334 -12,1 -23,1 -35,1 23,1 46,0 69,-1 337,-14 609,-163 607,-334l-3 -30c-31,-149 -272,-255 -566,-253l0 0z" inkscape:connector-curvature="0"/>
     <path id="path3888" class="fil11" d="M4916 1465c1,154 -229,288 -515,301 -286,13 -519,-101 -521,-254 -1,-153 230,-288 516,-301 266,-12 490,86 517,227m3 27l0 0 0 0z" sodipodi:rx="293.44931" sodipodi:ry="113.13708" sodipodi:type="arc" sodipodi:open="true" sodipodi:cy="435.32983" sodipodi:cx="474.26663" sodipodi:end="6.1846048" sodipodi:start="0"/>
    </g>
   </g>
  </g>
 </g>
 <g id="Capa_x0020_1_0">
  <metadata id="CorelCorpID_1Corel-Layer"/>
 </g>
</svg>
