<?xml version="1.0" encoding="UTF-8"?>
<!DOCTYPE svg PUBLIC "-//W3C//DTD SVG 1.1//EN" "http://www.w3.org/Graphics/SVG/1.1/DTD/svg11.dtd">
<!-- Creator: CorelDRAW X7 -->
<svg xmlns="http://www.w3.org/2000/svg" xml:space="preserve" width="25.4mm" height="25.4mm" version="1.1" style="shape-rendering:geometricPrecision; text-rendering:geometricPrecision; image-rendering:optimizeQuality; fill-rule:evenodd; clip-rule:evenodd"
viewBox="0 0 2540 2540"
 xmlns:xlink="http://www.w3.org/1999/xlink"
 xmlns:inkscape="http://www.inkscape.org/namespaces/inkscape"
 xmlns:rdf="http://www.w3.org/1999/02/22-rdf-syntax-ns#"
 xmlns:cc="http://creativecommons.org/ns#"
 xmlns:dc="http://purl.org/dc/elements/1.1/"
 xmlns:sodipodi="http://sodipodi.sourceforge.net/DTD/sodipodi-0.dtd"
 xmlns:svg="http://www.w3.org/2000/svg"
 xmlns:ns1="http://sozi.baierouge.fr"
 sodipodi:docname="Documento nuevo 9"
 inkscape:version="0.48.2 r9819">
 <defs>
  <style type="text/css">
   <![CDATA[
    .str1 {stroke:black;stroke-width:111.59;stroke-linecap:round;stroke-linejoin:round;stroke-opacity:0.501961}
    .str14 {stroke:#D4AA00;stroke-width:43.63;stroke-linecap:round;stroke-linejoin:round}
    .str2 {stroke:#806600;stroke-width:74.4;stroke-linecap:round;stroke-linejoin:round}
    .str5 {stroke:#AA8800;stroke-width:46.5;stroke-linecap:round;stroke-linejoin:round}
    .str4 {stroke:#D4AA00;stroke-width:46.5;stroke-linecap:round;stroke-linejoin:round}
    .str10 {stroke:#D4AA00;stroke-width:41.72;stroke-linecap:round;stroke-linejoin:round}
    .str15 {stroke:#AA8800;stroke-width:44.31;stroke-linecap:round;stroke-linejoin:round}
    .str16 {stroke:#D4AA00;stroke-width:44.41;stroke-linecap:round;stroke-linejoin:round}
    .str9 {stroke:#AA8800;stroke-width:41.91;stroke-linecap:round;stroke-linejoin:round}
    .str3 {stroke:#AA8800;stroke-width:54.99;stroke-linecap:round;stroke-linejoin:round}
    .str0 {stroke:#806600;stroke-width:111.59;stroke-linecap:round;stroke-linejoin:round}
    .str12 {stroke:#D4AA00;stroke-width:42.63;stroke-linecap:round;stroke-linejoin:round}
    .str11 {stroke:#AA8800;stroke-width:42.69;stroke-linecap:round;stroke-linejoin:round}
    .str6 {stroke:#D4AA00;stroke-width:40.16;stroke-linecap:round;stroke-linejoin:round}
    .str18 {stroke:#D4AA00;stroke-width:45.37;stroke-linecap:round;stroke-linejoin:round}
    .str17 {stroke:#AA8800;stroke-width:45.51;stroke-linecap:round;stroke-linejoin:round}
    .str7 {stroke:#AA8800;stroke-width:40.71;stroke-linecap:round;stroke-linejoin:round}
    .str8 {stroke:#D4AA00;stroke-width:40.72;stroke-linecap:round;stroke-linejoin:round}
    .str13 {stroke:#AA8800;stroke-width:43.46;stroke-linecap:round;stroke-linejoin:round}
    .fil2 {fill:none}
    .fil3 {fill:none}
    .fil1 {fill:#504416}
    .fil0 {fill:black;fill-opacity:0.149020}
   ]]>
  </style>
 </defs>
 <g id="Capa_x0020_1">
  <metadata id="CorelCorpID_0Corel-Layer"/>
  <g id="cesta-vacia.svg">
   <sodipodi:namedview id="base" bordercolor="#666666" inkscape:pageshadow="2" inkscape:window-y="-4" fit-margin-left="0" pagecolor="#ffffff" fit-margin-top="0" inkscape:window-maximized="1" inkscape:zoom="1.2074968" inkscape:window-x="-4" inkscape:window-height="844" showgrid="false" borderopacity="1.0" inkscape:current-layer="layer1" inkscape:cx="273.13568" inkscape:cy="267.08145" fit-margin-right="0" fit-margin-bottom="0" inkscape:window-width="1440" inkscape:pageopacity="0.0" inkscape:document-units="px"/>
   <g id="layer1" inkscape:label="Capa 1" inkscape:groupmode="layer">
    <path id="path4601" class="fil0" d="M2376 2072c0,150 -468,272 -1045,272 -577,0 -1045,-122 -1045,-272 0,-150 468,-272 1045,-272 577,0 1045,122 1045,272z" sodipodi:rx="181.33849" sodipodi:ry="36.87384" sodipodi:type="arc" inkscape:export-ydpi="63.570896" inkscape:export-filename="C:\wamp-120428\www\sanmiguel\img\cesta_llena_400.png" sodipodi:cy="472.38339" sodipodi:cx="266.19882" inkscape:export-xdpi="63.570896"/>
    <path id="path4605" class="fil1" d="M198 1156l1808 0 -277 946c0,0 -171,84 -627,84 -457,0 -627,-84 -627,-84l-277 -946z" inkscape:export-ydpi="63.570896" sodipodi:nodetypes="ccczcc" inkscape:export-filename="C:\wamp-120428\www\sanmiguel\img\cesta_llena_400.png" inkscape:connector-curvature="0" inkscape:export-xdpi="63.570896"/>
    <path id="path4823" class="fil2 str0" d="M309 1461c0,0 -122,-316 -112,-479 37,-592 472,-786 912,-786 439,0 905,339 911,786 3,164 -120,479 -120,479" sodipodi:nodetypes="cszsc" inkscape:connector-curvature="0"/>
    <path id="path4825" class="fil3 str1" d="M309 1461c0,0 -122,-316 -112,-479 37,-592 472,-786 912,-786 439,0 905,339 911,786 3,164 -120,479 -120,479" sodipodi:nodetypes="cszsc" inkscape:connector-curvature="0"/>
    <line id="path4989" class="fil2 str2" x1="1115" y1="1188" x2="1112" y2= "2079"  inkscape:export-ydpi="63.570896" sodipodi:nodetypes="cc" inkscape:export-filename="C:\wamp-120428\www\sanmiguel\img\cesta_llena_400.png" inkscape:connector-curvature="0" inkscape:export-xdpi="63.570896"/>
    <line id="path4991" class="fil2 str2" x1="187" y1="1153" x2="453" y2= "2063"  inkscape:export-ydpi="63.570896" sodipodi:nodetypes="cc" inkscape:export-filename="C:\wamp-120428\www\sanmiguel\img\cesta_llena_400.png" inkscape:connector-curvature="0" inkscape:export-xdpi="63.570896"/>
    <line id="path4994" class="fil2 str2" x1="660" y1="1150" x2="787" y2= "2084"  inkscape:export-ydpi="63.570896" sodipodi:nodetypes="cc" inkscape:export-filename="C:\wamp-120428\www\sanmiguel\img\cesta_llena_400.png" inkscape:connector-curvature="0" inkscape:export-xdpi="63.570896"/>
    <line id="path4996" class="fil2 str2" x1="2032" y1="1138" x2="1771" y2= "2061"  inkscape:export-ydpi="63.570896" sodipodi:nodetypes="cc" inkscape:export-filename="C:\wamp-120428\www\sanmiguel\img\cesta_llena_400.png" inkscape:connector-curvature="0" inkscape:export-xdpi="63.570896"/>
    <line id="path4998" class="fil2 str2" x1="1565" y1="1154" x2="1440" y2= "2088"  inkscape:export-ydpi="63.570896" sodipodi:nodetypes="cc" inkscape:export-filename="C:\wamp-120428\www\sanmiguel\img\cesta_llena_400.png" inkscape:connector-curvature="0" inkscape:export-xdpi="63.570896"/>
    <g id="g5000" inkscape:export-ydpi="63.570896" inkscape:export-filename="C:\wamp-120428\www\sanmiguel\img\cesta_llena_400.png" inkscape:export-xdpi="63.570896">
     <path id="path5002" class="fil2 str3" d="M643 1180c0,0 164,-32 248,-32 84,0 248,32 248,32" sodipodi:nodetypes="cac" inkscape:connector-curvature="0"/>
     <path id="path5004" class="fil2 str3" d="M1086 1180c0,0 164,-32 247,-32 84,0 248,32 248,32" sodipodi:nodetypes="cac" inkscape:connector-curvature="0"/>
     <path id="path5006" class="fil2 str3" d="M1528 1180c0,0 165,-40 248,-50 91,-12 276,-15 276,-15" sodipodi:nodetypes="cac" inkscape:connector-curvature="0"/>
     <path id="path5008" class="fil2 str3" d="M191 1133c0,0 172,-2 257,6 83,8 248,41 248,41" sodipodi:nodetypes="cac" inkscape:connector-curvature="0"/>
    </g>
    <g id="g5010" inkscape:export-ydpi="63.570896" inkscape:export-filename="C:\wamp-120428\www\sanmiguel\img\cesta_llena_400.png" inkscape:export-xdpi="63.570896">
     <path id="path5012" class="fil2 str4" d="M766 2150c0,0 120,46 183,46 63,0 183,-46 183,-46" sodipodi:nodetypes="cac" inkscape:connector-curvature="0"/>
     <path id="path5014" class="fil2 str4" d="M1093 2150c0,0 119,46 182,46 63,0 183,-46 183,-46" sodipodi:nodetypes="cac" inkscape:connector-curvature="0"/>
     <path id="path5016" class="fil2 str4" d="M1419 2122c0,0 121,40 183,37 64,-3 183,-56 183,-56" sodipodi:nodetypes="cac" inkscape:connector-curvature="0"/>
     <path id="path5018" class="fil2 str4" d="M439 2103c0,0 120,53 183,56 62,3 183,-37 183,-37" sodipodi:nodetypes="cac" inkscape:connector-curvature="0"/>
    </g>
    <g id="g5020" inkscape:export-ydpi="63.570896" inkscape:export-filename="C:\wamp-120428\www\sanmiguel\img\cesta_llena_400.png" inkscape:export-xdpi="63.570896">
     <path id="path5022" class="fil2 str5" d="M923 2084c0,0 125,34 189,34 65,0 190,-34 190,-34" sodipodi:nodetypes="cac" inkscape:connector-curvature="0"/>
     <path id="path5024" class="fil2 str5" d="M1270 2074c0,0 126,35 190,35 64,0 190,-35 190,-35" sodipodi:nodetypes="cac" inkscape:connector-curvature="0"/>
     <path id="path5026" class="fil2 str5" d="M631 2074c0,0 126,35 190,35 64,0 190,-35 190,-35" sodipodi:nodetypes="cac" inkscape:connector-curvature="0"/>
     <path id="path5028" class="fil2 str5" d="M410 2065c0,0 83,35 127,35 44,0 126,-35 126,-35" sodipodi:nodetypes="cac" inkscape:connector-curvature="0"/>
     <path id="path5030" class="fil2 str5" d="M1809 2065c0,0 -82,35 -126,35 -44,0 -127,-35 -127,-35" sodipodi:nodetypes="cac" inkscape:connector-curvature="0"/>
    </g>
    <g id="g5032" inkscape:export-ydpi="63.570896" inkscape:export-filename="C:\wamp-120428\www\sanmiguel\img\cesta_llena_400.png" inkscape:export-xdpi="63.570896">
     <path id="path5034" class="fil2 str6" d="M745 2010c0,0 128,47 194,47 65,0 194,-47 194,-47" sodipodi:nodetypes="cac" inkscape:connector-curvature="0"/>
     <path id="path5036" class="fil2 str6" d="M1091 2010c0,0 129,47 195,47 65,0 194,-47 194,-47" sodipodi:nodetypes="cac" inkscape:connector-curvature="0"/>
     <path id="path5038" class="fil2 str6" d="M1438 2010c0,0 129,47 194,47 66,0 194,-47 194,-47" sodipodi:nodetypes="cac" inkscape:connector-curvature="0"/>
     <path id="path5040" class="fil2 str6" d="M398 2010c0,0 128,47 194,47 66,0 194,-47 194,-47" sodipodi:nodetypes="cac" inkscape:connector-curvature="0"/>
    </g>
    <g id="g5042" inkscape:export-ydpi="63.570896" inkscape:export-filename="C:\wamp-120428\www\sanmiguel\img\cesta_llena_400.png" inkscape:export-xdpi="63.570896">
     <path id="path5044" class="fil2 str7" d="M918 1955c0,0 129,46 195,46 66,0 194,-46 194,-46" sodipodi:nodetypes="cac" inkscape:connector-curvature="0"/>
     <path id="path5046" class="fil2 str7" d="M1274 1955c0,0 129,46 195,46 66,0 195,-46 195,-46" sodipodi:nodetypes="cac" inkscape:connector-curvature="0"/>
     <path id="path5048" class="fil2 str7" d="M618 1955c0,0 129,46 195,46 66,0 195,-46 195,-46" sodipodi:nodetypes="cac" inkscape:connector-curvature="0"/>
     <path id="path5050" class="fil2 str7" d="M392 1955c0,0 85,46 130,46 45,0 130,-46 130,-46" sodipodi:nodetypes="cac" inkscape:connector-curvature="0"/>
     <path id="path5052" class="fil2 str7" d="M1828 1955c0,0 -85,46 -130,46 -45,0 -130,-46 -130,-46" sodipodi:nodetypes="cac" inkscape:connector-curvature="0"/>
    </g>
    <g id="g5054" inkscape:export-ydpi="63.570896" inkscape:export-filename="C:\wamp-120428\www\sanmiguel\img\cesta_llena_400.png" inkscape:export-xdpi="63.570896">
     <path id="path5056" class="fil2 str8" d="M734 1908c0,0 132,47 200,47 67,0 200,-47 200,-47" sodipodi:nodetypes="cac" inkscape:connector-curvature="0"/>
     <path id="path5058" class="fil2 str8" d="M1091 1908c0,0 132,47 199,47 68,0 200,-47 200,-47" sodipodi:nodetypes="cac" inkscape:connector-curvature="0"/>
     <path id="path5060" class="fil2 str8" d="M1447 1908c0,0 132,47 200,47 68,0 200,-47 200,-47" sodipodi:nodetypes="cac" inkscape:connector-curvature="0"/>
     <path id="path5062" class="fil2 str8" d="M378 1908c0,0 132,47 199,47 68,0 200,-47 200,-47" sodipodi:nodetypes="cac" inkscape:connector-curvature="0"/>
    </g>
    <g id="g5064" inkscape:export-ydpi="63.570896" inkscape:export-filename="C:\wamp-120428\www\sanmiguel\img\cesta_llena_400.png" inkscape:export-xdpi="63.570896">
     <path id="path5066" class="fil2 str9" d="M906 1843c0,0 137,46 207,46 70,0 206,-46 206,-46" sodipodi:nodetypes="cac" inkscape:connector-curvature="0"/>
     <path id="path5068" class="fil2 str9" d="M1284 1843c0,0 137,46 207,46 69,0 206,-46 206,-46" sodipodi:nodetypes="cac" inkscape:connector-curvature="0"/>
     <path id="path5070" class="fil2 str9" d="M589 1843c0,0 137,46 206,46 70,0 207,-46 207,-46" sodipodi:nodetypes="cac" inkscape:connector-curvature="0"/>
     <path id="path5072" class="fil2 str9" d="M349 1843c0,0 90,46 138,46 47,0 137,-46 137,-46" sodipodi:nodetypes="cac" inkscape:connector-curvature="0"/>
     <path id="path5074" class="fil2 str9" d="M1871 1843c0,0 -90,46 -138,46 -48,0 -138,-46 -138,-46" sodipodi:nodetypes="cac" inkscape:connector-curvature="0"/>
    </g>
    <g id="g5076" inkscape:export-ydpi="63.570896" inkscape:export-filename="C:\wamp-120428\www\sanmiguel\img\cesta_llena_400.png" inkscape:export-xdpi="63.570896">
     <path id="path5078" class="fil2 str10" d="M715 1787c0,0 139,47 210,47 71,0 210,-47 210,-47" sodipodi:nodetypes="cac" inkscape:connector-curvature="0"/>
     <path id="path5080" class="fil2 str10" d="M1090 1787c0,0 138,47 209,47 71,0 210,-47 210,-47" sodipodi:nodetypes="cac" inkscape:connector-curvature="0"/>
     <path id="path5082" class="fil2 str10" d="M1464 1787c0,0 139,47 210,47 71,0 209,-47 209,-47" sodipodi:nodetypes="cac" inkscape:connector-curvature="0"/>
     <path id="path5084" class="fil2 str10" d="M341 1787c0,0 139,47 210,47 71,0 209,-47 209,-47" sodipodi:nodetypes="cac" inkscape:connector-curvature="0"/>
    </g>
    <g id="g5086" inkscape:export-ydpi="63.570896" inkscape:export-filename="C:\wamp-120428\www\sanmiguel\img\cesta_llena_400.png" inkscape:export-xdpi="63.570896">
     <path id="path5088" class="fil2 str11" d="M899 1722c0,0 141,47 214,47 72,0 214,-47 214,-47" sodipodi:nodetypes="cac" inkscape:connector-curvature="0"/>
     <path id="path5090" class="fil2 str11" d="M1291 1722c0,0 141,47 214,47 72,0 214,-47 214,-47" sodipodi:nodetypes="cac" inkscape:connector-curvature="0"/>
     <path id="path5092" class="fil2 str11" d="M569 1722c0,0 142,47 215,47 72,0 214,-47 214,-47" sodipodi:nodetypes="cac" inkscape:connector-curvature="0"/>
     <path id="path5094" class="fil2 str11" d="M320 1722c0,0 94,47 143,47 49,0 143,-47 143,-47" sodipodi:nodetypes="cac" inkscape:connector-curvature="0"/>
     <path id="path5096" class="fil2 str11" d="M1899 1722c0,0 -93,47 -143,47 -49,0 -142,-47 -142,-47" sodipodi:nodetypes="cac" inkscape:connector-curvature="0"/>
    </g>
    <g id="g5098" inkscape:export-ydpi="63.570896" inkscape:export-filename="C:\wamp-120428\www\sanmiguel\img\cesta_llena_400.png" inkscape:export-xdpi="63.570896">
     <path id="path5100" class="fil2 str12" d="M698 1666c0,0 145,47 219,47 74,0 219,-47 219,-47" sodipodi:nodetypes="cac" inkscape:connector-curvature="0"/>
     <path id="path5102" class="fil2 str12" d="M1089 1666c0,0 144,47 219,47 74,0 219,-47 219,-47" sodipodi:nodetypes="cac" inkscape:connector-curvature="0"/>
     <path id="path5104" class="fil2 str12" d="M1480 1666c0,0 144,47 219,47 74,0 219,-47 219,-47" sodipodi:nodetypes="cac" inkscape:connector-curvature="0"/>
     <path id="path5106" class="fil2 str12" d="M307 1666c0,0 145,47 219,47 74,0 219,-47 219,-47" sodipodi:nodetypes="cac" inkscape:connector-curvature="0"/>
    </g>
    <g id="g5108" inkscape:export-ydpi="63.570896" inkscape:export-filename="C:\wamp-120428\www\sanmiguel\img\cesta_llena_400.png" inkscape:export-xdpi="63.570896">
     <path id="path5110" class="fil2 str13" d="M891 1601c0,0 147,47 222,47 75,0 222,-47 222,-47" sodipodi:nodetypes="cac" inkscape:connector-curvature="0"/>
     <path id="path5112" class="fil2 str13" d="M1297 1601c0,0 147,47 222,47 75,0 222,-47 222,-47" sodipodi:nodetypes="cac" inkscape:connector-curvature="0"/>
     <path id="path5114" class="fil2 str13" d="M550 1601c0,0 147,47 222,47 75,0 222,-47 222,-47" sodipodi:nodetypes="cac" inkscape:connector-curvature="0"/>
     <path id="path5116" class="fil2 str13" d="M292 1601c0,0 96,47 148,47 51,0 148,-47 148,-47" sodipodi:nodetypes="cac" inkscape:connector-curvature="0"/>
     <path id="path5118" class="fil2 str13" d="M1928 1601c0,0 -97,47 -148,47 -51,0 -148,-47 -148,-47" sodipodi:nodetypes="cac" inkscape:connector-curvature="0"/>
    </g>
    <g id="g5121" inkscape:export-ydpi="63.570896" inkscape:export-filename="C:\wamp-120428\www\sanmiguel\img\cesta_llena_400.png" inkscape:export-xdpi="63.570896">
     <path id="path5123" class="fil2 str14" d="M678 1545c0,0 152,47 229,47 78,0 230,-47 230,-47" sodipodi:nodetypes="cac" inkscape:connector-curvature="0"/>
     <path id="path5125" class="fil2 str14" d="M1088 1545c0,0 151,47 229,47 77,0 229,-47 229,-47" sodipodi:nodetypes="cac" inkscape:connector-curvature="0"/>
     <path id="path5127" class="fil2 str14" d="M1497 1545c0,0 152,47 229,47 78,0 230,-47 230,-47" sodipodi:nodetypes="cac" inkscape:connector-curvature="0"/>
     <path id="path5129" class="fil2 str14" d="M269 1545c0,0 151,47 229,47 78,0 229,-47 229,-47" sodipodi:nodetypes="cac" inkscape:connector-curvature="0"/>
    </g>
    <g id="g5131" inkscape:export-ydpi="63.570896" inkscape:export-filename="C:\wamp-120428\www\sanmiguel\img\cesta_llena_400.png" inkscape:export-xdpi="63.570896">
     <path id="path5133" class="fil2 str15" d="M882 1471c0,0 153,46 231,46 78,0 231,-46 231,-46" sodipodi:nodetypes="cac" inkscape:connector-curvature="0"/>
     <path id="path5135" class="fil2 str15" d="M1305 1471c0,0 152,46 230,46 78,0 231,-46 231,-46" sodipodi:nodetypes="cac" inkscape:connector-curvature="0"/>
     <path id="path5137" class="fil2 str15" d="M528 1471c0,0 152,46 231,46 78,0 230,-46 230,-46" sodipodi:nodetypes="cac" inkscape:connector-curvature="0"/>
     <path id="path5139" class="fil2 str15" d="M259 1471c0,0 101,46 154,46 53,0 154,-46 154,-46" sodipodi:nodetypes="cac" inkscape:connector-curvature="0"/>
     <path id="path5141" class="fil2 str15" d="M1960 1471c0,0 -100,46 -154,46 -53,0 -153,-46 -153,-46" sodipodi:nodetypes="cac" inkscape:connector-curvature="0"/>
    </g>
    <g id="g5143" inkscape:export-ydpi="63.570896" inkscape:export-filename="C:\wamp-120428\www\sanmiguel\img\cesta_llena_400.png" inkscape:export-xdpi="63.570896">
     <path id="path5145" class="fil2 str16" d="M662 1415c0,0 158,47 238,47 80,0 238,-47 238,-47" sodipodi:nodetypes="cac" inkscape:connector-curvature="0"/>
     <path id="path5147" class="fil2 str16" d="M1087 1415c0,0 157,47 237,47 81,0 238,-47 238,-47" sodipodi:nodetypes="cac" inkscape:connector-curvature="0"/>
     <path id="path5149" class="fil2 str16" d="M1511 1415c0,0 157,47 237,47 81,0 238,-47 238,-47" sodipodi:nodetypes="cac" inkscape:connector-curvature="0"/>
     <path id="path5151" class="fil2 str16" d="M238 1415c0,0 157,47 238,47 80,0 237,-47 237,-47" sodipodi:nodetypes="cac" inkscape:connector-curvature="0"/>
    </g>
    <g id="g5153" inkscape:export-ydpi="63.570896" inkscape:export-filename="C:\wamp-120428\www\sanmiguel\img\cesta_llena_400.png" inkscape:export-xdpi="63.570896">
     <path id="path5155" class="fil2 str17" d="M870 1341c0,0 161,46 243,46 83,0 244,-46 244,-46" sodipodi:nodetypes="cac" inkscape:connector-curvature="0"/>
     <path id="path5157" class="fil2 str17" d="M1315 1341c0,0 161,46 244,46 82,0 243,-46 243,-46" sodipodi:nodetypes="cac" inkscape:connector-curvature="0"/>
     <path id="path5159" class="fil2 str17" d="M496 1341c0,0 161,46 243,46 83,0 244,-46 244,-46" sodipodi:nodetypes="cac" inkscape:connector-curvature="0"/>
     <path id="path5161" class="fil2 str17" d="M203 1331c0,0 112,55 172,56 56,1 162,-46 162,-46" sodipodi:nodetypes="cac" inkscape:connector-curvature="0"/>
     <path id="path5163" class="fil2 str17" d="M2016 1331c0,0 -111,55 -171,56 -57,1 -163,-46 -163,-46" sodipodi:nodetypes="cac" inkscape:connector-curvature="0"/>
    </g>
    <g id="g5165" inkscape:export-ydpi="63.570896" inkscape:export-filename="C:\wamp-120428\www\sanmiguel\img\cesta_llena_400.png" inkscape:export-xdpi="63.570896">
     <path id="path5167" class="fil2 str18" d="M643 1285c0,0 164,46 248,46 84,0 248,-46 248,-46" sodipodi:nodetypes="cac" inkscape:connector-curvature="0"/>
     <path id="path5169" class="fil2 str18" d="M1086 1285c0,0 164,46 247,46 84,0 248,-46 248,-46" sodipodi:nodetypes="cac" inkscape:connector-curvature="0"/>
     <path id="path5171" class="fil2 str18" d="M1528 1285c0,0 178,33 267,28 84,-5 248,-56 248,-56" sodipodi:nodetypes="cac" inkscape:connector-curvature="0"/>
     <path id="path5173" class="fil2 str18" d="M181 1257c0,0 163,60 248,65 90,5 267,-37 267,-37" sodipodi:nodetypes="cac" inkscape:connector-curvature="0"/>
    </g>
    <g id="g5175" inkscape:export-ydpi="63.570896" inkscape:export-filename="C:\wamp-120428\www\sanmiguel\img\cesta_llena_400.png" inkscape:export-xdpi="63.570896">
     <path id="path5177" class="fil2 str5" d="M859 1211c0,0 168,46 254,46 87,0 255,-46 255,-46" sodipodi:nodetypes="cac" inkscape:connector-curvature="0"/>
     <path id="path5179" class="fil2 str5" d="M1324 1211c0,0 168,46 254,46 86,0 255,-46 255,-46" sodipodi:nodetypes="cac" inkscape:connector-curvature="0"/>
     <path id="path5181" class="fil2 str5" d="M469 1211c0,0 168,46 254,46 86,0 254,-46 254,-46" sodipodi:nodetypes="cac" inkscape:connector-curvature="0"/>
     <path id="path5183" class="fil2 str5" d="M164 1192c0,0 117,44 179,46 57,3 169,-27 169,-27" sodipodi:nodetypes="cac" inkscape:connector-curvature="0"/>
     <path id="path5185" class="fil2 str5" d="M2056 1183c0,0 -111,46 -170,46 -61,1 -178,-46 -178,-46" sodipodi:nodetypes="cac" inkscape:connector-curvature="0"/>
    </g>
    <g id="g5187" inkscape:export-ydpi="63.570896" inkscape:export-filename="C:\wamp-120428\www\sanmiguel\img\cesta_llena_400.png" inkscape:export-xdpi="63.570896">
     <path id="path5189" class="fil2 str4" d="M659 1136c0,0 146,77 226,84 80,6 236,-47 236,-47" sodipodi:nodetypes="cac" inkscape:connector-curvature="0"/>
     <path id="path5191" class="fil2 str4" d="M1103 1173c0,0 156,51 236,47 85,-4 245,-75 245,-75" sodipodi:nodetypes="cac" inkscape:connector-curvature="0"/>
     <path id="path5193" class="fil2 str4" d="M1557 1136c0,0 169,42 254,37 88,-4 255,-65 255,-65" sodipodi:nodetypes="cac" inkscape:connector-curvature="0"/>
     <path id="path5195" class="fil2 str4" d="M168 1118c0,0 167,62 254,65 86,3 254,-47 254,-47" sodipodi:nodetypes="cac" inkscape:connector-curvature="0"/>
    </g>
   </g>
  </g>
 </g>
</svg>
