<?xml version="1.0" encoding="UTF-8" standalone="no"?>
<!-- Created with Inkscape (http://www.inkscape.org/) -->
<svg xmlns:dc="http://purl.org/dc/elements/1.1/" xmlns:cc="http://creativecommons.org/ns#" xmlns:rdf="http://www.w3.org/1999/02/22-rdf-syntax-ns#" xmlns:svg="http://www.w3.org/2000/svg" xmlns="http://www.w3.org/2000/svg" xmlns:xlink="http://www.w3.org/1999/xlink" xmlns:sodipodi="http://sodipodi.sourceforge.net/DTD/sodipodi-0.dtd" xmlns:inkscape="http://www.inkscape.org/namespaces/inkscape" id="svg2" version="1.1" inkscape:version="0.48+devel r12830" viewBox="0 0 800 500.00001" sodipodi:docname="cachoeira fazendinha.svg">
  <defs id="defs4">
    <inkscape:path-effect effect="spiro" id="path-effect3525" is_visible="true"/>
    <inkscape:path-effect effect="spiro" id="path-effect3517" is_visible="true"/>
    <inkscape:path-effect effect="spiro" id="path-effect3513" is_visible="true"/>
    <inkscape:path-effect effect="spiro" id="path-effect3509" is_visible="true"/>
    <inkscape:path-effect effect="spiro" id="path-effect3505" is_visible="true"/>
    <filter inkscape:label="Combined Lighting" inkscape:menu="Bevels" inkscape:menu-tooltip="Basic specular bevel to use for building textures" style="color-interpolation-filters:sRGB" id="filter25091">
      <feGaussianBlur stdDeviation="6" in="SourceGraphic" result="result0" id="feGaussianBlur25093"/>
      <feDiffuseLighting lighting-color="#ffffff" diffuseConstant="1" surfaceScale="4" result="result5" id="feDiffuseLighting25095">
        <feDistantLight elevation="45" azimuth="235" id="feDistantLight25097"/>
      </feDiffuseLighting>
      <feComposite k4="0" k3="0" k2="0" k1="1.4" in2="SourceGraphic" in="result5" result="fbSourceGraphic" operator="arithmetic" id="feComposite25099"/>
      <feGaussianBlur result="result0" in="fbSourceGraphic" stdDeviation="6" id="feGaussianBlur25101"/>
      <feSpecularLighting specularExponent="25" specularConstant="1" surfaceScale="4" lighting-color="#ffffff" result="result1" in="result0" id="feSpecularLighting25103">
        <feDistantLight azimuth="235" elevation="45" id="feDistantLight25105"/>
      </feSpecularLighting>
      <feComposite k4="0" k1="0" k3="1" k2="1" operator="arithmetic" in="fbSourceGraphic" in2="result1" result="result4" id="feComposite25107"/>
      <feComposite operator="in" result="result2" in2="SourceGraphic" in="result4" id="feComposite25109"/>
    </filter>
    <filter style="color-interpolation-filters:sRGB" inkscape:collect="always" id="filter5541-6" x="-0.15118943" width="1.3023789" y="-0.50396478" height="2.0079296" inkscape:label="Leaves" inkscape:menu="Scatter" inkscape:menu-tooltip="Leaves on the ground in Fall, or living foliage">
      <feGaussianBlur inkscape:collect="always" stdDeviation="3.6137602" id="feGaussianBlur5543-0" result="fbSourceGraphic"/>
      <feColorMatrix result="fbSourceGraphicAlpha" in="fbSourceGraphic" values="0 0 0 -1 0 0 0 0 -1 0 0 0 0 -1 0 0 0 0 1 0" id="feColorMatrix3603"/>
      <feTurbulence id="feTurbulence3605" baseFrequency="0.09" numOctaves="5" type="fractalNoise" result="result6"/>
      <feColorMatrix id="feColorMatrix3607" values="1 0 0 0 0 0 1 0 0 0 0 0 1 0 0 0 0 0 4.9 -2.9 " result="result5" in="result6"/>
      <feComposite id="feComposite3609" in2="result5" operator="in" in="fbSourceGraphic"/>
      <feMorphology id="feMorphology3611" result="result3" radius="6" operator="dilate"/>
      <feTurbulence id="feTurbulence3613" baseFrequency="0.2" numOctaves="1" type="fractalNoise" result="result91"/>
      <feDisplacementMap id="feDisplacementMap3615" in2="result91" result="result4" scale="15" yChannelSelector="G" xChannelSelector="R" in="result3"/>
      <feComposite k4="0" k2="0" id="feComposite3617" in2="result4" operator="arithmetic" result="result2" k1="0.5" k3="1"/>
      <feConvolveMatrix id="feConvolveMatrix3619" order="3 3" kernelMatrix="1 0 0 0 2 0 0 0 -1 " targetX="0" targetY="0" divisor="1.5" edgeMode="duplicate" in="result2"/>
    </filter>
    <filter style="color-interpolation-filters:sRGB" id="filter3481" inkscape:label="Leaves" inkscape:menu="Scatter" inkscape:menu-tooltip="Leaves on the ground in Fall, or living foliage">
      <feTurbulence id="feTurbulence3483" baseFrequency="0.09" numOctaves="5" type="fractalNoise" result="result6"/>
      <feColorMatrix id="feColorMatrix3485" values="1 0 0 0 0 0 1 0 0 0 0 0 1 0 0 0 0 0 4.9 -2.9 " result="result5" in="result6"/>
      <feComposite id="feComposite3487" in2="result5" operator="in" in="SourceGraphic"/>
      <feMorphology id="feMorphology3489" result="result3" radius="6" operator="dilate"/>
      <feTurbulence id="feTurbulence3491" baseFrequency="0.2" numOctaves="1" type="fractalNoise" result="result91"/>
      <feDisplacementMap id="feDisplacementMap3493" in2="result91" result="result4" scale="15" yChannelSelector="G" xChannelSelector="R" in="result3"/>
      <feComposite k4="0" k2="0" id="feComposite3495" in2="result4" operator="arithmetic" result="result2" k1="0.5" k3="1"/>
      <feConvolveMatrix id="feConvolveMatrix3497" order="3 3" kernelMatrix="1 0 0 0 2 0 0 0 -1 " targetX="0" targetY="0" divisor="1.5" edgeMode="duplicate" in="result2"/>
    </filter>
    <filter inkscape:label="Combined Lighting" inkscape:menu="Bevels" inkscape:menu-tooltip="Basic specular bevel to use for building textures" style="color-interpolation-filters:sRGB" id="filter25051">
      <feGaussianBlur stdDeviation="6" in="SourceGraphic" result="result0" id="feGaussianBlur25053"/>
      <feDiffuseLighting lighting-color="#ffffff" diffuseConstant="1" surfaceScale="4" result="result5" id="feDiffuseLighting25055">
        <feDistantLight elevation="45" azimuth="235" id="feDistantLight25057"/>
      </feDiffuseLighting>
      <feComposite k4="0" k3="0" k2="0" k1="1.4" in2="SourceGraphic" in="result5" result="fbSourceGraphic" operator="arithmetic" id="feComposite25059"/>
      <feGaussianBlur result="result0" in="fbSourceGraphic" stdDeviation="6" id="feGaussianBlur25061"/>
      <feSpecularLighting specularExponent="25" specularConstant="1" surfaceScale="4" lighting-color="#ffffff" result="result1" in="result0" id="feSpecularLighting25063">
        <feDistantLight azimuth="235" elevation="45" id="feDistantLight25065"/>
      </feSpecularLighting>
      <feComposite k4="0" k1="0" k3="1" k2="1" operator="arithmetic" in="fbSourceGraphic" in2="result1" result="result4" id="feComposite25067"/>
      <feComposite operator="in" result="result2" in2="SourceGraphic" in="result4" id="feComposite25069"/>
    </filter>
    <filter style="color-interpolation-filters:sRGB" id="filter3349" inkscape:label="Leaves" inkscape:menu="Scatter" inkscape:menu-tooltip="Leaves on the ground in Fall, or living foliage">
      <feTurbulence id="feTurbulence3351" baseFrequency="0.09" numOctaves="5" type="fractalNoise" result="result6"/>
      <feColorMatrix id="feColorMatrix3353" values="1 0 0 0 0 0 1 0 0 0 0 0 1 0 0 0 0 0 4.9 -2.9 " result="result5" in="result6"/>
      <feComposite id="feComposite3355" in2="result5" operator="in" in="SourceGraphic"/>
      <feMorphology id="feMorphology3357" result="result3" radius="6" operator="dilate"/>
      <feTurbulence id="feTurbulence3359" baseFrequency="0.2" numOctaves="1" type="fractalNoise" result="result91"/>
      <feDisplacementMap id="feDisplacementMap3361" in2="result91" result="result4" scale="15" yChannelSelector="G" xChannelSelector="R" in="result3"/>
      <feComposite k4="0" k2="0" id="feComposite3363" in2="result4" operator="arithmetic" result="result2" k1="0.5" k3="1"/>
      <feConvolveMatrix id="feConvolveMatrix3365" order="3 3" kernelMatrix="1 0 0 0 2 0 0 0 -1 " targetX="0" targetY="0" divisor="1.5" edgeMode="duplicate" in="result2"/>
    </filter>
    <filter inkscape:label="Combined Lighting" inkscape:menu="Bevels" inkscape:menu-tooltip="Basic specular bevel to use for building textures" style="color-interpolation-filters:sRGB" id="filter25071">
      <feGaussianBlur stdDeviation="6" in="SourceGraphic" result="result0" id="feGaussianBlur25073"/>
      <feDiffuseLighting lighting-color="#ffffff" diffuseConstant="1" surfaceScale="4" result="result5" id="feDiffuseLighting25075">
        <feDistantLight elevation="45" azimuth="235" id="feDistantLight25077"/>
      </feDiffuseLighting>
      <feComposite k4="0" k3="0" k2="0" k1="1.4" in2="SourceGraphic" in="result5" result="fbSourceGraphic" operator="arithmetic" id="feComposite25079"/>
      <feGaussianBlur result="result0" in="fbSourceGraphic" stdDeviation="6" id="feGaussianBlur25081"/>
      <feSpecularLighting specularExponent="25" specularConstant="1" surfaceScale="4" lighting-color="#ffffff" result="result1" in="result0" id="feSpecularLighting25083">
        <feDistantLight azimuth="235" elevation="45" id="feDistantLight25085"/>
      </feSpecularLighting>
      <feComposite k4="0" k1="0" k3="1" k2="1" operator="arithmetic" in="fbSourceGraphic" in2="result1" result="result4" id="feComposite25087"/>
      <feComposite operator="in" result="result2" in2="SourceGraphic" in="result4" id="feComposite25089"/>
    </filter>
    <filter style="color-interpolation-filters:sRGB" id="filter3445" inkscape:label="Leaves" inkscape:menu="Scatter" inkscape:menu-tooltip="Leaves on the ground in Fall, or living foliage">
      <feTurbulence id="feTurbulence3447" baseFrequency="0.09" numOctaves="5" type="fractalNoise" result="result6"/>
      <feColorMatrix id="feColorMatrix3449" values="1 0 0 0 0 0 1 0 0 0 0 0 1 0 0 0 0 0 4.9 -2.9 " result="result5" in="result6"/>
      <feComposite id="feComposite3451" in2="result5" operator="in" in="SourceGraphic"/>
      <feMorphology id="feMorphology3453" result="result3" radius="6" operator="dilate"/>
      <feTurbulence id="feTurbulence3455" baseFrequency="0.2" numOctaves="1" type="fractalNoise" result="result91"/>
      <feDisplacementMap id="feDisplacementMap3457" in2="result91" result="result4" scale="15" yChannelSelector="G" xChannelSelector="R" in="result3"/>
      <feComposite k4="0" k2="0" id="feComposite3459" in2="result4" operator="arithmetic" result="result2" k1="0.5" k3="1"/>
      <feConvolveMatrix id="feConvolveMatrix3461" order="3 3" kernelMatrix="1 0 0 0 2 0 0 0 -1 " targetX="0" targetY="0" divisor="1.5" edgeMode="duplicate" in="result2"/>
    </filter>
    <filter style="color-interpolation-filters:sRGB" inkscape:collect="always" id="filter5541-4" x="-0.15118943" width="1.3023789" y="-0.50396478" height="2.0079296" inkscape:label="Leaves" inkscape:menu="Scatter" inkscape:menu-tooltip="Leaves on the ground in Fall, or living foliage">
      <feGaussianBlur inkscape:collect="always" stdDeviation="3.6137602" id="feGaussianBlur5543-5" result="fbSourceGraphic"/>
      <feColorMatrix result="fbSourceGraphicAlpha" in="fbSourceGraphic" values="0 0 0 -1 0 0 0 0 -1 0 0 0 0 -1 0 0 0 0 1 0" id="feColorMatrix3549"/>
      <feTurbulence id="feTurbulence3551" baseFrequency="0.09" numOctaves="5" type="fractalNoise" result="result6"/>
      <feColorMatrix id="feColorMatrix3553" values="1 0 0 0 0 0 1 0 0 0 0 0 1 0 0 0 0 0 4.9 -2.9 " result="result5" in="result6"/>
      <feComposite id="feComposite3555" in2="result5" operator="in" in="fbSourceGraphic"/>
      <feMorphology id="feMorphology3557" result="result3" radius="6" operator="dilate"/>
      <feTurbulence id="feTurbulence3559" baseFrequency="0.2" numOctaves="1" type="fractalNoise" result="result91"/>
      <feDisplacementMap id="feDisplacementMap3561" in2="result91" result="result4" scale="15" yChannelSelector="G" xChannelSelector="R" in="result3"/>
      <feComposite k4="0" k2="0" id="feComposite3563" in2="result4" operator="arithmetic" result="result2" k1="0.5" k3="1"/>
      <feConvolveMatrix id="feConvolveMatrix3565" order="3 3" kernelMatrix="1 0 0 0 2 0 0 0 -1 " targetX="0" targetY="0" divisor="1.5" edgeMode="duplicate" in="result2"/>
    </filter>
    <filter inkscape:label="Combined Lighting" inkscape:menu="Bevels" inkscape:menu-tooltip="Basic specular bevel to use for building textures" style="color-interpolation-filters:sRGB" id="filter25971">
      <feGaussianBlur stdDeviation="6" in="SourceGraphic" result="result0" id="feGaussianBlur25973"/>
      <feDiffuseLighting lighting-color="#ffffff" diffuseConstant="1" surfaceScale="4" result="result5" id="feDiffuseLighting25975">
        <feDistantLight elevation="45" azimuth="235" id="feDistantLight25977"/>
      </feDiffuseLighting>
      <feComposite k4="0" k3="0" k2="0" k1="1.4" in2="SourceGraphic" in="result5" result="fbSourceGraphic" operator="arithmetic" id="feComposite25979"/>
      <feGaussianBlur result="result0" in="fbSourceGraphic" stdDeviation="6" id="feGaussianBlur25981"/>
      <feSpecularLighting specularExponent="25" specularConstant="1" surfaceScale="4" lighting-color="#ffffff" result="result1" in="result0" id="feSpecularLighting25983">
        <feDistantLight azimuth="235" elevation="45" id="feDistantLight25985"/>
      </feSpecularLighting>
      <feComposite k4="0" k1="0" k3="1" k2="1" operator="arithmetic" in="fbSourceGraphic" in2="result1" result="result4" id="feComposite25987"/>
      <feComposite operator="in" result="result2" in2="SourceGraphic" in="result4" id="feComposite25989"/>
    </filter>
    <linearGradient inkscape:collect="always" xlink:href="#linearGradient16442" id="linearGradient16608" gradientUnits="userSpaceOnUse" x1="-160.9379" y1="6355.9365" x2="-167.42697" y2="6517.5811"/>
    <linearGradient inkscape:collect="always" id="linearGradient16442">
      <stop style="stop-color:#2ad4ff;stop-opacity:1" offset="0" id="stop16444"/>
      <stop style="stop-color:#5fd38d;stop-opacity:0;" offset="1" id="stop16446"/>
    </linearGradient>
    <linearGradient inkscape:collect="always" xlink:href="#linearGradient16430" id="linearGradient16610" gradientUnits="userSpaceOnUse" x1="-148.18539" y1="6022.811" x2="-114.07699" y2="6370.6812"/>
    <linearGradient inkscape:collect="always" id="linearGradient16430">
      <stop style="stop-color:#0000ff;stop-opacity:1;" offset="0" id="stop16432"/>
      <stop style="stop-color:#0000ff;stop-opacity:0;" offset="1" id="stop16434"/>
    </linearGradient>
    <filter inkscape:collect="always" id="filter17700" x="-0.1800219" width="1.3600438" y="-0.065096594" height="1.1301932">
      <feGaussianBlur inkscape:collect="always" stdDeviation="0.90741385" id="feGaussianBlur17702"/>
    </filter>
    <filter inkscape:collect="always" id="filter17688" x="-0.41924125" width="1.8384825" y="-0.066455789" height="1.1329116">
      <feGaussianBlur inkscape:collect="always" stdDeviation="0.73375498" id="feGaussianBlur17690"/>
    </filter>
    <filter inkscape:collect="always" id="filter17684" x="-0.38049045" width="1.7609808" y="-0.10917687" height="1.2183537">
      <feGaussianBlur inkscape:collect="always" stdDeviation="0.73375498" id="feGaussianBlur17686"/>
    </filter>
    <filter inkscape:collect="always" id="filter17680" x="-0.26559621" width="1.5311924" y="-0.0783839" height="1.1567678">
      <feGaussianBlur inkscape:collect="always" stdDeviation="0.73375498" id="feGaussianBlur17682"/>
    </filter>
    <filter inkscape:collect="always" id="filter17676" x="-1.6106939" width="4.2213879" y="-0.20379724" height="1.4075944">
      <feGaussianBlur inkscape:collect="always" stdDeviation="0.73375498" id="feGaussianBlur17678"/>
    </filter>
    <filter inkscape:collect="always" id="filter17672" x="-0.14556982" width="1.2911396" y="-0.17982171" height="1.3596435">
      <feGaussianBlur inkscape:collect="always" stdDeviation="0.73375498" id="feGaussianBlur17674"/>
    </filter>
    <filter inkscape:collect="always" id="filter17668" x="-0.664406" width="2.3288119" y="-0.16089207" height="1.3217841">
      <feGaussianBlur inkscape:collect="always" stdDeviation="0.73375498" id="feGaussianBlur17670"/>
    </filter>
    <filter inkscape:collect="always" id="filter17664" x="-0.38212094" width="1.7642419" y="-0.33966208" height="1.6793242">
      <feGaussianBlur inkscape:collect="always" stdDeviation="0.73375498" id="feGaussianBlur17666"/>
    </filter>
    <filter inkscape:collect="always" id="filter17660" x="-0.11757559" width="1.2351512" y="-1.5283909" height="4.0567818">
      <feGaussianBlur inkscape:collect="always" stdDeviation="0.73375498" id="feGaussianBlur17662"/>
    </filter>
    <filter inkscape:collect="always" id="filter17656" x="-0.16983137" width="1.3396627" y="-0.33966208" height="1.6793242">
      <feGaussianBlur inkscape:collect="always" stdDeviation="0.73375498" id="feGaussianBlur17658"/>
    </filter>
    <filter inkscape:collect="always" id="filter17652" x="-0.17982152" width="1.359643" y="-0.6113776" height="2.2227552">
      <feGaussianBlur inkscape:collect="always" stdDeviation="0.73375498" id="feGaussianBlur17654"/>
    </filter>
    <filter inkscape:collect="always" id="filter17648" x="-0.20379771" width="1.4075954" y="-0.25474656" height="1.5094931">
      <feGaussianBlur inkscape:collect="always" stdDeviation="0.73375498" id="feGaussianBlur17650"/>
    </filter>
    <filter inkscape:collect="always" id="filter17644" x="-0.09553013" width="1.1910603" y="-0.50949311" height="2.0189862">
      <feGaussianBlur inkscape:collect="always" stdDeviation="0.73375498" id="feGaussianBlur17646"/>
    </filter>
    <filter inkscape:collect="always" id="filter17640" x="-0.3164728" width="1.6329457" y="-0.23514962" height="1.4702992">
      <feGaussianBlur inkscape:collect="always" stdDeviation="0.73375498" id="feGaussianBlur17642"/>
    </filter>
    <filter inkscape:collect="always" id="filter17636" x="-0.063686773" width="1.1273736" y="-0.58864862" height="2.1772971">
      <feGaussianBlur inkscape:collect="always" stdDeviation="0.73375498" id="feGaussianBlur17638"/>
    </filter>
    <filter inkscape:collect="always" id="filter17632" x="-0.10541258" width="1.2108252" y="-0.33966208" height="1.6793242">
      <feGaussianBlur inkscape:collect="always" stdDeviation="0.73375498" id="feGaussianBlur17634"/>
    </filter>
    <filter inkscape:collect="always" id="filter17628" x="-0.035137527" width="1.0702751" y="-0.44220316" height="1.8844063">
      <feGaussianBlur inkscape:collect="always" stdDeviation="0.73375498" id="feGaussianBlur17630"/>
    </filter>
    <filter inkscape:collect="always" id="filter17624" x="-0.035018802" width="1.0700376" y="-0.44728369" height="1.8945674">
      <feGaussianBlur inkscape:collect="always" stdDeviation="0.73375498" id="feGaussianBlur17626"/>
    </filter>
    <filter inkscape:label="Combined Lighting" inkscape:menu="Bevels" inkscape:menu-tooltip="Basic specular bevel to use for building textures" style="color-interpolation-filters:sRGB;" id="filter3810">
      <feGaussianBlur stdDeviation="6" in="SourceGraphic" result="result0" id="feGaussianBlur3812"/>
      <feDiffuseLighting lighting-color="rgb(255,255,255)" diffuseConstant="1" surfaceScale="4" result="result5" id="feDiffuseLighting3814">
        <feDistantLight elevation="45" azimuth="235" id="feDistantLight3816"/>
      </feDiffuseLighting>
      <feComposite k1="1.4" in2="SourceGraphic" in="result5" result="fbSourceGraphic" operator="arithmetic" id="feComposite3818"/>
      <feGaussianBlur result="result0" in="fbSourceGraphic" stdDeviation="6" id="feGaussianBlur3820"/>
      <feSpecularLighting specularExponent="25" specularConstant="1" surfaceScale="4" lighting-color="rgb(255,255,255)" result="result1" in="result0" id="feSpecularLighting3822">
        <feDistantLight azimuth="235" elevation="45" id="feDistantLight3824"/>
      </feSpecularLighting>
      <feComposite k3="1" k2="1" operator="arithmetic" in="fbSourceGraphic" in2="result1" result="result4" id="feComposite3826"/>
      <feComposite operator="in" result="result2" in2="SourceGraphic" in="result4" id="feComposite3828"/>
    </filter>
    <filter inkscape:collect="always" style="color-interpolation-filters:sRGB" id="filter4327" x="-0.0075462114" width="1.0150924" y="-0.029282715" height="1.0585654">
      <feGaussianBlur inkscape:collect="always" stdDeviation="2.2839365" id="feGaussianBlur4329"/>
    </filter>
  </defs>
  <sodipodi:namedview id="base" pagecolor="#ffffff" bordercolor="#666666" borderopacity="1.0" inkscape:pageopacity="0.0" inkscape:pageshadow="2" inkscape:zoom="0.63" inkscape:cx="484.73343" inkscape:cy="256.32287" inkscape:document-units="px" inkscape:current-layer="layer1" showgrid="false" inkscape:window-width="1024" inkscape:window-height="712" inkscape:window-x="-4" inkscape:window-y="-4" inkscape:window-maximized="1"/>
  <metadata id="metadata7">
    <rdf:RDF>
      <cc:Work rdf:about="">
        <dc:format>image/svg+xml</dc:format>
        <dc:type rdf:resource="http://purl.org/dc/dcmitype/StillImage"/>
        <dc:title/>
      </cc:Work>
    </rdf:RDF>
  </metadata>
  <g inkscape:label="Layer 1" inkscape:groupmode="layer" id="layer1" transform="translate(0,-552.36219)">
    <g id="g3499" transform="matrix(0.93488144,0,0,0.93488144,15.083018,59.88196)">
      <path inkscape:export-ydpi="90" inkscape:export-xdpi="90" sodipodi:nodetypes="csscsssssssscssssssc" inkscape:connector-curvature="0" inkscape:original-d="m 55.226737,656.56538 c -15.400399,3.23125 -15.642695,-45.13131 -4.287897,-55.07527 8.165797,-7.15121 31.444599,1.83984 31.444599,10.01369 l 0,12.51711 c 0,-5.59515 38.829231,-42.4539 55.742711,-35.04791 9.93397,4.34984 16.81176,12.2195 24.29811,18.77566 2.69511,2.36025 -3.40908,11.50644 0,10.01369 17.38322,-7.61169 32.71735,-38.84874 71.46501,-27.53765 22.3938,6.53714 5.469,34.83055 7.1465,36.29962 1.61977,1.4185 6.55979,2.87237 8.5758,3.75513 18.47602,8.09019 108.01775,-8.04368 124.34916,6.25856 5.95003,5.21074 -26.41697,5.00685 -30.01531,5.00685 l -78.61154,0 -41.44971,0 c -30.56181,0 1.26504,3.89898 -11.4344,15.02052 -1.33423,1.16846 -12.45954,0 -14.293,0 -30.32174,0 -62.14955,1.25171 -91.47522,1.25171 -2.76835,0 -24.886151,1.47347 -25.72741,0 -2.344101,-4.10569 1.600371,-2.65323 4.287908,-5.00683 1.189674,-1.04187 -22.319772,3.08356 -21.439506,-10e-6" inkscape:path-effect="#path-effect3509" id="path3507" d="m 55.226737,656.56538 c -6.583342,-7.38077 -10.665069,-16.95409 -11.43275,-26.81445 -0.767681,-9.86037 1.783179,-19.95007 7.144853,-28.26082 2.248186,-3.48476 5.05714,-6.71251 8.668012,-8.75199 3.610873,-2.03947 8.034818,-2.74796 12.000948,-1.53649 1.983065,0.60574 3.824449,1.66569 5.35168,3.0682 1.52723,1.40251 2.735155,3.14 3.583142,5.03219 1.695974,3.78438 1.840817,8.05475 1.840817,12.20178 l 0,12.51711 c 4.170241,-11.01796 12.0161,-20.6085 21.989341,-26.87913 9.97325,-6.27062 22.01654,-9.18526 33.75337,-8.16878 5.56447,0.48192 11.17413,1.87756 15.79843,5.00988 2.31215,1.56617 4.35112,3.558 5.85695,5.90989 1.50583,2.35188 2.46797,5.06871 2.64273,7.85589 0.20945,3.34048 -0.69439,6.73948 0,10.01369 0.41408,1.9525 1.39593,3.7725 2.75351,5.23562 1.35757,1.46311 3.08354,2.57132 4.95738,3.25867 3.74768,1.37468 7.99866,1.03133 11.69451,-0.47716 3.69584,-1.50849 6.86988,-4.11259 9.48801,-7.12593 2.61814,-3.01334 4.71616,-6.43843 6.69459,-9.90552 3.95686,-6.93416 7.70577,-14.36669 14.14562,-19.08556 3.21992,-2.35944 7.09311,-3.9431 11.08446,-4.00582 1.99568,-0.0314 4.00317,0.31895 5.84594,1.08571 1.84276,0.76675 3.51717,1.9541 4.80099,3.48234 2.04915,2.43929 3.02326,5.63358 3.32239,8.80528 0.29913,3.1717 -0.0262,6.36453 -0.30138,9.53841 -0.27514,3.17387 -0.49897,6.386 -3.2e-4,9.53251 0.49865,3.14651 1.78578,6.26161 4.12581,8.42342 2.32322,2.14628 5.46637,3.17606 8.5758,3.75513 7.22157,1.34489 14.73501,0.55879 21.7801,-1.52124 7.04509,-2.08002 13.66039,-5.42047 19.96043,-9.19794 12.60007,-7.55495 24.19993,-16.96829 37.77892,-22.57634 6.7895,-2.80402 14.06642,-4.61679 21.4118,-4.54451 7.34538,0.0723 14.77053,2.11226 20.70818,6.43708 5.93765,4.32482 10.25666,11.0381 11.01507,18.34458 0.3792,3.65324 -0.12603,7.40672 -1.54722,10.79348 -1.42119,3.38677 -3.76501,6.39478 -6.75812,8.52345 -4.20013,2.98709 -9.4311,4.15932 -14.56319,4.63421 -5.13208,0.47489 -10.29811,0.37264 -15.45212,0.37264 l -78.61154,0 -41.44971,0 c -1.79393,0 -3.64172,0.0869 -5.26545,0.84959 -1.62372,0.7627 -2.91545,2.16285 -3.63383,3.80666 -0.71838,1.64381 -0.88846,3.46488 -1.07031,5.24957 -0.0909,0.89234 -0.19362,1.78644 -0.40671,2.65773 -0.21309,0.87129 -0.54125,1.72389 -1.0581,2.45697 -0.7503,1.0642 -1.87885,1.83447 -3.11135,2.2545 -1.2325,0.42003 -2.56462,0.50264 -3.85816,0.35357 -2.58709,-0.29813 -4.97392,-1.48494 -7.32349,-2.60807 -14.5547,-6.95732 -30.19681,-12.19572 -46.3166,-12.8248 -16.11979,-0.62907 -32.81016,3.69581 -45.15862,14.07651 -2.31197,1.94355 -4.45943,4.08251 -6.848988,5.92983 -2.389561,1.84731 -5.073814,3.41707 -8.035783,4.00809 -1.480985,0.2955 -3.019155,0.33942 -4.501809,0.0524 -1.482654,-0.28702 -2.908206,-0.91084 -4.078253,-1.86563 -1.170047,-0.95479 -2.076413,-2.24571 -2.505471,-3.69366 -0.429057,-1.44794 -0.36635,-3.04921 0.242894,-4.43104 0.445939,-1.01144 1.162636,-1.87998 1.934583,-2.67116 0.771948,-0.79118 1.607906,-1.51945 2.353325,-2.33567 1.885266,-2.06434 3.154743,-4.68414 3.606676,-7.44303 0.451934,-2.75889 0.08467,-5.6468 -1.043414,-8.20476 -1.128088,-2.55796 -3.012879,-4.77662 -5.354832,-6.30338 -2.341953,-1.52676 -5.132508,-2.35604 -7.928172,-2.35604 -2.795663,0 -5.586219,0.82928 -7.928173,2.35603 -2.341954,1.52676 -4.226748,3.74542 -5.354838,6.30338 -1.12809,2.55795 -1.495354,5.44586 -1.043422,8.20476 0.451931,2.75889 1.721405,5.37869 3.606669,7.44303" style="fill:#d5f6ff;stroke:#e6e6e6;stroke-width:0.93599176px;stroke-linecap:butt;stroke-linejoin:miter;stroke-opacity:1"/>
      <g inkscape:export-ydpi="90" inkscape:export-xdpi="90" transform="matrix(0.97597937,0,0,0.97597937,-47.050024,127.3005)" id="g3720">
        <path style="fill:#f4e3d7;stroke:none;filter:url(#filter4327)" d="m 787.26282,776.91326 c -107.94621,0 -215.89241,0 -323.83861,0 -7.35947,0 -66.50191,7.94375 -74.44566,0 -9.84645,-9.84645 -26.19301,-21.18429 -39.08397,-29.77826 -6.76271,-4.50848 -127.38869,-0.95047 -141.44674,1.86114 -11.05861,2.21173 -28.29331,16.1563 -39.08397,20.47256 -36.12906,14.45162 -102.48776,49.50097 -94.91822,94.91821 4.613417,27.6805 55.46623,46.52855 78.16795,46.52855 84.99212,0 169.98424,0 254.97637,0 19.53931,0 140.09232,-6.26065 152.61359,0 6.37337,3.18668 19.36109,11.68901 26.05598,13.02799 13.59032,2.71806 26.62353,0.59924 39.08397,5.58342 9.51393,3.80557 24.27414,1.86114 33.50055,1.86114 29.33193,0 63.2788,7.86647 63.2788,-26.05599 0,-6.38414 7.21035,-18.14297 9.30571,-22.3337 4.68846,-9.37691 5.6735,-22.51384 9.30571,-29.77826 1.73965,-3.47931 13.53001,-1.57543 16.75028,-3.72228 9.90349,-6.60233 36.27169,-25.06371 40.94511,-39.08397 4.74556,-14.23669 -0.179,-30.75358 -11.16685,-33.50055 z" id="path3718" inkscape:connector-curvature="0"/>
        <ellipse transform="matrix(1.2872461,0,0,1.2872461,80.787861,530.31462)" id="ellipse3707" style="fill:#7b6c53;fill-opacity:0.98930485;fill-rule:nonzero;stroke:#290010;stroke-width:1;stroke-linejoin:round;stroke-miterlimit:4;stroke-opacity:1;stroke-dasharray:none;filter:url(#filter5541-6)" cx="69.657845" cy="270.73474" rx="28.682642" ry="8.6047926" d="m 98.340487,270.73474 a 28.682642,8.6047926 0 0 1 -28.682642,8.60479 28.682642,8.6047926 0 0 1 -28.682642,-8.60479 28.682642,8.6047926 0 0 1 28.682642,-8.60479 28.682642,8.6047926 0 0 1 28.682642,8.60479 z"/>
        <g id="g17704" transform="matrix(1.3075936,0,0,1.3075936,-195.69087,-6365.7111)" style="filter:url(#filter25971)">
          <g id="g16506" transform="matrix(0.54019167,0,0,0.54019167,563.14741,2015.3264)">
            <path sodipodi:nodetypes="caaaaaaaaaaaaaaaaaaaaaaaaaaaaaaaaaaaaaaaaaaaaaaaaaaaaac" inkscape:connector-curvature="0" id="path16508" d="m 210.4398,6305.1364 c 0.62943,-6.5584 -1.34871,-7.5156 1.43156,-9.7884 8.6488,-7.0701 23.83081,-2.039 35.78909,-2.4471 5.24489,-0.179 10.57774,0.7784 15.7472,0 5.50063,-0.8282 10.71822,-6.9712 15.74719,-4.8942 2.71738,1.1223 0.41479,5.833 2.86312,7.3413 5.03249,3.1002 13.0618,-2.3712 18.61033,0 4.2681,1.8239 5.26827,6.8598 8.58938,9.7884 4.2531,3.7505 12.397,4.8295 14.31563,9.7884 2.9435,7.6078 -0.94913,17.2434 -7.15782,23.2475 -1.70179,1.6457 -4.65789,1.9386 -7.15781,2.4471 -10.71746,2.1798 -22.48604,-0.5597 -32.92596,2.4471 -10.16199,2.9268 -17.06006,11.6997 -27.1997,14.6826 -13.60377,4.0019 -29.43928,-0.5626 -42.9469,3.6706 -24.48172,7.6725 -40.51574,29.027 -64.42035,37.9301 -4.03316,1.5022 -8.8127,1.0223 -12.88407,2.4471 -16.66429,5.8319 -28.43689,20.4231 -45.81002,24.4711 -17.500761,4.0776 -36.260463,-1.1119 -54.399405,-1.2236 -40.085572,-0.2468 -80.234215,3.2404 -120.251314,1.2236 -11.049091,-0.5569 -22.036741,-5.3655 -32.925951,-3.6707 -7.98094,1.2421 -14.11754,6.8651 -21.47345,9.7884 -9.32066,3.7041 -18.5895,7.9121 -28.63127,9.7884 -18.6704,3.4886 -38.20132,1.2646 -57.26253,2.4471 -10.03988,0.6228 -20.12201,3.8013 -30.06283,2.4471 -20.04847,-2.731 -36.40914,-15.7479 -55.83097,-20.8003 -5.10394,-1.3278 -11.02145,-0.3308 -15.74719,-2.4471 -1.79329,-0.8031 -2.45883,-2.9413 -4.29469,-3.6707 -20.41122,-8.1098 -45.96524,1.2799 -67.28348,-4.8942 -19.30711,-5.5917 -33.47012,-20.0702 -51.53627,-28.1416 -5.49767,-2.4563 -11.09578,-5.078 -17.17876,-6.1179 -13.10178,-2.2396 -27.52056,3.8876 -40.08377,0 -7.0087,-2.1688 -12.19671,-7.4967 -17.17876,-12.2354 -3.44991,-3.2815 -4.58123,-8.2324 -8.58938,-11.012 -1.99549,-1.3839 -5.87162,-0.5457 -7.15782,-2.4471 -10.13319,-14.9802 0.55064,-35.508 8.58938,-51.3891 2.42647,-4.7936 6.36505,-9.3419 11.45251,-12.2355 5.78422,-3.29 13.16108,-4.0705 20.04188,-4.8942 4.72575,-0.5657 9.56194,0.3557 14.31563,0 8.20614,-0.6141 16.13044,-3.0566 24.33658,-3.6707 5.22906,-0.3913 10.8638,-1.6452 15.7472,0 9.109,3.0687 12.36445,14.0611 21.47345,17.1298 2.66367,0.8973 5.94419,0.9365 8.58937,0 1.87043,-0.6623 2.42902,-2.9988 4.29469,-3.6707 36.06155,-12.9875 78.25661,-1.0197 117.38819,-1.2236 9.0664,-0.047 18.22077,1.0748 27.19971,0 6.8808,-0.8237 13.16108,-4.0705 20.04188,-4.8941 9.45151,-1.1314 19.12003,0.6728 28.63127,0 17.35638,-1.2278 34.17989,-6.1136 51.53627,-7.3414 27.58259,-1.9511 55.36911,-0.7871 83.030674,0 28.678926,0.8162 57.223063,3.8895 85.8937962,4.8942 30.9948368,1.0861 62.5719918,-3.7076 93.0516128,1.2236 12.017877,1.9443 22.322497,9.1467 34.357517,11.012 18.78122,2.9108 38.49578,-2.9783 57.26253,0 6.53476,1.037 12.07556,5.0806 18.61032,6.1177 6.0992,0.9679 12.52735,-1.0398 18.61033,0" style="color:#000000;fill:#0000ff;fill-opacity:1;fill-rule:evenodd;stroke:none;stroke-width:2;marker:none;visibility:visible;display:inline;overflow:visible;enable-background:accumulate"/>
            <path style="color:#000000;fill:url(#linearGradient16608);fill-opacity:1;fill-rule:evenodd;stroke:none;stroke-width:2;marker:none;visibility:visible;display:inline;overflow:visible;enable-background:accumulate" d="m 210.4398,6305.1364 c 0.62943,-6.5584 -1.34871,-7.5156 1.43156,-9.7884 8.6488,-7.0701 23.83081,-2.039 35.78909,-2.4471 5.24489,-0.179 10.57774,0.7784 15.7472,0 5.50063,-0.8282 10.71822,-6.9712 15.74719,-4.8942 2.71738,1.1223 0.41479,5.833 2.86312,7.3413 5.03249,3.1002 13.0618,-2.3712 18.61033,0 4.2681,1.8239 5.26827,6.8598 8.58938,9.7884 4.2531,3.7505 10.16018,5.7698 14.31563,9.7884 16.31096,15.7736 41.72692,32.2293 40.28133,54.8736 -1.41108,22.1039 -24.31517,42.7943 -45.81193,48.1292 -8.23744,2.0444 -15.66213,-7.7147 -24.14093,-8.0949 -13.52126,-0.6063 -26.20364,6.8754 -39.49874,9.4116 -12.46354,2.3775 -25.08677,3.8444 -37.67589,5.4276 -24.93512,3.1357 -50.10342,4.3698 -74.96238,8.061 -4.32406,0.6421 -8.76162,0.9927 -12.88407,2.4471 -16.32595,5.7597 -28.969956,20.4558 -45.81002,24.4711 -17.64313,4.2068 -36.262027,-1.1119 -54.399405,-1.2236 -40.085087,-0.2468 -80.21642,3.2441 -120.251314,1.2236 -11.029271,-0.5566 -22.020781,-5.412 -32.925951,-3.6707 -7.768,1.2403 -14.16401,6.8811 -21.47345,9.7884 -9.37197,3.7276 -18.71927,7.9226 -28.63127,9.7884 -18.77518,3.5343 -38.19426,1.264 -57.26253,2.4471 -10.03479,0.6226 -20.10392,3.8272 -30.06283,2.4471 -19.67193,-2.7261 -36.61524,-15.7831 -55.83097,-20.8003 -5.13976,-1.342 -10.92024,-0.2293 -15.74719,-2.4471 -1.71123,-0.7862 -2.55283,-2.9549 -4.29469,-3.6707 -20.79922,-8.5476 -45.71116,1.4543 -67.28348,-4.8942 -18.77683,-5.5258 -33.67207,-20.1432 -51.53627,-28.1416 -5.54785,-2.484 -11.18893,-5.0831 -17.17876,-6.1179 -13.16624,-2.2745 -29.09656,7.6029 -40.08377,0 -13.36154,-9.2459 -9.22828,-31.4478 -17.17876,-45.6185 -2.27782,-4.0599 -4.58123,-8.2324 -8.58938,-11.012 -1.99549,-1.3839 -5.87162,-0.5457 -7.15782,-2.4471 -10.13319,-14.9802 0.55064,-35.508 8.58938,-51.3891 2.42647,-4.7936 6.36505,-9.3419 11.45251,-12.2355 5.78422,-3.29 13.16108,-4.0705 20.04188,-4.8942 4.72575,-0.5657 9.56194,0.3557 14.31563,0 8.20614,-0.6141 16.13044,-3.0566 24.33658,-3.6707 5.22906,-0.3913 10.8638,-1.6452 15.7472,0 9.109,3.0687 12.36445,14.0611 21.47345,17.1298 2.66367,0.8973 5.94419,0.9365 8.58937,0 1.87043,-0.6623 2.42902,-2.9988 4.29469,-3.6707 36.06155,-12.9875 78.25661,-1.0197 117.38819,-1.2236 9.0664,-0.047 18.22077,1.0748 27.19971,0 6.8808,-0.8237 13.16108,-4.0705 20.04188,-4.8941 9.45151,-1.1314 19.12003,0.6728 28.63127,0 17.35638,-1.2278 34.17989,-6.1136 51.53627,-7.3414 27.58259,-1.9511 55.36911,-0.7871 83.030674,0 28.678926,0.8162 57.223063,3.8895 85.8937962,4.8942 30.9948368,1.0861 62.5719918,-3.7076 93.0516128,1.2236 12.017877,1.9443 22.322497,9.1467 34.357517,11.012 18.78122,2.9108 38.49578,-2.9783 57.26253,0 6.53476,1.037 12.07556,5.0806 18.61032,6.1177 6.0992,0.9679 12.52735,-1.0398 18.61033,0" id="path16510" inkscape:connector-curvature="0" sodipodi:nodetypes="caaaaaaaaaaaaaaaaaaaaaaaaaaaaaaaaaaaaaaaaaaaaaaaaaaaaac"/>
            <g id="g16512">
              <path inkscape:connector-curvature="0" id="path16514" d="m -422.31117,6311.9257 c 6.74499,-26.0926 48.73969,-35.0401 73.00973,-22.905 3.20816,1.604 8.11355,-0.2379 11.45251,1.4315 3.49806,1.7491 12.63771,15.9936 17.17876,11.4525 3.88172,-3.8817 14.84859,-9.6553 17.17876,-14.3156 3.31918,-6.6384 0,-24.0127 0,-31.4944 0,-10.7974 0.80566,-29.4369 7.15781,-35.7891 2.15914,-2.1591 -1.042,-11.1896 0,-14.3156 6.43026,-19.2908 6.26787,-43.4885 20.04189,-57.2625 3.10045,-3.1005 9.86028,-5.5656 14.31563,-10.021 2.45034,-2.4503 5.15821,-9.4529 7.15782,-11.4525 3.93117,-3.9312 11.87333,-11.8733 15.74719,-15.7472 2.03067,-2.0307 8.40447,-4.1098 10.02095,-5.7262 1.25963,-1.2597 1.92471,-6.2194 2.86312,-7.1578 1.66907,-1.6691 11.0529,-6.3587 14.31563,-12.8841 3.0843,-6.1686 7.04297,-11.3377 11.45251,-15.7472 4.98848,-4.9885 -0.24536,-10.9618 2.86313,-17.1788 0.91292,-1.8258 4.8177,-2.0831 7.15781,-2.8631 7.28432,-2.4281 17.1443,-4.2602 21.47345,-8.5894 0.0465,-0.047 35.32753,0.97 35.78908,1.4316 5.5573,5.5573 2.92337,25.8284 4.29469,27.1997 4.01799,4.018 9.2414,2.8206 15.7472,7.1578 6.36638,4.2443 7.46697,14.9339 10.02094,20.0419 2.39926,4.7985 11.782287,7.8174 14.315637,12.8841 1.145251,2.2905 -1.145251,6.2988 0,8.5893 3.652272,7.3046 5.370535,34.0018 5.726253,34.3576 6.050961,6.0509 6.851149,22.2916 11.452506,31.4943 3.53559,7.0712 11.636655,3.0473 15.747196,7.1579 4.732506,4.7325 -2.767447,8.7807 0,14.3156 5.208037,10.4161 7.259764,53.0698 10.020943,55.831 2.759948,2.7599 -5.404144,-6.4659 4.29469,0 3.160815,2.1072 2.286918,12.3078 4.29469,14.3156 0.691346,0.6913 2.855786,3.5752 4.29469,4.2947 2.949393,1.4747 39.9320601,2.939 42.946898,1.4315 4.899582,-2.4497 -2.5255569,-5.895 2.863126,-8.5893 4.962753,-2.4814 13.64757,2.4813 18.610323,0 9.411203,-4.7056 39.129324,-21.2349 50.104719,-15.7472 7.24285,3.6214 6.51867,6.6719 8.58937,12.884 2.2446,6.7338 12.375459,6.6492 15.747199,10.021 1.34399,1.344 4.13796,5.5695 5.72625,7.1578 4.60799,4.608 80.32237,5.7263 85.8938,5.7263 13.75455,0 3.8097,4.2829 8.58938,11.4525 1.00512,1.5076 3.53976,2.1082 4.29469,2.8631 1.0298,1.0298 0.41315,4.7078 2.86313,7.1578 0.95437,0.9544 -0.95438,4.7719 0,5.7263 1.34697,1.3469 12.02946,0 14.31563,0 8.50286,0 48.39653,8.866 55.83097,1.4315" style="color:#000000;fill:#502d16;fill-opacity:1;fill-rule:evenodd;stroke:none;stroke-width:2;marker:none;visibility:visible;display:inline;overflow:visible;enable-background:accumulate"/>
              <path style="color:#000000;fill:#784421;fill-opacity:1;fill-rule:evenodd;stroke:none;stroke-width:2;marker:none;visibility:visible;display:inline;overflow:visible;enable-background:accumulate" d="m -407.99554,6317.6519 c 6.74499,-26.0926 48.73969,-35.0401 73.00973,-22.905 3.20816,1.604 8.11355,-0.2379 11.45251,1.4315 3.49806,1.7491 12.63771,15.9936 17.17876,11.4525 3.88172,-3.8817 14.84859,-9.6553 17.17876,-14.3156 3.31918,-6.6384 0,-24.0127 0,-31.4944 0,-10.7974 0.80566,-29.4369 7.15781,-35.7891 2.15914,-2.1591 -1.042,-11.1896 0,-14.3156 6.43026,-19.2908 6.26787,-43.4885 20.04189,-57.2625 3.10045,-3.1005 9.86028,-5.5656 14.31563,-10.021 2.45034,-2.4503 5.15821,-9.4529 7.15782,-11.4525 3.93117,-3.9312 11.87333,-11.8733 15.74719,-15.7472 2.03067,-2.0307 8.40447,-4.1098 10.02095,-5.7262 1.25963,-1.2597 1.92471,-6.2194 2.86312,-7.1578 1.66907,-1.6691 11.0529,-6.3587 14.31563,-12.8841 3.0843,-6.1686 7.04297,-11.3377 11.45251,-15.7472 4.98848,-4.9885 -0.24536,-10.9618 2.86313,-17.1788 0.91292,-1.8258 4.8177,-2.0831 7.15781,-2.8631 7.28432,-2.4281 17.1443,-4.2602 21.47345,-8.5894 0.0465,-0.047 35.32753,0.97 35.78908,1.4316 5.5573,5.5573 2.92337,25.8284 4.29469,27.1997 4.018,4.018 9.2414,2.8206 15.747204,7.1578 6.366376,4.2443 7.466969,14.9339 10.020943,20.0419 2.399252,4.7985 11.782283,7.8174 14.315633,12.8841 1.145251,2.2905 -1.145251,6.2988 0,8.5893 3.652272,7.3046 5.370535,34.0018 5.726253,34.3576 6.050961,6.0509 6.851149,22.2916 11.452506,31.4943 3.53559,7.0712 11.636655,3.0473 15.747196,7.1579 4.732506,4.7325 -2.767447,8.7807 0,14.3156 5.208037,10.4161 7.259764,53.0698 10.020943,55.831 2.759948,2.7599 -5.404144,-6.4659 4.29469,0 3.160815,2.1072 2.286918,12.3078 4.29469,14.3156 0.691346,0.6913 2.855785,3.5752 4.294689,4.2947 2.949394,1.4747 39.932061,2.939 42.946899,1.4315 4.899582,-2.4497 -2.525557,-5.895 2.863126,-8.5893 4.962753,-2.4814 13.64757,2.4813 18.610323,0 9.411203,-4.7056 39.129324,-21.2349 50.104719,-15.7472 7.242846,3.6214 6.518666,6.6719 8.589366,12.884 2.2446,6.7338 12.37546,6.6492 15.7472,10.021 1.34399,1.344 4.13796,5.5695 5.72625,7.1578 4.60799,4.608 80.32237,5.7263 85.8938,5.7263 13.75455,0 3.8097,4.2829 8.58938,11.4525 1.00512,1.5076 3.53976,2.1082 4.29469,2.8631 1.0298,1.0298 0.41315,4.7078 2.86313,7.1578 0.95437,0.9544 -0.95438,4.7719 0,5.7263 1.34697,1.3469 12.02946,0 14.31563,0 8.50286,0 48.39653,8.866 55.83097,1.4315" id="path16516" inkscape:connector-curvature="0"/>
              <path inkscape:connector-curvature="0" id="path16518" d="m -138.86164,6080.0125 c 10.48199,-10.9618 -0.91731,-7.5609 -4.29469,-14.3156 -0.7635,-1.527 0.7635,-4.1993 0,-5.7263 -0.821,-1.642 -10.0524,1.4001 -11.4525,0 -1.70734,-1.7073 -9.5363,-10.2632 -15.7472,-7.1578 -3.52549,1.7627 -14.55701,1.6729 -15.7472,2.8631 -5.46733,5.4674 -0.40524,2.35 -10.02094,7.1578 -6.51414,3.2571 -20.37536,-3.9612 -25.76814,1.4316 -1.34969,1.3497 0.85362,4.019 0,5.7263 -1.7408,3.4816 -5.27141,5.2714 -7.15781,7.1578 -2.28784,2.2878 0.002,18.6054 0,18.6103 -2.30589,6.9177 -17.70453,17.7045 -20.04189,20.0419 -5.944,5.944 -1.23786,18.6103 -2.86313,18.6103 -0.75187,0 3.59571,0 5.72626,0 4.64106,0 6.28451,-8.5894 11.4525,-8.5894 1.43157,0 0,2.8632 0,4.2947 0,4.8457 1.67446,18.6103 4.29469,18.6103 2.52971,0 10.64263,-10.6426 12.88407,-12.884 3.51033,-3.5104 1.99785,3.2957 8.58938,0 0.42681,-0.2134 0,-0.9544 0,-1.4316 0.47719,-0.4772 0.82796,-1.1298 1.43156,-1.4316 4.042,-2.021 15.32866,-4.4342 15.7472,-4.2946 4.46837,1.4894 -0.47719,0.9543 1.43156,2.8631 1.19297,1.193 5.96485,-1.193 7.15782,0 0.67485,0.6748 -0.67485,2.1883 0,2.8631 5.51393,5.5139 8.51766,7.1578 18.61032,7.1578 0.8736,0 5.16846,0.5578 5.72626,0 2.43319,-2.4332 2.2852,-8.5894 5.72625,-8.5894 9.65493,0 14.79528,1.9113 20.04188,7.1579 0.7394,0.7394 7.35788,0 8.58938,0 5.54885,0 32.740554,5.9116 35.789087,2.8631 2.039831,-2.0398 -1.237643,-1.6255 1.431564,-4.2947 1.393957,-1.394 -2.454148,-3.4767 -2.863127,-4.2947 -1.662321,-3.3246 -3.513144,-6.3763 -5.726253,-8.5894 -1.817438,-1.8174 -8.589381,0.3732 -8.589381,-2.8631 0,-8.8355 7.157818,-10.7926 7.157818,-10.0209 0,2.3859 -4.039138,-2.6076 -5.726248,-4.2947 -4.70056,-4.7006 -9.87968,-4.1535 -14.31564,-8.5894 -0.95577,-0.9558 -2.71637,-6.3687 -4.29469,-7.1578 -1.1919,-0.596 -4.81819,0.908 -5.72625,0 -1.77907,-1.7791 1.9498,-5.4672 -1.43157,-7.1578 -0.99324,-0.4967 -3.44179,0.6823 -4.29469,0 -2.10786,-1.6863 -3.31185,-6.9335 -5.72625,-5.7263 -2.29844,1.1492 2.35916,4.638 2.86313,7.1578 0.18717,0.9359 -2.67596,0.9359 -2.86313,0 -1.81331,-9.0665 -0.93529,-7.1578 5.72625,-7.1578" style="color:#000000;fill:#225500;fill-opacity:1;fill-rule:evenodd;stroke:none;stroke-width:2;marker:none;visibility:visible;display:inline;overflow:visible;enable-background:accumulate"/>
              <path style="color:#000000;fill:#552200;fill-opacity:1;fill-rule:evenodd;stroke:none;stroke-width:2;marker:none;visibility:visible;display:inline;overflow:visible;enable-background:accumulate" d="m -251.95514,6197.4006 c -9.48659,-7.5228 12.37686,-28.2141 18.61033,-15.7472 1.5819,3.1638 1.43156,16.727 1.43156,20.0419" id="path16520" inkscape:connector-curvature="0"/>
              <path style="color:#000000;fill:#552200;fill-opacity:1;fill-rule:evenodd;stroke:none;stroke-width:2;marker:none;visibility:visible;display:inline;overflow:visible;enable-background:accumulate" d="m -213.30293,6210.2846 c 3.55201,-19.7834 13.00322,-31.6135 24.33658,-42.9468 18.61114,15.1499 -3.96881,40.0837 21.47345,40.0837" id="path16522" inkscape:connector-curvature="0"/>
              <path style="color:#000000;fill:#552200;fill-opacity:1;fill-rule:evenodd;stroke:none;stroke-width:2;marker:none;visibility:visible;display:inline;overflow:visible;enable-background:accumulate" d="m -97.346302,6260.3894 c -8.133108,-20.6303 22.905012,-15.771 22.905012,-2.8632" id="path16524" inkscape:connector-curvature="0"/>
              <path style="color:#000000;fill:#552200;fill-opacity:1;fill-rule:evenodd;stroke:none;stroke-width:2;marker:none;visibility:visible;display:inline;overflow:visible;enable-background:accumulate" d="m -214.73449,6276.1366 c -2.99618,-8.513 -20.95425,-10.5402 -27.1997,-4.2947 -2.49409,2.4941 -3.7344,7.4688 -5.72626,11.4525" id="path16526" inkscape:connector-curvature="0"/>
              <path style="color:#000000;fill:#552200;fill-opacity:1;fill-rule:evenodd;stroke:none;stroke-width:2;marker:none;visibility:visible;display:inline;overflow:visible;enable-background:accumulate" d="m -246.22888,6230.3265 c -14.81986,0.134 -22.90502,3.7039 -22.90502,18.6104" id="path16528" inkscape:connector-curvature="0"/>
              <path style="color:#000000;fill:#552200;fill-opacity:1;fill-rule:evenodd;stroke:none;stroke-width:2;marker:none;visibility:visible;display:inline;overflow:visible;enable-background:accumulate" d="m -164.62978,6240.3475 c 0,-1.9088 -0.37433,-3.8546 0,-5.7263 0.86233,-4.3116 22.90502,-8.5521 22.90502,12.8841" id="path16530" inkscape:connector-curvature="0"/>
              <path style="color:#000000;fill:#552200;fill-opacity:1;fill-rule:evenodd;stroke:none;stroke-width:2;marker:none;visibility:visible;display:inline;overflow:visible;enable-background:accumulate" d="m -83.03067,6284.7259 c 8.806767,-6.9838 35.789082,-7.9325 35.789082,5.7263" id="path16532" inkscape:connector-curvature="0"/>
              <path style="color:#000000;fill:#552200;fill-opacity:1;fill-rule:evenodd;stroke:none;stroke-width:2;marker:none;visibility:visible;display:inline;overflow:visible;enable-background:accumulate" d="m 47.241588,6301.9047 c 1.908751,-0.9544 4.771878,-4.7719 5.726253,-2.8631 0.954376,1.9087 -7.635004,3.8175 -5.726253,2.8631 5.443168,-2.7216 24.336576,-12.0168 24.336576,0" id="path16534" inkscape:connector-curvature="0"/>
              <path style="color:#000000;fill:#552200;fill-opacity:1;fill-rule:evenodd;stroke:none;stroke-width:2;marker:none;visibility:visible;display:inline;overflow:visible;enable-background:accumulate" d="m 114.52506,6309.0625 c -1.90348,-9.1907 11.31684,-11.4977 20.04189,-8.5894 3.25746,1.0859 3.17942,6.3589 4.29469,8.5894" id="path16536" inkscape:connector-curvature="0"/>
              <path style="color:#000000;fill:#552200;fill-opacity:1;fill-rule:evenodd;stroke:none;stroke-width:2;marker:none;visibility:visible;display:inline;overflow:visible;enable-background:accumulate" d="m 15.747196,6300.4731 c -6.0693442,-10.0866 -10.6839181,-15.8528 -20.0418858,2.8632" id="path16538" inkscape:connector-curvature="0"/>
              <path style="color:#000000;fill:#552200;fill-opacity:1;fill-rule:evenodd;stroke:none;stroke-width:2;marker:none;visibility:visible;display:inline;overflow:visible;enable-background:accumulate" d="m -22.905012,6310.4941 c -3.068031,-5.4925 -21.473449,-14.8098 -21.473449,-2.8631" id="path16540" inkscape:connector-curvature="0"/>
              <path style="color:#000000;fill:#552200;fill-opacity:1;fill-rule:evenodd;stroke:none;stroke-width:2;marker:none;visibility:visible;display:inline;overflow:visible;enable-background:accumulate" d="m -134.56695,6281.8628 c -12.51423,-15.8076 -34.35752,-11.6316 -34.35752,10.021 0,3.0858 -0.80244,6.3553 1.43157,8.5893" id="path16542" inkscape:connector-curvature="0"/>
              <path style="color:#000000;fill:#00ffff;fill-opacity:1;fill-rule:evenodd;stroke:none;stroke-width:2;marker:none;visibility:visible;display:inline;overflow:visible;enable-background:accumulate" d="m -144.58789,6044.1993 c -5.97938,6.418 -24.76372,-3.8026 -30.06283,1.4075 -0.31581,0.3104 0.24198,5.63 0,5.63 -0.32751,0 -2.90522,1.4489 -4.29469,2.815 -0.74045,0.7281 -16.00297,-1.6589 -8.58938,5.6301 2.8563,2.8083 10.12326,4.3232 12.88407,7.0376 2.79137,2.7444 -1.08968,22.1211 1.43156,29.5577 6.62855,19.5515 -12.45223,16.4655 -15.74719,19.7052 -2.59329,2.5497 0,20.2441 0,23.9277 0,7.0103 1.1035,12.0225 4.29469,18.2977 1.93863,3.812 -2.61085,11.012 -4.29469,12.6676 -1.24997,1.2289 3.29113,33.2143 4.29469,35.1877 2.83334,5.5715 9.94261,9.7756 14.31563,14.0752 1.49224,1.4671 -1.27922,11.4098 -1.43156,11.2601 -0.47719,-0.4692 1.90875,-1.8767 1.43156,-1.4076 -5.73033,5.6341 -2.86313,20.1393 -2.86313,28.1503 0,17.7415 -0.40216,25.7306 -14.31563,39.4103 -3.70841,3.6462 -22.09698,-1.101 -27.1997,1.4075 -3.44229,1.6923 -13.63237,7.1016 -15.7472,11.2601 -1.59473,3.1359 -1.94141,6.1313 -4.29469,8.4451 -4.86644,4.7847 -16.17003,-3.8068 -28.63126,8.4451 -2.29795,2.2593 -13.91363,-0.8026 -17.17876,0 -7.17132,1.7627 -44.88818,5.495 -47.24159,7.0375 -3.05744,2.0041 -10.18794,16.5618 -7.15782,22.5202 1.83599,3.6103 6.28677,13.6469 10.02095,15.4827 12.67403,6.2305 75.43571,4.2225 93.05161,4.2225 3.1487,0 17.97121,2.0359 18.61032,1.4076 3.76273,-3.6996 -3.79457,-4.0918 7.15782,-5.6301 6.74285,-0.9472 60.82427,-2.9953 67.28347,-1.4076 4.39656,1.0807 38.53315,3.3623 41.515338,1.4076 7.151122,-4.6873 14.688891,-7.1599 22.905012,-9.8526 16.257537,-5.3281 44.994888,2.9485 62.988784,0 4.067495,-0.6666 6.0634721,-3.1108 10.0209427,-4.2225 6.5366,-1.8362 11.8337893,-0.3749 15.7471963,-4.2226 8.215135,-8.0772 -12.993822,-13.6778 -15.7471963,-15.4826 -10.6646307,-6.9904 -22.6350827,-1.9786 -30.0628287,-5.6301 -8.672498,-4.2634 -16.771827,-10.4563 -25.768139,-12.6675 -4.11978,-1.0127 -19.864045,0.3496 -21.473449,-2.8151 -2.961284,-5.823 -18.324956,-7.8839 -18.610322,-8.445 -4.683098,-9.2089 1.90147,-22.5417 -1.431564,-32.3729 -1.375254,-4.0564 -8.825854,-10.085 -11.452504,-12.6676 -0.95438,-0.9383 0.95437,-4.6917 0,-5.63 -13.90132,-13.6677 -21.16746,-33.4795 -35.78908,-47.8554 -2.14735,-2.1113 -0.71579,-7.7414 -2.86313,-9.8526 -5.86924,-5.7707 -18.02381,-18.5519 -21.47345,-25.3353 -4.24359,-8.3445 -4.19813,-41.0076 0,-49.2629 1.20707,-2.3735 -1.83504,-9.4558 0,-11.2601 3.62674,-3.5657 10.28949,-4.7506 12.88407,-9.8525 0.50723,-0.9975 0.98194,-13.1097 0,-14.0752 -0.87951,-0.8647 -3.336,-0.9298 -4.29469,-2.815 -2.37255,-4.6654 0.49817,-15.4207 0,-16.8901 -1.41575,-4.1759 -4.29469,-0.6011 -4.29469,-7.0376 0,-5.7165 29.63041,-3.7973 34.35752,-8.445 1.09345,-1.0751 -5.14591,-12.6676 -5.72625,-12.6676 -2.43319,0 -4.77188,0.9383 -7.15782,1.4075 z" id="path16544" inkscape:connector-curvature="0"/>
              <path style="color:#000000;fill:#552200;fill-opacity:1;fill-rule:evenodd;stroke:none;stroke-width:2;marker:none;visibility:visible;display:inline;overflow:visible;enable-background:accumulate" d="m -219.02918,6299.0416 c 2.18435,-2.521 -1.3981,-7.2248 0,-10.021 2.40544,-4.8109 21.28074,4.102 22.90501,5.7263 2.02454,2.0245 0,5.7262 0,8.5894" id="path16546" inkscape:connector-curvature="0"/>
              <path style="color:#000000;fill:#552200;fill-opacity:1;fill-rule:evenodd;stroke:none;stroke-width:2;marker:none;visibility:visible;display:inline;overflow:visible;enable-background:accumulate" d="m -131.70382,6154.4537 c 0.40533,-12.7534 27.17389,-14.3673 31.49439,-5.7263" id="path16548" inkscape:connector-curvature="0"/>
              <path style="color:#000000;fill:#552200;fill-opacity:1;fill-rule:evenodd;stroke:none;stroke-width:2;marker:none;visibility:visible;display:inline;overflow:visible;enable-background:accumulate" d="m -177.51385,6154.4537 c -0.47718,-1.9088 -3.34031,-5.2491 -1.43156,-5.7263 1.90875,-0.4772 3.19135,6.6062 1.43156,5.7263 -2.4887,-1.2444 -2.5565,-4.9851 -4.29469,-7.1578 -0.58457,-0.7308 -21.95318,-0.9519 -22.90501,0 -0.86344,0.8634 -4.68875,3.6512 -5.72625,5.7262 -0.43217,0.8644 0.66176,3.6329 0,4.2947 -2.97242,2.9724 -2.86313,0.4185 -2.86313,4.2947" id="path16550" inkscape:connector-curvature="0"/>
              <path style="color:#000000;fill:#552200;fill-opacity:1;fill-rule:evenodd;stroke:none;stroke-width:2;marker:none;visibility:visible;display:inline;overflow:visible;enable-background:accumulate" d="m -221.89231,6157.3168 c 2.34984,-22.5515 -16.16729,0.4201 -21.47345,5.7263" id="path16552" inkscape:connector-curvature="0"/>
              <path style="color:#000000;fill:#552200;fill-opacity:1;fill-rule:evenodd;stroke:none;stroke-width:2;marker:none;visibility:visible;display:inline;overflow:visible;enable-background:accumulate" d="m -234.77638,6257.5262 c 9.97859,-9.9785 12.28629,-60.6664 42.9469,-28.6312 -3.49301,10.3251 4.29469,14.2239 4.29469,22.905" id="path16554" inkscape:connector-curvature="0"/>
              <path style="color:#000000;fill:#6c5353;fill-opacity:1;fill-rule:evenodd;stroke:none;stroke-width:2;marker:none;visibility:visible;display:inline;overflow:visible;enable-background:accumulate" d="m -52.967841,6230.3265 c 6.150626,-38.198 29.384263,4.9733 21.473449,12.8841 -1.698329,1.6983 -6.14297,3.4792 -8.58938,4.2947" id="path16556" inkscape:connector-curvature="0"/>
              <path style="color:#000000;fill:#6c5353;fill-opacity:1;fill-rule:evenodd;stroke:none;stroke-width:2;marker:none;visibility:visible;display:inline;overflow:visible;enable-background:accumulate" d="m -176.08228,6153.0221 c -1.90875,-0.4772 -6.20344,0.4772 -5.72626,-1.4315 0.47719,-1.9088 7.11749,0.04 5.72626,1.4315 -5.79379,5.7938 -21.47345,-6.6539 -21.47345,7.1578" id="path16558" inkscape:connector-curvature="0"/>
              <path style="color:#000000;fill:#6c5353;fill-opacity:1;fill-rule:evenodd;stroke:none;stroke-width:2;marker:none;visibility:visible;display:inline;overflow:visible;enable-background:accumulate" d="m -223.32387,6160.1799 c -6.34674,-6.1241 -6.11071,-3.9102 -10.02094,0" id="path16560" inkscape:connector-curvature="0"/>
              <path style="color:#000000;fill:#6c5353;fill-opacity:1;fill-rule:evenodd;stroke:none;stroke-width:2;marker:none;visibility:visible;display:inline;overflow:visible;enable-background:accumulate" d="m -130.27226,6148.7274 c -4.1751,-1.9163 5.06348,-8.5894 12.88407,-8.5894" id="path16562" inkscape:connector-curvature="0"/>
              <g id="g16564" transform="translate(4.2946898,0)">
                <path inkscape:connector-curvature="0" id="path16566" d="m -146.01945,6217.4425 c 0.27296,-27.5884 4.27943,-44.3785 35.78908,-44.3785 1.40288,0 14.360197,-1.387 15.747194,0 2.541212,2.5412 4.961597,11.3548 7.157816,15.7472 1.111584,2.2232 -0.784308,6.2365 0,8.5894 2.775281,8.3258 9.14305,18.9345 4.29469,28.6312" style="color:#000000;fill:#552200;fill-opacity:1;fill-rule:evenodd;stroke:none;stroke-width:2;marker:none;visibility:visible;display:inline;overflow:visible;enable-background:accumulate"/>
                <path inkscape:connector-curvature="0" id="path16568" d="m -140.2932,6191.6743 c -9.2244,-9.3141 37.94628,-30.0431 48.673151,-8.5894 1.958306,3.9167 -1.431564,7.1471 -1.431564,10.021" style="color:#000000;fill:#6c5353;fill-opacity:1;fill-rule:evenodd;stroke:none;stroke-width:2;marker:none;visibility:visible;display:inline;overflow:visible;enable-background:accumulate"/>
              </g>
              <path style="color:#000000;fill:#6c5353;fill-opacity:1;fill-rule:evenodd;stroke:none;stroke-width:2;marker:none;visibility:visible;display:inline;overflow:visible;enable-background:accumulate" d="m -191.82948,6173.064 c -6.87754,12.0182 -13.01926,16.0176 -18.61032,27.1997 -1.66572,3.3314 1.43156,8.1573 1.43156,11.4525" id="path16570" inkscape:connector-curvature="0"/>
              <path style="color:#000000;fill:#6c5353;fill-opacity:1;fill-rule:evenodd;stroke:none;stroke-width:2;marker:none;visibility:visible;display:inline;overflow:visible;enable-background:accumulate" d="m -229.05012,6183.0849 c -13.54668,-12.3295 -20.04189,-2.7446 -20.04189,7.1579" id="path16572" inkscape:connector-curvature="0"/>
              <path style="color:#000000;fill:#6c5353;fill-opacity:1;fill-rule:evenodd;stroke:none;stroke-width:2;marker:none;visibility:visible;display:inline;overflow:visible;enable-background:accumulate" d="m -207.57667,6228.895 c -11.08897,5.0598 -11.45251,13.198 -11.45251,24.3365" id="path16574" inkscape:connector-curvature="0"/>
              <path style="color:#000000;fill:#6c5353;fill-opacity:1;fill-rule:evenodd;stroke:none;stroke-width:2;marker:none;visibility:visible;display:inline;overflow:visible;enable-background:accumulate" d="m -246.22888,6228.895 c -9.7167,-3.3863 -12.88407,0.805 -12.88407,10.0209" id="path16576" inkscape:connector-curvature="0"/>
              <path inkscape:connector-curvature="0" id="path16578" d="m -144.58789,6044.1993 c -5.97938,6.418 -24.76372,-3.8026 -30.06283,1.4075 -0.31581,0.3104 0.24198,5.63 0,5.63 -0.32751,0 -2.90522,1.4489 -4.29469,2.815 -0.74045,0.7281 -16.00297,-1.6589 -8.58938,5.6301 2.8563,2.8083 10.12326,4.3232 12.88407,7.0376 2.79137,2.7444 -1.08968,22.1211 1.43156,29.5577 6.62855,19.5515 -12.45223,16.4655 -15.74719,19.7052 -2.59329,2.5497 0,20.2441 0,23.9277 0,7.0103 1.1035,12.0225 4.29469,18.2977 1.93863,3.812 -2.61085,11.012 -4.29469,12.6676 -1.24997,1.2289 3.29113,33.2143 4.29469,35.1877 2.83334,5.5715 9.94261,9.7756 14.31563,14.0752 1.49224,1.4671 -1.27922,11.4098 -1.43156,11.2601 -0.47719,-0.4692 1.90875,-1.8767 1.43156,-1.4076 -5.73033,5.6341 -2.86313,20.1393 -2.86313,28.1503 0,17.7415 -0.40216,25.7306 -14.31563,39.4103 -3.70841,3.6462 -22.09698,-1.101 -27.1997,1.4075 -3.44229,1.6923 -13.63237,7.1016 -15.7472,11.2601 -1.59473,3.1359 -1.94141,6.1313 -4.29469,8.4451 -4.86644,4.7847 -16.17003,-3.8068 -28.63126,8.4451 -2.29795,2.2593 -13.91363,-0.8026 -17.17876,0 -7.17132,1.7627 -44.88818,5.495 -47.24159,7.0375 -3.05744,2.0041 -10.18794,16.5618 -7.15782,22.5202 1.83599,3.6103 6.28677,13.6469 10.02095,15.4827 12.67403,6.2305 75.43571,4.2225 93.05161,4.2225 3.1487,0 17.97121,2.0359 18.61032,1.4076 3.76273,-3.6996 -3.79457,-4.0918 7.15782,-5.6301 6.74285,-0.9472 60.82427,-2.9953 67.28347,-1.4076 4.39656,1.0807 38.53315,3.3623 41.515338,1.4076 7.151122,-4.6873 14.688891,-7.1599 22.905012,-9.8526 16.257537,-5.3281 44.994888,2.9485 62.988784,0 4.067495,-0.6666 6.0634721,-3.1108 10.0209427,-4.2225 6.5366,-1.8362 11.8337893,-0.3749 15.7471963,-4.2226 8.215135,-8.0772 -12.993822,-13.6778 -15.7471963,-15.4826 -10.6646307,-6.9904 -22.6350827,-1.9786 -30.0628287,-5.6301 -8.672498,-4.2634 -16.771827,-10.4563 -25.768139,-12.6675 -4.11978,-1.0127 -19.864045,0.3496 -21.473449,-2.8151 -2.961284,-5.823 -18.324956,-7.8839 -18.610322,-8.445 -4.683098,-9.2089 1.90147,-22.5417 -1.431564,-32.3729 -1.375254,-4.0564 -8.825854,-10.085 -11.452504,-12.6676 -0.95438,-0.9383 0.95437,-4.6917 0,-5.63 -13.90132,-13.6677 -21.16746,-33.4795 -35.78908,-47.8554 -2.14735,-2.1113 -0.71579,-7.7414 -2.86313,-9.8526 -5.86924,-5.7707 -18.02381,-18.5519 -21.47345,-25.3353 -4.24359,-8.3445 -4.19813,-41.0076 0,-49.2629 1.20707,-2.3735 -1.83504,-9.4558 0,-11.2601 3.62674,-3.5657 10.28949,-4.7506 12.88407,-9.8525 0.50723,-0.9975 0.98194,-13.1097 0,-14.0752 -0.87951,-0.8647 -3.336,-0.9298 -4.29469,-2.815 -2.37255,-4.6654 0.49817,-15.4207 0,-16.8901 -1.41575,-4.1759 -4.29469,-0.6011 -4.29469,-7.0376 0,-5.7165 29.63041,-3.7973 34.35752,-8.445 1.09345,-1.0751 -5.14591,-12.6676 -5.72625,-12.6676 -2.43319,0 -4.77188,0.9383 -7.15782,1.4075 z" style="color:#000000;fill:url(#linearGradient16610);fill-opacity:1;fill-rule:evenodd;stroke:none;stroke-width:2;marker:none;visibility:visible;display:inline;overflow:visible;enable-background:accumulate"/>
              <path style="color:#000000;fill:#5aa02c;fill-opacity:1;fill-rule:evenodd;stroke:none;stroke-width:2;marker:none;visibility:visible;display:inline;overflow:visible;enable-background:accumulate" d="m -103.07256,6081.444 c 10.481993,-10.9618 -0.91731,-7.5609 -4.29469,-14.3156 -0.7635,-1.527 0.7635,-4.1993 0,-5.7263 -0.821,-1.642 -10.0524,1.4001 -11.4525,0 -1.70734,-1.7073 -9.5363,-10.2632 -15.7472,-7.1578 -3.52549,1.7627 -14.55701,1.6729 -15.7472,2.8631 -5.46733,5.4674 -0.40524,2.35 -10.02094,7.1578 -6.51414,3.2571 -20.37536,-3.9612 -25.76814,1.4316 -1.34969,1.3497 0.85362,4.019 0,5.7263 -1.7408,3.4816 -5.27141,5.2714 -7.15781,7.1578 -2.28784,2.2878 0.002,18.6054 0,18.6103 -2.30589,6.9177 -17.70453,17.7045 -20.04189,20.0419 -5.944,5.944 -1.23786,18.6103 -2.86313,18.6103 -0.75187,0 3.59571,0 5.72626,0 4.64106,0 6.28451,-8.5894 11.4525,-8.5894 1.43157,0 0,2.8632 0,4.2947 0,4.8457 1.67446,18.6103 4.29469,18.6103 2.52971,0 10.64263,-10.6426 12.88407,-12.884 3.51033,-3.5104 1.99785,3.2957 8.58938,0 0.42681,-0.2134 0,-0.9544 0,-1.4316 0.47719,-0.4772 0.82796,-1.1298 1.43156,-1.4316 4.042,-2.021 15.32866,-4.4342 15.7472,-4.2946 4.46837,1.4894 -0.47719,0.9543 1.43156,2.8631 1.19297,1.193 5.96485,-1.193 7.15782,0 0.67485,0.6748 -0.67485,2.1883 0,2.8631 5.51393,5.5139 8.51766,7.1578 18.61032,7.1578 0.8736,0 5.16846,0.5578 5.72626,0 2.43319,-2.4332 2.2852,-8.5894 5.72625,-8.5894 9.65493,0 14.79528,1.9113 20.041883,7.1579 0.7394,0.7394 7.35788,0 8.58938,0 5.548847,0 32.740553,5.9116 35.789086,2.8631 2.039831,-2.0398 -1.237643,-1.6255 1.431564,-4.2947 1.393957,-1.394 -2.454148,-3.4767 -2.863127,-4.2947 -1.662321,-3.3246 -3.513144,-6.3763 -5.726253,-8.5894 -1.817438,-1.8174 -8.58938,0.3732 -8.58938,-2.8631 0,-8.8355 7.157817,-10.7926 7.157817,-10.0209 0,2.3859 -4.03914,-2.6076 -5.726253,-4.2947 -4.700556,-4.7006 -9.879679,-4.1535 -14.315633,-8.5894 -0.955776,-0.9558 -2.716378,-6.3687 -4.294691,-7.1578 -1.1919,-0.596 -4.81819,0.908 -5.72625,0 -1.77907,-1.7791 1.9498,-5.4672 -1.43157,-7.1578 -0.99324,-0.4967 -3.44179,0.6823 -4.29469,0 -2.10786,-1.6863 -3.311853,-6.9335 -5.726253,-5.7263 -2.29844,1.1492 2.35916,4.638 2.86313,7.1578 0.18717,0.9359 -2.67596,0.9359 -2.86313,0 -1.81331,-9.0665 -0.93529,-7.1578 5.726253,-7.1578" id="path16580" inkscape:connector-curvature="0"/>
              <path style="color:#000000;fill:#6c5353;fill-opacity:1;fill-rule:evenodd;stroke:none;stroke-width:2;marker:none;visibility:visible;display:inline;overflow:visible;enable-background:accumulate" d="m -153.17727,6287.5891 c -14.54901,-18.7637 -13.19986,-8.2736 -21.47345,0" id="path16582" inkscape:connector-curvature="0"/>
              <path style="color:#000000;fill:#6c5353;fill-opacity:1;fill-rule:evenodd;stroke:none;stroke-width:2;marker:none;visibility:visible;display:inline;overflow:visible;enable-background:accumulate" d="m -200.41886,6297.61 c -0.72353,-10.3965 -13.10591,-11.4525 -17.17876,-11.4525" id="path16584" inkscape:connector-curvature="0"/>
              <path style="color:#000000;fill:#6c5353;fill-opacity:1;fill-rule:evenodd;stroke:none;stroke-width:2;marker:none;visibility:visible;display:inline;overflow:visible;enable-background:accumulate" d="m -224.75543,6274.705 c -10.19795,-0.9992 -12.88407,2.4416 -12.88407,11.4525" id="path16586" inkscape:connector-curvature="0"/>
              <path style="color:#000000;fill:#6c5353;fill-opacity:1;fill-rule:evenodd;stroke:none;stroke-width:2;marker:none;visibility:visible;display:inline;overflow:visible;enable-background:accumulate" d="m -48.673151,6286.1575 c -2.096964,-2.709 -7.413943,-12.6279 -14.315633,-5.7263" id="path16588" inkscape:connector-curvature="0"/>
              <path style="color:#000000;fill:#6c5353;fill-opacity:1;fill-rule:evenodd;stroke:none;stroke-width:2;marker:none;visibility:visible;display:inline;overflow:visible;enable-background:accumulate" d="m -88.756923,6248.9369 c -7.139946,-0.7773 -13.489667,7.1578 -18.610327,7.1578" id="path16590" inkscape:connector-curvature="0"/>
              <path style="color:#000000;fill:#6c5353;fill-opacity:1;fill-rule:evenodd;stroke:none;stroke-width:2;marker:none;visibility:visible;display:inline;overflow:visible;enable-background:accumulate" d="m 71.578164,6297.61 c -7.948778,-0.024 -15.07011,-1.3542 -18.610323,5.7263" id="path16592" inkscape:connector-curvature="0"/>
              <path style="color:#000000;fill:#6c5353;fill-opacity:1;fill-rule:evenodd;stroke:none;stroke-width:2;marker:none;visibility:visible;display:inline;overflow:visible;enable-background:accumulate" d="m 138.86164,6301.9047 c -0.25445,0.1562 -15.7472,-1.7896 -15.7472,14.3156" id="path16594" inkscape:connector-curvature="0"/>
              <path style="color:#000000;fill:#6c5353;fill-opacity:1;fill-rule:evenodd;stroke:none;stroke-width:2;marker:none;visibility:visible;display:inline;overflow:visible;enable-background:accumulate" d="m -15.747196,6307.631 c -14.74824,-3.8363 -17.178759,-1.4301 -17.178759,8.5893" id="path16596" inkscape:connector-curvature="0"/>
              <path style="color:#000000;fill:#008000;fill-opacity:1;fill-rule:evenodd;stroke:none;stroke-width:2;marker:none;visibility:visible;display:inline;overflow:visible;enable-background:accumulate" d="m -259.11295,6167.3378 c -0.87833,-0.2688 -11.45251,-30.1052 -11.45251,-28.6313 0,4.799 2.12053,17.2324 0,21.4734 -1.50395,3.0079 -2.83531,-0.028 -4.29469,1.4316 -1.17797,1.178 -6.04984,12.5605 -5.72625,12.8841 3.48252,3.4825 10.40629,-2.8632 12.88407,-2.8632 3.20107,0 7.15781,-7.1578 8.58938,-4.2946 3.4742,6.9484 -17.16254,8.6056 -7.15782,18.6103 2.05246,2.0524 -1.47106,-8.5894 1.43156,-8.5894 0.83751,0 -1.95253,-1.1711 1.43157,-2.8631 4.75319,-2.3766 10.69206,8.8356 4.29469,-7.1578 z" id="path16598" inkscape:connector-curvature="0"/>
              <path style="color:#000000;fill:#008000;fill-opacity:1;fill-rule:evenodd;stroke:none;stroke-width:2;marker:none;visibility:visible;display:inline;overflow:visible;enable-background:accumulate" d="m -264.83921,6263.2525 c -4.4742,-18.5852 -1.43156,13.3029 -1.43156,-7.1578 0,-0.7799 -1.21037,7.6211 7.15782,14.3156 1.99086,1.5927 0.43968,-5.2866 2.86312,-2.8631 2.79765,2.7976 4.56013,14.3156 -2.86312,14.3156 -1.509,0 -0.0819,-3.6198 -1.43157,-4.2947 -2.53785,-1.2689 -5.72625,-1.2853 -5.72625,-7.1578" id="path16600" inkscape:connector-curvature="0"/>
              <path style="color:#000000;fill:#008000;fill-opacity:1;fill-rule:evenodd;stroke:none;stroke-width:2;marker:none;visibility:visible;display:inline;overflow:visible;enable-background:accumulate" d="m -302.05985,6303.3363 c -1.89753,-1.2486 -14.07263,-18.8534 -18.61032,-14.3157 -7.24458,7.2446 10.55052,14.3157 8.58938,14.3157 -7.17639,0 -15.7472,4.0327 -15.7472,1.4315 0,-0.9544 3.8175,0 2.86313,0 -7.96744,0 -8.23184,4.6523 -4.29469,8.5894 1.09136,1.0914 18.50154,1.4678 22.90501,0 3.44766,-1.1492 2.945,-6.6467 4.29469,-10.0209 z" id="path16602" inkscape:connector-curvature="0"/>
              <path style="color:#000000;fill:#008000;fill-opacity:1;fill-rule:evenodd;stroke:none;stroke-width:2;marker:none;visibility:visible;display:inline;overflow:visible;enable-background:accumulate" d="m 47.241588,6280.4312 c 10.35068,-7.5923 13.730648,-18.6103 17.178759,-18.6103 0.873601,0 5.168461,-0.5578 5.726253,0 1.373607,1.3736 -2.18807,17.9353 2.863127,12.8841 0.754612,-0.7546 15.747196,-5.5019 15.747196,-4.2947 0,10.344 -10.751053,7.4012 -18.610323,10.0209 -9.62298,3.2077 -12.005977,6.5395 -22.905012,0 z" id="path16604" inkscape:connector-curvature="0"/>
              <path style="color:#000000;fill:#008000;fill-opacity:1;fill-rule:evenodd;stroke:none;stroke-width:2;marker:none;visibility:visible;display:inline;overflow:visible;enable-background:accumulate" d="m -54.399404,6200.2637 c -2.372686,-4.2816 -8.732326,-21.903 -1.431564,-24.3366 2.122966,-0.7076 5.917532,-1.6228 7.157817,-2.8631 1.067024,-1.067 -0.07744,-4.2947 1.431563,-4.2947 0.222253,0 0.645903,7.8037 2.863127,10.021 1.29343,1.2934 5.666128,-2.7429 5.726253,-2.8632 6.61529,-13.2306 -14.916246,-26.5991 -22.905013,-18.6103 -2.631026,2.631 2.333059,4.6661 2.863127,5.7263 3.130403,6.2608 -12.322366,13.8807 0,20.0418" id="path16606" inkscape:connector-curvature="0"/>
            </g>
          </g>
          <path inkscape:connector-curvature="0" id="path17514" d="m 466.03701,5350.3871 c -0.38404,0.7681 -0.38404,2.6883 -1.15213,2.3043 -0.76809,-0.3841 1.92022,-2.6883 1.15213,-2.3043 -1.09973,0.5499 -1.43484,2.0109 -2.30426,2.8803 -0.27156,0.2716 -1.15213,-0.384 -1.15213,0 0,4.391 1.46102,3.9198 3.45639,6.9128 1.22886,1.8433 0.50759,4.5743 2.88033,5.7607 1.03779,0.5189 2.533,-0.3474 3.45639,0.576 0.36541,0.3654 -0.23981,1.8247 0,2.3043 1.41617,2.8323 2.30427,13.4052 2.30427,14.9777" style="opacity:0.85425104;color:#000000;fill:#f4e3d7;fill-opacity:1;fill-rule:evenodd;stroke:none;stroke-width:2;marker:none;visibility:visible;display:inline;overflow:visible;filter:url(#filter17700);enable-background:accumulate"/>
          <path inkscape:connector-curvature="0" id="path17516" d="m 483.31898,5371.1255 c 0.65839,4.3243 -1.08971,11.6461 0.57606,14.9777 1.91514,3.8302 3.4564,7.1755 3.4564,11.5213" style="color:#000000;fill:#f4e3d7;fill-opacity:1;fill-rule:evenodd;stroke:none;stroke-width:2;marker:none;visibility:visible;display:inline;overflow:visible;filter:url(#filter17688);enable-background:accumulate"/>
          <path inkscape:connector-curvature="0" id="path17518" d="m 478.13439,5388.4074 c -2.57546,8.9743 4.03246,8.1981 4.03246,16.1299" style="color:#000000;fill:#f4e3d7;fill-opacity:1;fill-rule:evenodd;stroke:none;stroke-width:2;marker:none;visibility:visible;display:inline;overflow:visible;filter:url(#filter17684);enable-background:accumulate"/>
          <path inkscape:connector-curvature="0" id="path17520" d="m 495.41636,5390.7117 c -1.73974,3.3285 2.03171,8.61 0.57606,11.5213 -0.61944,1.2389 -2.80518,2.4546 -1.7282,4.6085 1.73035,3.4607 6.33672,1.7486 6.33672,6.3367" style="opacity:0.83400807;color:#000000;fill:#f4e3d7;fill-opacity:1;fill-rule:evenodd;stroke:none;stroke-width:2;marker:none;visibility:visible;display:inline;overflow:visible;filter:url(#filter17680);enable-background:accumulate"/>
          <path inkscape:connector-curvature="0" id="path17522" d="m 468.34128,5341.7461 c -1.25088,3.3169 -1.65099,5.339 0,8.641" style="color:#000000;fill:#f4e3d7;fill-opacity:1;fill-rule:evenodd;stroke:none;stroke-width:2;marker:none;visibility:visible;display:inline;overflow:visible;filter:url(#filter17676);enable-background:accumulate"/>
          <path inkscape:connector-curvature="0" id="path17524" d="m 486.77537,5409.1458 c -1.8595,9.2583 -6.77776,3.3214 -9.21705,5.7606 -1.84267,1.8427 -1.98873,3.1409 -2.88032,4.0325" style="color:#000000;fill:#f4e3d7;fill-opacity:1;fill-rule:evenodd;stroke:none;stroke-width:2;marker:none;visibility:visible;display:inline;overflow:visible;filter:url(#filter17672);enable-background:accumulate"/>
          <path inkscape:connector-curvature="0" id="path17526" d="m 494.26422,5411.45 c -0.61191,4.0381 -0.71759,7.9234 2.30427,10.9453" style="color:#000000;fill:#f4e3d7;fill-opacity:1;fill-rule:evenodd;stroke:none;stroke-width:2;marker:none;visibility:visible;display:inline;overflow:visible;filter:url(#filter17668);enable-background:accumulate"/>
          <path inkscape:connector-curvature="0" id="path17528" d="m 502.90521,5433.3405 c 0.0325,4.2066 2.52675,3.1028 4.60852,5.1846" style="color:#000000;fill:#f4e3d7;fill-opacity:1;fill-rule:evenodd;stroke:none;stroke-width:2;marker:none;visibility:visible;display:inline;overflow:visible;filter:url(#filter17664);enable-background:accumulate"/>
          <path inkscape:connector-curvature="0" id="path17530" d="m 482.74291,5431.6123 c -4.85287,0.6235 -9.81293,1.1522 -14.9777,1.1522" style="color:#000000;fill:#f4e3d7;fill-opacity:1;fill-rule:evenodd;stroke:none;stroke-width:2;marker:none;visibility:visible;display:inline;overflow:visible;filter:url(#filter17660);enable-background:accumulate"/>
          <path inkscape:connector-curvature="0" id="path17532" d="m 468.34128,5441.9815 c -3.14241,4.8244 -4.9731,5.1846 -10.36918,5.1846" style="color:#000000;fill:#f4e3d7;fill-opacity:1;fill-rule:evenodd;stroke:none;stroke-width:2;marker:none;visibility:visible;display:inline;overflow:visible;filter:url(#filter17656);enable-background:accumulate"/>
          <path inkscape:connector-curvature="0" id="path17534" d="m 477.55832,5428.1559 c -3.5177,0.9795 -6.26558,2.8804 -9.79311,2.8804" style="color:#000000;fill:#f4e3d7;fill-opacity:1;fill-rule:evenodd;stroke:none;stroke-width:2;marker:none;visibility:visible;display:inline;overflow:visible;filter:url(#filter17652);enable-background:accumulate"/>
          <path inkscape:connector-curvature="0" id="path17536" d="m 534.58881,5437.373 c 1.11933,5.7803 5.4534,3.7252 8.64098,6.9128" style="color:#000000;fill:#f4e3d7;fill-opacity:1;fill-rule:evenodd;stroke:none;stroke-width:2;marker:none;visibility:visible;display:inline;overflow:visible;filter:url(#filter17648);enable-background:accumulate"/>
          <path inkscape:connector-curvature="0" id="path17538" d="m 453.93964,5439.1012 c -0.83504,2.5645 -9.00928,3.4564 -18.4341,3.4564" style="color:#000000;fill:#f4e3d7;fill-opacity:1;fill-rule:evenodd;stroke:none;stroke-width:2;marker:none;visibility:visible;display:inline;overflow:visible;filter:url(#filter17644);enable-background:accumulate"/>
          <path inkscape:connector-curvature="0" id="path17542" d="m 571.45701,5443.1336 c 5.05929,5.7693 -4.03246,4.9605 -4.03246,7.4889" style="color:#000000;fill:#f4e3d7;fill-opacity:1;fill-rule:evenodd;stroke:none;stroke-width:2;marker:none;visibility:visible;display:inline;overflow:visible;filter:url(#filter17640);enable-background:accumulate"/>
          <path inkscape:connector-curvature="0" id="path17544" d="m 563.96815,5450.0464 c -3.07043,0.3454 -16.67784,4.6273 -20.16229,2.3043 -2.29189,-1.5279 -4.60538,-1.1521 -7.48885,-1.1521" style="color:#000000;fill:#f4e3d7;fill-opacity:1;fill-rule:evenodd;stroke:none;stroke-width:2;marker:none;visibility:visible;display:inline;overflow:visible;filter:url(#filter17636);enable-background:accumulate"/>
          <path inkscape:connector-curvature="0" id="path17546" d="m 528.82816,5451.7746 c -0.76809,0.3841 -1.50694,0.8332 -2.30427,1.1522 -1.45135,0.5805 -3.79397,-0.6953 -5.18459,0 -4.22828,2.1141 -5.95421,4.0324 -9.21704,4.0324" style="color:#000000;fill:#f4e3d7;fill-opacity:1;fill-rule:evenodd;stroke:none;stroke-width:2;marker:none;visibility:visible;display:inline;overflow:visible;filter:url(#filter17632);enable-background:accumulate"/>
          <path inkscape:connector-curvature="0" id="path17548" d="m 504.05734,5458.6874 c -3.94256,-1.5849 -8.89099,0.8768 -13.24951,-0.576 -2.50658,-0.8356 -5.96669,-1.3582 -7.48885,-2.8804 -1.66399,-1.664 -25.96818,1.1522 -29.37934,1.1522" style="color:#000000;fill:#f4e3d7;fill-opacity:1;fill-rule:evenodd;stroke:none;stroke-width:2;marker:none;visibility:visible;display:inline;overflow:visible;filter:url(#filter17628);enable-background:accumulate"/>
          <path inkscape:connector-curvature="0" id="path17550" d="m 449.90718,5459.2635 c -0.57607,0.7681 -0.96011,2.8803 -1.7282,2.3042 -0.76809,-0.576 2.68831,-2.3042 1.7282,-2.3042 -1.22954,0 -1.85729,1.6222 -2.88033,2.3042 -2.58026,1.7202 -5.32592,-1.7282 -6.91279,-1.7282 -8.201,0 -32.99393,0.7154 -40.32458,-1.7281" style="color:#000000;fill:#f4e3d7;fill-opacity:1;fill-rule:evenodd;stroke:none;stroke-width:2;marker:none;visibility:visible;display:inline;overflow:visible;filter:url(#filter17624);enable-background:accumulate"/>
        </g>
        <g id="g3709">
          <ellipse transform="matrix(1.2872461,0,0,1.2872461,144.06667,506.11978)" id="ellipse28323" style="fill:#7b6c53;fill-opacity:0.98930485;fill-rule:nonzero;stroke:#290010;stroke-width:1;stroke-linejoin:round;stroke-miterlimit:4;stroke-opacity:1;stroke-dasharray:none;filter:url(#filter5541-6)" cx="69.657845" cy="270.73474" rx="28.682642" ry="8.6047926" d="m 98.340487,270.73474 a 28.682642,8.6047926 0 0 1 -28.682642,8.60479 28.682642,8.6047926 0 0 1 -28.682642,-8.60479 28.682642,8.6047926 0 0 1 28.682642,-8.60479 28.682642,8.6047926 0 0 1 28.682642,8.60479 z"/>
          <ellipse transform="matrix(1.2872461,0,0,1.2872461,-26.634678,495.24216)" id="ellipse28325" style="fill:#ffdd55;fill-opacity:0.98930485;fill-rule:nonzero;stroke:none;filter:url(#filter3481)" cx="182.79819" cy="185.64539" rx="34.248871" ry="49.63472" d="m 217.04706,185.64539 a 34.248871,49.63472 0 0 1 -34.24887,49.63472 34.248871,49.63472 0 0 1 -34.24887,-49.63472 34.248871,49.63472 0 0 1 34.24887,-49.63472 34.248871,49.63472 0 0 1 34.24887,49.63472 z"/>
          <g id="g28327" style="stroke:none;filter:url(#filter25091)" transform="matrix(1.2872461,0,0,1.2872461,-56.898602,-311.17447)">
            <path style="fill:#aa4400;stroke:none" d="m 205.07578,847.75877 -1.65055,60.24501 14.02966,0 -2.47582,-58.59446 c 0,0 6.60219,0 -9.90329,-1.65055 z" id="path28329" inkscape:connector-curvature="0"/>
            <path style="fill:#d45500;stroke:none" d="m 205.47568,851.57406 0.81951,-26.22413 -24.58512,-11.47305 2.45851,-1.63901 25.40462,10.65355 -4.09752,-20.4876 4.91703,-0.81951 2.45851,19.6681 10.65355,-14.75107 4.09752,3.27802 -12.29256,13.11206 -0.8195,4.09752 -0.48544,24.40242 z" id="path28331" inkscape:connector-curvature="0" sodipodi:nodetypes="cccccccccccccc"/>
          </g>
        </g>
        <g id="g28968" transform="matrix(1.5107954,0,0,1.5107954,-121.24311,455.11719)" style="filter:url(#filter25071)">
          <ellipse transform="matrix(0.94613509,0,0,0.94613509,0.52091,-2.02484)" id="ellipse28345" style="fill:#ff9955;fill-opacity:0.98930485;fill-rule:nonzero;stroke:none;filter:url(#filter3445)" cx="553.34625" cy="188.53384" rx="44.152161" ry="39.200516" d="m 597.49841,188.53384 a 44.152161,39.200516 0 0 1 -44.15216,39.20052 44.152161,39.200516 0 0 1 -44.15216,-39.20052 44.152161,39.200516 0 0 1 44.15216,-39.20051 44.152161,39.200516 0 0 1 44.15216,39.20051 z"/>
          <ellipse transform="matrix(0.94613509,0,0,0.94613509,466.42039,-0.76899)" id="ellipse28347" style="fill:#7b6c53;fill-opacity:0.98930485;fill-rule:nonzero;stroke:#290010;stroke-width:1;stroke-linejoin:round;stroke-miterlimit:4;stroke-opacity:1;stroke-dasharray:none;filter:url(#filter5541-4)" cx="69.657845" cy="270.73474" rx="28.682642" ry="8.6047926" d="m 98.340487,270.73474 a 28.682642,8.6047926 0 0 1 -28.682642,8.60479 28.682642,8.6047926 0 0 1 -28.682642,-8.60479 28.682642,8.6047926 0 0 1 28.682642,-8.60479 28.682642,8.6047926 0 0 1 28.682642,8.60479 z"/>
          <path inkscape:connector-curvature="0" id="path28351" d="m 519.37627,196.65498 -1.56164,56.99992 13.27395,0 -2.34246,-55.43828 c 0,0 6.24657,0 -9.36985,-1.56164 z" style="fill:#aa4400;stroke:none"/>
        </g>
        <g id="g28333" transform="matrix(1.6723622,0,0,1.6723622,-799.57658,677.1567)" style="filter:url(#filter25051)">
          <ellipse transform="matrix(0.94613509,0,0,0.94613509,503.54177,-155.93602)" id="ellipse28335" style="fill:#5fd35f;fill-opacity:0.98930485;fill-rule:nonzero;stroke:none;filter:url(#filter3349)" cx="71.798836" cy="198.84978" rx="47.865894" ry="38.78788" d="M 119.66473,198.84978 A 47.865894,38.78788 0 0 1 71.798836,237.63766 47.865894,38.78788 0 0 1 23.932941,198.84978 47.865894,38.78788 0 0 1 71.798836,160.0619 47.865894,38.78788 0 0 1 119.66473,198.84978 Z"/>
          <g id="g28337" transform="matrix(0.94613509,0,0,0.94613509,507.90062,-748.41902)">
            <path style="fill:#803300;fill-opacity:1;stroke:none" d="m 64.716007,851.4725 -1.650548,60.24501 14.029659,0 -2.475823,-58.59446 c 0,0 6.602193,0 -9.903288,-1.65055 z" id="path28339" inkscape:connector-curvature="0"/>
            <path style="fill:#803300;stroke:none" d="m 65.102763,856.8911 0.81951,-26.22413 -24.58512,-11.47306 2.45851,-1.639 25.40462,10.65355 -4.09752,-20.4876 4.91703,-0.81951 2.45851,19.6681 10.65355,-14.75107 4.09752,3.27801 -12.29256,13.11207 -0.8195,4.09752 0.8195,20.4876 z" id="path28341" inkscape:connector-curvature="0"/>
          </g>
        </g>
        <ellipse style="opacity:0.70700001;fill:#ffcc00;fill-opacity:1;stroke:none;filter:url(#filter3810)" id="path3716" cx="281.96292" cy="514.49231" rx="41.875683" ry="42.806252" d="m 323.8386,514.49231 a 41.875683,42.806252 0 0 1 -41.87568,42.80625 41.875683,42.806252 0 0 1 -41.87568,-42.80625 41.875683,42.806252 0 0 1 41.87568,-42.80625 41.875683,42.806252 0 0 1 41.87568,42.80625 z"/>
      </g>
    </g>
  </g>
</svg>
