<?xml version="1.0" encoding="UTF-8" standalone="no"?>
<!-- Created with Inkscape (http://www.inkscape.org/) -->

<svg
   xmlns:dc="http://purl.org/dc/elements/1.1/"
   xmlns:cc="http://creativecommons.org/ns#"
   xmlns:rdf="http://www.w3.org/1999/02/22-rdf-syntax-ns#"
   xmlns:svg="http://www.w3.org/2000/svg"
   xmlns="http://www.w3.org/2000/svg"
   xmlns:sodipodi="http://sodipodi.sourceforge.net/DTD/sodipodi-0.dtd"
   xmlns:inkscape="http://www.inkscape.org/namespaces/inkscape"
   id="svg65822"
   version="1.1"
   inkscape:version="0.91 r13725"
   width="761.25"
   height="580.3125"
   viewBox="0 0 761.25 580.3125"
   sodipodi:docname="Horse3.svg">
  <metadata
     id="metadata65828">
    <rdf:RDF>
      <cc:Work
         rdf:about="">
        <dc:format>image/svg+xml</dc:format>
        <dc:type
           rdf:resource="http://purl.org/dc/dcmitype/StillImage" />
        <dc:title></dc:title>
      </cc:Work>
    </rdf:RDF>
  </metadata>
  <defs
     id="defs65826" />
  <sodipodi:namedview
     pagecolor="#ffffff"
     bordercolor="#666666"
     borderopacity="1"
     objecttolerance="10"
     gridtolerance="10"
     guidetolerance="10"
     inkscape:pageopacity="0"
     inkscape:pageshadow="2"
     inkscape:window-width="1600"
     inkscape:window-height="837"
     id="namedview65824"
     showgrid="false"
     inkscape:zoom="1.1545504"
     inkscape:cx="380.625"
     inkscape:cy="290.15625"
     inkscape:window-x="-8"
     inkscape:window-y="-8"
     inkscape:window-maximized="1"
     inkscape:current-layer="svg65822" />
  <path
     style="fill:#000000"
     d="m 219.375,577.90892 c -5.73552,-1.86414 -8.11102,-2.17491 -12.89063,-1.68639 -3.71622,0.37984 -5.85937,0.25246 -5.85937,-0.34825 0,-1.52787 -7.38924,-2.28569 -10.68094,-1.0954 -2.29053,0.82826 -4.62776,0.80358 -9.98301,-0.10543 -8.55723,-1.45253 -6.56038,-2.71459 3.50543,-2.21552 3.8526,0.19101 6.99545,-0.0663 7.32507,-0.59961 0.9754,-1.57821 6.25314,-3.9419 11.55206,-5.17367 4.60468,-1.07039 5.19811,-1.01793 6.81875,0.60271 0.97632,0.97632 2.72436,1.74183 3.88451,1.70112 1.16016,-0.0407 1.58204,-0.2868 0.9375,-0.54687 -2.15382,-0.86908 -1.20314,-3.56554 2.47833,-7.02942 2.00592,-1.88736 4.85289,-5.57979 6.32659,-8.2054 1.7045,-3.03681 3.79567,-5.30429 5.74709,-6.23165 3.85529,-1.83213 10.15536,-9.70801 11.42639,-14.28447 0.53036,-1.90956 0.96663,-5.41825 0.9695,-7.79709 0.003,-2.37884 0.44544,-6.59759 0.98348,-9.375 1.36411,-7.04159 1.19336,-17.87798 -0.51534,-32.70608 -2.13765,-18.55052 -2.86468,-23.09123 -5.02858,-31.40625 -1.70076,-6.53538 -1.94545,-10.15272 -1.90243,-28.125 0.0467,-19.49125 -0.61971,-28.53483 -2.90124,-39.375 -0.54261,-2.57813 -1.17798,-5.74219 -1.41191,-7.03125 -0.23393,-1.28906 -0.8884,-4.45313 -1.45437,-7.03125 -3.7257,-16.97144 -4.01062,-18.70203 -5.20913,-31.64063 -0.47928,-5.17416 -0.88487,-6.32812 -2.22412,-6.32812 -2.12761,0 -5.76578,-3.67688 -8.05104,-8.13668 -0.99623,-1.94423 -3.18243,-5.49437 -4.85821,-7.88923 -1.67579,-2.39485 -3.04688,-4.69254 -3.04688,-5.10599 0,-0.41344 -0.57176,-1.41774 -1.27057,-2.23178 -0.69882,-0.81404 -2.00583,-3.80038 -2.90447,-6.63632 -0.89864,-2.83594 -2.27715,-6.42188 -3.06337,-7.96875 -4.1673,-8.19921 -6.03252,-16.09094 -6.86895,-29.0625 -0.97203,-15.07446 -1.6189,-22.93897 -2.28438,-27.77293 -0.46758,-3.39647 0.36459,-7.00805 2.95155,-12.80965 1.12429,-2.52134 1.16932,-3.71613 0.24732,-6.5625 -1.77592,-5.48264 -4.66031,-11.32819 -9.46589,-19.18374 -2.44482,-3.99648 -5.96632,-11.16835 -7.82557,-15.9375 -1.85924,-4.76915 -3.9218,-9.93681 -4.58345,-11.48368 -1.32714,-3.10275 -1.64326,-3.99599 -7.63088,-21.5625 -4.44961,-13.05426 -11.22795,-27.39573 -16.26029,-34.40313 -1.70558,-2.37497 -5.06333,-5.70912 -7.46167,-7.40923 -2.39835,-1.70011 -4.57157,-3.35977 -4.82938,-3.68814 -0.9905,-1.2616 -11.5841,-5.59325 -13.67898,-5.59325 -1.36881,0 -3.0038,1.083975 -4.31983,2.864 -4.53279,6.13093 -19.406184,12.1285 -26.689214,10.7622 -3.183815,-0.59729 -5.054965,0.27223 -18.136778,8.42811 -1.811454,1.12935 -4.342704,2.3791 -5.625,2.7772 -4.308149,1.33751 -11.684943,5.34982 -14.239023,7.74475 -1.392916,1.30611 -2.7964,3.57595 -3.118855,5.04408 -0.69816,3.17869 -4.523691,6.44216 -7.551698,6.44216 -1.19296,0 -3.307045,1.05469 -4.697967,2.34375 -2.889027,2.67746 -5.614424,2.98796 -7.919148,0.90221 -1.291451,-1.16874 -2.045834,-1.23516 -3.986451,-0.35095 C 21.498862,146.57996 15,145.82114 15,144.33252 c 0,-0.49226 -1.208732,-0.89502 -2.68607,-0.89502 -3.6295976,0 -7.3426412,-3.11158 -8.1243315,-6.8083 -0.3530238,-1.66949 -1.4909777,-4.43319 -2.5287862,-6.14154 -1.28886612,-2.12161 -1.72850516,-4.05302 -1.38709796,-6.09375 C 0.95636897,120.31342 10.136731,106.82482 17.43436,99.18 c 3.301727,-3.458813 6.00314,-6.580171 6.00314,-6.936351 0,-0.586775 6.571063,-9.107742 9.682851,-12.556149 3.348837,-3.711099 6.883904,-15.081837 5.671262,-18.241929 -0.306062,-0.797588 0.69443,-2.968393 2.305729,-5.002825 1.565517,-1.976627 3.36271,-4.727053 3.99376,-6.112056 0.63105,-1.385005 1.667323,-2.51819 2.302829,-2.51819 0.635506,0 1.398298,-0.632813 1.695093,-1.40625 C 49.385821,45.632812 50.210508,45 50.921663,45 c 0.711156,0 3.572053,-2.239265 6.357549,-4.976143 2.785496,-2.73688 6.5411,-6.107201 8.345788,-7.489604 2.320902,-1.777827 2.801077,-2.516503 1.640625,-2.523857 -2.287245,-0.01449 -2.047133,-1.389638 0.46875,-2.684574 C 69.787327,26.26916 69.781057,26.258254 67.5,26.91811 c -1.289063,0.372897 -3.609375,0.730085 -5.15625,0.793754 -1.546875,0.06367 -4.00012,0.604545 -5.451656,1.201948 -3.335933,1.372958 -3.454594,1.364301 -3.454594,-0.252018 0,-1.961258 4.364783,-5.065592 8.794263,-6.254684 2.124093,-0.570211 5.755934,-2.313018 8.070757,-3.872903 4.068288,-2.741487 4.360159,-2.797354 8.7443,-1.673733 4.227544,1.083488 4.628053,1.030327 5.898056,-0.782856 1.458844,-2.082791 8.532542,-5.965255 12.826418,-7.0398973 1.438275,-0.3599615 3.926626,-1.907893 5.529666,-3.439848 3.09723,-2.9598771 5.04796,-3.5198776 5.67792,-1.6299779 0.71604,2.1481258 -1.12246,9.2742772 -3.01266,11.6772842 -1.81352,2.305517 -1.80209,4.042321 0.0266,4.042321 0.4852,0 2.54672,-1.664545 4.58116,-3.698991 2.06185,-2.06185 7.2458,-5.391811 11.71272,-7.5237871 4.53922,-2.1664751 8.67281,-4.8306663 9.53383,-6.1447596 C 132.6566,1.043983 133.96202,0 134.72148,0 c 1.90025,0 0.84979,6.5619128 -1.95105,12.1875 -1.72792,3.470587 -3.17123,4.770882 -8.13854,7.332114 -9.84982,5.07873 -9.72895,5.592183 0.91007,3.86596 3.64299,-0.591091 6.22806,-0.634686 6.5625,-0.110671 0.61538,0.964226 7.25274,2.693162 15.08304,3.928913 6.65002,1.049483 9.41009,1.854558 11.69298,3.410671 1.01706,0.693282 2.77816,1.260513 3.91354,1.260513 1.98899,0 15.75469,5.097563 17.67473,6.545107 0.51562,0.388739 3.06816,1.401372 5.67228,2.250297 4.45986,1.453877 7.8845,3.588309 11.83537,7.376471 0.94111,0.902344 2.33092,1.640625 3.08848,1.640625 2.42178,0 8.297,3.568283 14.2479,8.653381 3.17984,2.717203 9.25794,7.047107 13.5069,9.622009 4.24895,2.574902 7.91912,5.422559 8.15594,6.328125 0.23681,0.905567 0.7845,1.646485 1.21709,1.646485 2.69406,0 14.34886,10.747369 15.46361,14.259635 0.35254,1.110746 1.11068,1.608124 1.95651,1.283551 1.59735,-0.612962 6.88717,1.873278 6.88717,3.237001 0,0.505754 2.53125,3.411797 5.625,6.457893 3.09375,3.04609 5.625,5.94528 5.625,6.44264 0,0.49736 1.32207,1.45193 2.93794,2.12124 1.61585,0.66931 4.97421,2.82652 7.463,4.79379 2.48879,1.96728 5.49094,3.54234 6.67144,3.50014 2.73296,-0.0977 11.71428,2.4456 13.30844,3.76863 0.6669,0.55349 4.16215,1.17285 7.76719,1.37636 6.04268,0.34113 8.7648,1.20477 12.47699,3.95856 0.77344,0.57375 2.82634,1.31128 4.562,1.63896 1.73566,0.32767 7.00909,2.4402 11.71875,4.69451 4.70965,2.25431 11.51612,5.25075 15.1255,6.65877 3.60937,1.40802 9.09375,3.73684 12.1875,5.17515 3.09375,1.43832 6.57422,2.90074 7.73437,3.24982 1.16016,0.34909 2.10938,0.95962 2.10938,1.35676 0,0.39712 2.42578,1.48848 5.39062,2.42522 2.96485,0.93674 7.23893,2.34933 9.49797,3.13909 6.19606,2.16615 35.96556,2.02718 48.39266,-0.2259 19.0316,-3.45052 23.59128,-4.31264 30.46875,-5.76084 3.86719,-0.81432 11.46094,-2.08393 16.875,-2.82135 12.73712,-1.73484 20.0778,-2.94329 25.3125,-4.16702 2.32031,-0.54243 9.07031,-1.784 15,-2.75906 5.92969,-0.97506 11.41406,-2.01572 12.1875,-2.31257 0.77344,-0.29686 3.72656,-0.71719 6.5625,-0.93406 4.83978,-0.3701 11.57493,-1.23519 26.43059,-3.3948 11.42795,-1.66131 27.48114,-1.03689 47.16316,1.83451 28.13424,4.1045 43.87017,7.66156 60,13.56285 3.60937,1.32054 7.20807,2.40987 7.99711,2.42075 0.78903,0.0109 4.37497,1.88302 7.96875,4.16032 9.82285,6.22454 14.85731,10.67701 23.40936,20.7032 3.07869,3.60937 6.00034,6.8479 6.49257,7.19674 0.49221,0.34882 1.55301,1.85618 2.35732,3.34968 1.89666,3.52183 6.25842,10.52063 10.28097,16.49669 4.91255,7.29826 10.99922,23.58834 13.26571,35.50378 1.10668,5.81795 2.63164,13.53123 3.38882,17.14061 3.62668,17.28789 4.05764,21.5905 4.60115,45.9375 0.56117,25.13824 0.39375,27.98235 -2.84209,48.28125 -2.74069,17.19268 -3.18456,18.57069 -7.39078,22.94463 -4.40465,4.58027 -11.44882,7.30648 -12.96668,5.0183 -0.45394,-0.6843 -0.66814,-2.16613 -0.47599,-3.29295 0.19214,-1.12682 -0.003,-2.60339 -0.43221,-3.28125 -0.60581,-0.95536 -0.78478,-0.89566 -0.79591,0.26548 -0.01,1.02825 -0.92352,1.5238 -2.91383,1.58039 -1.59472,0.0454 -3.39811,0.76436 -4.00755,1.59782 -1.0034,1.37222 -1.41585,1.30863 -4.36615,-0.67318 -2.13767,-1.43595 -3.36008,-3.06471 -3.55471,-4.7364 -0.21242,-1.82442 -0.82929,-2.54784 -2.17256,-2.54784 -1.4473,0 -1.74036,-0.42705 -1.28268,-1.8691 0.42133,-1.32746 0.23085,-1.73004 -0.65729,-1.38923 -0.90319,0.34659 -1.58341,-1.27492 -2.44903,-5.83808 -0.65917,-3.47487 -2.18402,-9.91613 -3.38853,-14.31389 -7.03897,-25.69968 -7.60142,-30.55768 -7.49258,-64.7147 0.0402,-12.63281 -0.0421,-22.33594 -0.18292,-21.5625 -0.14086,0.77344 -1.16295,7.09665 -2.27132,14.05158 -2.78278,17.46176 -6.73968,35.04588 -10.76155,47.82342 -1.86642,5.92969 -3.7624,12.25781 -4.21328,14.0625 -0.45088,1.80469 -1.85276,7.06343 -3.1153,11.6861 l -2.2955,8.40485 2.18818,4.94787 c 1.2035,2.72131 3.61402,7.16569 5.35673,9.87639 3.25386,5.06124 10.67483,18.09883 12.67734,22.27229 1.75815,3.6642 3.10566,5.44485 8.65255,11.4337 l 5.17061,5.58262 -0.72205,10.00746 c -1.17681,16.31012 -1.19939,59.52357 -0.0393,75.16372 0.59283,7.99219 2.02337,19.38281 3.17899,25.3125 3.28423,16.85203 2.9721,18.96407 -2.99538,20.26805 -3.14402,0.68701 -6.02114,8.04624 -5.18611,13.26524 0.30782,1.92388 0.83088,5.30061 1.16235,7.50386 0.33148,2.20325 0.89416,4.18603 1.25039,4.40619 0.79373,0.49056 16.7554,2.63013 19.00702,2.54779 0.89219,-0.0326 1.84543,0.30193 2.11831,0.74346 0.73992,1.19722 -4.33775,4.85419 -5.90499,4.25279 -0.74492,-0.28586 -1.93373,-0.0389 -2.64182,0.54874 -0.94229,0.78204 -1.28741,0.78638 -1.28741,0.0162 0,-0.57876 -0.4503,-1.05229 -1.00068,-1.05229 -0.57759,0 -0.74636,0.80127 -0.39916,1.89519 0.51589,1.62543 0.22082,1.86619 -2.07303,1.6914 -1.471,-0.11208 -3.19354,0.11698 -3.82788,0.50902 -0.63434,0.39204 -4.20821,0.89694 -7.94192,1.122 -3.73372,0.22506 -10.75069,0.74364 -15.59327,1.15241 -8.68256,0.73291 -20.57722,0.0373 -22.79439,-1.33295 -0.62553,-0.38659 -4.04033,-0.78819 -7.58845,-0.89244 -3.54813,-0.10425 -6.91915,-0.65756 -7.49118,-1.22959 -0.57202,-0.57202 -0.63926,-1.07232 -0.14942,-1.11177 0.48985,-0.0395 1.52344,-0.24938 2.29688,-0.46652 4.18436,-1.17471 11.03632,-2.0595 12.78966,-1.65151 3.03588,0.70643 7.02003,-1.81001 11.88909,-7.50931 2.94289,-3.44468 4.19159,-5.64833 3.79148,-6.691 -0.39351,-1.02548 0.50587,-2.72892 2.64211,-5.0042 5.36102,-5.70991 8.32584,-15.33754 6.29546,-20.44317 -0.5892,-1.48159 -1.00006,-6.71496 -0.91303,-11.6297 0.1012,-5.71526 -0.67957,-14.1625 -2.16631,-23.4375 -1.2785,-7.97589 -2.58853,-17.66567 -2.91117,-21.53286 -0.47679,-5.71479 -1.39096,-8.69711 -4.8826,-15.9287 -2.36278,-4.8936 -5.27395,-10.44668 -6.46927,-12.34019 -1.19532,-1.89349 -3.68437,-7.38184 -5.53124,-12.19629 -1.84686,-4.81447 -3.72063,-9.59732 -4.16394,-10.62857 -0.44331,-1.03125 -1.34575,-3.35156 -2.00542,-5.15625 -1.86039,-5.08949 -6.23475,-10.11047 -13.47016,-15.46131 -11.2667,-8.33211 -14.29566,-12.40885 -23.9033,-32.17199 -7.10274,-14.61048 -11.24023,-21.7417 -12.6144,-21.7417 -0.62236,0 -1.95319,2.21484 -2.95739,4.92187 -2.73936,7.3845 -2.47848,33.15055 0.46273,45.70313 3.16187,13.49429 2.648,16.37854 -5.29048,29.69454 -6.94497,11.64951 -11.52932,20.28658 -11.52932,21.72163 0,0.46943 -4.42969,9.99763 -9.84375,21.17379 -5.41406,11.17615 -9.84375,20.58147 -9.84375,20.90072 0,0.31924 -0.61862,1.264 -1.37471,2.09947 -1.61921,1.78919 -5.74863,12.39931 -7.67589,19.72235 -1.7641,6.7031 -9.39384,23.4375 -10.68589,23.4375 -0.38044,0 -1.68521,1.0474 -2.89948,2.32755 -1.21428,1.28016 -3.2801,2.33484 -4.59071,2.34375 -3.43169,0.0233 -9.76813,6.92668 -10.98637,11.96932 l -0.96258,3.98438 9.04094,0.10056 c 20.69032,0.23013 25.17116,0.49646 28.96282,1.72146 2.1914,0.708 3.98437,1.64237 3.98437,2.07638 0,0.74346 -7.39781,1.05352 -20.15625,0.84479 -3.09375,-0.0506 -6.25781,0.33156 -7.03125,0.84928 -0.97979,0.65585 2.05973,0.94567 10.02279,0.95568 6.28598,0.008 11.66671,0.39889 11.95719,0.86888 0.31103,0.50327 1.62576,0.44023 3.19833,-0.15335 3.11432,-1.17553 5.75919,-0.43471 5.75919,1.61315 0,1.0527 -1.06282,1.45492 -3.98437,1.50783 -2.19141,0.0397 -5.46094,0.25402 -7.26563,0.47631 -1.80469,0.22229 -13.19531,0.65498 -25.3125,0.96153 -12.11719,0.30656 -25.5197,0.77007 -29.78336,1.03002 -5.36715,0.32722 -8.17844,0.1188 -9.13788,-0.67746 -1.43166,-1.18817 -28.32327,-1.4955 -32.7888,-0.37473 -1.18135,0.2965 -2.3995,0.132 -2.70702,-0.36557 -0.7271,-1.17647 4.57982,-3.37524 6.43147,-2.6647 0.7827,0.30036 1.42309,0.20518 1.42309,-0.2115 0,-1.72522 5.24788,-2.92901 12.46598,-2.85954 7.9377,0.0764 8.31841,0.29127 2.29965,1.29794 -5.65966,0.9466 -4.05223,1.97121 3.04201,1.93904 4.24078,-0.0192 6.55937,-0.40515 6.5625,-1.09228 0.003,-0.5844 -0.83889,-1.28318 -1.87014,-1.55286 -1.03125,-0.26968 -1.875,-1.16136 -1.875,-1.98152 0,-2.71831 12.8175,-15.19424 18.25551,-17.76902 2.79193,-1.32191 5.57067,-3.36943 6.17498,-4.55002 0.60431,-1.18061 2.93146,-4.04499 5.17144,-6.3653 2.23998,-2.32031 4.69931,-5.99917 5.4652,-8.17523 0.76588,-2.17607 3.05917,-6.18389 5.09618,-8.90625 4.89438,-6.54113 9.85889,-17.25513 12.27419,-26.48921 2.01979,-7.72195 7.33063,-22.50674 10.44783,-29.08556 2.98317,-6.29598 5.29636,-14.94853 4.52405,-16.92237 -1.10335,-2.81992 -0.97165,-22.24731 0.18745,-27.65203 1.07172,-4.99721 0.2028,-10.47455 -2.53565,-15.98382 -0.6652,-1.33826 -2.11387,-5.76795 -3.21925,-9.84375 -1.10539,-4.07579 -2.41414,-8.88709 -2.90833,-10.69178 -2.0036,-7.31679 -4.33181,-23.19263 -4.58491,-31.26406 -0.14796,-4.71883 -0.30805,-9.8523 -0.35573,-11.40771 -0.0477,-1.5554 -1.56327,-6.29791 -3.36796,-10.53891 -2.75895,-6.4835 -3.62682,-7.71216 -5.45226,-7.71885 -3.36371,-0.0124 -5.50001,-1.56873 -6.07763,-4.4278 -0.6213,-3.07526 -6.78234,-10.58017 -8.68562,-10.58017 -0.72566,0 -6.0717,2.04775 -11.88006,4.55056 -14.87351,6.40894 -20.15533,8.13203 -40.60794,13.24761 -14.7316,3.68464 -44.90485,8.30645 -58.54649,8.9679 -10.60383,0.51416 -14.12799,0.73998 -28.125,1.80227 -9.56032,0.72557 -14.30734,1.24576 -22.03125,2.41424 -3.60938,0.54603 -13.94531,1.34222 -22.96875,1.76932 -14.62862,0.69241 -17.37078,1.09328 -25.30813,3.69982 -4.89603,1.60781 -10.1943,2.92328 -11.77394,2.92328 -5.7185,0 -6.07566,0.91194 -6.43001,16.4178 -0.17661,7.72802 0.04,20.80095 0.48144,29.05095 0.4414,8.25 0.98737,25.125 1.21328,37.5 0.2259,12.375 0.64627,23.13281 0.93415,23.90625 0.86164,2.31497 4.14593,22.48062 4.80962,29.53125 0.33975,3.60937 1.24131,10.78125 2.00347,15.9375 2.92447,19.78499 2.629,24.92209 -1.50894,26.23542 -3.13248,0.99421 -9.83338,17.35833 -7.10802,17.35833 0.67335,0 1.42421,1.3623 1.66859,3.02734 0.35701,2.43244 -0.0714,3.50913 -2.18038,5.47917 l -2.62471,2.45183 3.92742,0.12697 c 4.70989,0.15225 7.90145,0.16653 10.6699,0.0477 2.00179,-0.0859 7.78787,3.35613 7.78965,4.6339 5e-4,0.35161 -3.63641,0.55465 -8.08201,0.45121 -6.00988,-0.13985 -8.43169,0.16071 -9.44286,1.17188 -0.82021,0.82021 -3.4728,1.42359 -6.68361,1.5203 -5.81976,0.1753 -8.8177,0.40021 -9.54241,0.7159 -0.25781,0.1123 -5.10938,0.36195 -10.78125,0.55478 -11.87979,0.40387 -19.88253,1.10165 -21.07302,1.83741 -0.45577,0.28168 -1.09366,0.0834 -1.41753,-0.44065 -0.33323,-0.53918 0.35084,-0.95892 1.57584,-0.96691 1.19059,-0.008 3.85221,-0.65017 5.91471,-1.42758 l 3.75,-1.41347 -5.15625,0.58554 c -4.12102,0.46798 -4.92982,0.34936 -4.02844,-0.59085 0.6203,-0.64702 3.01435,-1.21732 5.32011,-1.26733 3.96143,-0.086 4.16634,-0.22079 3.72091,-2.44891 -0.35096,-1.75559 0.20593,-2.97916 2.17989,-4.78952 5.79589,-5.31551 15.92972,-17.1768 18.58878,-21.75749 2.7122,-4.67223 2.8104,-5.24624 2.75369,-16.09502 -0.0323,-6.1875 -0.58558,-13.57031 -1.22941,-16.40625 -6.07977,-26.78032 -7.26184,-30.89706 -10.63297,-37.03125 -1.41686,-2.57812 -2.58374,-5.84765 -2.59307,-7.26562 -0.009,-1.41794 -0.43887,-2.5781 -0.95449,-2.5781 -0.51563,0 -0.9375,1.13297 -0.9375,2.5177 0,1.38474 -0.80705,3.38864 -1.79343,4.45313 -2.3186,2.50217 -3.07647,8.15572 -4.28101,31.93542 -2.52195,49.78812 -2.92593,52.40606 -8.54432,55.36892 -3.0609,1.61416 -3.98822,2.84245 -5.64556,7.47786 -1.4863,4.15708 -1.77584,6.25653 -1.15583,8.38109 0.97466,3.33988 -0.24022,6.22681 -3.17983,7.55626 -2.20386,0.99671 -3.36321,3.24712 -1.67282,3.24712 0.58903,0 0.82824,-0.39273 0.53159,-0.87272 -0.93302,-1.50965 1.59901,-2.29613 2.6803,-0.83255 0.68653,0.92924 2.12899,1.26365 4.32845,1.00348 1.81434,-0.21462 6.6747,0.25018 10.80081,1.03289 4.1261,0.78271 9.21116,1.19387 11.30011,0.91368 4.36004,-0.58481 14.44404,1.2474 14.44404,2.6244 0,0.50806 -1.79297,1.6979 -3.98438,2.64408 -4.72701,2.04098 -23.20312,3.63303 -23.20312,1.99937 0,-0.55695 0.52734,-1.03255 1.17187,-1.05689 6.15801,-0.23259 15.49778,-1.22805 17.05164,-1.81742 2.99954,-1.1377 -5.6149,-2.19398 -12.26949,-1.50445 -3.0169,0.3126 -7.59465,0.73531 -10.17277,0.93934 -2.57813,0.20403 -6.79688,0.87658 -9.375,1.49454 -2.57813,0.61796 -7.00781,1.27589 -9.84375,1.46208 -7.08459,0.46511 -9.375,1.14168 -9.375,2.76928 0,1.99899 -3.91758,1.67267 -12.1875,-1.01519 z m 9.375,-3.22142 c -1.83597,-1.1865 -3.07704,-1.1865 -2.34375,0 0.31868,0.51562 1.29279,0.93104 2.16471,0.92315 1.36619,-0.0124 1.39094,-0.13996 0.17904,-0.92315 z m 448.81758,0.34937 c 1.15436,-0.30939 1.89222,-0.89684 1.63969,-1.30544 -0.25253,-0.4086 -1.30471,-0.52179 -2.3382,-0.25152 -1.03348,0.27026 -2.49114,-0.0166 -3.23925,-0.63748 -0.7481,-0.62086 -1.80054,-0.85669 -2.33876,-0.52406 -1.62371,1.00351 -1.10614,2.21415 1.13081,2.64501 1.16016,0.22345 2.32032,0.45797 2.57813,0.52114 0.25781,0.0632 1.41322,-0.13827 2.56758,-0.44765 z M 224.0625,573.85929 c 0,-0.45552 -1.05469,-1.02982 -2.34375,-1.27624 -1.28906,-0.24642 -2.34375,-0.28201 -2.34375,-0.0791 0,0.28696 3.16887,1.79849 4.45312,2.12411 0.12891,0.0327 0.23438,-0.31327 0.23438,-0.76878 z m -11.71875,-0.90677 c 1.25029,-0.38683 0.31322,-0.74436 -2.8125,-1.07312 -5.1472,-0.54138 -7.96875,-0.19691 -7.96875,0.97288 0,0.88054 8.01817,0.95509 10.78125,0.10024 z M 701.25,571.0675 c 0,-0.44412 -1.05469,-0.60587 -2.34375,-0.35945 -1.28906,0.24642 -2.34375,0.60978 -2.34375,0.80749 0,0.1977 1.05469,0.35946 2.34375,0.35946 1.28906,0 2.34375,-0.36338 2.34375,-0.8075 z m -6.81507,-4.73783 c 1.30501,-1.66749 3.47773,-3.4881 4.82827,-4.04582 2.44128,-1.00813 2.43375,-1.01831 -1.29445,-1.75117 -7.68203,-1.51004 -9.26858,-1.13645 -12.24203,2.88266 -1.8333,2.478 -3.54376,3.77173 -5.10172,3.85875 -1.60835,0.0898 -1.82897,0.26544 -0.70313,0.55966 0.90235,0.2358 1.64063,0.87192 1.64063,1.41358 0,0.62271 1.9304,0.82476 5.24985,0.5495 4.55499,-0.37774 5.56389,-0.83664 7.62258,-3.46716 z m -455.37243,1.82475 c 0,-0.49944 -0.70605,-0.63714 -1.56901,-0.30599 -1.18866,0.45613 -1.42305,0.22174 -0.96692,-0.96692 0.33115,-0.86296 0.20669,-1.56901 -0.27657,-1.56901 -0.48326,0 -0.64884,-0.59887 -0.36797,-1.33082 0.34742,-0.90536 -0.91292,-1.96054 -3.94232,-3.30059 l -4.45299,-1.96977 -2.41524,2.23191 c -1.32838,1.22756 -3.78632,2.81581 -5.46211,3.52945 -1.67578,0.71364 -3.04687,1.5554 -3.04687,1.87055 0,0.31517 1.37109,1.01287 3.04687,1.55044 3.92654,1.2596 19.45313,1.46772 19.45313,0.26075 z m 482.48777,-1.09257 c -1.24056,-0.72109 -2.02411,-0.71301 -2.76563,0.0285 -0.75452,0.75453 -0.28589,1.02692 1.73098,1.00613 2.42448,-0.025 2.55211,-0.15261 1.03465,-1.03464 z M 546.5625,565.67191 c 0,-0.19767 -0.84375,-0.35941 -1.875,-0.35941 -1.03125,0 -1.875,0.38238 -1.875,0.84973 0,0.46735 0.84375,0.62909 1.875,0.35941 1.03125,-0.26968 1.875,-0.65206 1.875,-0.84973 z m 166.58069,0.56256 c -1.45094,-0.43553 -3.2541,-1.30314 -4.00703,-1.92802 -1.64309,-1.36364 -2.70866,-0.57484 -1.93765,1.43437 0.38827,1.01181 1.76169,1.42245 4.56895,1.3661 3.68853,-0.0741 3.80001,-0.14475 1.37573,-0.87245 z m -192.9849,-2.33025 c 0.31276,-0.31277 0.008,-0.91487 -0.67615,-1.338 -0.87136,-0.53853 -0.93353,-0.96173 -0.20723,-1.41061 1.8856,-1.16536 1.08815,-2.24882 -3.24968,-4.41524 -2.35801,-1.17765 -4.49723,-2.48087 -4.75383,-2.89606 -0.2566,-0.41519 -2.36182,1.19519 -4.67826,3.57862 -2.31643,2.38344 -4.03535,4.50986 -3.81982,4.7254 2.11796,2.11795 15.65559,3.48526 17.38497,1.75589 z m 3.90421,-0.46672 c 1.2119,-0.78319 1.18715,-0.91077 -0.17904,-0.92315 -0.87192,-0.008 -1.84604,0.40752 -2.16471,0.92315 -0.73329,1.1865 0.50778,1.1865 2.34375,0 z m 22.57437,-1.64063 c 1.01904,-1.34669 1.01979,-1.44444 0.004,-0.54564 -0.69363,0.61387 -2.57805,0.87741 -4.28872,0.5998 -1.75443,-0.2847 -3.32488,-0.0528 -3.69473,0.54565 -1.13855,1.84222 6.56985,1.26278 7.97927,-0.59981 z m 19.32851,-1.51226 c 0.93502,-0.93501 -4.71,-0.67065 -6.23142,0.29184 -0.93441,0.59113 -0.26583,0.77342 2.13726,0.58276 1.92338,-0.15262 3.76575,-0.54618 4.09416,-0.8746 z M 536.25,559.6875 c 0,-0.51563 -0.84375,-0.9375 -1.875,-0.9375 -1.03125,0 -1.875,0.42187 -1.875,0.9375 0,0.51562 0.84375,0.9375 1.875,0.9375 1.03125,0 1.875,-0.42188 1.875,-0.9375 z m 17.12722,0.32256 c -0.63472,-0.2568 -1.90034,-0.27243 -2.8125,-0.0348 -0.91216,0.2377 -0.39285,0.44781 1.15403,0.46692 1.54687,0.0191 2.29318,-0.17537 1.65847,-0.43218 z m -308.28794,-1.79578 c 0.81028,-0.81026 1.47322,-1.68415 1.47322,-1.94196 0,-0.94054 -2.60454,-3.04278 -3.125,-2.52232 -0.53995,0.53995 -3.4375,-1.90604 -3.4375,-2.90178 0,-0.29465 1.69298,-0.53572 3.76219,-0.53572 3.51936,0 3.89193,-0.26708 5.77262,-4.13809 1.87194,-3.85303 1.90339,-4.24513 0.45657,-5.69196 -0.85464,-0.85464 -1.55388,-2.20444 -1.55388,-2.99957 0,-1.46655 0.97747,-1.438 7.73437,0.22585 2.20042,0.54185 2.57813,0.34415 2.57813,-1.34944 0,-1.09136 0.3825,-1.98429 0.85001,-1.98429 0.86816,0 2.39917,-15.63148 2.1119,-21.5625 -0.3,-6.19393 0.96869,-22.5 1.7506,-22.5 0.43015,0 0.96491,0.94922 1.18837,2.10937 l 0.40628,2.10938 0.12767,-2.13879 c 0.0702,-1.17635 -0.46945,-2.36794 -1.19928,-2.648 -1.06371,-0.40819 -1.23459,-2.30858 -0.8614,-9.57996 0.25605,-4.98891 0.69337,-9.70356 0.97182,-10.477 0.27846,-0.77344 0.42484,-3.61519 0.3253,-6.315 -0.1976,-5.35929 2.8736,-12.435 5.39741,-12.435 0.89697,0 1.07016,-0.39233 0.51732,-1.17188 -1.36459,-1.92415 -0.78198,-23.97407 0.83602,-31.64062 1.80737,-8.56378 2.31229,-13.1819 3.48508,-31.875 0.53159,-8.47308 1.57703,-16.68093 2.5076,-19.6875 0.87777,-2.83594 1.70967,-5.77103 1.84868,-6.52241 0.13901,-0.75139 0.64274,-2.22795 1.11939,-3.28125 1.25009,-2.76242 2.99223,-10.45235 2.99223,-13.20797 0,-1.29784 0.63281,-2.60255 1.40625,-2.89934 0.77344,-0.29681 1.40625,-1.62982 1.40625,-2.96227 0,-2.33145 -0.0518,-2.35414 -1.37644,-0.60282 -1.34199,1.77428 -1.37718,1.76704 -1.40625,-0.28957 -0.0164,-1.16015 0.39206,-2.10937 0.90769,-2.10937 0.51562,0 0.9375,-0.86865 0.9375,-1.93033 0,-1.06168 0.42187,-1.66959 0.9375,-1.35092 0.51562,0.31867 0.9375,1.39826 0.9375,2.39908 0,1.00082 0.42187,1.81967 0.9375,1.81967 0.51562,0 0.9375,-0.47082 0.9375,-1.04627 0,-0.57545 1.41091,-3.00124 3.13536,-5.39062 1.72444,-2.3894 4.13034,-6.87561 5.34643,-9.96936 1.21608,-3.09375 2.78504,-6.32058 3.48656,-7.17073 2.21823,-2.6882 4.08887,-16.45683 3.80219,-27.98552 -0.25399,-10.21384 -0.1703,-10.78125 1.59006,-10.78125 1.76828,0 1.84638,0.57937 1.61487,11.97913 -0.20337,10.01402 -0.009,12.06896 1.18382,12.52676 0.7849,0.30119 2.1009,-0.0116 2.92444,-0.69507 1.01005,-0.83826 4.13755,-1.21412 9.61002,-1.15489 9.06442,0.0981 15.37217,1.16996 27.775,4.71972 7.29634,2.08826 11.38051,3.63168 20.625,7.79425 8.61636,3.87974 36.41756,9.8284 44.23168,9.46432 2.15555,-0.10044 5.44285,0.45402 7.30511,1.23212 1.95399,0.81643 4.55869,1.18019 6.15896,0.86013 1.75772,-0.35154 2.773,-0.16845 2.773,0.50009 0,0.58008 -0.73828,1.09378 -1.64063,1.14157 -14.29917,0.75715 -29.69835,0.66316 -33.51562,-0.20458 -12.82425,-2.91522 -18.85734,-4.79136 -19.92188,-6.19524 -0.64453,-0.84998 -1.17187,-1.11611 -1.17187,-0.59139 0,1.5847 -9.2135,-1.82343 -9.6832,-3.58188 -0.28958,-1.0841 -1.04301,-1.41757 -2.40067,-1.06253 C 360.5275,310.39324 360,310.09804 360,308.9063 c 0,-1.25969 -0.56877,-1.51616 -2.53068,-1.14111 -1.39187,0.26607 -3.60049,0.0771 -4.90804,-0.42011 -3.43536,-1.30612 -14.26964,-3.72343 -16.46753,-3.67419 -1.03125,0.0232 -4.77927,-0.84602 -8.32893,-1.93141 -4.90986,-1.50129 -8.00188,-1.86266 -12.92409,-1.51048 -3.55859,0.25462 -6.65466,0.64743 -6.88016,0.87292 -0.22548,0.2255 -1.05031,3.45406 -1.83296,7.17458 -1.72549,8.20276 -4.31481,13.39632 -10.81511,21.69257 -3.04612,3.88774 -5.625,8.0746 -5.625,9.13231 0,0.73334 9.31825,-0.67363 16.875,-2.54796 3.86719,-0.95921 8.18209,-1.98808 9.58867,-2.28638 2.50453,-0.53115 8.06382,-7.82081 10.15104,-13.31061 0.46265,-1.21685 1.69485,-4.0864 2.73823,-6.37677 1.04338,-2.29036 1.89706,-4.60931 1.89706,-5.15323 0,-0.54391 0.63281,-0.98893 1.40625,-0.98893 1.05934,0 1.40625,1.1372 1.40625,4.60977 0,5.57155 -2.83724,12.60432 -6.70207,16.61267 -3.08324,3.19774 -2.90715,3.58561 2.01457,4.43753 1.80469,0.31238 2.75128,0.32595 2.10353,0.0302 -0.64774,-0.29578 -0.97692,-0.86268 -0.73149,-1.25978 0.24542,-0.39711 -0.59571,-0.52283 -1.86916,-0.2794 -1.27346,0.24344 -2.31538,0.0243 -2.31538,-0.48699 0,-1.31217 4.73628,-2.10148 12.61002,-2.10148 7.49892,0 8.68918,-0.75563 12.28253,-7.79761 1.00441,-1.96837 2.59313,-4.40726 3.53049,-5.41976 0.93737,-1.0125 1.94179,-3.30436 2.23205,-5.09302 0.58634,-3.61321 2.15741,-4.44512 2.15741,-1.14239 0,4.3373 -2.74346,15.01011 -4.30069,16.73082 -1.56881,1.73352 -1.47025,1.78393 3.45226,1.76589 2.78696,-0.0102 7.80937,-0.40843 11.16093,-0.88494 3.35156,-0.47649 15.16406,-1.11947 26.25,-1.42881 19.70675,-0.54993 31.80932,-1.50149 42.1875,-3.31699 4.57955,-0.80112 19.91996,-3.25765 26.25,-4.20352 1.28906,-0.19262 5.29687,-1.01792 8.90625,-1.83401 3.60937,-0.81608 7.40625,-1.61927 8.4375,-1.78486 3.3893,-0.54422 19.61823,-5.40023 22.96875,-6.8727 1.80469,-0.79311 5.43267,-2.44633 8.06219,-3.67381 2.62952,-1.22748 5.44202,-2.23179 6.25,-2.23179 0.80799,0 1.60968,-0.32375 1.78156,-0.71944 0.77487,-1.78389 24.6088,-9.6713 33.54006,-11.09946 3.91257,-0.62565 4.28357,-0.97499 3.06713,-2.88808 -1.77762,-2.79562 -5.92893,-3.1962 -16.98705,-1.63917 -14.00338,1.97175 -26.9046,1.9585 -35.24514,-0.0362 -7.47389,-1.78744 -17.62954,-5.62666 -21.09375,-7.97426 -1.28906,-0.87355 -3.14242,-1.8778 -4.11856,-2.23165 -0.97614,-0.35386 -1.54985,-0.86833 -1.2749,-1.14329 0.27495,-0.27495 2.33924,0.33776 4.58731,1.36159 7.41164,3.37543 16.19531,6.50284 21.43115,7.63054 8.34206,1.79673 24.1325,1.97595 31.00552,0.35192 3.31415,-0.78309 8.20558,-1.45114 10.86984,-1.48452 l 4.8441,-0.0607 -2.58778,-4.79927 c -7.15246,-13.26478 -10.30693,-34.01642 -6.57246,-43.23673 0.56715,-1.40027 0.77448,-0.85219 0.81885,2.16471 0.0359,2.44156 0.43031,3.81047 0.99693,3.46029 0.59801,-0.36959 0.93599,2.41116 0.93333,7.67904 -0.003,6.35633 0.57425,10.09387 2.50718,16.22721 2.22957,7.0746 5.92948,14.6131 7.82217,15.9375 0.36843,0.25781 2.80883,4.26562 5.4231,8.90625 2.61428,4.64062 6.36305,9.99871 8.3306,11.90686 4.68703,4.54551 11.66347,7.64101 15.38078,6.82455 3.51313,-0.77162 4.71719,0.20813 8.51086,6.92531 1.64033,2.90443 3.85786,6.40671 4.92782,7.78285 1.06998,1.37613 3.0001,4.31131 4.28916,6.52261 2.40983,4.13393 19.10379,21.44407 20.68073,21.44407 0.48497,0 0.88177,0.63281 0.88177,1.40625 0,0.77344 0.82132,2.22757 1.82514,3.23139 2.1976,2.1976 4.73736,6.93224 4.73736,8.83143 0,0.75608 0.40968,1.5153 0.91039,1.68718 0.50072,0.17187 1.05927,1.15625 1.24124,2.1875 0.98513,5.58295 8.77655,19.1042 13.7756,23.90625 1.87874,1.80469 6.18101,5.73832 9.56062,8.74141 3.37961,3.00309 6.70034,6.49831 7.37941,7.76716 0.67907,1.26884 1.77686,2.09893 2.43955,1.84463 0.72331,-0.27756 1.81066,0.92714 2.7205,3.01409 0.83357,1.91205 2.04737,4.53115 2.69732,5.82021 0.64994,1.28906 2.35799,5.92969 3.79566,10.3125 3.98353,12.14395 7.74802,21.13881 12.94784,30.9375 l 4.72624,8.90625 0.26603,11.25 c 0.14633,6.1875 0.71832,13.57031 1.27108,16.40625 0.55276,2.83594 1.3974,9.79688 1.87695,15.46875 0.47955,5.67187 1.159,12.93906 1.5099,16.14929 0.777,7.10852 -0.50805,12.43589 -5.0872,21.08969 -1.83393,3.46582 -3.12204,6.51385 -2.86248,6.77342 0.25957,0.25957 2.13484,0.71275 4.16727,1.00707 2.03243,0.29433 4.81721,0.97302 6.1884,1.50821 3.34774,1.30667 6.6199,-0.3891 6.22771,-3.22746 -0.19402,-1.40423 -1.29979,-2.3674 -3.50945,-3.05687 -4.22619,-1.31869 -4.6824,-3.04382 -1.15688,-4.37455 2.1488,-0.81108 2.97851,-1.83396 3.42705,-4.2249 0.32551,-1.73511 1.34173,-3.90463 2.25829,-4.82119 1.59695,-1.59695 1.55436,-1.66646 -1.02104,-1.66646 -3.05184,0 -5.03085,-1.50761 -4.05394,-3.08829 0.42519,-0.68797 2.0805,-0.8508 4.68247,-0.46061 2.45696,0.36844 4.26226,0.21931 4.6344,-0.38283 0.33529,-0.54251 1.23833,-0.74512 2.00676,-0.45024 1.17844,0.4522 1.30585,-0.32467 0.81386,-4.96283 -0.32082,-3.02442 -0.97113,-7.05064 -1.44516,-8.94716 -0.47402,-1.89652 -1.26472,-8.43558 -1.75711,-14.53125 -0.49239,-6.09567 -1.36869,-16.14554 -1.94734,-22.33304 -1.29587,-13.85706 -1.26901,-53.49064 0.041,-60.36233 0.52941,-2.77741 0.96259,-7.10214 0.96259,-9.6105 0,-4.28879 -0.30268,-4.85399 -5.07748,-9.48141 -3.90319,-3.78271 -6.59933,-7.87575 -11.65767,-17.69769 -3.6191,-7.02731 -8.10334,-15.15802 -9.96499,-18.06824 -6.23207,-9.74229 -7.17488,-12.90395 -5.98367,-20.06594 0.57415,-3.45201 0.99653,-9.86233 0.93864,-14.24514 -0.0632,-4.78007 0.21805,-7.45977 0.70275,-6.69679 1.18799,1.87005 2.16154,-0.22189 1.44042,-3.09511 -0.42276,-1.68437 -0.17223,-2.54108 0.85877,-2.93672 1.68086,-0.64501 9.48469,-23.63451 10.47723,-30.86513 0.35389,-2.57813 1.41229,-8.48438 2.35198,-13.125 0.9397,-4.64063 1.99273,-10.54688 2.34007,-13.125 0.8082,-5.99892 1.65382,-7.3052 2.42753,-3.75 0.43127,1.98168 0.69305,0.73545 0.88618,-4.21875 0.15075,-3.86719 0.36974,-8.29688 0.48664,-9.84375 1.80287,-23.85594 0.9948,-39.82658 -2.4192,-47.8125 -0.44086,-1.03125 -1.26306,-3.38888 -1.82711,-5.2392 -0.56406,-1.85031 -2.70282,-5.94546 -4.75281,-9.10033 -2.05001,-3.15489 -3.72728,-6.141 -3.72728,-6.63581 0,-0.49482 -0.34097,-1.04028 -0.7577,-1.21216 -0.41673,-0.17188 -2.05338,-2.21094 -3.637,-4.53125 -1.58362,-2.32031 -4.61161,-6.31308 -6.72887,-8.87281 -4.62129,-5.58706 -3.81291,-7.29425 1.78163,-3.76257 3.58869,2.26544 4.08731,2.36549 4.86481,0.97617 0.98902,-1.76727 3.85788,-1.24501 6.7193,1.22322 1.69821,1.46486 1.71847,1.44026 0.47762,-0.57964 -0.7127,-1.16015 -1.76555,-2.10937 -2.33965,-2.10937 -0.57412,0 -2.1236,-1.00068 -3.4433,-2.22373 -3.41893,-3.16857 -7.10695,-4.2054 -12.20602,-3.43156 -2.43008,0.36879 -4.41832,0.32638 -4.41832,-0.0943 0,-1.43264 -5.14021,-3.38851 -16.875,-6.421 -11.94613,-3.08711 -16.05434,-3.93977 -27.65625,-5.74008 -11.00386,-1.70751 -13.46933,-1.85893 -30.72331,-1.88689 -10.49437,-0.017 -20.20992,0.51364 -26.25,1.43375 -5.27406,0.80342 -14.44075,2.11892 -20.37044,2.92333 -5.92969,0.80441 -11.73047,1.7002 -12.89063,1.99064 -1.40835,0.35258 -2.11414,0.10484 -2.12372,-0.74543 -0.0113,-1.00612 -0.17321,-1.02323 -0.7709,-0.0815 -0.4161,0.6556 -4.31198,1.82173 -8.65752,2.59139 -4.34554,0.76967 -10.22129,1.81654 -13.05723,2.32638 -2.83594,0.50984 -6.84375,1.12256 -8.90625,1.36161 -11.91608,1.38106 -26.10214,3.23971 -31.40625,4.11484 -24.33742,4.01544 -38.52896,5.2878 -58.59375,5.25332 l -20.625,-0.0354 -8.10689,-3.94892 c -4.4588,-2.17195 -8.64355,-3.94897 -9.29948,-3.94897 -1.70512,0 -19.50529,-6.35181 -27.12488,-9.67923 -4.27013,-1.86473 -14.22647,-4.87694 -20.15625,-6.0981 -2.57813,-0.53092 -7.64063,-1.59956 -11.25,-2.37473 -3.60938,-0.77517 -10.78125,-2.10772 -15.9375,-2.96121 -15.40463,-2.54985 -19.51556,-4.57682 -34.11568,-16.82135 -4.32613,-3.62815 -9.4126,-7.86225 -11.30328,-9.40913 -1.89066,-1.54687 -5.31204,-4.554563 -7.60306,-6.683747 -2.29101,-2.129184 -6.90767,-6.114648 -10.25923,-8.856578 -3.35156,-2.74193 -6.30469,-5.255423 -6.5625,-5.58554 -0.25781,-0.330118 -2.39805,-2.039971 -4.75608,-3.799674 -2.35803,-1.759704 -6.99865,-5.250299 -10.3125,-7.756877 -3.31385,-2.506579 -8.66189,-6.076904 -11.88455,-7.934057 -3.22265,-1.857154 -5.85937,-3.70866 -5.85937,-4.11446 0,-0.4058 -0.47617,-0.737817 -1.05815,-0.737817 -0.58198,0 -3.53033,-1.6875 -6.55189,-3.75 -3.02157,-2.0625 -5.80888,-3.75 -6.19403,-3.75 -0.38514,0 -2.8157,-1.034407 -5.40123,-2.298682 -11.34508,-5.547538 -23.54498,-10.009565 -34.78402,-12.722012 -6.65743,-1.606716 -12.90927,-3.359187 -13.89298,-3.89438 -0.9837,-0.535193 -4.55335,-0.9316 -7.93253,-0.880905 -5.71273,0.0857 -6.36515,-0.121119 -9.29494,-2.946549 l -3.15095,-3.038722 -2.34925,2.715697 c -1.70035,1.965559 -2.15856,3.260354 -1.65887,4.6875 0.37971,1.084491 0.86446,5.168965 1.0772,9.076606 0.31902,5.859413 0.79066,7.574787 2.69069,9.785996 2.24674,2.614693 2.61244,3.586569 3.50831,9.323561 0.50638,3.242847 -2.5205,11.569036 -4.81598,13.24753 -2.73807,2.002122 -3.15093,0.358532 -0.65503,-2.60767 1.31848,-1.566929 2.19316,-3.539208 1.94372,-4.382842 -0.24944,-0.843632 -0.71863,-2.647806 -1.04265,-4.009273 -0.56925,-2.39191 -6.076914,-8.621071 -6.048301,-6.840628 0.0075,0.483188 0.622059,2.566023 1.365093,4.628523 1.847898,5.129288 1.862068,10.78125 0.027,10.78125 -0.773437,0 -1.40625,0.809246 -1.40625,1.798325 3.8e-5,2.524563 -0.9699,4.764175 -2.06324,4.764175 -0.566269,0 -0.695466,-1.909348 -0.333056,-4.921875 l 0.592115,-4.921875 -3.551014,3.940595 c -1.95306,2.167327 -5.467376,4.785061 -7.809593,5.817186 C 80.041691,80.031625 73.125,81.263313 73.125,79.889724 c 0,-0.536204 1.75,-1.270577 3.888891,-1.63194 5.660732,-0.956374 9.39097,-2.737822 12.048609,-5.754048 l 2.34375,-2.659986 -2.34375,2.033457 c -4.851991,4.209627 -14.374553,3.567182 -17.484779,-1.179621 -2.004216,-3.058821 -2.578839,-2.873513 -4.533941,1.462128 -1.921515,4.26116 -4.701708,7.166978 -5.547608,5.798282 -0.310735,-0.50278 -3.200274,1.885473 -6.421198,5.307228 -6.438301,6.839743 -7.358654,7.694732 -11.481224,10.665798 l -2.8125,2.026922 2.34375,-2.708338 c 1.289062,-1.489588 4.713262,-5.092284 7.609332,-8.005991 C 56.895212,79.045217 63.75,70.028833 63.75,68.123572 c 0,-0.732318 0.632812,-1.856676 1.40625,-2.498572 2.059379,-1.709133 1.723329,0.06189 -0.974519,5.13585 -1.309423,2.462687 -2.201295,4.657086 -1.981939,4.876443 0.801416,0.801415 4.59863,-6.473786 6.283659,-12.039056 3.756541,-12.407012 9.708974,-13.20304 20.655477,-2.762287 5.07865,4.844011 8.277297,6.561455 4.99075,2.679675 -0.982262,-1.160156 -2.018847,-2.320312 -2.303525,-2.578125 -1.422905,-1.288622 -3.704506,-7.683915 -3.729661,-10.454183 -0.02336,-2.572853 -0.199835,-2.845498 -0.977651,-1.510439 -0.522028,0.896021 -1.721456,2.042459 -2.665396,2.547639 -1.567271,0.838778 -1.676597,0.566681 -1.259416,-3.134538 0.251261,-2.229177 -1.77e-4,-6.184037 -0.558752,-8.788578 -0.803119,-3.744822 -0.722595,-5.860404 0.384903,-10.112379 0.770271,-2.957267 1.198335,-5.579006 0.951255,-5.826087 C 82.385798,22.073298 65.694991,34.668151 58.125,43.162608 c -2.835938,3.18227 -5.723757,6.268613 -6.417378,6.858544 -4.63736,3.944109 -5.701194,5.317619 -5.176912,6.683876 0.356071,0.927906 0.129819,1.393014 -0.595384,1.223935 -1.265076,-0.29495 -1.947936,1.471594 -3.794874,9.817242 -0.657577,2.971351 -1.759749,5.870664 -2.449273,6.442917 -0.689523,0.572254 -1.263909,1.516149 -1.276413,2.097545 -0.01251,0.581395 -1.383598,2.815961 -3.046875,4.965701 -1.663277,2.149741 -4.88228,6.368491 -7.153339,9.375 -2.271058,3.00651 -6.700746,8.250035 -9.84375,11.652282 -9.3153142,10.08365 -11.5776943,13.74911 -11.9502757,19.36156 -0.179727,2.70735 -0.01037,4.92219 0.3763487,4.92187 0.3867188,-3.2e-4 0.7163824,-0.73886 0.7325858,-1.6412 0.053011,-2.95208 4.3617112,-5.09307 11.0592312,-5.49533 3.440282,-0.20663 7.837089,-0.58899 9.770683,-0.8497 1.933594,-0.2607 3.515625,-0.0922 3.515625,0.37427 0,1.20452 -2.410972,1.97614 -6.4048,2.04983 -3.345382,0.0617 -3.37518,0.0931 -1.0952,1.15396 2.332615,1.08533 4.600859,3.33052 4.657685,4.61034 0.0164,0.36934 -1.446748,-0.19968 -3.251435,-1.26447 -1.834517,-1.08239 -3.28125,-1.4818 -3.28125,-0.90589 0,0.56656 0.393446,1.03011 0.874324,1.03011 1.768217,0 2.00786,3.71198 0.405782,6.28539 -1.520047,2.44164 -1.395223,2.39993 1.825387,-0.60992 1.901354,-1.77693 3.457007,-2.77781 3.457007,-2.22417 0,0.55364 -0.646863,1.54347 -1.437473,2.19961 -0.790611,0.65615 -1.272639,1.65702 -1.071174,2.22417 0.549354,1.54648 -3.022315,6.18742 -4.761839,6.18742 -1.138911,0 -0.830433,-0.742 1.235713,-2.97234 l 2.753523,-2.97234 -2.957222,2.03484 c -3.767691,2.59252 -4.86867,2.60251 -2.578704,0.0234 1.772646,-1.99646 1.770747,-2.00345 -0.255535,-0.94086 -2.821776,1.47976 -4.353331,0.65789 -6.762716,-3.62904 -1.641076,-2.9199 -1.858966,-4.07513 -1.052743,-5.58157 1.448731,-2.70698 0.354032,-2.35387 -1.506735,0.48603 -1.5005616,2.29014 -1.4698732,2.48716 0.766676,4.92187 1.281394,1.39494 3.275547,4.11898 4.431452,6.05344 1.244196,2.08221 3.100451,3.76788 4.549759,4.13164 2.09775,0.5265 3.087443,-0.0809 6.915351,-4.24389 2.456982,-2.67208 4.261176,-5.39531 4.009321,-6.05164 -0.666978,-1.73811 3.251023,-5.04048 7.945033,-6.69662 C 44.003694,122.58565 45,122.48542 45,123.67551 c 0,0.47465 -1.177192,1.12156 -2.615981,1.43758 -3.139234,0.68949 -9.055773,4.15265 -8.331626,4.87681 0.28262,0.28262 1.478757,-0.16199 2.658081,-0.98803 2.712015,-1.89957 5.200883,-1.91194 7.077635,-0.0351 1.330574,1.33057 1.741747,1.20007 4.430793,-1.40625 1.630261,-1.58015 3.419715,-2.87297 3.976563,-2.87297 0.556848,0 1.541904,-0.63795 2.189011,-1.41767 0.647109,-0.77972 3.968296,-2.7444 7.380417,-4.36595 6.570078,-3.12234 9.82219,-5.30326 17.554932,-11.77265 2.633717,-2.20343 5.481373,-4.00623 6.328125,-4.00623 2.335269,0 1.842611,1.43595 -0.925349,2.69712 -1.355695,0.61769 -2.210532,1.37745 -1.899637,1.68835 0.310895,0.31089 2.672436,-0.47757 5.247868,-1.75214 2.928456,-1.44928 5.013325,-1.98667 5.565445,-1.43456 1.942101,1.94211 15.024803,-4.32612 20.504353,-9.824107 1.78302,-1.789024 2.11135,-3.134859 2.12217,-8.698696 C 116.27666,78.671475 116.94001,75 118.21425,75 c 0.44444,0 0.75473,2.888611 0.68953,6.419135 -0.16044,8.688325 2.54001,13.395124 9.5481,16.642015 2.71342,1.25715 6.36615,3.54361 8.11718,5.08103 1.75102,1.53743 3.5149,2.79532 3.91971,2.79532 2.0588,0 7.38635,6.43177 12.8162,15.47255 3.33851,5.55868 6.07003,10.50147 6.07003,10.98396 0,3.70098 22.99388,60.48979 26.29826,64.94974 2.30177,3.10672 9.33987,17.86661 9.87195,20.70289 0.41316,2.20227 0.0636,5.26949 -1.00148,8.78713 -2.11471,6.98443 -2.1473,15.44859 -0.13729,35.66623 1.69838,17.08314 3.06828,23.46496 6.16273,28.70966 1.00923,1.71052 2.70087,6.0176 3.75921,9.5713 1.05833,3.55369 3.06321,8.10129 4.45528,10.10578 1.39206,2.00448 4.32035,6.32999 6.50729,9.61225 4.68325,7.0288 7.60044,9.50378 8.85922,7.51626 1.13079,-1.78545 1.0606,-7.14933 -0.10296,-7.86845 -0.52404,-0.32387 -0.73962,-0.93378 -0.47907,-1.35535 0.26054,-0.42158 -0.15446,-1.28783 -0.92221,-1.92502 -0.76776,-0.63718 -1.39593,-1.66037 -1.39593,-2.27374 0,-0.61337 -3.48047,-4.67499 -7.73438,-9.02582 -7.25622,-7.42156 -12.15609,-15.0514 -10.63977,-16.56772 0.36808,-0.36808 1.59425,0.52113 2.72482,1.97602 1.13057,1.45488 4.14625,4.608 6.70151,7.00691 7.98988,7.50102 10.92014,10.80782 12.79557,14.43979 2.08267,4.03331 1.92301,3.97321 5.55923,2.09284 l 2.75137,-1.42279 -2.63105,4.46967 c -1.44708,2.45831 -3.10715,6.3681 -3.68904,8.68841 -0.95456,3.80633 -0.8025,18.91313 0.20682,20.54624 0.22555,0.36496 1.05833,4.64527 1.85062,9.51178 0.79228,4.86653 1.89467,10.32479 2.44973,12.12948 0.55508,1.80469 1.19595,4.75781 1.42417,6.5625 0.22821,1.80469 0.67465,4.33594 0.99209,5.625 0.31743,1.28906 0.70598,4.03125 0.86343,6.09375 0.15745,2.0625 0.74713,9.86719 1.3104,17.34375 0.56327,7.47656 1.27535,16.66005 1.58239,20.40774 0.38991,4.75918 0.20893,7.23492 -0.60016,8.20981 -1.48729,1.79208 -0.55948,10.57504 1.94544,18.41611 1.00337,3.14083 1.82431,6.87934 1.82431,8.30781 0,1.42846 0.90778,7.59616 2.0173,13.706 2.7403,15.09013 2.93894,39.65105 0.43485,53.76503 -0.96056,5.41406 -1.82568,10.47656 -1.92249,11.25 -0.43464,3.47245 -5.62126,10.3125 -7.8197,10.3125 -2.06808,0 -6.77246,3.07972 -6.77246,4.43359 0,0.66925 2.21484,2.22165 4.92187,3.44975 8.00884,3.63342 11.11062,4.07525 13.29241,1.89344 z m 463.14009,-31.39661 c -1.45976,-1.61301 -1.73155,-3.76109 -1.86551,-14.74351 -0.0863,-7.07047 -0.64267,-15.38666 -1.23651,-18.48041 -0.59383,-3.09375 -1.47802,-10.55539 -1.96486,-16.58142 -0.48684,-6.02604 -1.29969,-11.72135 -1.80634,-12.65625 -1.18036,-2.17811 -5.73115,-23.50956 -5.73115,-26.8643 0,-1.39988 -1.26888,-5.05889 -2.81974,-8.13111 -3.88339,-7.69295 -4.96701,-13.35928 -3.86344,-20.20209 0.71988,-4.46372 0.62249,-5.99495 -0.49221,-7.73856 -2.69969,-4.22288 -7.57516,-19.46425 -8.07646,-25.24814 -0.75375,-8.69657 0.63017,-7.09516 2.37489,2.74809 0.87065,4.91195 2.29804,9.65215 3.32464,11.0407 0.98943,1.33827 2.75981,5.06845 3.93418,8.28926 1.74701,4.79131 2.03117,6.9702 1.56297,11.98414 -0.6244,6.68651 0.56062,10.98072 4.836,17.52439 1.83324,2.80585 2.35989,4.94385 2.54029,10.3125 0.27335,8.13465 1.7638,16.95468 4.15455,24.58529 0.96931,3.09375 2.0445,9.84375 2.38931,15 0.34482,5.15625 0.79264,10.64062 0.99516,12.1875 1.16659,8.91071 2.63105,25.10115 2.6785,29.61259 0.0303,2.88067 0.60294,5.90171 1.27251,6.71341 1.8351,2.22466 -0.2309,2.83125 -2.20678,0.64792 z M 254.6534,478.82812 c -0.31092,-1.16015 -0.57106,-5.30445 -0.5781,-9.20954 -0.0112,-6.17098 -0.48934,-8.1954 -3.65411,-15.46875 -2.00271,-4.60273 -3.44172,-8.70547 -3.19778,-9.11723 0.60762,-1.02565 3.08909,1.14859 3.08909,2.70664 0,2.26561 3.13043,7.88576 4.39238,7.88576 0.67795,0 1.27197,0.94922 1.32005,2.10938 0.71062,17.14453 0.71734,23.20312 0.0258,23.20312 -0.45759,0 -1.08637,-0.94922 -1.39728,-2.10938 z m -6.2159,-44.55702 c 0,-3.01939 2.73922,-5.8336 5.67816,-5.8336 3.29898,0 3.5809,1.6705 0.81312,4.81802 l -1.94622,2.21323 0.4522,-2.10938 c 0.6101,-2.84589 -1.02606,-2.68307 -2.35534,0.23438 -1.24132,2.7244 -2.64192,3.08349 -2.64192,0.67735 z m 11.86987,-0.86517 C 257.98888,428.93931 258.36154,412.5 260.78128,412.5 c 0.50166,0 0.59231,2.94751 0.21778,7.08056 -0.43508,4.80136 -0.25999,8.23691 0.54393,10.67282 1.60726,4.87004 0.76772,7.01203 -1.23562,3.15255 z M 652.5,395.42187 c 0,-0.71328 0.37867,-1.69765 0.84147,-2.1875 1.01552,-1.07483 1.89857,-7.26448 2.1531,-15.09195 0.1908,-5.86778 -2.29269,-15.49865 -4.6352,-17.97501 -1.38401,-1.46309 -1.5556,-3.91741 -0.27389,-3.91741 2.42264,0 7.34251,12.6154 7.67793,19.6875 0.19931,4.2025 -0.97068,12.57412 -2.28553,16.35348 -1.27154,3.65488 -3.47788,5.64109 -3.47788,3.13089 z m -14.82245,-40.84362 c -6.68685,-6.76843 -8.3976,-9.3484 -12.87848,-19.422 -0.91743,-2.0625 -4.0581,-6.07031 -6.97928,-8.90625 -8.58875,-8.33817 -13.43393,-15.85241 -16.47257,-25.54688 -0.9293,-2.96484 -2.05155,-5.39062 -2.49389,-5.39062 -3.23548,0 -11.07721,-9.63522 -15.42446,-18.95218 -4.46096,-9.56069 -7.24678,-30.73532 -4.04366,-30.73532 0.71581,0 2.79021,10.07615 2.81438,13.67054 0.0176,2.62652 3.34428,12.81624 5.70222,17.46643 2.75243,5.42818 6.88442,10.06744 11.66045,13.09195 3.51365,2.22508 4.19046,3.25631 5.95937,9.08006 1.09755,3.61345 3.80753,9.23388 6.02216,12.48984 2.21464,3.25596 5.42452,7.95317 7.13307,10.43824 1.70855,2.48507 4.0894,4.89201 5.29077,5.34877 3.0494,1.15938 5.83987,5.49933 4.19111,6.51832 -1.52708,0.94379 3.17495,9.56935 8.01283,14.69901 1.76189,1.86813 3.20343,3.97041 3.20343,4.67173 0,0.70131 0.31641,1.27706 0.70313,1.27945 1.05829,0.007 6.79687,5.58368 6.79687,6.60568 0,2.12906 -2.45174,0.42123 -9.19745,-6.40677 z M 608.4375,310.49168 c 0,-0.41707 -0.63967,-1.57723 -1.42148,-2.57812 -1.31813,-1.68749 -1.34128,-1.63235 -0.31828,0.75831 1.10383,2.57953 1.73976,3.24473 1.73976,1.81981 z m 32.38283,29.82082 c 0.42828,-0.77344 3.27555,-4.64467 6.32725,-8.60273 3.0517,-3.95806 5.25716,-7.66795 4.90102,-8.24419 -0.35613,-0.57625 -0.26197,-1.55658 0.20925,-2.17852 1.52596,-2.01402 5.85569,-15.63739 7.65925,-24.09956 0.49453,-2.32031 1.15706,-7.80469 1.47229,-12.1875 0.77954,-10.83823 2.20108,-22.42093 2.88818,-23.53268 0.31098,-0.50316 0.90932,-6.6993 1.32965,-13.76921 0.73679,-12.39259 0.68158,-13.05643 -1.53698,-18.47936 -3.41465,-8.34663 -3.47301,-8.64308 -1.19962,-6.09375 6.58996,7.38985 8.97179,21.50956 6.08859,36.09375 -0.81549,4.125 -1.93635,12.98437 -2.49081,19.6875 -1.89903,22.95876 -6.02093,37.57147 -13.798,48.91599 -3.40584,4.96815 -13.68317,15.80071 -11.85007,12.49026 z m 27.36612,-96.79688 c -0.19738,-2.1914 -0.35888,-0.39843 -0.35888,3.98438 0,4.38281 0.1615,6.17578 0.35888,3.98437 0.19737,-2.1914 0.19737,-5.77734 0,-7.96875 z M 276.5625,331.875 c -1.28906,-1.00832 -2.7258,-1.84268 -3.19276,-1.85415 -0.46695,-0.0114 -2.15445,-1.00541 -3.75,-2.20876 -1.59554,-1.20335 -4.35016,-2.68519 -6.12137,-3.29296 -3.10072,-1.06401 -6.62177,-3.58461 -6.62486,-4.74256 -8.2e-4,-0.3068 -2.77283,-3.49633 -6.16001,-7.08785 -3.38718,-3.5915 -6.80696,-7.59931 -7.5995,-8.90625 -0.79253,-1.30692 -3.92678,-4.44315 -6.96499,-6.96941 -3.0382,-2.52626 -5.52401,-5.0037 -5.52401,-5.50542 0,-0.50172 0.643,-0.37857 1.42891,0.27367 0.7859,0.65223 1.65186,0.96292 1.92437,0.69042 0.2725,-0.27251 -0.51481,-1.29015 -1.74959,-2.26144 -1.23479,-0.97128 -3.34929,-3.51516 -4.69889,-5.65307 -1.3496,-2.13791 -2.89218,-4.15803 -3.42796,-4.48916 -1.39986,-0.86515 -0.57327,-16.80849 1.19371,-23.02452 0.80122,-2.81863 1.93043,-6.94194 2.50935,-9.16289 0.5789,-2.22096 1.76666,-4.76137 2.63945,-5.64536 1.88605,-1.91023 3.54415,-4.19867 8.97727,-12.39009 4.90611,-7.39686 13.44106,-16.8327 15.22558,-16.8327 2.4997,0 1.16831,2.40917 -4.83494,8.74891 -3.33587,3.52284 -6.32864,7.53066 -6.65062,8.90625 -0.32198,1.3756 -1.7649,4.61046 -3.20649,7.18859 -4.36672,7.80937 -7.54197,17.40207 -8.37863,25.3125 -0.43628,4.125 -1.44605,9.39085 -2.24392,11.7019 -1.27747,3.7002 -1.28692,4.45184 -0.0791,6.29515 0.75435,1.15127 1.37155,2.71989 1.37155,3.48581 0,0.76591 1.98843,2.99559 4.41873,4.95486 7.80677,6.29365 17.08522,15.49011 17.68048,17.52422 2.17668,7.4383 3.43152,8.8931 10.6466,12.34318 3.90387,1.86673 8.07982,3.86691 9.2799,4.44485 1.20008,0.57795 2.59683,1.82599 3.10388,2.77343 0.50706,0.94742 1.95095,2.11384 3.20866,2.59203 1.3848,0.5265 2.28675,1.61811 2.28675,2.76762 0,2.38148 -1.6621,2.38971 -4.6875,0.0231 z m 268.04688,-94.92188 c -0.52075,-1.56221 -0.36832,-4.45312 0.23479,-4.45312 0.42945,0 0.78083,1.05469 0.78083,2.34375 0,1.87713 -0.64589,3.21859 -1.01562,2.10937 z M 197.8125,204.78842 c 0,-0.80387 0.42187,-1.20085 0.9375,-0.88217 0.51562,0.31868 0.9375,0.97639 0.9375,1.46158 0,0.48519 -0.42188,0.88217 -0.9375,0.88217 -0.51563,0 -0.9375,-0.65771 -0.9375,-1.46158 z m 2.81395,-3.29625 c -0.003,-5.05676 15.93657,-31.48627 22.43626,-37.2016 1.32332,-1.16363 3.60614,-3.1979 5.07294,-4.52061 4.59206,-4.14096 3.53773,-2.00668 -1.8987,3.84353 -6.74759,7.26118 -12.95649,16.46069 -19.60143,29.04276 -6.3124,11.95241 -6.00745,11.504 -6.00907,8.83592 z m -4.98814,-4.3828 c -0.81607,-2.96484 -2.14928,-9.95519 -2.96268,-15.5341 -2.66289,-18.26407 -7.90662,-41.17295 -12.37759,-54.07527 -2.04434,-5.89957 -9.14725,-18.10057 -13.64434,-23.4375 -1.49319,-1.77206 -11.66178,-9.375 -12.53864,-9.375 -1.55787,0 -10.67756,-4.82776 -10.67756,-5.652464 0,-1.594194 1.87357,-1.005699 9.60658,3.017456 10.66492,5.548496 16.09893,10.180438 21.31238,18.166648 5.70804,8.74384 9.18339,17.85799 13.38159,35.09336 4.45989,18.30977 5.06372,21.39806 7.76557,39.71755 1.28257,8.69622 2.56259,16.18451 2.84449,16.64063 0.2819,0.45613 0.12137,0.82932 -0.35674,0.82932 -0.47811,0 -1.53699,-2.42578 -2.35306,-5.39063 z m -14.23967,-28.59375 c -0.22963,-0.64453 -2.77368,-8.3316 -5.65344,-17.08238 -2.87975,-8.75078 -6.65174,-18.66485 -8.38219,-22.03125 -3.65741,-7.11508 -4.73394,-10.33949 -3.45205,-10.33949 0.91151,0 5.62168,9.32289 8.28889,16.40625 0.77662,2.0625 1.76471,4.59375 2.19577,5.625 0.99432,2.37883 7.2249,22.5864 8.02136,26.01562 0.59273,2.55207 -0.21346,3.66537 -1.01834,1.40625 z M 678.75,156.5625 c -1.28906,-1.00832 -1.88179,-1.84268 -1.31718,-1.85415 0.56462,-0.0114 1.79016,0.8229 2.72343,1.85415 2.13765,2.36208 1.61349,2.36208 -1.40625,0 z m -8.4375,-2.8125 c 0,-0.51563 0.39697,-0.9375 0.88217,-0.9375 0.48519,0 1.14291,0.42187 1.46158,0.9375 0.31867,0.51562 -0.0783,0.9375 -0.88217,0.9375 -0.80387,0 -1.46158,-0.42188 -1.46158,-0.9375 z M 32.455118,124.8677 c -1.374017,-2.22321 14.1075,-20.8052 17.333776,-20.8052 1.593882,0 0.817428,1.16794 -3.002493,4.51632 -2.111231,1.85062 -5.770239,6.12668 -8.131129,9.50234 -5.477249,7.83154 -5.523214,7.88185 -6.200154,6.78654 z m 16.506931,-3.1601 c 0.416544,-1.24963 0.700465,-1.41693 9.349415,-5.50898 3.454118,-1.63424 8.296485,-4.82248 10.760816,-7.08498 4.192631,-3.84926 7.80272,-5.31876 7.80272,-3.17614 0,0.51563 -0.37341,0.9375 -0.829799,0.9375 -0.45639,0 -3.093109,1.84228 -5.859375,4.09395 -4.650783,3.78562 -18.756708,11.84355 -20.732895,11.84355 -0.47255,0 -0.693446,-0.4972 -0.490882,-1.1049 z M 21.5625,116.47889 c 0,-0.38974 2.003906,-1.64004 4.453125,-2.77846 2.449219,-1.1384 7.549375,-4.61641 11.333681,-7.72888 3.784306,-3.11248 7.085924,-5.65905 7.33693,-5.65905 0.251005,0 -0.524932,1.18756 -1.724307,2.63902 -5.830046,7.05539 -21.399429,16.89737 -21.399429,13.52737 z m -8.4375,-1.98863 c 0,-1.19997 15.554967,-17.857869 26.808151,-28.70901 8.387698,-8.088028 10.25501,-10.468927 13.602507,-17.34375 5.675435,-11.655756 16.720671,-24.479162 24.856434,-28.858066 3.845217,-2.069607 2.482118,0.01692 -5.074992,7.768431 -7.969594,8.174601 -12.262579,13.938535 -14.66641,19.691712 -0.853974,2.043846 -2.35616,4.571349 -3.33819,5.616673 -0.98203,1.045324 -2.432049,3.447973 -3.222263,5.339222 -0.884731,2.11746 -4.413883,6.043964 -9.185369,10.219565 -7.992693,6.994529 -16.4949,14.882763 -24.406806,22.644343 -4.660398,4.57184 -5.373062,5.05343 -5.373062,3.63088 z m 143.892,-2.61234 c -1.89904,-2.89828 -5.78207,-6.83362 -11.64298,-11.79979 -3.12101,-2.644561 -3.70071,-3.510511 -2.33965,-3.494968 1.84526,0.02109 10.71563,7.470768 10.71563,8.999408 0,0.46277 0.7966,1.33889 1.77022,1.94693 0.97364,0.60804 2.68986,2.39702 3.81385,3.97551 1.56462,2.19732 1.72431,2.86999 0.68134,2.86999 -0.74924,0 -2.09853,-1.12369 -2.99841,-2.49708 z M 53.90625,99.375 c 2.013978,-2.0625 3.952088,-3.75 4.306913,-3.75 1.142489,0 17.961635,-10.208591 20.047264,-12.167938 1.109168,-1.042009 2.702862,-1.894562 3.541542,-1.894562 0.838681,0 1.785607,-0.421875 2.104281,-0.9375 0.739282,-1.196182 2.34375,-1.219991 2.34375,-0.03478 0,1.064339 -9.500406,10.344892 -10.591409,10.346309 -1.704579,0.0022 -19.978954,9.16961 -21.164008,10.61699 -0.707666,0.86431 -1.953442,1.57148 -2.768388,1.57148 -0.987287,0 -0.259824,-1.25134 2.180055,-3.75 z m -7.446283,-1.3296 c 1.963654,-1.435856 2.85352,-1.278094 1.859832,0.329728 -0.339876,0.549928 -1.306504,0.999872 -2.148062,0.999872 -1.279654,0 -1.232475,-0.217631 0.28823,-1.3296 z M 533.89961,555.01073 c 0.333,-0.53881 -0.0597,-0.68405 -0.9381,-0.34697 -1.02949,0.39505 -1.675,-0.0479 -2.02603,-1.39023 -0.28334,-1.08351 -0.45405,-2.20805 -0.37934,-2.499 0.0747,-0.29095 -0.51205,-1.17687 -1.30391,-1.96872 -2.4863,-2.4863 -1.66111,-3.38722 2.77902,-3.03408 2.32031,0.18454 4.21875,0.0364 4.21875,-0.32922 0,-0.36561 1.47315,-2.09546 3.27368,-3.8441 l 3.27366,-3.17935 -2.47879,-1.12941 c -3.81755,-1.7394 -1.44775,-3.42935 3.16654,-2.25811 3.92124,0.99532 7.76491,-0.061 7.76491,-2.13394 0,-0.65498 1.29808,-2.48895 2.88461,-4.07549 1.58654,-1.58653 2.45796,-2.88461 1.93648,-2.88461 -0.53343,0 -0.11702,-2.46107 0.95204,-5.62677 1.04511,-3.09472 2.22138,-5.42826 2.61394,-5.18564 0.85231,0.52675 2.36443,-2.60471 3.75948,-7.7855 0.87545,-3.25116 4.99644,-12.60651 7.50038,-17.02709 0.4381,-0.77344 2.16172,-4.35937 3.83028,-7.96875 4.22431,-9.13789 11.24386,-23.24952 12.12485,-24.375 0.40362,-0.51562 1.71891,-3.67969 2.92289,-7.03125 2.74579,-7.64359 7.51385,-17.51919 11.48189,-23.78132 6.95514,-10.97618 8.38997,-15.35945 6.94575,-21.21868 -1.8616,-7.55258 -2.5729,-13.06528 -2.07423,-16.07566 0.33632,-2.03024 0.15869,-3.67142 -0.43721,-4.03971 -1.23185,-0.76132 -1.31581,-18.24749 -0.12707,-26.46466 0.46138,-3.18933 1.91205,-7.93543 3.22371,-10.54688 1.31166,-2.61144 1.97944,-4.74809 1.48397,-4.74809 -1.0529,0 -7.45926,-6.60504 -7.45926,-7.69059 0,-0.40561 -2.11516,-3.36236 -4.70035,-6.57055 -2.5852,-3.2082 -5.2012,-7.21814 -5.81334,-8.91097 -1.30654,-3.61319 -1.81718,-3.72115 -5.32702,-1.12621 -1.67524,1.23856 -4.67676,2.13639 -8.21455,2.45719 -7.67989,0.69638 -12.12785,-1.59933 -15.65508,-8.08002 -1.4268,-2.62149 -2.78352,-4.76635 -3.01493,-4.76635 -1.63308,0 -8.92239,4.58391 -9.78071,6.15063 -1.17082,2.13714 0.64165,8.01396 3.94499,12.79139 1.44321,2.08723 1.82764,4.82339 2.17333,15.46875 0.38543,11.86866 1.74023,24.82183 2.77053,26.4889 0.40933,0.66231 4.48528,15.59995 6.22432,22.81103 0.47146,1.95494 1.65273,5.32994 2.62505,7.5 3.5206,7.8574 3.72174,9.40226 2.42267,18.60817 -0.9239,6.54721 -0.99611,10.63392 -0.28448,16.09772 1.17692,9.03611 -0.11531,14.92997 -6.71911,30.64591 -2.49164,5.92969 -5.44045,14.57812 -6.5529,19.21875 -2.98836,12.46598 -7.64953,23.59141 -14.53284,34.6875 -1.27944,2.0625 -2.97968,5.19403 -3.77831,6.95897 -1.35718,2.99932 -3.81473,6.2422 -10.65796,14.06386 -2.61994,2.99452 -9.73812,7.79434 -13.48869,9.09545 -0.90234,0.31304 -1.64062,0.83884 -1.64062,1.16846 0,1.11656 5.31665,2.96038 10.87442,3.77127 7.83556,1.14322 9.56211,1.16164 10.21269,0.10897 z m 33.28789,-71.66407 c 0,-0.73747 1.18856,-4.007 2.64125,-7.26563 2.35102,-5.27374 2.62288,-6.89351 2.4741,-14.74075 -0.11166,-5.8891 0.25453,-9.62405 1.10298,-11.25 0.69856,-1.33871 1.27272,-4.18188 1.2759,-6.31813 0.003,-2.13625 0.60717,-6.98782 1.34221,-10.78125 1.03117,-5.32168 2.69376,-26.79196 2.56681,-33.14715 -0.0494,-2.47433 -3.31815,-12.40005 -4.77619,-14.50328 -2.72425,-3.9297 -6.43151,-11.47042 -7.98046,-16.23261 -1.69391,-5.20778 -1.74928,-5.64786 -0.62316,-4.95188 0.99735,0.6164 6.66406,12.17208 6.66406,13.58951 0,0.54374 0.84375,1.51555 1.875,2.15958 1.03125,0.64402 1.875,1.88833 1.875,2.76511 0,0.87679 0.38942,1.83483 0.86537,2.12899 0.47596,0.29416 1.14229,1.79561 1.48074,3.33658 0.33845,1.54096 0.97529,2.80175 1.41521,2.80175 0.92616,0 1.25574,-0.98904 3.23708,-9.71439 2.94098,-12.95141 1.99659,-16.32405 -6.63615,-23.69924 -5.24347,-4.47963 -8.22858,-8.4409 -10.49738,-13.93012 -1.09727,-2.65481 -0.9768,-2.60225 2.14874,0.9375 5.4977,6.22628 6.11139,7.0027 6.11139,7.73187 0,0.65353 9.32265,9.61188 10.00276,9.61188 0.17035,0 0.31024,-2.21484 0.31085,-4.92188 0.002,-6.25658 2.07149,-16.19862 5.12406,-24.60937 2.08935,-5.75678 2.33889,-6.10208 2.0324,-2.8125 -0.19215,2.0625 -1.25772,7.67838 -2.36793,12.47974 -1.36592,5.90719 -2.0005,11.6664 -1.96269,17.8125 0.0954,15.50298 0.009,16.87019 -1.41071,22.32061 -0.75951,2.91598 -2.04866,13.57568 -2.86477,23.68821 -0.81611,10.11254 -2.1555,20.70675 -2.97642,23.54269 -0.82092,2.83594 -1.68981,8.53125 -1.93087,12.65625 -0.24106,4.125 -0.85814,8.30413 -1.37129,9.28697 -0.51315,0.98283 -1.07481,5.41251 -1.24812,9.84375 -0.22284,5.69735 -0.99382,9.84134 -2.63264,14.15053 -1.27464,3.35156 -2.54606,6.83203 -2.8254,7.73437 -0.6097,1.96951 -2.44173,2.19443 -2.44173,0.29979 z m 11.87033,-26.72934 c -0.80179,-4.009 2.45787,-9.42982 5.67036,-9.42982 2.20743,0 2.31639,0.22097 1.73368,3.51562 -1.25183,7.07784 -6.3559,11.15486 -7.40404,5.9142 z m 4.97144,-6.09338 c -0.0304,-1.76453 -0.1482,-1.72904 -1.37302,0.41356 -1.84901,3.23452 -1.82617,5.79028 0.0298,3.33644 0.75704,-1.00089 1.36149,-2.68839 1.34321,-3.75 z M 286.61424,553.01076 c 0.57846,-0.57846 0.84501,-1.59047 0.59233,-2.24892 -0.25266,-0.65845 0.0629,-1.52 0.70134,-1.91455 0.80988,-0.50054 0.97978,-0.24583 0.56208,0.84267 -0.73271,1.90941 -0.31081,1.9953 1.15072,0.23426 0.91002,-1.09649 0.17867,-1.59369 -4.22894,-2.87502 -3.77494,-1.0974 -5.62088,-1.25759 -6.32925,-0.54922 -0.55001,0.55001 -1.75939,1.00002 -2.68752,1.00002 -1.07862,0 -1.6875,0.6965 -1.6875,1.93033 0,1.06168 -0.38291,1.69367 -0.85092,1.40443 -0.468,-0.28924 -1.8391,-0.14865 -3.04688,0.31243 l -2.19595,0.83834 2.34375,0.53323 c 5.20335,1.18384 6.26238,1.33053 10.35937,1.43499 2.3461,0.0598 4.73891,-0.36453 5.31737,-0.94299 z m 20.65138,-0.53201 c -0.90234,-0.2358 -2.3789,-0.2358 -3.28125,0 -0.90234,0.23581 -0.16406,0.42875 1.64063,0.42875 1.80469,0 2.54297,-0.19294 1.64062,-0.42875 z M 297.65625,541.875 c 0.31867,-0.51563 0.13264,-0.9375 -0.41342,-0.9375 -0.54606,0 -0.99283,-0.58361 -0.99283,-1.29691 0,-0.7133 -0.8882,-1.52917 -1.97378,-1.81306 -2.38883,-0.62469 -1.87836,-2.98378 0.64565,-2.98378 1.24442,0 2.56896,-1.57259 4.30808,-5.11486 2.45362,-4.99757 2.46975,-5.1439 0.70312,-6.38128 -3.16197,-2.21474 -2.13848,-3.67231 3.00656,-4.28167 2.64806,-0.31362 5.02285,-0.77842 5.27732,-1.0329 0.25448,-0.25447 0.47153,-3.11522 0.48233,-6.35723 0.0108,-3.24201 0.48366,-6.21097 1.0508,-6.59769 0.70982,-0.484 0.59294,-0.98435 -0.37508,-1.60557 -1.43143,-0.91862 -3.14611,-9.29337 -6.05351,-29.5663 -0.81342,-5.67188 -2.10726,-13.89844 -2.87519,-18.28125 -1.84653,-10.53867 -1.79488,-17.74591 0.14707,-20.51843 1.16717,-1.66636 1.25859,-2.35391 0.38476,-2.89396 -0.63036,-0.38958 -1.04778,-1.9257 -0.92758,-3.4136 0.12019,-1.48789 -0.007,-3.33807 -0.28466,-4.11151 -0.27676,-0.77344 -0.99538,-13.21875 -1.59695,-27.65625 -0.60157,-14.4375 -1.29267,-28.25391 -1.53579,-30.70313 -0.24312,-2.44921 -0.0785,-4.45312 0.3659,-4.45312 0.44437,0 0.79839,-1.58203 0.7867,-3.51563 -0.0117,-1.93359 0.32746,-6.0058 0.75365,-9.04935 l 0.7749,-5.53371 -3.64153,0.60153 c -2.00284,0.33084 -4.5236,0.60617 -5.60171,0.61184 -1.61498,0.008 -2.1689,0.94293 -3.14526,5.30576 -0.65178,2.91249 -1.96775,7.57036 -2.92437,10.35081 -0.95661,2.78045 -2.21915,9.36235 -2.80562,14.62643 -0.90048,8.08259 -0.83086,10.80331 0.44766,17.49452 0.83269,4.35789 2.03402,8.26024 2.66962,8.67187 0.88578,0.57365 0.82726,0.96401 -0.25059,1.67158 -1.22311,0.80292 -1.20645,0.92501 0.12793,0.9375 2.07172,0.0194 3.15411,7.1582 1.64929,10.87786 l -1.10454,2.73024 -1.7481,-5.53337 c -0.96144,-3.04336 -2.03565,-9.16055 -2.38711,-13.59375 -0.49634,-6.2604 -0.78179,-7.38442 -1.27827,-5.03345 -0.85058,4.02772 -0.43317,13.26684 0.73152,16.19182 2.09312,5.25662 3.24705,12.43836 2.64434,16.45759 -0.85485,5.70052 -2.36366,4.35109 -2.47778,-2.21605 -0.12841,-7.38955 -1.32814,-15.94012 -1.99822,-14.24154 -2.49905,6.3348 -3.9487,19.54457 -2.74593,25.02202 0.54457,2.48008 1.39986,7.10126 1.90064,10.26929 0.50077,3.16802 2.1981,8.35523 3.77184,11.52712 5.24563,10.57265 10.97081,36.76989 11.91836,54.53599 0.73249,13.73413 0.40006,14.71808 -7.85341,23.24523 -3.57137,3.68979 -4.61206,5.31725 -3.75,5.86437 0.92022,0.58402 0.87148,0.79661 -0.21306,0.92922 -1.4728,0.1801 7.67919,1.30253 12.83529,1.57416 1.64535,0.0867 3.25229,-0.26428 3.57096,-0.7799 z m 0.89995,-42.89063 c -0.35267,-2.96484 -0.96137,-7.18359 -1.35268,-9.375 -0.39129,-2.1914 -0.49789,-3.98437 -0.23687,-3.98437 0.26103,0 1.50303,1.1097 2.76,2.466 2.14244,2.31173 2.24491,2.8982 1.63798,9.375 -0.35608,3.79995 -0.98938,6.909 -1.40731,6.909 -0.41795,0 -1.04845,-2.42578 -1.40112,-5.39063 z m 0.38541,-13.125 c -0.0665,-0.38671 -0.21226,-1.75781 -0.32393,-3.04687 -0.80941,-9.34315 -1.66211,-15.43426 -2.34425,-16.74573 -2.86175,-5.50187 -7.41959,-26.64097 -4.87914,-22.62927 0.48979,0.77344 1.18093,2.88281 1.53588,4.6875 0.85894,4.3672 4.20588,14.27698 5.24471,15.52879 0.80956,0.97552 2.73968,15.21924 2.75493,20.33058 0.007,2.23712 -1.6563,3.80542 -1.9882,1.875 z m -4.10669,-55.90183 c -0.82669,-1.74209 -2.53398,-4.13594 -3.79399,-5.31966 -2.69052,-2.52761 -2.94369,-4.37469 -0.65991,-4.81451 2.43971,-0.46984 6.43527,4.73912 7.14685,9.31725 0.75146,4.83477 -0.59285,5.24258 -2.69295,0.81692 z m -5.70821,-25.67502 c -1.45594,-0.97402 -2.34565,-7.69996 -1.45773,-11.01999 0.56427,-2.10987 1.29431,-2.79378 2.98224,-2.79378 1.84137,0 2.44916,0.73943 3.45045,4.19779 1.99373,6.88614 -0.84727,12.37743 -4.97496,9.61598 z m 2.36989,-5.1419 c -0.0363,-1.67578 -0.42845,-3.89062 -0.8716,-4.92187 -0.59173,-1.37705 -0.82322,-0.56786 -0.8716,3.04687 -0.0363,2.70704 0.35597,4.92188 0.8716,4.92188 0.51562,0 0.90785,-1.37109 0.8716,-3.04688 z m -17.09692,11.7366 c -0.2377,-0.91216 -0.44781,-0.39285 -0.46691,1.15403 -0.0191,1.54687 0.17536,2.29318 0.43217,1.65847 0.2568,-0.63472 0.27243,-1.90035 0.0348,-2.8125 z m 471.55907,-39.39285 c -0.23581,-0.90234 -0.42875,-0.16406 -0.42875,1.64063 0,1.80469 0.19294,2.54297 0.42875,1.64062 0.2358,-0.90234 0.2358,-2.3789 0,-3.28125 z m -17.5356,-2.44405 c 0.0107,-1.99252 0.37447,-2.54023 1.4206,-2.13879 0.77344,0.29679 1.40625,0.13099 1.40625,-0.36845 0,-0.49944 -0.61185,-0.90808 -1.35967,-0.90808 -0.74781,0 -1.79257,-0.73828 -2.32168,-1.64063 -0.7209,-1.22941 -0.85654,-0.51464 -0.5412,2.85185 0.25982,2.7736 0.072,4.2769 -0.49081,3.92905 -0.5014,-0.30989 -0.91164,-2.92916 -0.91164,-5.8206 0,-2.89144 -0.29907,-4.95809 -0.6646,-4.59256 -1.08562,1.08561 -0.30764,12.17201 0.90682,12.92259 1.45788,0.90102 2.53799,-0.88839 2.55593,-4.23438 z m 13.20316,-0.0946 c 0.48053,0.29699 0.87369,0.12836 0.87369,-0.37473 0,-0.50309 -0.52734,-1.12867 -1.17188,-1.39021 -0.83462,-0.33865 -0.87483,-0.69838 -0.13971,-1.24999 0.97995,-0.73532 2.3992,-5.93075 1.62012,-5.93075 -0.20292,0 -0.75049,0.94922 -1.21682,2.10937 -0.65681,1.63408 -0.87343,0.84191 -0.96131,-3.51562 -0.11138,-5.52209 -1.50817,-14.47956 -1.82737,-11.71875 -0.41398,3.58049 0.11294,22.28624 0.68662,24.375 l 0.64371,2.34375 0.30962,-2.59402 c 0.1703,-1.42671 0.70279,-2.35103 1.18333,-2.05405 z m -7.2192,-5.66443 c -0.15479,-2.0625 -0.0538,-3.01172 0.22446,-2.10938 0.27825,0.90235 0.8998,1.64063 1.38122,1.64063 0.86326,0 0.76587,-2.17208 -1.07189,-23.90625 -0.4796,-5.67188 -0.83138,-12 -0.78174,-14.0625 0.0803,-3.33707 0.17952,-3.49192 0.901,-1.40625 0.74901,2.16522 0.28519,-22.36009 -0.56291,-29.76563 -0.19193,-1.67578 0.0536,-3.04687 0.54565,-3.04687 0.49203,0 0.8946,2.07422 0.8946,4.60938 0,2.53515 0.43649,4.75487 0.96998,4.9327 0.53349,0.17783 1.38899,5.59189 1.90111,12.03125 0.51212,6.43936 1.33358,15.29386 1.82545,19.67667 0.49188,4.38281 0.89456,11.68431 0.89484,16.22556 2.9e-4,4.54124 0.41702,8.97092 0.92606,9.84375 1.15128,1.974 1.03423,2.77436 1.57181,-10.7472 0.29678,-7.46489 0.11158,-11.60773 -0.53683,-12.00846 -0.54446,-0.3365 -0.98494,-2.59082 -0.97887,-5.00961 0.0229,-9.09588 -2.25983,-36.29611 -3.09327,-36.85873 -0.50108,-0.33827 -0.41015,-0.86888 0.21516,-1.25534 0.79872,-0.49364 0.80882,-0.99989 0.0384,-1.92814 -1.52767,-1.84073 -4.35497,-23.77453 -3.80412,-29.51183 0.12377,-1.28906 0.29567,-3.60938 0.38201,-5.15625 0.0863,-1.54687 0.57886,-3.12891 1.09448,-3.51563 0.625,-0.46875 0.625,-0.9375 0,-1.40625 -1.12034,-0.84026 -1.38799,-9.60937 -0.29329,-9.60937 0.41912,0 0.76204,0.70312 0.76204,1.5625 0,0.85937 0.20354,1.35896 0.45232,1.11018 0.77778,-0.77779 -1.42708,-12.3916 -2.84865,-15.00483 -0.74451,-1.36862 -1.35366,-3.963 -1.35366,-5.76529 0,-5.61751 -12.38794,-35.08391 -16.875,-40.13951 -2.54224,-2.86435 -5.14906,-6.90619 -4.91615,-7.62243 0.12576,-0.38671 -0.19323,-0.70312 -0.70885,-0.70312 -1.33113,0 -1.16356,1.13506 0.52306,3.54305 0.80331,1.14688 1.15755,2.61184 0.7872,3.25547 -0.37035,0.64363 -0.33015,0.85949 0.0893,0.4797 2.77816,-2.51526 16.19966,26.05623 18.2402,38.82947 0.53373,3.34105 1.56304,7.30627 2.28735,8.81159 1.06525,2.21392 1.21036,6.76808 0.75928,23.83072 -0.36653,13.86452 -0.79152,19.6479 -1.24005,16.875 -0.37533,-2.32031 -0.71368,-6.24756 -0.7519,-8.72721 -0.0424,-2.75162 -0.4348,-4.28266 -1.00699,-3.92904 -0.51562,0.31867 -0.96217,-0.18377 -0.99232,-1.11654 -0.29156,-9.01876 -1.07243,-19.97626 -1.89134,-26.53971 -0.87866,-7.04244 -1.70384,-10.55214 -5.73087,-24.375 -0.52576,-1.80469 -1.01742,-4.19531 -1.09257,-5.3125 -0.0752,-1.11718 -0.29397,-1.87393 -0.48624,-1.68165 -0.19228,0.19228 -1.66885,-2.26866 -3.28125,-5.46875 -1.61241,-3.20009 -3.14259,-6.02929 -3.4004,-6.2871 -0.25781,-0.25781 -0.99902,-1.3125 -1.64712,-2.34375 -0.64811,-1.03125 -2.42119,-3.77223 -3.94018,-6.09107 -1.57749,-2.40814 -2.41016,-4.56772 -1.94176,-5.03612 1.07034,-1.07034 0.10984,-3.56464 -1.08768,-2.82454 -0.50615,0.31282 -2.25491,-0.66082 -3.88614,-2.16365 -5.23244,-4.82059 -6.83591,-5.48274 -2.8605,-1.18123 10.39046,11.24271 24.02042,38.0926 23.71329,46.71315 -0.0533,1.49725 -1.10019,-0.65717 -2.67747,-5.51029 -1.42444,-4.38281 -3.63993,-10.29913 -4.92331,-13.14737 -2.38332,-5.28934 -12.39455,-21.09444 -13.9837,-22.0766 -0.48365,-0.29892 1.22239,3.39091 3.79123,8.19961 5.9154,11.07328 9.52532,19.85489 12.07257,29.36811 2.4588,9.18291 5.60265,24.92721 6.73926,33.75 0.46499,3.60937 1.59513,8.03906 2.51143,9.84375 1.43748,2.83117 1.64911,5.72055 1.54287,21.06464 -0.0826,11.93024 -0.46044,17.89583 -1.14796,18.125 -0.56365,0.18788 -1.06109,1.25568 -1.10541,2.37286 -0.20519,5.17234 -1.53011,-3.29575 -2.02909,-12.96875 -0.34516,-6.69105 -0.25173,-8.99561 0.26607,-6.5625 0.43893,2.0625 0.82881,6.28125 0.86643,9.375 0.0423,3.47987 0.37275,5.14476 0.86651,4.3657 0.91672,-1.44642 0.58714,-6.02022 -1.41714,-19.66625 -0.78161,-5.32156 -1.57128,-13.12625 -1.75484,-17.34375 -0.49099,-11.28197 -5.03788,-38.41173 -6.69513,-39.94757 -0.31639,-0.29322 -0.31144,2.84187 0.011,6.96687 0.32245,4.125 1.02765,17.41406 1.56713,29.53125 0.53947,12.11719 1.42159,25.82812 1.96025,30.46875 1.63033,14.04517 2.45203,34.7748 2.00805,50.65848 -0.3946,14.11744 -0.31524,15.03355 1.30245,15.03466 1.61665,9.3e-4 1.70558,-1.0049 1.44531,-16.34991 -0.17527,-10.33364 0.0777,-16.70615 0.6875,-17.3159 0.53066,-0.53066 1.13403,-0.78202 1.34081,-0.55858 0.20678,0.22344 0.57167,9.68445 0.81085,21.02447 0.23919,11.34003 0.10668,19.77753 -0.29446,18.75 -0.65406,-1.6754 -0.73613,-1.69198 -0.79522,-0.16063 -0.0363,0.93917 0.56691,2.3404 1.34035,3.11384 1.25,1.25 1.40667,0.74777 1.41006,-4.52009 0.008,-11.428 1.2627,-30.27861 1.86185,-27.95759 0.33277,1.28906 0.57646,10.04298 0.54156,19.45314 -0.0349,9.41017 0.25915,17.21693 0.65348,17.34836 0.39432,0.13142 1.00013,3.19002 1.34626,6.79685 0.44629,4.65066 0.80596,5.87626 1.2367,4.21415 0.33407,-1.28906 0.48074,-4.03125 0.32595,-6.09375 z M 728.4375,310.625 c 0,-4.46875 0.15297,-7.94922 0.33994,-7.73438 0.91798,1.05488 1.49628,15.85938 0.6195,15.85938 -0.58045,0 -0.95944,-3.20948 -0.95944,-8.125 z m 0.26813,-27.03125 c 0.007,-2.57813 0.18912,-3.52154 0.4046,-2.09648 0.2155,1.42505 0.20973,3.53443 -0.0127,4.6875 -0.22252,1.15306 -0.39883,-0.0129 -0.3918,-2.59102 z m -2.45681,-48.01549 c -1.95961,-10.75121 -2.93708,-19.64888 -2.07057,-18.84792 0.76582,0.7079 4.51223,26.14167 3.93562,26.71828 -0.20028,0.20029 -1.03956,-3.34137 -1.86505,-7.87036 z m 25.3462,130.74986 c 0.003,-1.67578 -0.17473,-2.30859 -0.39482,-1.40625 -0.2201,0.90235 -0.79112,1.64063 -1.26894,1.64063 -0.47782,0 -0.86876,0.44677 -0.86876,0.99283 0,0.54606 0.42187,0.73209 0.9375,0.41342 0.51562,-0.31867 0.9375,-0.13264 0.9375,0.41342 0,0.54606 0.14674,0.99283 0.32608,0.99283 0.17934,0 0.32849,-1.37109 0.33144,-3.04688 z m -4.0581,-13.125 c -0.26638,-5.80078 -0.7256,-25.94188 -1.02051,-44.75799 -0.50834,-32.43424 -0.45147,-34.1408 1.09499,-32.85735 1.48202,1.22996 1.59948,1.14354 1.28451,-0.94514 -0.19067,-1.26439 -0.80755,-2.21224 -1.37083,-2.10634 -1.51167,0.28422 -3.52498,-12.75197 -2.41874,-15.6613 0.49016,-1.28906 0.55577,-3.1875 0.14582,-4.21875 -0.63451,-1.5961 -0.76734,-1.45666 -0.89305,0.9375 -0.0812,1.54687 -1.31208,-2.78323 -2.73523,-9.62247 -1.42316,-6.83923 -2.86292,-12.71033 -3.19947,-13.04687 -0.90204,-0.90204 -0.76478,0.61177 0.79418,8.75874 1.4872,7.77202 1.72522,11.73967 0.46891,7.81685 -0.67926,-2.12098 -0.7506,-2.03187 -0.7506,0.9375 0,1.80469 0.33777,4.33594 0.7506,5.625 0.69892,2.18236 0.76458,2.1178 0.95364,-0.9375 0.17518,-2.83079 0.32344,-2.57338 1.07996,1.875 0.4823,2.83594 0.71699,6.31641 0.52152,7.73437 -0.22109,1.60395 0.0789,2.57813 0.7941,2.57813 0.81014,0 1.34854,3.45119 1.82376,11.69052 0.68223,11.82826 -0.13456,18.40015 -1.45997,11.74698 -0.56845,-2.85338 -0.66977,-2.57111 -0.7771,2.16471 -0.0788,3.47814 0.22087,5.23318 0.82938,4.85709 0.52404,-0.32387 0.71008,-0.98158 0.41342,-1.46158 -0.29665,-0.47999 -0.072,-0.87272 0.49919,-0.87272 0.74315,0 0.86569,4.61381 0.43079,16.22045 -0.68736,18.34444 1.19654,54.09205 2.85066,54.09205 0.20591,0 0.15644,-4.74609 -0.10993,-10.54688 z m -21.2088,5.49183 c -0.90234,-0.68497 -1.64062,-1.93718 -1.64062,-2.78267 0,-0.84551 -0.44678,-1.53728 -0.99283,-1.53728 -0.54606,0 -0.69181,-0.48706 -0.3239,-1.08235 0.39869,-0.6451 0.25875,-0.82885 -0.3464,-0.45485 -0.58354,0.36066 -1.2036,-0.27545 -1.45806,-1.49577 -0.24352,-1.16781 -0.33618,-0.3225 -0.20592,1.87846 0.26886,4.54296 0.23931,4.49252 3.36144,5.7388 3.15815,1.26066 3.53379,1.19884 1.60629,-0.26434 z m 25.13308,-11.3512 c 0.4098,-4.125 0.70892,-9.71603 0.66473,-12.42449 -0.0442,-2.70848 0.274,-4.7055 0.70708,-4.43784 0.43309,0.26767 1.05242,0.0579 1.37629,-0.46613 0.32387,-0.52403 -0.17432,-0.95279 -1.10709,-0.95279 -1.16843,0 -1.69596,-0.70473 -1.69596,-2.26563 0,-1.24609 0.21094,-2.25081 0.46875,-2.23273 2.89602,0.20323 2.97663,-0.22537 2.46008,-13.07977 -0.2849,-7.08984 -0.78654,-14.21055 -1.11474,-15.8238 -0.33696,-1.65627 -0.18038,-3.19049 0.35967,-3.52426 0.99376,-0.61418 1.85939,5.73539 2.38645,17.50495 0.1659,3.70483 0.79876,6.83592 1.5159,7.5 0.99252,0.91907 1.1108,0.80012 0.61037,-0.61379 -0.3414,-0.96458 -0.8436,-6.87083 -1.116,-13.125 -0.27239,-6.25417 -0.72543,-13.90247 -1.00675,-16.99622 -0.28131,-3.09375 -0.57949,-6.78516 -0.66261,-8.20313 -0.0832,-1.41796 -0.46753,-2.57812 -0.85425,-2.57812 -0.38671,0 -0.70347,-0.94922 -0.70389,-2.10938 -4.2e-4,-1.16015 -0.63471,-5.14805 -1.40953,-8.862 -2.58283,-12.38029 -3.52059,-21.11129 -2.34548,-21.83755 0.75962,-0.46947 0.80407,-1.5843 0.15343,-3.84789 l -0.91604,-3.18693 -0.0846,3.20313 c -0.12257,4.64338 -0.79189,3.27576 -2.51639,-5.14166 -0.83793,-4.09006 -1.91753,-8.06928 -2.39912,-8.84272 -0.59483,-0.95533 -0.68833,-0.42926 -0.29158,1.64062 0.36734,1.91645 0.20856,3.04688 -0.42797,3.04688 -0.5566,0 -1.01199,0.42187 -1.01199,0.9375 0,0.51562 0.47708,0.83203 1.06019,0.70312 1.06537,-0.23551 2.85705,6.20131 4.04476,14.53125 0.41548,2.91401 0.29106,4.45313 -0.36001,4.45313 -0.54722,0 -0.99494,0.40864 -0.99494,0.90808 0,0.49944 0.59033,0.68154 1.31184,0.40467 1.00716,-0.38648 1.21533,0.21914 0.89631,2.60755 -0.22854,1.71102 0.27,9.86095 1.10787,18.11095 2.60733,25.6727 3.83822,46.34915 2.79027,46.87082 -0.58011,0.28878 -0.49374,0.68587 0.22184,1.0198 1.52299,0.71074 1.53053,2.54143 0.008,2.03405 -2.99647,-0.99883 -3.52425,1.82167 -3.49548,18.68024 0.0294,17.24719 1.02517,19.93386 2.37018,6.39509 z m 1.986,-57.44308 c -0.42436,-0.65619 -0.65084,-2.34394 -0.5033,-3.75056 0.14754,-1.40662 -0.0469,-3.06737 -0.43202,-3.69058 -0.38516,-0.62319 -0.90313,-3.99794 -1.15104,-7.49943 l -0.45076,-6.36635 1.89424,8.4375 c 1.86916,8.32582 2.21778,15.30474 0.64288,12.86942 z m -3.26443,-25.05692 c 0.0191,-1.54688 0.22921,-2.06619 0.46691,-1.15403 0.23769,0.91215 0.22206,2.17778 -0.0348,2.8125 -0.25681,0.63471 -0.45129,-0.1116 -0.43218,-1.65847 z m 4.50473,84.375 c 0,-0.77344 -0.42188,-1.40625 -0.9375,-1.40625 -0.51563,0 -0.9375,0.63281 -0.9375,1.40625 0,0.77344 0.42187,1.40625 0.9375,1.40625 0.51562,0 0.9375,-0.63281 0.9375,-1.40625 z m -36.5625,-3.33658 c 0,-2.09293 -0.34015,-3.5951 -0.7559,-3.33816 -0.72628,0.44887 -0.36106,7.14349 0.38972,7.14349 0.2014,0 0.36618,-1.7124 0.36618,-3.80533 z m -3.64108,-2.3813 c -0.47194,-2.01141 -0.8947,-2.81337 -0.93944,-1.78212 -0.0968,2.22966 0.91395,6.32282 1.43309,5.80369 0.20044,-0.20044 -0.0217,-2.01014 -0.49365,-4.02157 z M 310.3125,339.95309 c 0,-0.19767 -0.84375,-0.58005 -1.875,-0.84973 -1.03125,-0.26968 -1.875,-0.10794 -1.875,0.35941 0,0.46735 0.84375,0.84973 1.875,0.84973 1.03125,0 1.875,-0.16174 1.875,-0.35941 z m 402.85056,-5.48903 c -0.22424,-1.16617 -0.41623,-0.43281 -0.42664,1.62969 -0.0104,2.0625 0.17307,3.01664 0.40772,2.12031 0.23464,-0.89634 0.24316,-2.58384 0.0189,-3.75 z m 2.27024,-18.67263 c -0.54122,-12.95782 -0.57018,-22.23939 -0.071,-22.7535 0.46877,-0.4828 0.4882,-1.31526 0.0438,-1.875 -0.78648,-0.9905 -1.30923,-9.53378 -2.54358,-41.56977 -0.53028,-13.76261 -0.41026,-16.43148 0.80105,-17.8125 1.18083,-1.34628 1.3013,-3.20024 0.70363,-10.8281 -0.39663,-5.06202 -0.51443,-9.99414 -0.26179,-10.96025 0.69624,-2.66241 -4.98799,-18.97913 -7.18241,-20.61731 -0.34536,-0.25781 -1.71595,-2.44153 -3.04578,-4.85271 -3.09377,-5.60937 -12.84042,-18.58479 -13.96026,-18.58479 -0.46995,0 -0.85447,-0.47107 -0.85447,-1.04684 0,-0.61164 0.84318,-0.82635 2.02818,-0.51646 1.70513,0.4459 1.81713,0.33701 0.70312,-0.6836 -2.40203,-2.20068 -8.3563,-5.42343 -8.3563,-4.52286 0,0.48574 2.42578,3.8598 5.39062,7.49792 6.85212,8.40812 12.35926,17.63185 15.51805,25.99059 3.92166,10.37746 7.14396,23.91475 7.02936,29.53125 -0.20249,9.92247 0.14516,35.20848 0.56389,41.01562 0.29576,4.10165 0.0917,5.86368 -0.68033,5.87373 -0.71861,0.009 -0.65968,0.29517 0.16912,0.82032 0.97844,0.61997 1.00835,0.96888 0.12956,1.512 -1.92515,1.1898 -2.62473,-1.32188 -3.24455,-11.64884 -0.90127,-15.01606 -1.37176,-15.31441 -0.85405,-0.54158 0.25298,7.21875 0.75238,25.43038 1.10977,40.47029 0.35739,15.03992 0.96622,27.66101 1.35293,28.04688 0.7925,0.79076 1.23287,-15.90572 1.02826,-38.98592 -0.13591,-15.33075 -0.13021,-15.37675 0.63836,-5.15625 0.42651,5.67188 1.26549,18.96094 1.86438,29.53125 0.59889,10.57031 1.32643,20.90625 1.61674,22.96875 1.11462,7.91846 1.24301,0.75081 0.36369,-20.30232 z m 21.18239,14.91169 c -0.20797,-1.67578 -0.37812,-0.30468 -0.37812,3.04688 0,3.35156 0.17015,4.72266 0.37812,3.04687 0.20795,-1.67578 0.20795,-4.41796 0,-6.09375 z m 21.82181,5.39063 c 0,-2.70739 -0.67174,-2.86923 -3.28125,-0.79052 -1.84291,1.46803 -1.83763,1.48474 0.30843,0.97609 1.63141,-0.38667 2.05363,-0.17927 1.67004,0.82033 -0.28235,0.73582 -0.10474,1.33785 0.3947,1.33785 0.49944,0 0.90808,-1.05469 0.90808,-2.34375 z m -406.875,-3.28125 c -1.28906,-0.41283 -3.39844,-0.74273 -4.6875,-0.73313 -2.10525,0.0156 -2.05755,0.0903 0.46875,0.73313 1.54687,0.39361 3.65625,0.72352 4.6875,0.73313 1.46925,0.0137 1.3678,-0.14496 -0.46875,-0.73313 z m -9.12278,-0.61494 c -0.63472,-0.2568 -1.90035,-0.27243 -2.8125,-0.0348 -0.91216,0.2377 -0.39285,0.44781 1.15403,0.46692 1.54687,0.0191 2.29318,-0.17537 1.65847,-0.43218 z M 684.2613,329.0839 c 0.60618,-1.79292 0.69866,-2.84761 0.20552,-2.34375 -0.49315,0.50385 -1.19678,2.18172 -1.56361,3.7286 -0.86034,3.62791 -0.0612,2.81302 1.35809,-1.38485 z m 28.24766,-1.42765 c -0.54739,-2.80874 -0.7579,-3.12213 -0.83865,-1.24855 -0.10216,2.37035 0.76931,5.86399 1.31541,5.27336 0.13974,-0.15114 -0.0748,-1.96231 -0.47676,-4.02481 z m 6.78727,1.85262 c 0.24877,-1.30136 0.17354,-2.53841 -0.16719,-2.74899 -0.34072,-0.21058 -0.31198,-3.47005 0.0639,-7.24326 0.65157,-6.54115 -0.39322,-32.19137 -1.67131,-41.03173 -0.3317,-2.29424 -1.11587,-13.68487 -1.74262,-25.3125 l -1.13951,-21.14114 -0.13223,13.47359 c -0.16102,16.40859 1.61986,45.1562 2.89596,46.74731 0.59679,0.74413 0.68344,8.03635 0.24226,20.39063 -0.45429,12.72165 -0.36769,19.23222 0.25584,19.23222 0.51845,0 1.14618,-1.06476 1.39495,-2.36613 z m 38.88671,-7.712 c -0.20226,-1.93359 -0.36774,-0.35156 -0.36774,3.51563 0,3.86719 0.16548,5.44922 0.36774,3.51562 0.20226,-1.93359 0.20226,-5.09765 0,-7.03125 z M 385.78125,330 c 1.59851,-0.68691 1.46027,-0.80572 -0.9375,-0.80572 -1.54688,0 -3.65625,0.36257 -4.6875,0.80572 -1.59851,0.68691 -1.46027,0.80572 0.9375,0.80572 1.54687,0 3.65625,-0.36257 4.6875,-0.80572 z m 15.72097,-1.55244 c -0.63472,-0.2568 -1.90035,-0.27243 -2.8125,-0.0348 -0.91216,0.2377 -0.39285,0.44781 1.15403,0.46692 1.54687,0.0191 2.29318,-0.17537 1.65847,-0.43218 z m 336.9719,-5.24444 c -0.22345,-1.16015 -0.40628,-0.21093 -0.40628,2.10938 0,2.32031 0.18283,3.26953 0.40628,2.10937 0.22346,-1.16015 0.22346,-3.05859 0,-4.21875 z m -26.26194,-3.2634 c -0.2377,-0.91216 -0.44781,-0.39285 -0.46691,1.15403 -0.0191,1.54687 0.17536,2.29318 0.43217,1.65847 0.2568,-0.63472 0.27243,-1.90035 0.0348,-2.8125 z m -24.69452,-2.62527 c 0.20091,-1.53076 0.1769,-2.25069 -0.0533,-1.59985 -0.23027,0.65085 -0.70317,1.00754 -1.05086,0.79265 -0.3477,-0.21489 -0.63217,0.81354 -0.63217,2.2854 0,3.33592 1.24346,2.27736 1.73641,-1.4782 z m 20.05344,-17.54883 c -0.17795,-3.73828 -0.32355,-0.67968 -0.32355,6.79688 0,7.47656 0.1456,10.53516 0.32355,6.79687 0.17795,-3.73828 0.17795,-9.85546 0,-13.59375 z m -121.86798,15.5839 c 3.18815,-2.01055 2.5764,-2.84554 -2.52772,-3.45005 -2.5504,-0.30205 -5.99172,-1.2497 -7.64737,-2.10587 -3.99409,-2.06542 -12.10807,-9.71767 -13.11653,-12.37013 -0.477,-1.2546 -1.59265,-2.11097 -2.7501,-2.11097 -2.61431,0 -13.2982,2.49156 -19.63824,4.57976 -5.02845,1.65623 -5.08579,1.71511 -2.8125,2.88893 3.53335,1.82445 6.27545,5.362 6.95209,8.96877 0.76179,4.06068 2.37452,4.11674 5.84465,0.20316 1.48591,-1.67578 4.27179,-3.77833 6.19088,-4.67233 1.91907,-0.894 3.48922,-2.0041 3.48922,-2.46688 0,-0.46279 -1.34572,-2.15711 -2.99047,-3.76517 -2.69376,-2.63364 -2.79639,-2.92374 -1.03439,-2.92374 2.33983,0 12.46236,10.71827 12.46236,13.19581 0,2.75062 9.50997,6.82164 13.59375,5.8192 1.03125,-0.25313 2.82422,-1.05886 3.98437,-1.79049 z m 165.23438,-4.77985 c 0,-5.37172 -0.54814,-4.95875 -1.24919,0.94113 -0.32391,2.7259 -0.18358,4.26404 0.35845,3.92905 0.48991,-0.30278 0.89074,-2.49436 0.89074,-4.87018 z m -60.13178,-9.16342 c 0,-1.875 0,-1.875 -0.80572,0 -0.44315,1.03125 -0.80572,2.71875 -0.80572,3.75 0,1.875 0,1.875 0.80572,0 0.44315,-1.03125 0.80572,-2.71875 0.80572,-3.75 z m 52.34396,1.65847 c -0.2377,-0.91216 -0.44781,-0.39285 -0.46691,1.15403 -0.0191,1.54687 0.17536,2.29318 0.43217,1.65847 0.2568,-0.63472 0.27243,-1.90035 0.0348,-2.8125 z m -412.44656,-4.64847 c -0.90234,-0.2358 -2.3789,-0.2358 -3.28125,0 -0.90234,0.23581 -0.16406,0.42875 1.64063,0.42875 1.80469,0 2.54297,-0.19294 1.64062,-0.42875 z M 695.57754,286.875 c -0.0707,-1.74606 -2.69254,4.70017 -2.66911,6.5625 0.0209,1.66296 0.41563,1.11832 1.35881,-1.875 0.73111,-2.32031 1.32075,-4.42969 1.3103,-4.6875 z m 47.79406,-11.95313 c -0.0362,-5.02734 -0.35264,-8.42691 -0.70312,-7.5546 -0.66221,1.6482 -0.32725,16.69523 0.37166,16.69523 0.21855,0 0.36771,-4.11328 0.33146,-9.14063 z m -45.9375,5.15625 c -0.0362,-0.64453 -0.39487,-2.01479 -0.79696,-3.04504 -0.62426,-1.59948 -0.79637,-1.42826 -1.17798,1.17187 -0.31257,2.12961 -0.0729,3.04505 0.79696,3.04505 0.68414,0 1.21423,-0.52734 1.17798,-1.17188 z m 42.98388,-8.13835 c -0.15522,-4.96542 -0.60624,-8.0355 -1.10829,-7.54406 -1.50812,1.47623 -0.67672,15.91679 0.91639,15.91679 0.2495,0 0.33585,-3.76773 0.1919,-8.37273 z m 16.76589,-0.83965 c 0.0839,-1.63104 -0.23246,-3.20351 -0.70312,-3.49439 -0.47066,-0.29089 -0.86151,0.23429 -0.86855,1.16706 -0.008,0.93278 -0.28195,2.70166 -0.61092,3.93085 -0.44619,1.66726 -0.26436,2.12404 0.71593,1.79844 0.72272,-0.24005 1.38272,-1.77093 1.46666,-3.40196 z m -31.62474,-7.86096 c -0.68408,-4.27372 -1.40576,-7.01224 -1.60371,-6.0856 -0.44675,2.09129 1.6751,15.02842 2.35357,14.34995 0.27167,-0.27167 -0.0658,-3.99062 -0.74986,-8.26435 z m -15.18397,-6.57376 c -0.19805,-2.20503 -0.36287,-0.63415 -0.36628,3.49085 -0.004,4.125 0.15864,5.92912 0.36008,4.00915 0.20145,-1.91996 0.20423,-5.29496 0.007,-7.5 z m 28.18563,1.49568 c -0.30911,-2.47839 -0.37446,-2.41303 -0.82244,0.82244 -0.27904,2.01538 -0.13579,3.16392 0.33579,2.69234 0.45234,-0.45234 0.67133,-2.034 0.48665,-3.51478 z m -6.48388,-15.58165 c -0.63374,-14.61534 -2.3833,-24.67827 -6.12036,-35.20235 -3.2271,-9.08795 -3.70597,-8.18194 -0.66431,1.25688 3.16415,9.81893 5.93383,27.81041 5.94711,38.63167 0.006,4.76953 0.32706,8.67246 0.71377,8.67317 0.38672,7.3e-4 0.44243,-6.01099 0.12379,-13.35937 z m -25.47635,-5.61537 c -0.22424,-1.16617 -0.41624,-0.43281 -0.42664,1.62969 -0.0104,2.0625 0.17307,3.01664 0.40772,2.12031 0.23464,-0.89634 0.24316,-2.58384 0.0189,-3.75 z m 32.49878,-12.66719 c -0.91669,-3.78808 -2.10648,-6.79687 -2.68775,-6.79687 -0.28039,0 -0.29084,1.05469 -0.0233,2.34375 0.26764,1.28906 0.70558,3.39844 0.97322,4.6875 0.26764,1.28906 0.90849,2.34375 1.42411,2.34375 0.54897,0 0.67895,-1.06845 0.31362,-2.57813 z m -29.00111,-3.8231 c -1.14889,-6.76883 -5.07412,-21.65526 -6.69894,-25.40571 -2.18524,-5.04406 -3.39516,-4.91703 -1.58404,0.16631 2.21308,6.21154 3.98345,14.74042 4.23257,20.39063 0.21743,4.93121 2.34165,9.68632 3.90282,8.73655 0.40254,-0.24489 0.46895,-1.9944 0.14759,-3.88778 z m -6.32355,-3.65905 c -0.2377,-0.91216 -0.44781,-0.39284 -0.46691,1.15403 -0.0191,1.54688 0.17536,2.29318 0.43217,1.65847 0.2568,-0.63472 0.27243,-1.90035 0.0348,-2.8125 z m 35.01276,-2.3616 c -1.89703,-8.22662 -11.8091,-28.23915 -14.94729,-30.17865 -0.55162,-0.34092 0.71151,1.96129 2.80694,5.11604 2.09543,3.15473 4.63463,8.13322 5.64264,11.06331 1.00801,2.93008 2.66301,7.04266 3.67776,9.13904 1.01476,2.09639 1.84501,4.45186 1.84501,5.23438 0,1.22798 0.79125,2.67276 1.46378,2.67276 0.11757,0 -0.10241,-1.37109 -0.48884,-3.04688 z m -35.95026,-5.1384 c -0.2377,-0.91216 -0.44781,-0.39285 -0.46691,1.15403 -0.0191,1.54687 0.17536,2.29318 0.43217,1.65847 0.2568,-0.63472 0.27243,-1.90035 0.0348,-2.8125 z m -30.22781,-60.14685 c -1.44809,-1.35299 -5.10937,-2.19481 -5.10937,-1.17479 0,0.907 1.88408,1.67764 4.64062,1.89817 0.83326,0.0667 1.01469,-0.2133 0.46875,-0.72338 z M 36.275096,137.75529 c 0.615367,-1.20917 2.066639,-2.9134 3.225051,-3.78719 l 2.106203,-1.58871 -2.435385,0.46555 c -2.855171,0.5458 -6.788506,4.45807 -7.78542,7.74371 -0.682086,2.24803 -0.642581,2.26955 1.535303,0.83626 1.229471,-0.80913 2.738883,-2.46046 3.354248,-3.66962 z m 6.771895,-1.87942 c 2.903945,-5.16687 2.150326,-5.31078 -1.592327,-0.30406 -1.909474,2.55439 -2.597338,4.11569 -1.813257,4.11569 0.694831,0 2.227343,-1.71523 3.405584,-3.81163 z M 11.25,137.01845 c 0,-0.97104 -3.2713638,-4.83095 -4.0943394,-4.83095 -1.4704652,0 -0.3967534,2.74849 1.2818394,3.28125 1.03125,0.32731 1.875,0.98855 1.875,1.46943 0,0.48087 0.210938,0.87432 0.46875,0.87432 0.257813,0 0.46875,-0.35733 0.46875,-0.79405 z M 331.875,133.125 c -0.77344,-0.49984 -2.57213,-0.91525 -3.9971,-0.92315 -2.46029,-0.0136 -6.19111,-1.56724 -7.29334,-3.03714 -0.28006,-0.37347 -2.68974,-0.75622 -5.35484,-0.85055 -2.66511,-0.0943 -4.62592,-0.52704 -4.35735,-0.96158 0.26855,-0.43454 -0.9077,-0.75677 -2.61391,-0.71606 -1.70622,0.0407 -2.4694,0.28248 -1.69596,0.5373 0.77344,0.2548 2.25,0.80623 3.28125,1.22537 1.03125,0.41915 3.77344,1.27348 6.09375,1.89851 2.32031,0.62503 5.27344,1.71658 6.5625,2.42567 2.72246,1.49756 11.66355,1.8806 9.375,0.40163 z M 21.325717,130.17428 c 0.809288,-0.80928 0.528859,-1.50587 -1.132246,-2.8125 -2.863515,-2.25243 -3.318471,-2.19064 -3.318471,0.45072 0,3.4267 2.211998,4.6005 4.450717,2.36178 z M 290.625,125.625 c -0.77344,-0.49984 -2.03906,-0.8856 -2.8125,-0.85725 -0.92724,0.0339 -0.76757,0.32599 0.46875,0.85725 2.57727,1.10749 4.05747,1.10749 2.34375,0 z M 300,124.74936 c 0,-0.42074 -1.05469,-0.76498 -2.34375,-0.76498 -2.67532,0 -3.16857,1.31584 -0.70313,1.87569 1.87697,0.42622 3.04688,-2.5e-4 3.04688,-1.11071 z m -14.0625,-5.5979 c 0,-0.4667 -1.79297,-1.41592 -3.98438,-2.10938 -2.21212,-0.70001 -3.98437,-1.8499 -3.98437,-2.58518 0,-1.30721 -4.33485,-2.09109 -6.79688,-1.22909 -1.97651,0.69201 -1.2975,2.25092 0.70378,1.61573 1.1638,-0.36937 2.86683,0.1105 4.48737,1.26442 1.43646,1.02284 4.07288,2.27894 5.85874,2.79133 1.78584,0.51238 3.35246,0.96966 3.48137,1.01616 0.1289,0.0465 0.23437,-0.29729 0.23437,-0.76399 z m -18.75,-14.11816 c 0,-0.36841 -0.96855,-1.11113 -2.15233,-1.6505 -1.79104,-0.81605 -2.1732,-0.70362 -2.27665,0.66983 -0.0871,1.15669 0.55681,1.65049 2.15232,1.65049 1.25216,0 2.27666,-0.30142 2.27666,-0.66982 z m -5.625,-1.40657 c 0,-0.23967 -0.84375,-0.88732 -1.875,-1.43923 -1.12993,-0.60472 -1.875,-0.64514 -1.875,-0.10173 0,0.49596 0.73828,1.09468 1.64062,1.33048 0.90235,0.23581 1.7461,0.47769 1.875,0.5375 0.12891,0.0598 0.23438,-0.0874 0.23438,-0.32702 z M 249.375,95.993447 c 0,-0.202641 -0.86865,-0.368447 -1.93033,-0.368447 -1.06168,0 -1.68099,0.403453 -1.37622,0.896559 0.50026,0.809438 3.30655,0.361228 3.30655,-0.528112 z m -0.21734,-6.176709 c -0.20547,-0.61642 -1.49496,-1.420663 -2.86552,-1.787207 -1.37056,-0.366545 -3.61481,-1.549702 -4.98722,-2.629238 -4.42806,-3.483117 -4.7231,-2.078058 -0.36742,1.74977 3.98851,3.505153 9.04661,5.146036 8.22016,2.666675 z M 229.6875,78.654866 c 0,-0.844054 -2.99945,-1.569509 -4.45897,-1.07846 -0.64774,0.217931 -0.94324,0.775624 -0.65666,1.239319 0.58645,0.948912 5.11563,0.806493 5.11563,-0.160859 z M 227.34375,74.0625 c -0.31868,-0.515625 -0.97639,-0.9375 -1.46158,-0.9375 -0.4852,0 -0.88217,0.421875 -0.88217,0.9375 0,0.515625 0.65771,0.9375 1.46158,0.9375 0.80387,0 1.20085,-0.421875 0.88217,-0.9375 z m 4.56722,0.194612 c 0.25252,-0.408589 -0.36451,-0.804932 -1.37118,-0.880762 -1.00668,-0.07583 -1.58536,0.258469 -1.28598,0.742888 0.66428,1.074821 2.03417,1.145901 2.65716,0.137874 z m -8.27246,-2.772737 c -0.5008,-1.31545 -0.39061,-1.408357 0.55594,-0.46875 1.40982,1.399455 4.55555,1.561298 4.55555,0.234375 0,-0.515625 -0.75938,-0.9375 -1.6875,-0.9375 -0.92813,0 -2.19375,-0.50625 -2.8125,-1.125 -0.875,-0.875 -1.375,-0.875 -2.25,0 -0.61875,0.61875 -1.90928,1.125 -2.86783,1.125 -0.96857,0 -1.47495,0.433429 -1.13985,0.975635 0.33164,0.536599 1.41122,0.719107 2.39908,0.405574 1.00404,-0.318672 1.7961,-0.128776 1.7961,0.430615 0,0.550372 0.46701,1.000676 1.0378,1.000676 0.60132,0 0.77511,-0.690013 0.41321,-1.640625 z M 85.78125,69.375 C 87.771449,67.175855 86.136973,66.809455 83.97609,68.970338 82.162461,70.783969 78.75,69.905066 78.75,67.624324 78.75,66.730946 79.25625,65.49375 79.875,64.875 80.75,64 80.743286,63.75 79.84479,63.75 c -0.635366,0 -1.516764,0.949219 -1.958663,2.109375 -1.714181,4.50039 4.499798,7.267417 7.895123,3.515625 z m 128.36082,0.368448 c 2.07309,-0.795517 1.84775,-1.983088 -0.62645,-3.301451 -1.9127,-1.019178 -1.98941,-0.97855 -0.82271,0.435766 0.83652,1.014051 0.91852,1.559737 0.23438,1.559737 -0.57876,0 -1.05229,0.421875 -1.05229,0.9375 0,1.092845 0.26647,1.136152 2.26707,0.368448 z M 91.276524,67.03125 C 90.979729,66.257812 90.068587,65.625 89.251764,65.625 c -1.203209,0 -1.139677,0.26129 0.334677,1.376435 2.290681,1.732583 2.343857,1.733522 1.690083,0.02981 z M 210.9375,66.617828 c 0,-0.485194 -0.42188,-1.142904 -0.9375,-1.461578 -0.51563,-0.318674 -0.9375,0.0783 -0.9375,0.882172 0,0.803867 0.42187,1.461578 0.9375,1.461578 0.51562,0 0.9375,-0.396977 0.9375,-0.882172 z m -5.14205,-3.237146 c -1.34374,-1.34375 -2.97243,-2.443182 -3.61931,-2.443182 -0.64687,0 -1.68239,-0.50625 -2.30114,-1.125 -0.61875,-0.61875 -1.125,-0.833786 -1.125,-0.477859 0,0.766166 8.7457,7.232152 9.1862,6.791659 0.16634,-0.166341 -0.797,-1.401868 -2.14075,-2.745618 z m 9.01147,-1.830543 c -0.61249,-0.738003 -3.0176,-1.821252 -5.34468,-2.407218 -2.32708,-0.585967 -4.01459,-1.415644 -3.75002,-1.843729 0.26457,-0.428084 -0.55596,-0.5801 -1.82342,-0.337811 -2.16608,0.414073 -2.41457,2.101119 -0.30947,2.101119 0.53278,0 2.04134,0.84375 3.35235,1.875 1.31102,1.03125 3.38147,1.875 4.601,1.875 1.21953,0 2.21732,0.50625 2.21732,1.125 0,0.852118 0.26324,0.861756 1.08527,0.03973 0.82202,-0.822023 0.81515,-1.410743 -0.0283,-2.427093 z M 79.492751,61.107602 c 5.339379,0.376948 6.238338,-1.428763 1.771698,-3.558755 -3.280144,-1.564192 -8.139449,-1.223414 -8.139449,0.57081 0,0.547266 0.837399,0.578056 2.149884,0.07905 1.411716,-0.536733 3.182129,-0.383359 5.15625,0.446697 4.099162,1.723569 3.776522,2.148583 -1.204817,1.587115 -4.086535,-0.460612 -7.038817,0.697741 -7.038817,2.761737 0,0.48932 0.691869,0.197803 1.537488,-0.647815 1.083059,-1.083059 2.787811,-1.449218 5.767763,-1.238839 z M 199.6875,56.430948 c 0,-1.161571 -0.25,-1.243448 -1.125,-0.368448 -1.82694,1.82694 -2.87576,1.293345 -2.39555,-1.21875 0.35265,-1.84474 0.0631,-2.34375 -1.36013,-2.34375 -1.4358,0 -1.67913,0.434405 -1.18158,2.109375 1.21132,4.077833 6.06226,5.535431 6.06226,1.821573 z m -95.66797,-1.198741 c -0.57555,-1.075412 -1.28332,-1.71842 -1.57283,-1.428906 -0.28952,0.289513 0.007,1.169396 0.65949,1.955293 1.68546,2.030845 2.14132,1.768115 0.91334,-0.526387 z m 87.0129,-1.794707 c -0.64402,-1.03125 -1.98354,-1.875 -2.97669,-1.875 -0.99316,0 -1.53196,0.273779 -1.19735,0.608397 0.49706,0.49705 4.18672,2.702226 5.10268,3.049683 0.13327,0.05056 -0.28461,-0.75183 -0.92864,-1.78308 z M 99.774178,50.313016 C 99.4443,49.453357 98.375784,48.75 97.399697,48.75 96.423619,48.75 95.625,48.282989 95.625,47.712198 c 0,-0.570791 0.632812,-0.794969 1.40625,-0.498174 0.773437,0.296797 1.40625,0.130995 1.40625,-0.368447 0,-0.775465 -1.873978,-1.293551 -3.849188,-1.064159 C 94.275937,45.8177 93.492858,44.074686 92.848123,41.908064 90.952254,35.537022 89.998986,33.718422 90.537516,37.5 c 0.257003,1.804687 0.708272,4.072362 1.002819,5.039277 0.348211,1.143078 0.172475,1.53364 -0.502397,1.116547 C 90.448553,43.291565 90,43.645976 90,44.475922 c 0,0.803867 0.738281,1.474407 1.640625,1.490086 1.5625,0.02715 1.5625,0.07402 0,0.984085 -0.902344,0.525567 -1.613884,1.883832 -1.581201,3.018366 0.05672,1.968697 0.105992,1.955881 1.0803,-0.280959 0.814851,-1.870751 1.09851,-2.023138 1.40556,-0.755087 0.213265,0.880734 0.952855,1.370636 1.659713,1.099389 0.701269,-0.269101 2.045934,0.323813 2.98814,1.317586 1.911413,2.016014 3.506573,1.375506 2.581041,-1.036372 z M 194.0625,49.632172 c 0,-0.485195 -0.67319,-0.882172 -1.49598,-0.882172 -2.41113,0 -7.01949,-3.132086 -6.52073,-4.431831 0.25183,-0.656243 0.0944,-1.193169 -0.34992,-1.193169 -0.44427,0 -1.0506,0.632812 -1.3474,1.40625 -0.29679,0.773437 -1.37172,1.40625 -2.38872,1.40625 -2.57525,0 -3.16643,1.361535 -0.69791,1.607311 2.96452,0.295161 4.46135,0.723321 8.11316,2.320728 3.31376,1.449537 4.6875,1.381145 4.6875,-0.233367 z M 95.719856,41.519696 c -0.900553,-1.547441 -0.977522,-1.526188 -1.003847,0.277179 -0.03169,2.170177 1.158019,3.862301 1.658935,2.35954 0.176147,-0.528425 -0.11865,-1.714948 -0.655088,-2.636719 z M 179.25,43.875 C 178.375,43 177.875,43 177,43.875 176.125,44.75 176.375,45 178.125,45 c 1.75,0 2,-0.25 1.125,-1.125 z m -3.46875,-4.101781 c -2.41939,-1.828605 -5.67891,-2.633015 -7.63208,-1.883508 -1.86491,0.715631 -1.32391,1.402822 1.53833,1.954039 1.17079,0.225472 2.35287,0.634117 2.62685,0.9081 0.27398,0.273982 1.58799,0.484732 2.92003,0.468335 2.36392,-0.0291 2.377,-0.06372 0.54687,-1.446966 z M 85.021243,32.109375 c -0.235807,-0.902344 -0.42874,-0.164062 -0.42874,1.640625 0,1.804687 0.192933,2.542969 0.42874,1.640625 0.235807,-0.902344 0.235807,-2.378906 0,-3.28125 z M 159.375,35.625 c 1.2119,-0.783187 1.18715,-0.910773 -0.17904,-0.923144 -0.87192,-0.0079 -1.84603,0.407519 -2.16471,0.923144 -0.73329,1.186497 0.50778,1.186497 2.34375,0 z m -7.60938,-2.8125 c 0.88516,0 2.06801,0.458634 2.62856,1.019186 0.65789,0.65788 1.22249,0.690254 1.59265,0.09132 0.65216,-1.055233 -4.21826,-2.985508 -7.53297,-2.985508 -2.1039,0 -2.12945,0.07618 -0.56324,1.679688 0.90235,0.923827 1.78125,1.345702 1.95313,0.9375 0.17188,-0.408204 1.03672,-0.742188 1.92187,-0.742188 z M 96.890484,26.055947 c 0.850857,-0.85086 1.547016,-1.963871 1.547016,-2.473358 0,-0.509486 0.527344,-1.114676 1.171875,-1.344866 1.981345,-0.707621 0.284709,-1.572931 -1.942228,-0.990572 -1.466391,0.383469 -1.93906,1.038261 -1.575759,2.182916 0.375037,1.181626 -0.267713,1.96099 -2.317454,2.810021 -1.56004,0.646188 -2.836434,1.731499 -2.836434,2.411803 0,0.997553 0.42631,1.015744 2.202982,0.09399 1.211637,-0.628606 2.899137,-1.839079 3.750002,-2.689939 z m 18.715816,-10.95677 2.04995,-2.244573 -2.39078,1.526519 c -2.81929,1.800121 -6.51547,6.561643 -6.51547,8.393415 0,3.035696 1.49924,2.363707 3.08972,-1.384872 0.94415,-2.225254 2.63911,-5.055974 3.76658,-6.290489 z M 82.96875,20.625 c -2.577267,-1.107489 -4.057468,-1.107489 -2.34375,0 0.773437,0.499834 2.039062,0.885597 2.8125,0.857252 0.927239,-0.03398 0.767569,-0.325988 -0.46875,-0.857252 z m 19.45313,-7.327693 c 4.16365,-3.9856628 4.53197,-5.4335316 0.9051,-3.5580048 -1.43579,0.7424738 -4.196724,1.6475248 -6.135408,2.0112248 -2.157975,0.40484 -5.004751,2.041224 -7.341052,4.21979 -3.660057,3.412949 -3.725465,3.572304 -1.598967,3.895557 3.239032,0.492373 10.131872,-2.702763 14.170317,-6.568567 z m 20.96132,4.457928 c 3.44866,-1.936997 6.83969,-5.312259 6.89811,-6.86604 0.0172,-0.456255 -0.76611,0.184049 -1.74059,1.422897 -0.97448,1.238849 -3.71666,3.223776 -6.09375,4.41095 -2.37708,1.187173 -4.32197,2.339837 -4.32197,2.561477 0,0.885178 1.9898,0.306469 5.2582,-1.529284 z m 1.8098,-6.152107 c 0.84372,0.323766 1.22356,0.169187 0.89411,-0.363866 -0.88535,-1.4325311 -2.91005,-1.09886 -4.3317,0.713863 -1.16405,1.484295 -1.13147,1.518968 0.34203,0.363866 0.89577,-0.702216 2.28878,-1.023455 3.09556,-0.713863 z M 731.52539,377.53387 c -1.53101,-0.851 -1.83546,-1.51216 -1.17187,-2.5449 0.79285,-1.23394 1.00319,-1.23267 1.81963,0.0111 0.69338,1.05625 0.92672,1.09514 0.9375,0.15625 0.0162,-1.4124 2.02479,-1.08154 2.03939,0.33594 0.006,0.50273 0.44706,1.4414 0.98197,2.08593 1.29739,1.56327 -1.76758,1.53382 -4.60662,-0.0442 z"
     id="path65832"
     inkscape:connector-curvature="0" />
</svg>
