<?xml version="1.0" encoding="UTF-8" standalone="no"?>
<!-- Created with Inkscape (http://www.inkscape.org/) -->
<svg xmlns:inkscape="http://www.inkscape.org/namespaces/inkscape" xmlns:rdf="http://www.w3.org/1999/02/22-rdf-syntax-ns#" xmlns="http://www.w3.org/2000/svg" xmlns:cc="http://creativecommons.org/ns#" xmlns:dc="http://purl.org/dc/elements/1.1/" xmlns:svg="http://www.w3.org/2000/svg" xmlns:sodipodi="http://sodipodi.sourceforge.net/DTD/sodipodi-0.dtd" xmlns:ns1="http://sozi.baierouge.fr" xmlns:xlink="http://www.w3.org/1999/xlink" id="svg2" viewBox="0 0 186.93 272.81" version="1.1" inkscape:version="0.91 r13725">
  <title id="title4562">Rabbit</title>
  <defs id="defs4">
    <filter id="filter4416" color-interpolation-filters="sRGB">
      <feGaussianBlur id="feGaussianBlur4418" stdDeviation="1.83"/>
    </filter>
  </defs>
  <g id="g3400" transform="matrix(.49679 0 0 .49679 -1548.5 -843.61)">
    <g id="g3396" style="filter:url(#filter4416)" transform="translate(-100)">
      <path id="path3392" style="color:#000000;fill:#efeadf" d="m3221.5 1871.5 1.5-17.5 7-13.5 4.5-7.5 3.5-2.5 10 8 8 4 6-8 3.5-8.5 8-8.5 6.5-9.5 5-3.5 5.5 8.5 3.5 14 1 18.5 2 15-3 12-2 18-5.5 13 3.5 5.5 13.5-0.5 2.5-6.5-1-16 4.5-14 3-13.5 4-13.5 3.5-17 9.5-10 17-24.5 14.5-17.5 8-13 9.5-16 6-16 9-9.5 12-9.5 11 1.5 1.5 18.5 1.5 10.5v15.5l10.5-0.5 10.5 5 12 6 10 4.5 13.5-5 8-5.5 13-9 12.5-2.5 11.5 1 10.5 3.5 12.5 1.5 13.5-6 12-2 10-0.5 9 3 0.5 8-3 11-14 9-13.5 5.5-15 7.5-19.5-1-18 3.5-11.5 11-9.5 12.5-8 15-14.5 17-15.5 13.5-16.5 12-4 8 2 12.5 4.5 14.5 4.5 14.5 7 17.5 2 13.5-0.5 6.5 12 9 4.5 10v9.5l-5 12.5-3 9.5-9 8-8 7.5-3.5 10-3.5 8.5-4 8.5-2.5 9.5-3 9.5-8.5 1.5-8.5-2-4-9-4.5-8.5-2.5-7.5 3.5-9 6.5-6.5-3-3.5-9 7.5-9.5 4-12 6-9.5-0.5-11-2.5-4.5 2.5-5 7.5-9.5 2.5-8 6.5-7.5 3.5-8.5 2-1.5-7.5-6-5-5.5-5.5 2.5-8.5-11-5.5-11-2-9-8.5-6-6-5.5-8.5-0.5-8-5.5-9.5 1-14-2-12.5 1-10.5-0.5-8.5 3.5-13-1.5-6.5-7.5-6-6-13.5-6-9-5-9.5v-10.5z"/>
      <path id="path3394" style="color:#000000;fill:#db9e89" d="m3264.5 1853 2.5-7 1.5-4.5 2.5-4.5 3.5-1 2.5 2v5.5l1.5 8 2 6.5 0.5 5.5-1 6.5-1 8.5-1.5 6-0.5 6.5-0.5 6.5-2 6.5-4.5 1.5-3-9.5-1.5-8.5-3.5-9.5 1-8.5v-7z"/>
    </g>
    <g id="g3388">
      <path id="path3362" style="fill:#000000" d="m3400.3 2032c-3.7779 0-4.0931 1.1441-1.2812 4.7188 2.7467 3.4919 2.5608 4.3623-1.9688 9.8437-5.1311 6.2095-9.2127 13.993-12.5 23.844-2.3931 7.1719-2.5163 8.397-1.4687 13 1.5282 6.7143 3.4044 10.094 5.625 10.094 1.3439 0 1.8308-0.7762 1.8437-3 0.058-10.017 4.2279-20.71 8.3126-21.312 2.72-0.4012 2.7655 1.3726 0.1562 5.3125-3.7843 5.7142-1.8131 13.165 3.9688 15 4.7523 1.5083 1.3436 7.2717-13.25 22.5-19.056 19.885-17.719 18.187-17.719 22.844 0 8.8524 8.8088 6.1017 15.531-4.8438 3.6804-5.9923 14.106-16.338 15.563-15.438 0.799 0.4938 0.9488 3.5693 0.5 10.312-0.358 5.3785-0.2323 10.252 0.2812 11.031 0.9314 1.4131 5.3866 2.4714 17.125 4.0626 8.7785 1.1898 26.96 0.6925 29.75-0.8126 1.686-0.9093 2.25-2.1082 2.25-4.7812 0-3.1077-0.8947-4.4273-6.9375-10.219-3.8148-3.6561-8.8288-8.3399-11.156-10.406l-4.25-3.75 2.3126-2.4688c1.2607-1.342 3.237-2.5519 4.4062-2.7187 1.3189-0.1882 2.125-1.035 2.125-2.2187 0-2.7038-11.742-7.7815-16.25-7.0313-2.9403 0.4893-3.25 0.2807-3.25-1.9687 0-3.1324 1.4539-4.022 6.0625-3.75 6.0635 0.3576 7.8072-1.9444 9.0937-12.031 1.2604-9.8816 0.8738-12.143-2.7187-16.188-2.2911-2.5794-3.4735-2.9776-11.25-3.75-7.0223-0.6976-9.0352-1.2651-10.469-3-1.9144-2.3166-1.4759-5.796 0.9062-7.1875 0.753-0.4398 1.3607-2.2398 1.3438-4-0.053-5.3314-6.9574-11.688-12.688-11.688zm16.125 32.25c3.9633-0.2729 9.9231 6.0164 9.4063 11.156-0.3667 3.6476-1.1462 3.8477-6.8125 1.875-2.475-0.8615-5.1187-1.7327-5.875-1.9374-1.7209-0.466-0.7365-8.1537 1.3125-10.219 0.5432-0.5474 1.2348-0.8245 1.9687-0.875zm-0.062 35.719c0.7708-0.056 2.2347 0.3353 4.5 1.125 3.3722 1.1756 4.1619 3.8108 1.75 5.8124-0.7659 0.6356-1.903 2.4703-2.5626 4.0626-1.3459 3.2493-4.4788 5.2038-3.6562 2.2812 1.6857-5.99 1.7148-8.4504 0.1875-10.781-1.0524-1.6063-1.2098-2.4278-0.2187-2.5zm10.125 14.031c2.6568 0 12.365 13.367 10.531 14.5-2.2531 1.3925-14.512 1.3493-20.812-0.062l-2.3125-0.5 2.1875-3.7187c2.4048-4.1099 8.6166-10.219 10.406-10.219zm-2.7813 43.188c-1.3395-0.012-2.5215 0.2704-3.25 0.875-1.3159 1.0922-1.2541 1.506 0.5313 3.4063 2.5275 2.6905 2.5549 2.3521-0.5 9.0312-1.3982 3.0565-2.2681 5.9965-1.9376 6.5312 0.3306 0.5348 2.8331 0.9688 5.5626 0.9688 4.307 0 5.0855 0.3245 6.0624 2.4688 1.4519 3.1865-0.9039 9.7688-5.875 16.281-4.0343 5.2853-7.9672 13.244-8.875 18-0.8625 4.5183 0.8433 6.25 6.25 6.25 4.0359 0 4.5512 0.2864 5.8438 3.25 1.4163 3.2474 1.4192 3.2536-3.5625 7.75-3.5522 3.2063-4.9828 5.2273-4.9687 7.0625 0.023 2.9924 3.246 6.2724 7.5312 7.6563 3.1962 1.0322 11.428 0.5462 12.844-0.75 1.9539-1.789-3.0115-4.6528-8.4063-4.8438-2.9649-0.1049-5.7937-0.575-6.2813-1.0625-1.7978-1.7979 0.5991-3.0625 5.8126-3.0625 3.3392 0 5.5267-0.4551 5.7812-1.2188 0.2246-0.6737-0.4595-3.9362-1.5-7.25-1.5513-4.9402-1.6845-6.6896-0.7812-9.75 0.9023-3.0568 0.8061-4.1939-0.5-6.1874-1.9447-2.9682-4.5307-4.1072-5.5626-2.4376-0.4197 0.6799-0.5792 1.5564-0.3437 1.9376 0.5643 0.9129-2.1245 1.9062-5.1563 1.9062-3.4717 0-2.9871-1.8672 1.9063-7.5312 2.3677-2.7405 5.0168-6.5438 5.9063-8.4688 3.7201-8.0516 5.7812-14.29 5.7812-17.531 0-2.9339-0.5925-3.8062-3.9688-5.9376-4.2909-2.7087-4.3778-3.6233-0.7812-8.8124 1.7736-2.5591 1.8029-2.9769 0.375-5.1563-1.2962-1.9781-4.9906-3.3493-7.9375-3.375zm-43.3 19.9c-1.7088 0-1.5713 3.0294 0.25 5.4375 0.8094 1.0701 1.4688 4.0543 1.4688 6.6563 0 4.043 0.4271 5.0949 3.0625 7.3124 1.9852 1.6704 4.2827 2.5938 6.4687 2.5938 3.5663 0 5.4688 2.0275 5.4688 5.8438 0 1.5118-1.2719 2.3773-5.4375 3.6874-10.193 3.2063-12.459 9.091-5.0625 13.156 2.2 1.2092 5.35 2.1067 7 2 2.8061-0.1816 3.0139-0.4883 3.3125-4.6875l0.3125-4.4688-2.375 2.2188c-2.7533 2.5866-4.6083 2.7984-7.2812 0.8438-1.6183-1.1834-1.6987-1.631-0.5626-3 0.9707-1.1696 2.8885-1.5628 7.0313-1.4688 5.9081 0.1336 10.062-1.2827 10.062-3.4375 0-1.0155-2.5889-7.5471-9.6875-24.438-0.2919-0.6945 0-1.9248 0.6563-2.7188 1.9322-2.3281 0.3656-3.3155-4.375-2.7812-3.1146 0.3511-5.0912 0.015-6.7188-1.125-1.272-0.8909-2.8911-1.625-3.5938-1.625zm8.3438 8.5c0.3257-0.017 0.6654 0.092 1 0.3125 0.8484 0.5583 3.375 6.434 3.375 7.8437 0 0.1931-1.575 0.3438-3.5 0.3438-3.3092 0-3.5-0.1816-3.5-3.375 0-2.8831 1.2135-5.0493 2.625-5.125z"/>
      <path id="path3362-6" style="fill:#000000" d="m3317.1 1698.1c-1.3873 0.03-2.6209 0.8999-2.8437 2.375-1.1358 7.5175-3.2188 9.1405-3.2188 2.5 0-3.2928-0.3397-4-1.9375-4-1.0675 0-2.1568 0.3375-2.4063 0.75-0.2494 0.4125-0.1066 5.475 0.3126 11.25 0.4193 5.775 0.434 11.175 0.031 12-0.4027 0.825-0.5278 2.0625-0.2812 2.75s0.6347 1.25 0.875 1.25c0.2402 0 2.5583-3.2625 5.1562-7.25 7.9993-12.278 9.9398-18.123 6.8125-20.719-0.7667-0.6362-1.6676-0.9242-2.5-0.9062zm-15.281 4.1875c-0.2767 0.019-0.6143 0.1199-1.0312 0.25-1.2375 0.3862-2.5536 1.1697-2.9062 1.7187-0.3527 0.5491-0.625 5.4215-0.625 10.844-0.0001 10.196 0.1269 10.416 4.0312 7.0625 1.4363-1.2334 1.75-3.1813 1.75-10.906 0-7.5581-0.019-9.05-1.2188-8.9687zm20.313 9.6875c-1.2979 0-8.0938 12.673-8.0938 15.094 0 2.9736 1.7046 1.4227 4.5-4.0938 1.3541-2.6722 2.9082-5.1537 3.4688-5.5 1.2623-0.7803 1.3717-5.5 0.125-5.5zm-29.906 7.0625c-1.1439 0.2241-3.6831 4.7227-8.75 14.906-7.1751 14.421-15.446 26.42-34.656 50.406-3.137 3.9169-7.5932 9.825-9.9062 13.125-2.3129 3.3-5.673 7.7309-7.4688 9.8438-1.7959 2.1128-4.9236 7.0627-6.9687 11-2.045 3.9372-4.1493 7.7196-4.6875 8.4062-1.7613 2.2468-9.9239 22.642-10.906 27.25-0.5277 2.475-1.2909 7.2-1.6876 10.5-0.3966 3.3-1.3287 7.0811-2.0624 8.4062-0.8804 1.5903-1.1384 4.0967-0.75 7.375 0.329 2.7795 0.1185 5.84-0.4688 6.9376-0.6171 1.153-0.7722 3.9869-0.375 6.875 1.0418 7.5749 2.5 5.8091 2.5-3.0313 0-4.3642 0.497-9.2017 1.0938-10.75 0.5967-1.5483 1.8798-6.8625 2.875-11.812 0.9951-4.95 2.5147-11.523 3.375-14.625 1.9452-7.0147 14.397-32.647 19.125-39.375 1.9328-2.75 5.5309-8.0375 8-11.75 2.469-3.7125 4.8859-6.75 5.375-6.75 0.489 0 2.6467-2.7958 4.7812-6.2188 2.1346-3.4227 6.6875-9.3592 10.125-13.187 3.4375-3.8284 6.25-7.4012 6.25-7.9376s1.7272-3.2592 3.8438-6.0624c2.1163-2.8033 4.6484-6.672 5.625-8.5938 0.9764-1.9217 3.2022-5.525 4.9374-8 5.0792-7.245 11.594-20.739 11.594-24 0-2.0193-0.2133-3.0549-0.8125-2.9375zm30.156 3.4375c-0.1924 0.01-0.4683 0.183-0.8126 0.4688-0.8492 0.7047-1.5312 1.7405-1.5312 2.3124 0 0.5721-1.3511 3.1492-3 5.7188-2.2887 3.5667-5.8997 12.434-6 14.75-0.01 0.1375 0.6611 0.25 1.4688 0.25 0.8075 0 3.2141-2.3625 5.3437-5.25 3.2892-4.4598 3.9648-6.287 4.5625-12.156 0.4707-4.6214 0.5459-6.116-0.031-6.0938zm-0.9063 19.438c-0.8726 0.1635-3.0029 2.1676-5.625 5.4687-2.3635 2.9757-5.3329 5.9682-6.5625 6.6563-1.8831 1.0537-11.25 17.867-11.25 20.188 0 1.8937 3.9106 0.4283 6.6562-2.5 5.1068-5.4465 12.678-16.849 14.406-21.688 0.8988-2.5159 1.9884-5.35 2.4063-6.3125 0.5811-1.3388 0.4923-1.9106-0.031-1.8125zm156.09 0.25c-2.3348-0.01-3.9818 0.2269-4.875 0.6875-4.4153 2.2771-11.014 4.125-14.719 4.125-2.0984 0-4.0728 0.3859-4.375 0.875-0.3023 0.4891-1.7692 1.2221-3.25 1.5938-1.4807 0.3716-3.9126 1.6805-5.4063 2.9374-3.5407 2.9794-11.341 4.1253-15.406 2.25-13.627-6.2862-15.124-6.6339-23.656-5.5624-11.083 1.3915-12.666 2.2085-21.688 11.406-8.0453 8.2022-8.4963 8.4984-12.5 8.25-3.7257-0.2311-4.3047 0.058-5.6562 2.75-0.8284 1.65-2.5387 4.4625-3.8125 6.25l-2.3125 3.25h2.3438c1.4416 0 3.9003-1.5618 6.2812-4 3.3243-3.4044 4.5399-4 8.0938-4 3.8182 0 4.5722-0.4743 8.8124-5.4375 2.5503-2.9851 7.3646-7.2601 10.719-9.5 7.1452-4.7713 10.595-5.1076 19.469-1.9687 8.261 2.922 17.134 4.8499 22.312 4.875 4.9836 0.024 14.339-4.0752 16.563-7.25 2.4817-3.543 5.9222-0.4907 3.5937 3.1874-1.2759 2.0156-0.1822 4.0685 1.7813 3.375 2.9685-1.0485 5.1562-3.5266 5.1562-5.8437 0-3.8139 1.0278-5.2813 4.5312-6.4375 5.9725-1.9711 9.278 1.7321 6.375 7.1562-1.1421 2.1343-0.4761 6.8438 0.9688 6.8438 0.4659 0 1.7465-2.3625 2.8438-5.25 1.4349-3.7766 2.5473-5.25 3.9062-5.25 1.4926 0 1.9443 0.8396 2.1562 4 0.1475 2.2-0.091 6.025-0.5312 8.5-0.7315 4.1119-1.0272 4.4718-3.4375 4.1875-3.6896-0.4351-10.257 3.1628-15.781 8.6563-3.1102 3.0929-7.173 5.7068-12.125 7.8124-6.8066 2.8943-8.7348 3.2578-21.937 3.875-14.78 0.6912-15.801 0.9201-27.844 6.7813-4.5467 2.2129-16.673 16.545-24.812 29.344-7.2364 11.379-9.7551 14.343-22 25.875-15.562 14.656-16.644 15.448-24.312 17.938-3.025 0.9821-5.95 2.1257-6.5 2.5312-1.6254 1.1986-13.267 2.1926-24.188 2.0625-5.5948-0.067-10.39 0.2688-10.688 0.75-0.2974 0.4812 3.3641 1.441 8.1562 2.125 4.7922 0.6839 9.3938 1.387 10.219 1.5625 3.4266 0.7291 18.828 0.2228 23-0.75 8.0431-1.8753 17.382-7.3911 22.875-13.531 12.718-14.217 16.803-19.306 22.344-27.719 3.2603-4.95 6.7331-9.9 7.7187-11s2.4288-3.147 3.1875-4.5625c7.7877-14.53 16.713-23.295 25.875-25.406 5.734-1.3211 15.214-1.5459 19.531-0.4374 5.1307 1.3172 16.838-1.141 19.313-4.0626 0.9095-1.0739 3.9062-3.1144 6.6562-4.5312s7.0383-4.081 9.5312-5.9062c2.6102-1.9111 7.2758-3.9947 11-4.9376 6.7522-1.7093 8.9688-3.5102 8.9688-7.2812 0-1.2341 0.4891-3.5142 1.0938-5.0625 1.3057-3.3432 1.2925-13.174-0.031-16.656-0.8449-2.2222-1.7038-2.5417-8.5937-3.1874-1.8886-0.177-3.5366-0.2751-4.9376-0.2813zm-145.75 8.0313c-1.0462 0.194-2.1474 1.715-3.3437 4.5937-0.8415 2.0249-2.8436 5.3447-4.4687 7.375-1.6252 2.0302-2.9688 4.2029-2.9688 4.8125 0 1.8813 2.5487-0.2351 6.7188-5.5312 5.3455-6.7891 6.7197-9.4366 5.4687-10.688-0.4564-0.4563-0.9307-0.6507-1.4063-0.5624zm14.938 0.9062c-0.5346 0.1224-1.1554 0.8864-1.9063 2.25-0.7175 1.303-2.3027 4.1412-3.5 6.3125s-2.8848 4.532-3.75 5.25c-0.8652 0.7181-1.5625 1.8783-1.5625 2.5937 0 0.7156-1.1699 2.7141-2.5938 4.4063-1.6556 1.9677-2.1123 3.0625-1.25 3.0625 0.7417 0 1.9381-0.9 2.625-2 0.687-1.1 1.8822-2 2.6563-2 1.4737 0 5.7453-5.0456 9.3125-11 1.3648-2.2782 1.9097-4.46 1.5625-6.25-0.3682-1.8986-0.9064-2.7824-1.5937-2.625zm-24.25 0.25c-0.6267 0.027-1.4177 0.5181-2 1.2812-3.0665 4.0179-11.206 19.014-11.844 21.844-0.66 2.9294-0.577 2.8941 3.375-1.5 2.226-2.475 5.0073-6.3 6.1562-8.5 1.1488-2.2 2.6569-4.675 3.375-5.5 1.9464-2.2361 2.8111-6.6705 1.4688-7.5-0.1578-0.098-0.3224-0.1342-0.5312-0.125zm18.719 0.625c-1.7619 0-9.5912 8.702-10.406 11.562-0.305 1.0711-0.885 2.725-1.2812 3.6875-1.5248 3.7037 1.5771 1.4892 6.9375-4.9688 5.0138-6.0403 6.965-10.281 4.75-10.281zm12.719 7.4688c-0.6117 0.055-2.7655 2.322-5 5.2812-2.3834 3.1565-5.5961 7.2247-7.125 9.0312-5.2134 6.161-2.9118 7.0982 3.8438 1.5626 5.4412-4.4586 8.0159-3.4584 3.8438 1.5-3.099 3.6829-1.8617 4.022 4.1874 1.0937 5.0553-2.4472 10.344-9.1612 10.344-13.125 0-3.637-3.2016-3.8481-4.8125-0.3125-1.5901 3.4897-2.9758 3.1271-3.75-1-0.3623-1.9311-1.0121-3.7371-1.4375-4-0.027-0.016-0.053-0.035-0.094-0.031zm-167.28 41.562c-1.8966 0.052-4.7345 2.2144-9 6.7188-9.4464 9.9755-16.357 19.479-18.656 25.625-3.1145 8.3241-3.5736 8.3771-11.219 1.0625-5.9339-5.6777-9.75-7.9356-9.75-5.7187 0 0.4023 3.6184 4.2132 8.0312 8.4687l8 7.75-1 10.781c-1.3119 13.831-1.309 24.102 0.031 31.719 1.4593 8.2937 4.8102 20.533 6.4375 23.562 0.7385 1.375 2.2596 4.4125 3.375 6.75h-0.031c1.1154 2.3375 2.5127 4.25 3.0937 4.25 1.6134 0 1.27-2.1606-0.9375-5.7812-1.098-1.8008-2.01-3.8259-2-4.5 0.014-1.2179-2.6402-10.648-5.7188-20.219-3.1543-9.8061-2.6587-38.137 0.7813-44.688 0.4863-0.926 1.8153-4.526 2.9687-8 2.6012-7.8343 6.9015-14.357 15.125-23 3.4975-3.6757 6.8669-7.5007 7.5-8.5 1.2765-2.0149 1.1848-2.1449 3.125 5.1875 0.5823 2.2 2.2513 7.375 3.7188 11.5 4.8345 13.589 6.2566 39.016 2.8438 51-2.0335 7.14-5.2895 27.295-5.3126 32.812l-0.031 4.2813 8.75-0.7813c4.8125-0.4393 12.912-0.7687 18-0.7187 5.0875 0.05 9.25-0.2075 9.25-0.5626 0-1.1387-14.224-2.9372-22.875-2.9062-4.6085 0.016-8.7641-0.3579-9.2188-0.8125-1.0649-1.065 1.687-17.886 3.5626-21.812 4.3743-9.1558 4.3535-44.632-0.031-56.281-1.3357-3.5487-2.4547-7.6467-2.4687-9.0938-0.03-2.9755-3.0691-14.971-4.2813-16.875-0.5231-0.8218-1.2004-1.2422-2.0625-1.2188zm-54.7 26.9c-0.5032 0-1.1679 0.7875-1.5 1.75-0.3322 0.9625-2.1708 5.35-4.0626 9.75-5.1934 12.079-7.2229 20.763-7.25 30.844-0.023 8.7267 2.2726 19.169 5.625 25.594 0.7385 1.415 1.3438 3.1907 1.3438 3.9687 0.01 1.6495 6.6579 14.031 10.906 20.281 1.6124 2.3723 4.7888 6.0758 7.0313 8.25 2.2424 2.1741 4.0625 4.5482 4.0625 5.25s-1.0865 4.5322-2.4062 8.5313c-2.2992 6.9669-2.3559 7.992-1.6563 24.281 0.5241 12.201 1.1985 18.085 2.375 20.812 0.9015 2.09 2.3497 7.265 3.2187 11.5 1.905 9.2819 8.366 22.737 14.219 29.594 2.3385 2.7397 4.25 5.3241 4.25 5.75 0 2.1997-7.5436 2.9357-16.5 1.625-3.051-0.4465-2.8198 1.617 0.2812 2.5313 1.5022 0.4428 7.3313 0.837 12.969 0.875 5.6375 0.038 10.25 0.4563 10.25 0.9375 0 1.2526-3.1118 4.0755-6.7812 6.1562-4.9967 2.8334-12.088 4.6861-20.531 5.375-10.77 0.879-7.5057 2.3646 3.7813 1.7188 10.205-0.5838 19.607-3.7142 25.75-8.5625 3.0987-2.4456 4.2946-2.7986 7.2187-2.25l3.5 0.6563-3.0625 6.125c-1.6819 3.3802-4.8216 7.8447-6.9688 9.9062-2.1471 2.0614-3.9062 4.2215-3.9062 4.8125 0 0.5909 1.206 0.1341 2.6875-1.0313 4.3986-3.4599 8.8616-9.214 11.094-14.281 1.7102-3.8821 2.5671-4.75 4.6563-4.75 2.4281 0 2.5625 0.2751 2.5625 5.4375 0 7.0907 1.354 10.562 4.0938 10.562 1.6565 0 1.9412-0.3902 1.3437-1.75-1.3616-3.0994-1.6116-8.6741-0.5313-11.5 0.794-2.0766 1.7173-2.7642 3.8126-2.7812 6.3685-0.05 17.448-7.1935 19.844-12.813 1.1254-2.6397 1.2-4.2556 0.3437-7.6562-0.9757-3.8751-0.8566-4.6412 1.1876-7.4062 1.2512-1.6925 1.9422-3.4014 1.5312-3.8126-0.4111-0.4109-1.5923 0.3521-2.625 1.7188-2.1557 2.8532-2.7999 2.434-5.5-3.8125l-1.875-4.3125 2.9375-2.4062c1.6127-1.3146 5.5168-3.4299 8.6875-4.7188 5.4013-2.1956 15.425-9.4191 14.438-10.406-0.2455-0.2457-2.1525 0.6915-4.2187 2.0937s-4.205 2.5625-4.75 2.5625c-0.5451 0-3.0531 1.4609-5.5938 3.25-2.5407 1.7892-5.75 3.7243-7.125 4.3125-12.087 5.1709-16.612 8.1038-19.5 12.625-1.65 2.5826-3.5705 4.72-4.25 4.75-1.7098 0.075 1.9421-9.1734 5.8438-14.812 1.659-2.398 2.8132-4.5618 2.5624-4.8125-0.7454-0.7455-5.255 5.7377-8.625 12.406-1.7292 3.422-3.5328 6.4731-4.0312 6.7812-1.8565 1.1473-4.0905-4.5162-5.2812-13.406-1.4073-10.506-3.3821-11.908-2.9376-2.0938 0.364 8.0341 2.7099 15.696 5.8126 19.031 1.9061 2.0492 2.2341 3.2039 1.75 6.1876-0.7405 4.5631 0.085 6.9392 2.125 6.1562 0.9395-0.3606 1.5312-1.8305 1.5312-3.7812 0-1.7561 0.4821-3.6696 1.0625-4.25 0.5804-0.5805 1.8179-2.5408 2.75-4.375 2.085-4.1032 4.1875-5.0293 4.1875-1.8126 0 3.9846-4.9419 16.243-7.2812 18.063-3.5648 2.772-5.5107 2.6687-14.719-0.7813-11.904-4.4599-20.758-13.818-27.531-29.125-2.4619-5.5636-3.6688-10.901-5.4688-24.312-0.6274-4.675-1.49-10.563-1.9062-13.094-1.4987-9.1099 1.3938-22.976 7.4687-35.812 2.4483-5.1734 4.2589-9.6162 4-9.875-0.2588-0.2589 0.2189-1.8062 1.0625-3.4376 0.8437-1.6314 1.2249-3.2438 0.875-3.5937-0.8978-0.8979-6.5046 5.6733-8.1562 9.5625-0.7591 1.7875-1.7302 3.25-2.1876 3.25-1.2075 0-3.371-2.6003-8.5624-10.375-7.4851-11.209-12.272-21.462-15.188-32.531-2.4283-9.2214-2.6094-10.874-1.5312-14.5 0.6693-2.2509 1.6396-8.1681 2.125-13.156 0.487-5.0056 2.1816-13.034 3.7812-17.906 2.7317-8.321 3.1276-13.531 1.0626-13.531zm38.687 12.281c-0.215 0.016-0.764 0.8752-1.6562 2.7188-1.1978 2.475-3.2899 6.6881-4.6562 9.375-2.4221 4.7628-2.4658 5.2885-1.9376 21 0.6513 19.37 2.6409 29.881 6.4376 33.844 4.8525 5.0648 7.7222 2.98 3.8124-2.7813-3.039-4.4783-3.1718-6.7993-0.5312-10.156 2.1569-2.742 2.4563-8.3757 1.0938-21.281-0.7982-7.5601-1.7185-5.5744-2.4376 5.3438-0.2478 3.7632-0.8837 7.2587-1.4062 7.7812-2.2064 2.2064-3.3902-2.3168-3.9375-14.812-0.5331-12.172-0.4293-13.188 2.1563-20.312 2.4297-6.6956 3.5355-10.753 3.0624-10.719zm159.03 40.031c-1.4604 0.4845-2.7157 12.568-1.5313 14.781 0.5257 0.9821 0.9688 3.0216 0.9688 4.5312s0.432 4.1235 0.9688 5.8125c4.3464 13.679 7.4765 22.432 8.7187 24.406 0.8084 1.2851 2.3075 4.6601 3.3125 7.5 1.005 2.8398 2.523 6.9562 3.375 9.1562 2.0415 5.2727 2.0702 11.93 0.062 13.938-1.6226 1.6251-6.557 2.0864-16.406 1.5937-3.8464-0.1924-7.0258-1.1345-10.719-3.2187-2.8878-1.6297-5.7402-2.6543-6.3437-2.2813-0.6036 0.373-1.7253-0.1708-2.4688-1.1874-0.7434-1.0167-1.6617-1.526-2.0625-1.125-1.0733 1.0732 6.4004 7.6166 11.25 9.8437 3.1233 1.4343 6.4448 1.9275 13 1.9375 8.7318 0.012 16.334 1.4601 21.844 4.125 2.0851 1.0085 3.4959 3.0046 5.2188 7.375 3.1919 8.0964 2.7721 15.797-1.125 20.906-1.5104 1.9802-3.2348 5.0578-3.8438 6.8438-1.3774 4.0406-3.2278 6.4895-11.344 14.938-4.0933 4.2607-6.4275 7.5313-6.4375 9-0.01 1.2688-1.1159 4.5625-2.4688 7.3125-1.3527 2.75-2.483 5.5625-2.5 6.25s0.6357 1.25 1.4688 1.25c2.0574 0 5.1095-5.2557 6.5625-11.312 1.0313-4.2988 2.3606-6.1306 9.5625-13.125 5.6439-5.4811 8.375-8.8736 8.375-10.406 0-3.0316 2.7535-8.1587 5.5312-10.344 1.2364-0.9725 2.5362-3.2333 2.9063-5.0313 3.2234-15.659 0.1226-24.407-10.656-29.906-2.1109-1.0769-3.5886-2.3896-3.25-2.9375 0.3387-0.5479 0.1069-5.028-0.5312-9.9375-0.8845-6.8058-2.0781-10.818-5.0625-16.906-2.1529-4.3923-4.9039-10.601-6.0937-13.781-1.19-3.1803-2.7036-6.3284-3.375-7-1.687-1.6868-2.7335-11.224-1.9376-17.594 0.5367-4.2944 0.2302-6.2829-1.625-10.531-1.2561-2.877-2.7637-5.0674-3.3437-4.875zm-102.5 62.688c-0.5568 0-1.2957 1.063-1.625 2.375-0.4231 1.6858-1.1289 2.2715-2.4063 1.9375-2.3987-0.6272-3.4076 1.1302-1.5312 2.6875 0.8189 0.6797 1.5 2.0924 1.5 3.125 0 3.2114 1.717 2.0599 4-2.6562 2.1164-4.3708 2.1547-7.4688 0.062-7.4688zm4.5313 8.375c-0.9038-0.022-2.1517 1.5749-3.4063 4.5938-1.1504 2.7687-1.6894 5.0312-1.2187 5.0312 1.5007 0 6.153-6.2188 5.8437-7.8125-0.236-1.216-0.6765-1.7994-1.2187-1.8125zm2.4062 6.1562c-1.1034 0.056-7 8.2523-7 9.8126 0 1.4714 2.6696 0.5178 5.25-1.875 2.6646-2.4707 3.669-6.7782 1.8438-7.9063-0.025-0.016-0.058-0.033-0.094-0.031zm-55.281 6.625c-0.3126 0.01-0.7202 0.4908-1.375 1.3438-1.2257 1.5966-1.4345 4.0171-1.0626 12 0.2563 5.5 0.7857 10.788 1.1876 11.75 0.4017 0.9625 0.8798 1.75 1.0624 1.75 0.1828 0 2.3499-1.6875 4.7813-3.75 2.4313-2.0625 5.2153-4.2137 6.1875-4.7812 3.0939-1.8058 1.1438-6.6747-3.9688-9.9063-2.7374-1.7304-4.8372-3.9497-5.5312-5.9063-0.6114-1.7237-0.8794-2.5091-1.2812-2.5zm59.875 0.8126c-0.6868 0.1027-2.0775 1.0523-4.0938 3.0312-2.475 2.429-4.5 4.7832-4.5 5.2188 0 1.793 2.4614 0.5731 5.625-2.7813 3.2779-3.4756 4.1134-5.6399 2.9688-5.4687zm-56.781 8.6562c0.6043 0.055 1.4334 0.5387 2.9375 1.5 1.7875 1.1423 3.25 2.4552 3.25 2.9062 0 0.4512-1.5226 1.7302-3.375 2.875-1.8525 1.145-3.5566 2.0938-3.8125 2.0938-2.0791 0-2.4727-5.7293-0.5625-8.2812 0.5785-0.7729 0.9582-1.1485 1.5625-1.0938zm58.062 0.375c-1.7058 0-4.875 3.0425-4.875 4.6875 0 1.065 0.4432 1.1289 1.9688 0.3125 2.5156-1.3463 4.6464-5 2.9062-5zm1.6562 7.5c-0.8198-0.076-2.0615 0.5692-3.9374 2-1.9716 1.5037-3.5938 2.9153-3.5938 3.125 0 0.9874 2.8142 0.1785 5.875-1.6875 2.3606-1.4393 3.0757-2.3931 2.3438-3.125-0.183-0.183-0.4143-0.2871-0.6876-0.3125zm109.38 1.5312c-0.4214 0.0006-1.0326 0.1874-1.8437 0.5626-3.002 1.3886-16.062 14.42-16.062 16.031 0 0.7825-0.6548 1.6877-1.4688 2-0.8137 0.3123-2.454 2.1364-3.625 4.0312-2.2347 3.6158-12.637 12.312-19.375 16.219-2.1777 1.2627-7.0771 2.8954-10.906 3.625-6.6674 1.2705-7.2526 1.2132-14.031-1.2188-3.8932-1.3966-7.2526-2.9191-7.4376-3.4062-0.933-2.4582-9.0042-9.8211-11.406-10.406-3.1506-0.7677-3.2849-0.408-1.3125 3.4062 1.6181 3.129 8.3106 8.125 10.875 8.125 0.9329 0 1.6875 0.6529 1.6875 1.4688 0 2.4789 9.6638 6.7304 15.219 6.6874 5.4992-0.042 7.3403 1.9124 4.1562 4.4063-2.6204 2.0525-13.084 7.3198-17.875 9-5.8382 2.0476-17.1 1.8203-23.844-0.5-6.8469-2.3557-7.9513-3.1079-16.25-11-3.5821-3.4066-7.0602-6.0005-7.7187-5.7813-3.0854 1.0273-1.403 3.9058 5.75 9.875 4.1569 3.4691 7.5625 6.7503 7.5625 7.3126-0.01 2.1986-4.1542 7.6437-7.25 9.5312-3.5042 2.1366-6.75 2.6209-6.75 1 0-0.55-0.675-1-1.5-1s-1.5 0.7102-1.5 1.5625c0 4.0989-5.8131 10.498-6.8125 7.5-0.7017-2.1051-3.1875-1.0611-3.1875 1.3437 0 5.1701 0.7961 5.7397 5.125 3.5313 2.1686-1.1063 5.5635-3.7908 7.5312-5.9687 1.9677-2.178 4.3203-3.9761 5.2188-4 2.8982-0.077 9.5987-4.5388 10.938-7.2813 2.1753-4.4559 4.2788-4.9086 9.625-2.0625 5.4867 2.9208 13.989 3.4301 17.75 1.0625 1.2781-0.8046 4.3994-1.7632 6.9687-2.125 5.1223-0.7214 14.403-6.2293 19.281-11.438 3.7114-3.9625 5.0726-4.0121 3.0625-0.125-0.8533 1.65-1.9581 3-2.4688 3-1.7695 0-8.0312 9.2769-8.0312 11.906 0 1.4457 1.3177 4.2538 2.9375 6.2188 2.1009 2.5488 3.1497 5.113 3.625 8.9688 0.3857 3.1296 1.6921 6.9155 3.0937 9 2.3277 3.4613 2.59 3.5758 7.2813 3.125 3.4369-0.3303 5.545 0.018 7.125 1.125 1.5353 1.0753 2.7994 1.2819 3.9687 0.6562 2.8067-1.5022 7.9688-7.9262 7.9688-9.9062 0-1.0137 0.675-3.4631 1.5-5.4376 1.6272-3.8943 1.9992-10.232 0.6562-11.062-0.4593-0.2841-1.562 1.036-2.4687 2.9374-0.9068 1.9015-2.1402 3.4688-2.7187 3.4688s-1.9079-2.025-2.9688-4.5-2.4846-4.5-3.1562-4.5c-2.0988 0-5.8438 4.2516-5.8438 6.625 0 1.2467-0.45 2.5351-1 2.875s-1 3.52-1 7.0625c0 5.4702-0.2638 6.4475-1.75 6.4375-3.0606-0.012-6.25-6.0296-6.25-11.781 0-4.1917-0.3744-5.3466-2.0625-6.25-1.7877-0.9568-1.9992-1.6849-1.4063-5.2813 0.3786-2.296 1.1775-4.785 1.7813-5.5313 0.6039-0.7461 1.5847-2.1693 2.1563-3.1562 3.9858-6.883 10.344-14.864 13.406-16.812 1.9966-1.2706 6.6847-5.3206 10.438-9 5.8899-5.7749 9.3742-9.9125 18.469-22 0.9517-1.2648 3.0081-3.8651 4.5938-5.7813 2.2934-2.7715 2.7956-4.3766 1.5312-4.375zm-110.9 14c-0.825 0-2.4363 0.5508-3.5938 1.2187-3.1715 1.8307-10.406 8.0437-10.406 8.9376 0 1.492 1.3187 0.7536 6.4062-3.5626 2.8094-2.3833 5.9938-4.8438 7.0938-5.4687 1.383-0.7856 1.5372-1.125 0.5-1.125zm-26.6 9.9c1.8542 0 2.5175 0.6814 3 3.0938 0.3399 1.6994 1.5711 5.1869 2.75 7.75s2.1238 6.4562 2.0938 8.6562c-0.047 3.4439-0.6452 4.5236-4.375 7.75-2.3828 2.061-4.6813 3.75-5.0938 3.75-1.0446 0-0.9288-1.7973 0.25-4 0.5463-1.0208 1.055-4.4506 1.125-7.6562 0.097-4.4478-0.4439-6.7912-2.2188-9.8438-1.279-2.2-2.7167-4.2774-3.2187-4.625-1.4483-1.0028 3.0653-4.875 5.6875-4.875zm-6 12c0.8441 0.03 1.625 0.927 1.625 2.5 0 1.51-0.5671 2.5-1.4375 2.5-1.8933 0-2.7276-1.4282-1.9687-3.4062 0.4257-1.1095 1.1247-1.6167 1.7812-1.5938zm-24.625 6.2812c-0.7361 0.1323-0.8112 1.5292-0.3125 4.1876 0.4968 2.6483 1.142 3.5312 2.625 3.5312 3.2007 0 3.4965-2.8787 0.5937-5.7812-1.3821-1.3822-2.3337-2.0404-2.9062-1.9376zm24.438 2.7188c1.0676-0.108 1.8125 0.9486 1.8125 3 0 2.3488-0.4408 3-2.0312 3-2.5175 0-3.622-2.5081-1.9688-4.5 0.777-0.9363 1.5469-1.4352 2.1875-1.5zm-3.5313 7.4062c1.2627 0.072 2.5442 1.6633 2.0313 3-0.8671 2.2597-3.6875 1.9961-3.6875-0.3437 0-1.0675 0.3738-2.1663 0.8125-2.4375 0.2672-0.1651 0.5524-0.2354 0.8437-0.2188zm2.2813 14.469c-0.178 0.03-0.3928 0.3214-0.6563 0.7812-2.1712 3.7897-2.6127 12.438-0.8437 16.594 1.1253 2.6434 2.2008 3.75 3.6875 3.75 1.8473 0 1.9522-0.213 0.75-1.6562-0.8581-1.0304-1.5624-5.2463-1.875-11.25-0.3216-6.1761-0.5285-8.31-1.0625-8.2188zm108 6.3c0.5689-0.094 1.508 0.9445 2.875 3.0938 1.1368 1.7875 2.8111 4.2654 3.7188 5.5 1.5321 2.0822 1.5226 2.4261 0 4.75-3.4247 5.2267-5.9237 2.626-7-7.25-0.433-3.9722-0.3253-5.9722 0.4062-6.0938z"/>
    </g>
  </g>
  <metadata>
    <rdf:RDF>
      <cc:Work>
        <dc:format>image/svg+xml</dc:format>
        <dc:type rdf:resource="http://purl.org/dc/dcmitype/StillImage"/>
        <cc:license rdf:resource="http://creativecommons.org/licenses/publicdomain/"/>
        <dc:publisher>
          <cc:Agent rdf:about="http://openclipart.org/">
            <dc:title>Openclipart</dc:title>
          </cc:Agent>
        </dc:publisher>
        <dc:title>Rabbit</dc:title>
        <dc:date>2012-05-06T00:54:32</dc:date>
        <dc:description>[Creator]&#13;\nUtagawa Yoshitora / Woodblock printing in Japan (1857)&#13;\n[26 Free Vector Animal Graphics]&#13;\nhttp://fav.me/d4xjjxc</dc:description>
        <dc:source>https://openclipart.org/detail/169871/rabbit-by-hansendo</dc:source>
        <dc:creator>
          <cc:Agent>
            <dc:title>hansendo</dc:title>
          </cc:Agent>
        </dc:creator>
        <dc:subject>
          <rdf:Bag>
            <rdf:li>animal</rdf:li>
            <rdf:li>artwork</rdf:li>
            <rdf:li>line art</rdf:li>
            <rdf:li>rabbit</rdf:li>
            <rdf:li>woodcut</rdf:li>
          </rdf:Bag>
        </dc:subject>
      </cc:Work>
      <cc:License rdf:about="http://creativecommons.org/licenses/publicdomain/">
        <cc:permits rdf:resource="http://creativecommons.org/ns#Reproduction"/>
        <cc:permits rdf:resource="http://creativecommons.org/ns#Distribution"/>
        <cc:permits rdf:resource="http://creativecommons.org/ns#DerivativeWorks"/>
      </cc:License>
    </rdf:RDF>
  </metadata>
</svg>
