<?xml version="1.0" encoding="UTF-8" standalone="no"?>
<!-- Created with Inkscape (http://www.inkscape.org/) -->
<svg xmlns:inkscape="http://www.inkscape.org/namespaces/inkscape" xmlns:rdf="http://www.w3.org/1999/02/22-rdf-syntax-ns#" xmlns="http://www.w3.org/2000/svg" xmlns:cc="http://creativecommons.org/ns#" xmlns:dc="http://purl.org/dc/elements/1.1/" xmlns:svg="http://www.w3.org/2000/svg" xmlns:sodipodi="http://sodipodi.sourceforge.net/DTD/sodipodi-0.dtd" xmlns:ns1="http://sozi.baierouge.fr" xmlns:xlink="http://www.w3.org/1999/xlink" id="svg2" viewBox="0 0 226.56 316.46" version="1.1" inkscape:version="0.91 r13725">
  <title id="title5274">Mujina(Japanese badger)</title>
  <defs id="defs4">
    <filter id="filter4572" color-interpolation-filters="sRGB">
      <feGaussianBlur id="feGaussianBlur4574" stdDeviation="2.3"/>
    </filter>
  </defs>
  <g id="g3386" transform="matrix(.49679 0 0 .49679 -1108.6 -1733.1)">
    <path id="path3384" style="color:#000000;filter:url(#filter4572);fill:#9c8776" d="m2306 3667 11-16 5-6 12 11 8-3 9 5 9 15 4 12 16 8 12 11 2 14 3 14 5 15 1 14 1 11 5 14 16 9 41 1 46-3 105 32 28 34 11 19 10 42 16 51-18 39-20 26-32 15-1 22-15 13-28 18-17 3-2-10 4-14-9-8-22-2-14 27-19 8-22 12-14-8-6-5v-14l3-13 49-44 75-35-5-10h-33l-11 11-7 5-10 8h-15-14l2-12 1-10 4-10-26 2-12-7-8 2-11 20-11 22-9 24-4 19-18 13-22 7-12 9-7-6-1-9h-7l-10-1-4-5 3-11 5-14 11-10 19-3 12-9 5-11 8-8 2-19 5-22-5-12-44-7-40-16-14 5-11 1h-9l-4 2h-10l-8-9 1-10 15-17 15-8 12-4 3-23 1-25 2-33 9-31-13-32-9-13h-10l-14-1-15-4-5-5-4-5 2-6 1-8 9-11 12-4 16-3 8-2 4-8 12-8z"/>
    <g id="g3380">
      <path id="path3353" style="fill:#000000" d="m2520.6 3488.5-0.031 2.6875c-0.024 2.0128 1.2342 3.7838 4.9688 7 6.5652 5.6539 6.8027 8.9442 1 13.812-2.2 1.8458-4 3.8605-4 4.4688 0 0.6082 1.5392 3.5221 3.4375 6.4687 1.8984 2.9465 3.7523 6.6013 4.0937 8.1563 0.5099 2.3211 1.2621 2.9567 4.2813 3.4374 6.6058 1.0518 6.3316 0.019 6.5625 22.969 0.1163 11.553 0.5792 21.612 1.0312 22.344 0.6152 0.9951 1.1179 1.0403 1.9688 0.1874 0.7367-0.7382 1.0643-5.0008 0.9375-12.094l-0.2187-10.938h2.9687c3.9355 0 3.7112-1.6034-0.5625-4.125-1.925-1.1358-3.5-2.3308-3.5-2.6562 0-0.7567 4.8285-16.763 6.25-20.719 1.5301-4.2581 2.171-14.5 0.9062-14.5-0.5643 0-0.9987 1.7752-0.9687 3.9375 0.058 4.18-3.2569 10.062-5.6563 10.062-1.5893 0-2.7997-2.7536-1.875-4.25 0.3626-0.5867 0.6023-2.59 0.5313-4.4688-0.091-2.4218 0.6087-4.1399 2.375-5.9062 2.2624-2.2624 2.5024-4.375 0.5313-4.375-0.4256 0-2.2613 1.876-4.0938 4.1562-2.7527 3.4253-3.3353 5.0334-3.4062 9.25-0.074 4.4089-0.3662 5.0938-2.0938 5.0938-1.8976 0-2.0083-0.696-2.125-13.812-0.1173-13.18-0.012-13.968 2.25-16.656 4.4253-5.2592 2.4097-7.8739-4.25-5.5-5.5779 1.9884-6.9517 1.7993-9.25-1.2812l-2.0625-2.75zm-37.938 25.5c-4.2267 0-4.7957 1.6921-1.6562 4.9688 3.4771 3.6293 3.1781 7.4035-0.625 7.8437-1.8555 0.2147-3.1317-0.3722-4.25-1.9687-1.5716-2.2436-1.6526-2.2551-4.8438-0.5313-3.02 1.6312-8.2225 10.075-11.531 18.719-1.9853 5.1866-5.3195 19.997-4.7188 20.969 2.1669 3.5062 11.204-1.3289 15.219-8.125 2.6877-4.5499 5.2812-3.2913 5.2812 2.5625 0 3.0159-2.3191 5.8354-12 14.562-7.576 6.8298-8.1512 7.1568-9.8438 5.625-2.0242-1.8319-4.1562-2.1544-4.1562-0.625 0 1.744 4.4318 9.9064 5.6562 10.406 0.6422 0.2621 2.5597-0.8533 4.25-2.4687s3.5552-2.9375 4.1563-2.9375c0.6012 0 3.841 2.9389 7.1875 6.5312 4.0543 4.3522 6.4277 6.1973 7.0938 5.5313 1.1046-1.1047 1.429-9.1033 0.6562-16.031-0.4955-4.4412-0.4704-4.4962 4-6.875 10.559-5.619 16.184-9.5416 21.219-14.781l5.375-5.5625 4.375 3.3437c6.1586 4.6974 6.1815 4.7036-3.9688 9.3438-7.1944 3.2889-13.929 8.856-17.844 14.75-2.5843 3.8909-3.1562 5.7146-3.1562 10.281 0 3.0588 0.6811 6.8538 1.5 8.4376 3.3769 6.5301 9.5 4.1354 9.5-3.7188 0-4.3067 2.914-10.25 5.0312-10.25 0.4965 0 2.944-1.4299 5.4376-3.1875 3.3252-2.3438 4.8411-2.9088 5.6562-2.0937 1.6106 1.6105-1.1336 5.2247-6.3438 8.3437-3.2714 1.9584-4.3375 3.2483-4.5624 5.5-0.6494 6.4952 5.6406 9.0257 19.531 7.875 6.6475-0.5507 8.25-0.415 8.25 0.6875-0.01 2.0176-3.7722 7.8369-5.5 8.5-1.5 0.5756-2.1555 4.399-0.75 4.375 0.4125-0.01 3.4163-1.3569 6.6562-3 6.7225-3.409 8.2708-3.6119 11.375-1.4375 3.6916 2.5857 2.7976 5.126-2.8124 7.9687-7.5068 3.804-11.555 11.849-7.2188 14.375 4.9882 2.9055 9.0091 0.3225 13.094-8.4062 1.7766-3.7966 3.6824-6.5 4.5624-6.5 0.8306 0 2.7765 1.575 4.3126 3.5 3.1443 3.9409 5.2812 4.5329 5.2812 1.4375 0-2.044-1.6925-4.0073-9.5312-10.938-5.5092-4.8706-7.4844-5.9277-11.156-5.9688-4.0498-0.045-4.8335-1.3202-2.75-4.5 1.5545-2.3725 1.5323-2.5442-0.2187-3.0937-1.0221-0.3208-2.6388-0.9901-3.5938-1.5-0.9551-0.5098-3.0131-0.9375-4.5938-0.9375-5.9522 0-12.354-1.3298-12.875-2.6875-0.2961-0.7715 0.906-3.1971 2.6563-5.375 1.7502-2.178 3.6591-5.3364 4.25-7.0313 0.925-2.6536 0.7699-3.3862-1.0625-5.2187-2.0849-2.0849-2.2693-2.093-9.375-0.5625-3.9887 0.8591-8.0754 1.9328-9.0938 2.375-3.2147 1.3961-1.5539-2.4653 2.4688-5.7188 5.2893-4.2776 10.847-4.7881 15.281-1.4062 5.9802 4.5612 12.602 2.8208 11.156-2.9375-1.0526-4.1942-9.064-11.914-15.562-15-3.2721-1.554-6.1425-3.3315-6.375-3.9375-0.2326-0.606 0.4839-3.6636 1.5625-6.7812 1.6941-4.8964 1.7637-6.0307 0.625-8.4063-1.0182-2.1245-2.2679-2.9376-5.5625-3.5-5.2737-0.9003-6.1575-1.3879-7.2812-4.3437-0.644-1.6941-1.9509-2.5445-4.6876-3-5.7537-0.9578-6.2812-1.2479-6.2812-3.4063 0-2.4114-2.7981-4.0625-6.875-4.0625zm9.9688 10c1.7264 0 2.2568 3.2126 0.875 5.375-4.3535 6.8125-6.9215 12.537-6.9376 15.406-0.01 1.7985-1.1493 5.0609-2.5312 7.25-1.3819 2.189-2.9569 3.9688-3.5 3.9688-0.5557 0-0.9877-2.9514-0.9688-6.75 0.029-5.8392 0.4226-7.2897 2.9376-10.75 1.599-2.2 4.3081-6.3625 6.0312-9.25s3.5669-5.25 4.0938-5.25zm-17.7 8c4.6896 0 4.0174 1.7962-5.8125 15.188-4.2753 5.8243-6.5167 4.2167-4.1563-3 2.1-6.4 6.9-12.2 10-12.2zm29.75 0.1562c0.2145 0 0.4432 0 0.6875 0.031 3.6338 0.4233 4.0504 6.0278 0.8125 10.844-2.6694 3.9706-5.2651 4.7183-8.5 2.4376l-2.25-1.5938 2.2812-3.1875c1.2681-1.7544 2.9523-4.4612 3.7188-6 0.9329-1.8725 1.7482-2.542 3.25-2.5313zm46.812 18.344c-0.1748 0.023-0.3359 0.086-0.4375 0.1875-0.3426 0.3425-0.1126 1.2306 0.5 1.9687 1.2858 1.5492 3.875 1.7989 3.875 0.375 0-1.0934-2.714-2.6941-3.9375-2.5312zm-54.188 0.031c1.2624-0.071 2.125 0.3159 2.125 1.3126 0 1.1741-7.2166 8.5987-10.656 10.969-1.735 1.1954-3.3579 2.1875-3.5938 2.1875-2.2549 0-1.1357-4.2202 2.375-8.9688 2.1928-2.9658 6.9727-5.343 9.75-5.5zm-22.906 17.969-0.125 4.5c-0.075 2.475 0.1745 5.5021 0.5624 6.7188 0.3878 1.2167 0.2248 3.1291-0.375 4.25-1.3665 2.5531-2.122 2.5521-5.4062-0.031-3.776-2.9701-3.3619-6.2146 1.375-11.219l3.9688-4.2188zm67.781 52.531c1.8478-0.049 1.5019 2.4159-0.5938 4.3126-2.0682 1.8718-5.1562 2.2082-5.1562 0.5624 0-1.3711 4.0811-4.831 5.75-4.875z"/>
      <path id="path3353-7" style="fill:#000000" d="m2320.8 3643.5c-0.3743 0.039-0.7574 0.1616-1.1563 0.375-2.9303 1.5683-7.1562 6.976-7.1562 9.1563 0 3.0414 2.7974 2.2544 4.625-1.3125 0.9158-1.7875 2.1406-3.5651 2.7188-3.9375 1.1201-0.7213 6.6562 1.7506 6.6562 2.9687 0.0008 0.3984 1.8241 2.7438 4.0312 5.2188 5.4383 6.0979 4.9552 7.4625-2.5624 7.625-11.057 0.2389-15.941 0.6051-20.969 1.5938-5.8002 1.1404-15.5 5.4139-15.5 6.8124 0 0.5265-1.4625 1.553-3.25 2.3126-4.0453 1.7187-8.75 6.0551-8.75 8.0624 0 1.5967-4.0084 2.9302-12.25 4.0626-2.8853 0.3964-4.75 0.284-4.75-0.3126 0-0.5401 2.475-5.2918 5.5-10.531 3.025-5.2394 5.5-9.7583 5.5-10.062 0-0.3041-0.5625-0.5413-1.25-0.5313-1.2646 0.017-10.84 15.236-12.656 20.125-0.5418 1.4591-1.4127 2.9376-1.9688 3.2813-1.2906 0.7977-2.5341-5.6265-1.7188-8.875 0.3376-1.345 0.2236-2.6761-0.25-2.9687-0.4735-0.2928-1.1433 2.6499-1.4687 6.5312-0.6369 7.5968-1.7656 9.875-4.9375 9.875-1.8476 0-1.9886-0.4632-1.4688-5.5 0.3223-3.1223 0.183-5.5-0.3437-5.5-0.5102 0-0.9375 1.3146-0.9375 2.9375s-0.4737 5.2231-1.0625 7.9687c-0.8779 4.0932-1.6881 5.341-4.5 7-2.9116 1.7179-3.4375 2.5834-3.4375 5.6876 0 3.0829 0.2132 3.4535 1.4375 2.4374 1.8082-1.5006 4.0075-0.8457 13.562 3.9688 12.169 6.1317 18.426 9.7458 18.812 10.906 1.2129 3.6386-16.532-2.2665-22.719-7.5624-4.4848-3.8388-7.0193-3.8347-10.25 0.031-3.2765 3.9205-2.3629 7.8565 2.9687 12.844 4.617 4.3186 5.2401 4.5836 16.25 6.6562 6.297 1.1853 14.454 2.135 18.156 2.125h6.75l4.9687 6.75c2.7408 3.7125 5.0123 7.5375 5.0313 8.5s0.8187 2.5597 1.7812 3.5312c7.092 7.1589 7.6135 17.142 1.6875 32.719-1.4647 3.85-3.7757 10.795-5.125 15.438-2.0886 7.1861-2.2863 9.0684-1.375 12.688 1.7566 6.976 1.3592 18.132-0.75 21.219-4.8911 7.1583-5.5455 22.46-1.2187 28.312 2.3944 3.2388 2.596 9.9811 0.625 19.344l-1.25 6-4.0938 0.5625c-4.2705 0.5808-14.71 6.3735-19.562 10.844-3.4475 3.1757-12.354 16.044-14.281 20.656-0.7727 1.8492-1.4062 5.841-1.4062 8.8437 0 7.2549 2.1986 9.0462 12.125 9.9688 6.6575 0.6187 7.5122 0.4744 11.062-1.875 3.0159-1.9959 4.2488-2.3346 5.75-1.5312 3.2148 1.7204 8.1604 1.1606 12.594-1.4376 4.7822-2.8025 11.199-5.0368 16.719-5.8437 2.8475-0.4162 4.7837 0.036 8 1.875 2.3338 1.3344 5.2048 2.4275 6.375 2.4375 1.1701 0.01 2.6903 0.675 3.375 1.5s2.0392 1.5 3 1.5 3.9406 1.7482 6.625 3.875c2.6843 2.1268 6.7445 4.8101 9.0312 5.9688 2.2868 1.1585 4.3343 2.5965 4.5313 3.1874 0.2218 0.6653 6.6341 1.3696 16.844 1.8438 9.0696 0.4212 17.319 1.2078 18.344 1.7812 1.8525 1.0368 9.9108 0.9107 11.688-0.1874 1.1221-0.6936 0.064-20.855-1.2813-24.469l-0.9374-2.5-1.2813 2.4375c-1.2042 2.2403-1.3665 2.278-1.875 0.5-0.3025-1.0576-0.8524-4.3006-1.2187-7.1875-0.8085-6.3717-1.8725-7.3265-3.4063-3-1.0659 3.0065-1.256 3.1055-2.5 1.4375-0.7393-0.9913-1.6568-3.4663-2.0313-5.5-0.3989-2.1671-1.7277-4.5461-3.2187-5.75-2.5049-2.0226-2.5292-2.1613-1.4375-9 1.5555-9.7442 1.7962-16.326 0.625-16.438-0.5481-0.052-1.3488 1.6063-1.7812 3.6875-0.9636 4.6376-2.3828 6.298-3.3126 3.875-0.371-0.9669 0.066-4.7899 0.9688-8.5313 0.903-3.7411 1.6118-8.1161 1.5938-9.6874l-0.031-2.8438-1.9687 2.375-1.9688 2.3438v-2.8438c0-1.5734 1.0996-5.9913 2.4375-9.8125 2.6298-7.511 2.3766-10.269-0.625-6.5625-2.5845 3.1917-3.8217 1.5892-4-5.1875-0.2415-9.1791 4.4761-15.628 21.094-28.812 4.5062-3.575 8.9349-6.6765 9.8438-6.875 0.9089-0.1986 3.2327-1.3511 5.1875-2.5625 6.5762-4.075 16.962-6.8243 28.562-7.5937 6.05-0.4015 12.142-1.1955 13.531-1.75 1.3897-0.5544 7.6369-1.9781 13.875-3.1876 9.4138-1.825 13.4-2.105 23.469-1.625 32.001 1.5256 37.052 2.1871 47.125 6.1563 12.772 5.0331 19.822 7.4375 21.75 7.4375 3.2359 0 30.915 11.126 33.75 13.562 0.825 0.7091 4.2215 2.7618 7.5625 4.5937 10.384 5.694 16.661 10.331 24.438 18.063 12.583 12.511 19.785 21.364 22.094 27.094 0.6355 1.5775 1.7786 2.6695 2.5937 2.5 1.3837-0.2878 9.3025-18.762 9.3125-21.719 0-0.7819-2.0497-3.4048-4.5625-5.8126-3.8877-3.725-4.4878-4.7929-3.9687-7.1562 1.1005-5.0106-0.937-7.8315-9.9688-13.719-4.7045-3.0665-9.5539-6.8823-10.75-8.5-2.1299-2.8809-12.622-8.9062-15.531-8.9062-0.8098 0-2.9332-1.5148-4.6876-3.375-1.7542-1.8601-4.7107-4.1825-6.5937-5.1562-4.6559-2.4077-19.374-5.5161-25.125-5.3126-3.2112 0.1137-5.5475-0.4454-7.4063-1.75-6.1666-4.3277-10.045-6.32-12.406-6.375-1.375-0.032-3.1622-0.4899-3.9688-1-0.923-0.5836-1.9379-0.523-2.7187 0.125-0.8721 0.7239-1.9034 0.5652-3.4687-0.5312-1.2573-0.8806-3.1755-1.3167-4.4376-1-1.6444 0.4128-2.6858-0.091-3.875-1.9062-1.2816-1.9559-2.7827-2.6269-7.3124-3.1876-7.598-0.9402-11.624-0.9497-18.219-0.062-4.7874 0.6441-5.8146 0.4556-7.9062-1.375-1.3218-1.1567-3.4139-2.0938-4.6563-2.0938-3.9555 0-17.201 2.8133-20.125 4.2812-1.5505 0.7784-4.9569 1.9494-7.5937 2.5938-4.0124 0.9805-5.1564 0.9257-6.9688-0.3438-1.7401-1.2188-4.1514-1.3846-12.219-0.9062-5.5219 0.3274-12.609 1.2228-15.75 2-8.5184 2.108-15.469 2.0067-18.437-0.25-1.3623-1.0354-4.1272-5.6519-6.1563-10.281-2.0292-4.6294-4.25-8.6148-4.9375-8.8438-1.9736-0.6573-1.4548 2.175 1.25 6.9062 3.1671 5.5402 3.1235 6.6234-0.25 8.125-1.5125 0.6733-3.5652 2.2354-4.5625 3.4688-1.811 2.2399-1.8176 2.2231-5.5 0.3438-2.0277-1.035-4.546-2.8415-5.5937-4-1.0478-1.1586-2.4185-2.0938-3.0313-2.0938-1.3728 0-23-20.125-31.125-28.969-3.2741-3.5637-6.4079-6.9387-7-7.5-0.5922-0.5611-2.5541-2.9462-4.3437-5.2812-2.568-3.351-3.1182-4.8481-2.625-7.0938 0.7816-3.5584-0.5772-4.7226-6.4688-5.5937-10.874-1.6078-16.911-3.412-42-12.562-6.8918-2.5136-13.16-4.161-15.625-4.125-4.0156 0.058-8.5325-2.0613-7.2188-3.375 1.8026-1.8025 26.842 4.7081 38.25 9.9375 2.7986 1.2829 6.8938 2.7773 9.0938 3.3437 2.2 0.5666 6.7 1.8093 10 2.75 10.342 2.9487 10.614 2.9707 9.75 0.75-1.8028-4.6331-8.5902-13.938-11.312-15.5-1.6279-0.9341-3.3618-2.7397-3.8437-4-2.6533-6.9384-12.268-9.8437-32.594-9.8437-9.4762 0-23.897 2.3124-26.156 4.1875-0.7341 0.6092-1.3438 2.3816-1.3438 3.9062 0 3.437 9.2097 12.162 16 15.156 10.623 4.6849 10.577 4.662 8.7188 5.375-2.9435 1.1295-6.7108-0.4354-18.688-7.7187-14.342-8.7216-14.965-9.2779-12.156-10.781 2.8287-1.5138 2.682-3.4822-0.375-4.875-1.375-0.6265-2.5-1.733-2.5-2.4687 0-2.2442 11.016-6.704 20.156-8.1563 4.7527-0.7552 9.5704-1.8854 10.719-2.5 1.1483-0.6146 3.8812-3.7255 6.0625-6.9375 4.8157-7.0915 9.986-9.9049 21.562-11.688 8.2729-1.2739 23.657-0.8384 26.75 0.75 1.059 0.5438 1.75 2.0228 1.75 3.7813 0 1.5981 0.3783 3.1498 0.8438 3.4374 1.0674 0.6598 4.1562-10.251 4.1562-14.687 0-1.8283 0.6699-4.2136 1.5-5.2813 1.4554-1.8716 1.669-1.7763 5.625 2.5625 4.0682 4.462 12.875 20.538 12.875 23.5 0 0.8477 1.125 2.061 2.5 2.6875s2.5 1.485 2.5 1.9063c0 0.4214 2.4427 2.1615 5.4375 3.875 7.2067 4.1231 21.151 19.787 19.281 21.656-0.8461 0.8462-2.927-0.5839-8.6563-5.875-4.6496-4.2941-8.0725-5.9874-8.0625-4 0 0.4125 0.9102 2.2125 2 4 1.3539 2.2205 2.7273 3.25 4.375 3.25 1.7226 0 4.1215 1.9287 8.375 6.75 6.1392 6.9587 8.1043 9.9596 8.75 13.312 0.2996 1.5558 0.046 1.7636-1.3125 1.0313-0.9314-0.5022-2.7916-2.0746-4.125-3.5-2.9189-3.1207-6.1196-3.5352-5.375-0.6876 0.2755 1.0535 1.5918 2.2014 2.9063 2.5313 1.6428 0.4124 3.7819 3.0271 6.9062 8.3437 2.5 4.2542 4.8068 8.7313 5.125 9.9688 0.6478 2.5191 3.375 3.0992 3.375 0.7188 0-0.8417-1.125-4.2019-2.5-7.4688-1.5365-3.6506-2.5-7.8463-2.5-10.906 0-3.906-0.5345-5.5693-2.4688-7.6563-1.6156-1.7434-2.4127-3.7227-2.3437-5.7813 0.273-8.134-15.742-27.305-25.094-30.031-4.0552-1.1824-4.6713-1.7173-5.2188-4.7188-0.9555-5.2374-3.4787-10.314-9.0312-18.187-8.3675-11.866-15.801-18.645-15.875-14.469-0.012 0.6875-0.8441 2.3462-1.875 3.6875l-1.875 2.4375-3.625-2.9375c-1.9941-1.6163-5.4058-4.4265-7.5626-6.25-2.408-2.036-3.5959-2.7734-4.7187-2.6563zm-31.406 42.625c-1.7033 0.033-2.9062 0.2717-2.9062 0.6563 0 1.2659 2.0734 2.8722 4.5 3.4687 4.5298 1.1134 5.6418 0.7875 5.3125-1.5312-0.2727-1.9201-1.009-2.3024-5.0625-2.5625-0.6531-0.042-1.276-0.042-1.8438-0.031zm-17.719 14.063c8.0275-0.02 21.528 1.0871 35.531 3.0937 5.0747 0.7271 9.5581 1.6205 9.9374 2 0.3796 0.3794-2.0124 0.6875-5.3124 0.6875s-6.2084-0.18-6.4376-0.4062c-0.2291-0.2263-5.5812-0.7168-11.906-1.0938-22.592-1.3466-29.054-2.0141-29.281-3-0.1984-0.8609 2.6522-1.2695 7.4687-1.2812zm-30.469 19.125c0.6179-0.052 1.6361 0.5615 3.0312 1.875 5.1132 4.8136 11.276 6.2415 27.031 6.3124 11.897 0.053 14.524 0.368 15.906 1.75 1.8524 1.8526 1.9297 1.7899-5.1875 3.6563-5.4144 1.4199-16.794 1.1934-23.5-0.4687-8.39-2.0795-16.275-6.4628-17.406-9.6876-0.7678-2.1878-0.6696-3.371 0.125-3.4374zm61.75 12.812c0.4557-0.065 1.3434 0.3984 3.1562 1.3438 1.5754 0.8217 3.775 1.487 4.875 1.5s6.6788 2.8812 12.406 6.3438c8.6938 5.256 11.146 7.3031 14.844 12.469 4.4563 6.2251 5.1829 7.956 1.6875 4.0937-1.0366-1.1455-3.3245-2.68-5.0625-3.4062-1.7379-0.7261-4.8767-2.8603-7-4.75-3.9738-3.5367-9.5998-6.742-19.625-11.188-4.252-1.8855-5.75-3.0735-5.75-4.5625 0-1.2046 0.013-1.7786 0.4688-1.8438zm-4 10.1c2.1937 0.1402 5.4018 1.1326 10.656 3.125 8.7688 3.325 10.581 4.3585 11.844 6.7187 1.3878 2.5934 0.4651 2.3961-5.1562-1.0312-2.5649-1.5637-4.8788-2.6523-5.125-2.4062-0.2462 0.2462-4.2001-0.709-8.7813-2.1563-6.7546-2.1337-7.9754-2.8481-6.5313-3.6563 0.8383-0.4691 1.7776-0.6778 3.0938-0.5937zm97.812 4.8125c-2.201 0-1.5062 1.9607 2.2187 6.3125 1.9453 2.2727 3.8255 5.2665 4.1563 6.6563 0.3308 1.3896 0.9985 3.3346 1.5 4.3124 0.5015 0.978 1.3517 1.4991 1.9063 1.1563 3.0373-1.8771-5.7478-18.438-9.7813-18.438zm-85.438 6.1875c0.5458-0.052 1.2968-0.01 2.125 0.1563 3.3665 0.6733 18 10.175 18 11.687 0 1.6614-1.5917 1.0874-6.625-2.375-2.6742-1.8395-5.325-3.3652-5.875-3.4062-1.6423-0.1213-8.5-4.6646-8.5-5.625 0-0.2445 0.3292-0.3855 0.875-0.4375zm8.625 13.844c0.5535-0.023 1.6253 0.3906 3.3438 1.3438 2.8414 1.5761 12.156 10.603 12.156 11.781 0 1.075-0.073 1.0757-2.5938-0.4062-7.8593-4.6212-15.305-12.618-12.906-12.719zm-3.9062 16.25c0.2933-0.1704 0.7774 0.4148 1.75 1.875 2.4432 3.6685 5.61 12.409 6.5624 18.094 1.2559 7.4956-1.1453 5.892-3.75-2.5-1.2376-3.9875-2.9636-8.8797-3.8124-10.875-0.849-1.9954-1.3661-4.4704-1.1563-5.5 0.126-0.6188 0.2302-0.9915 0.4063-1.0938zm-4.5313 6.3126c0.7464-0.265 2.3723 2.1977 4.9063 7.4374 2.2224 4.5959 4.0312 8.9397 4.0312 9.6563s-0.4419 1.3125-1 1.3125c-2.5637 0-9.8733-16.533-8.0938-18.312 0.042-0.042 0.1065-0.076 0.1563-0.094zm341 79.5c-0.8578-0.032-2.1535 0.8029-3.0938 2.25-3.1191 4.8003-4.1781 7.4174-6.125 15.188-1.1089 4.4264-3.1619 10.247-4.5624 12.906-1.8324 3.4787-2.4052 5.6617-1.9688 7.8437 0.5338 2.6693 0.3842 2.9913-1.375 2.5313-1.099-0.2875-2-0.1609-2 0.2812 0 1.7443 5.9436 12.668 8.25 15.156 3.9423 4.2539 7.0008 9.7564 6.3438 11.469-0.4928 1.2841-0.8899 1.3741-2.0938 0.375-0.8185-0.6793-1.5-1.7882-1.5-2.4375 0-1.6222-5.9441-9.5625-7.1562-9.5625-1.5335 0 0.077 3.9174 3.7812 9.1875 1.8542 2.6379 3.375 5.1755 3.375 5.6563 0 0.4809 1.6875 2.0671 3.75 3.5 5.3108 3.6896 6.5386 6.0596 7.9375 15.406 0.6787 4.5347 2.3838 11.06 3.8125 14.5 3.0663 7.3835 5.4059 24.251 3.9375 28.406-1.5482 4.3807-3.4375 4.1103-3.4375-0.5 0-2.2134-0.4349-4.295-0.9688-4.625-0.9822-0.607-1.5369 1.1156-2.4062 7.4688-1.2074 8.8249-3.0483 14.674-5.4375 17.25-3.8508 4.1517-5.62 3.6671-3.625-1 1.3214-3.0912 4.3975-12.082 4.4375-13 0.01-0.1375-0.6177-0.25-1.375-0.25-1.3453 0-4.1462 5.661-6.5938 13.312-0.672 2.101-1.8553 4.0797-2.625 4.375-0.7696 0.2953-1.454 1.4776-1.5 2.6563-0.047 1.1977-1.8774 3.6999-4.1562 5.6562l-4.0625 3.5 0.6875-4.3438c1.0451-6.5937-1.0042-4.9039-6.4375 5.3438-4.7444 8.9483-8.5199 13.324-10.125 11.719-1.2586-1.2586 5.2541-14.872 9.9063-20.719 2.1883-2.75 6.268-7.475 9.0937-10.5s5.1462-6.2993 5.1563-7.2812c0.01-0.9818 0.7561-2.8614 1.625-4.1876 0.9706-1.4813 1.2597-2.9674 0.75-3.8437-1.4619-2.5125-11.694-13.688-12.531-13.688-1.5656 0-0.7847 1.8886 2.6875 6.4375 3.0666 4.0174 3.4498 5.1004 2.9062 8.5-0.3492 2.184-2.02 5.5419-3.7812 7.6563-3.8864 4.6658-8.3398 12.329-13.594 23.406-6.5052 13.715-7.4793 15.498-8.5312 15.469-0.549-0.015-2.6026-3.9324-4.5625-8.7188-1.9599-4.7863-3.9228-9.0453-4.375-9.4688-0.9345-0.8751 0.047 8.3904 1.4687 13.781 0.5186 1.966 2.298 4.891 3.9376 6.5 2.6724 2.6226 2.9749 3.5867 3 9.2187 0.044 10.068-3.9768 17.089-12.25 21.344-2.0876 1.0736-6.6461 4.8553-10.094 8.4062-6.0099 6.19-8.7667 7.6859-10.156 5.4376-0.8427-1.3636 4.764-12.987 7.4374-15.406 2.7936-2.5281 2.7201-4.7834-0.1562-4.375-1.6279 0.2313-3.0795 1.9983-5.25 6.4063-1.65 3.3508-4.7308 8.6691-6.8438 11.812-3.2597 4.8496-4.2442 5.6673-6.5 5.4063-4.1818-0.4839-4.0576-5.0534 0.3126-11.656 1.9429-2.9355 3.5312-5.9729 3.5312-6.75 0-2.9749-1.9212-1.1705-4.9375 4.625-7.0454 13.537-7.3873 13.854-12.656 12.531-1.8236-0.4577-2.4062-1.2815-2.4062-3.3437 0-6.6225 2.7389-11.67 10.75-19.844 2.3375-2.385 4.25-4.8688 4.25-5.5 0-1.9123-6.8971-0.2328-11.156 2.7188-2.1342 1.479-4.201 2.3928-4.5938 2-1.2476-1.2478-0.2105-13.012 1.2812-14.531 1.2209-1.243 1.6679-1.2011 3.375 0.3437 2.414 2.1845 3.5568 1.5681 6.0626-3.3437 1.1835-2.32 3.6608-4.821 6.3124-6.375 6.3766-3.737 10.455-8.3443 12.313-13.938 1.2778-3.8474 1.3992-5.5012 0.5312-7.4062-1.642-3.6039-1.3732-7.0379 0.625-7.8126 1.647-0.6385 1.6476-0.7493-0.094-2.0312-1.9795-1.4573-1.5475-3.0936 1.4376-5.25 2.2633-1.6351 3.2363-6.2769 2.375-11.375-0.8925-5.2822-3.508-7.875-7.9688-7.875-2.8333 0-3.5-0.3809-3.5-2 0-1.1 0.604-2 1.3438-2s2.1607-0.9 3.1562-2c1.7644-1.95 1.7364-2-0.7188-2-1.3851 0-4.9437 0.4816-7.9062 1.0625-2.9626 0.581-10.484 1.0502-16.719 1.0313-13.641-0.041-16.268 0.8478-21.969 7.6562-3.2062 3.8294-4.7039 4.9356-6.25 4.5312-1.331-0.3479-3.3293 0.4925-5.75 2.4376-2.0364 1.636-5.15 3.7322-6.9375 4.6562-3.0654 1.5847-4.3669 3.625-2.3125 3.625 2.2135 0 6.6211-2.2917 9.8125-5.0938 2.6458-2.323 4.0711-2.8886 6.125-2.4374 2.3149 0.5083 3.1741-0.065 6.4375-4.3438 5.7233-7.5049 5.5671-7.4383 18.844-7.7812 10.288-0.2657 12.649-0.041 16.375 1.6562 5.0955 2.3212 6.3102 3.8032 3.7813 4.5625-0.9974 0.2995-5.4125 2.3022-9.8125 4.4375s-11.825 5.041-16.5 6.4688-11.875 3.9805-16 5.6874c-4.125 1.707-10.2 4.2228-13.5 5.5938-3.3 1.3709-6.9 3.2815-8 4.25-1.1 0.9684-3.8171 2.671-6.0312 3.7812-2.2143 1.1104-6.7142 4.0318-10 6.4688-3.2858 2.4371-8.0663 5.4123-10.625 6.625-2.5589 1.2128-6.7418 4.5417-9.2813 7.4062-2.5395 2.8644-6.7726 7.4688-9.4375 10.219-9.928 10.245-13.109 17.148-14.656 31.875-0.4759 4.5284-0.3775 6.6884 0.2812 6.2812 0.5513-0.3407 1.1841-2.751 1.4375-5.375 0.2535-2.6238 1.2551-6.5812 2.2187-8.7812 0.9635-2.2 2.3972-5.4828 3.1876-7.3125 0.7902-1.8296 2.0111-3.1451 2.6874-2.9063 1.4597 0.5154 1.3831 1.0125-1.1562 10.719-3.9921 15.259-6.141 25.607-6.125 29.5 0.012 2.9512 0.2848 3.6067 1 2.5 0.5331-0.825 0.9587-2.6798 0.9688-4.125 0.019-3.3471 2.6898-5.9056 3.625-3.4688 0.3472 0.904 0.3847 2.9821 0.062 4.5938-0.3224 1.6117-0.2031 3.1695 0.2813 3.4688 0.4843 0.2994 1.6505-2.9533 2.5625-7.2188 0.9121-4.2655 2.0346-9.1 2.5-10.75 0.4655-1.65 1.1361-4.4625 1.5-6.25 0.3727-1.831 1.2935-3.25 2.0938-3.25 1.693 0 1.7766 1.3206 0.375 6-1.6296 5.4402-3.9415 20.232-3.3126 21.25 0.3109 0.5028 1.4702 0.6919 2.5626 0.4062 1.5767-0.4122 1.8698-0.1274 1.4687 1.4063-0.8615 3.2945 0.9738 2.1415 1.9375-1.2187 1.1368-3.9639 3.1013-4.7519 4.2812-1.6876 0.6639 1.7241 1.013 1.9519 1.375 0.8438 2.2741-6.9591 3.4269-9.4131 4.625-9.8125 1.1254-0.3751 1.2888 0.5585 0.7813 4.8437-0.7443 6.2844 0.459 5.7079 3.2187-1.5624 2.1989-5.7928 4.6133-7.3794 3.9063-2.5626-0.8274 5.6377 0.9395 4.2885 3.75-2.875 1.5073-3.8416 3.5766-7.7357 4.5937-8.6562 2.3352-2.1134 2.3174-1.6359-0.1874 4.7188-2.4282 6.1601-2.0083 8.7743 0.6562 4.0937 4.5704-8.0285 5.4508-9.2587 6.375-8.6875 0.6044 0.3735 0.3968 1.77-0.5625 3.625-1.6722 3.2336-1.6149 5.2613 0.125 4.0938 0.5885-0.3949 2.9648-3.3063 5.2813-6.4688 3.9539-5.3984 6.1562-7.0779 6.1562-4.7188 0 0.5633-1.575 3.2954-3.5 6.0938-1.925 2.7985-3.5 5.5117-3.5 6 0 3.1349 6.0676-2.977 10.531-10.594 1.4633-2.4968 3.1773-4.5557 3.8126-4.5937 7.1086-0.4241 7.8123-0.9704 14.094-10.469 3.9659-5.9969 7.7198-8.4183 10.031-6.5 0.8437 0.7002 1.5312 2.1499 1.5312 3.2187 0 2.4803 1.8803 6.0559 3.75 7.1563 1.1692 0.6882 1.3125 2.396 0.75 8.75-0.6897 7.7916-0.6838 7.8945 2.4688 11.875 3.0606 3.8646 3.4319 4.0147 8.875 3.9687 3.6166-0.031 6.9222-0.7162 9.1562-1.9375 7.4406-4.0677 10.098-5 14.312-5 3.6906 0 4.5567-0.3953 5.75-2.625 1.8045-3.3717 17.804-18.375 19.594-18.375 0.7443 0 2.2438-0.9 3.3438-2 1.7328-1.7328 2-3.3211 2-11.969v-10l2.75-0.6562c3.8239-0.9245 8.25-4.1923 8.25-6.0938 0-3.1901 4.702-7.7647 9.875-9.625 3.8929-1.3999 5.8097-2.847 7.9062-5.9687 2.2252-3.3131 3.5924-4.3011 6.9688-4.9687 4.5496-0.8998 6.7935-3.2778 9.6875-10.219 1.9843-4.7589 4.979-8.1218 9.0625-10.219 4.3941-2.2562 5-3.8867 5-13.312 0-8.0194 0.2514-9.0157 4.25-17.063 2.3375-4.704 4.25-9.7719 4.25-11.25 0-1.4779 0.5342-3.5475 1.1875-4.5937 1.4124-2.2615-0.4034-8.8551-3.375-12.281-1.3069-1.5068-1.8125-3.7103-1.8125-7.8124 0-5.483-1.9682-11.171-6.5625-18.969-1.0044-1.7049-1.3009-3.9244-0.9063-7 0.5041-3.9276 0.044-5.5796-3.5624-12.688-3.4126-6.7258-4.1544-9.2859-4.3126-14.5-0.1652-5.4454-0.7298-7.093-3.9374-12-2.0502-3.136-3.7188-6.1735-3.7188-6.75 0-0.6979-0.3603-1.0434-0.875-1.0625zm-121.03 16.25c-2.9117 0.3544-1.3641 22.214 2.4062 31.75 0.7612 1.925 1.6986 5.075 2.0625 7 0.3638 1.925 1.4651 4.4 2.4687 5.5s2.7211 4.0731 3.8126 6.625 2.4669 4.9325 3.0312 5.2812c0.5642 0.3488 2.8577 3.9006 5.125 7.875 8.6445 15.153 11.602 19.811 14.531 22.969 1.6636 1.7933 3.8437 4.5224 4.8438 6.0938 1.3879 2.1805 2.0858 2.5855 2.9688 1.6874 0.8792-0.8939 0.5208-1.7132-1.4688-3.4374-1.44-1.248-3.24-3.4372-4-4.8438-4.0179-7.4356-9.0752-15.595-11.312-18.25-5.6002-6.6453-8.5625-10.853-8.5625-12.156 0-0.755-2.4383-6.3082-5.4375-12.344-5.7182-11.507-7.7904-19.22-7.5-28.25 0.2135-6.6391-1.2318-14.984-2.6875-15.469-0.1033-0.034-0.1873-0.043-0.2812-0.031zm-243.56 11.156c2.2057-0.017 3.264 1.4161 3.9688 4.625 0.9965 4.5372 6.2485 14.109 9.6562 17.625 5.1517 5.3152 2.4311 9.8037-7.1562 11.844-1.925 0.4096-4.6964 1.5934-6.1562 2.625-3.258 2.3022-8.6045 2.4095-11.688 0.25l-2.3124-1.5938 2.6874-2.8124c3.3449-3.4913 2.6227-5.2715-1.5624-3.8126-3.2676 1.1391-5.296 3.9818-4.75 6.6563 0.2058 1.0084-0.7648 2.3705-2.375 3.375-1.4908 0.9301-4.3163 2.0064-6.2813 2.375-3.0664 0.5753-3.541 0.41-3.5-1.1875 0.091-3.5328 3.4536-8.785 7.7187-12.031 4.8321-3.6776 5.4295-4.6753 3.0938-5.125-2.6512-0.5107-11.912 6.2649-15.281 11.187-1.8225 2.6628-3.9362 1.126-3.0938-2.25 0.3624-1.4524 1.3929-3.4655 2.3125-4.4687 0.9197-1.0032 4.1625-5.4938 7.1875-9.9687 5.6479-8.3549 11.188-13.144 16.5-14.25 1.65-0.3437 4.9186-1.332 7.25-2.1876 1.5404-0.5651 2.7787-0.867 3.7812-0.875zm357.91 13.156c0.4865-0.012 1.0687 0.1939 1.9063 0.6563 1.1796 0.6511 2.8809 1.0742 3.7812 0.9374 1.6503-0.2506 4.3099 5.0651 3.125 6.25-0.9002 0.9004-1.4649 0.7541-5.75-1.5312-4.7059-2.5096-5.769-3.8451-4.3438-5.5625 0.4092-0.4932 0.7948-0.738 1.2813-0.75zm-206.88 8.9063c-1.0784 0.3019-0.6373 6.4061 0.9687 10.25 0.9875 2.3634 1.8689 3.2874 2.5 2.6562 1.1261-1.1261-1.1129-10.863-2.9062-12.656-0.2162-0.2163-0.4084-0.2932-0.5625-0.25zm206.56 0.9062c1.2013-0.041 3.2556 0.7563 5.7188 2.3125l2.375 1.5-3.125 1.9063c-1.7233 1.0479-3.2953 1.9062-3.4688 1.9062-0.6024 0-2.625-5.1136-2.625-6.625 0-0.6508 0.4042-0.9753 1.125-1zm-250.09 3.7188c-0.2726-0.015-0.583 0.1366-0.9687 0.375-1.165 0.7199-1.4803 6.8011-0.4063 7.875 0.3666 0.3667 1.3506 0.6562 2.1563 0.6562 1.1369 0 1.3311-0.9257 0.9063-4.0938-0.4613-3.4387-0.8696-4.7672-1.6876-4.8124zm239.72 9.9374c-1.8024-0.043 0.286 4.6791 4.0625 9.1876 0.7954 0.9495 1.8482 1.5056 2.3125 1.2187 0.902-0.5575-5.114-10.376-6.375-10.406zm-3.8438 9.5626c-0.1-0.01-0.1759 0.024-0.2187 0.094-0.3315 0.5364 0.9604 3.3133 2.875 6.1563 3.2426 4.815 6.4943 6.7866 6.4063 3.9062-0.055-1.7965-7.5614-10.046-9.0626-10.156zm-5.6874 3.5624c-0.1497 0.01-0.2188 0.1152-0.2188 0.3438 0 1.3849 7.4633 14.042 8.9375 15.156 2.2022 1.6644 3.1496 0.6719 2.0625-2.1874-1.5235-4.0072-9.3347-13.401-10.781-13.313zm-185.9 10.8c-1.7047 0-1.6862 0.7781 0.1562 6 0.825 2.3383 1.5 6.1629 1.5 8.5 0 9.4278 2.296 13.18 5.2188 8.5 1.6936-2.7121 2.2452-2.5746 6.9062 1.75 2.2229 2.0625 4.8032 4.0658 5.7188 4.4375 0.9155 0.3715 2.0781 0.5686 2.5937 0.4375 2.4735-0.6287 0.9293-2.4626-5.2187-6.1875-4.976-3.0148-6.7927-4.7005-7-6.5-0.6026-5.2295-1.2773-6.6348-3.6563-7.7187-1.6039-0.731-2.869-2.5602-3.6563-5.1876-0.6666-2.2253-1.8245-4.0312-2.5624-4.0312zm183.81 1.1875c-0.6201 0.014-0.7766 1.2841-0.4374 3.8125 0.6521 4.8622-1.0618 5.3564-4.3438 1.25-3.6402-4.5546-4.023-1.5815-0.5938 4.6562 1.7645 3.2096 3.2188 6.4248 3.2188 7.125 0 0.7003 1.2288 3.6825 2.7188 6.625 2.6171 5.1686 4.2812 6.7298 4.2812 4.0313 0-0.715-0.5291-1.8416-1.1875-2.5-0.6583-0.6584-1.4886-3.5483-1.8437-6.4375s-0.8385-5.925-1.0626-6.75c-0.3199-1.1818 0.3991-1.414 3.3438-1.1562 3.5565 0.3112 5.006-0.9615 2.7188-2.375-0.5723-0.3538-2.1717-2.4087-3.5313-4.5626-1.5784-2.5004-2.6611-3.7327-3.2813-3.7187zm-229.9 1.8c-2.1162 0-6.0059 16.84-9.8437 42.5-0.3291 2.2-1.153 4.675-1.8126 5.5-2.6734 3.3438-6.5312 10.994-6.5312 12.938 0 2.9463 1.834 2.5548 3.25-0.6875 0.6605-1.5125 2.4378-4.8338 3.9688-7.375 3.2141-5.3352 4.4511-10.465 5.875-24.312 0.6475-6.2979 1.9242-12.049 3.4687-15.719 2.3557-5.5969 3.2695-12.844 1.625-12.844zm152.88 2.4062c-1.7129 0.1319-0.9669 1.8213 2 3.3126 1.5418 0.7749 2.76 0.8649 3.375 0.25 1.2617-1.2618-0.1391-2.5148-3.7813-3.375-0.6596-0.1559-1.1984-0.218-1.5937-0.1876zm-14.4 3.6c-1.2573-0.023-0.8349 2.8052 0.5 3.3438 2.7218 1.0983 5.6979 0.6613 5.1562-0.75-0.4681-1.2203-3.3663-2.5518-5.6562-2.5938zm-12.812 3.6875c-0.6909 0.012-0.9375 0.2602-0.9375 0.75 0 0.684 1.0125 1.7658 2.25 2.375 2.641 1.3002 6.8027 1.131 6.8438-0.2813 0.015-0.5408-2.0236-1.5165-4.5313-2.1562-1.796-0.4584-2.9341-0.6996-3.625-0.6875zm-45.375 1.3437 2.0313 2c1.1129 1.1131 4.4767 3.3278 7.4687 4.9063 3.5463 1.8709 5.5416 3.6011 5.75 4.9687 0.3952 2.5946 2.3401 2.7059 4.5625 0.25 1.3403-1.481 1.4235-2.0874 0.4062-2.9062-2.0384-1.6409-14.007-7.4443-17.25-8.375l-2.9687-0.8438zm17.312 0.2188c-0.2913 0-0.5066 0.038-0.625 0.1562-0.2282 0.2284 1.3108 1.5762 3.4062 3 4.4297 3.0101 5.6044 3.2248 5.1563 0.9376-0.2606-1.3302-5.8981-4.0626-7.9375-4.0938zm-35.938 0.4062c-0.7168 0.041-0.7567 0.813 0.062 2.3438 1.3607 2.5424 8.9452 8.6482 13.656 11 4.6516 2.3221 7.2195 2.4841 7.9688 0.5312 0.3908-1.0182 1.4352-1.2817 3.4688-0.875 4.4331 0.8866 3.4762-0.8439-2.375-4.3437-2.9001-1.7346-6.1211-4.0748-7.1563-5.2187-1.931-2.1338-4.5625-2.8011-4.5625-1.1563 0 0.5071 1.8925 2.5044 4.1875 4.4687 2.2951 1.9646 3.8978 3.821 3.5937 4.125-0.8691 0.8693-7.8007-3.0914-13.125-7.5-2.7529-2.2795-4.7971-3.428-5.7187-3.375zm53.688 1.4376c-2.0342 0.017-1.665 0.9836 1.4688 2.3437 4.3157 1.8733 4.9062 1.8789 4.9062 0.094 0-0.8743-1.3994-1.6938-3.5312-2.0937-1.198-0.2247-2.1657-0.3493-2.8438-0.3437zm-73.6 1c-0.6983 0-0.8154 2.6571-0.375 7.9375l0.6562 7.9063-7.9374 14.344c-4.3616 7.8783-9.0899 16.788-10.5 19.812-2.7105 5.8142-3.1819 7.225-7.3438 21.5-1.4432 4.95-3.0676 10.122-3.5938 11.5-1.2093 3.1684-10.854 13.1-14.594 15.031-1.5546 0.8031-3.2625 1.9685-3.8125 2.5938-1.215 1.3815-12.722 5.375-15.5 5.375-2.4712 0-2.4941-0.6914-0.094-6.7812 1.8848-4.7817 1.4793-8.1977-0.8124-6.7813-1.6178 0.9999-5.0938 8.1231-5.0938 10.438 0 2.0766-9.5273 11.125-11.719 11.125-0.8899 0-1.2812-1.8812-1.2812-6.3438 0-5.3914 0.3787-6.7734 2.5-9.0624 2.8242-3.0474 3.1229-5.35 1.0938-8.125-1.1721-1.6031-1.6367-1.6993-2.9688-0.5938-0.87 0.722-1.8675 2.9614-2.2188 4.9688-1.1682 6.675-2.7712 8.1562-8.875 8.1562-2.9798 0-5.6824-0.4237-6-0.9375-0.3175-0.5137 0.087-2.6512 0.875-4.75 0.7883-2.0987 1.7149-5.1143 2.0626-6.6875 0.3543-1.6041 3.0183-5.1777 6.0937-8.1562 5.8067-5.6242 5.8733-7.3756 0.1875-5-4.8282 2.0173-10.535 10.566-11.375 17.031-0.3574 2.75-1.0561 5.7586-1.5312 6.6875-0.5896 1.1526-0.1582 2.8511 1.3124 5.3437 1.9676 3.3349 2.4644 3.6232 5.75 3.1876 1.9789-0.2623 4.6063-0.8172 5.8438-1.2188 2.176-0.7062 2.25-0.5197 2.25 5.7188 0 3.5475 0.2895 6.7584 0.6562 7.125 1.2046 1.2044 5.0739 0.6863 6.3438-0.8438 0.6847-0.825 1.8447-1.5 2.5625-1.5s2.4203-1.4172 3.7813-3.1562c2.3065-2.9471 2.6588-3.0939 5.375-1.9688 3.1798 1.3171 7.2004 0.3621 9.9374-2.375 0.8197-0.8197 4.7049-3.3481 8.6563-5.625 19.394-11.176 23.674-15.066 23.688-21.562 0.01-2.9259 4.6738-20.697 7.375-28.094 1.7988-4.9259 6.405-13.531 10.469-19.563 1.5369-2.2812 3.6219-5.9562 4.625-8.1562 1.0032-2.2 2.6435-5.1792 3.6562-6.625 3.5296-5.0395 3.4324-21.875-0.125-21.875zm51.844 14.875-2.1563 1.4375c-2.3302 1.5471-4.2949 7.702-3.2813 10.344 0.8611 2.2442 1.2318 1.6564 3.4688-5.5312l1.9688-6.25zm5.4062 8.25c-0.4535 0.069-1.6698 0.8812-3.5938 2.5-7.3842 6.2137-10.713 13.912-7.4374 17.188 0.672 0.6718 1.9095 0.9594 2.75 0.625 0.8404-0.3344 3.9228-1.5203 6.8437-2.625 3.2031-1.2113 5.7038-2.8562 6.2813-4.1563 0.5265-1.1854 2.3048-4.3508 3.9687-7.0312 1.6639-2.6803 2.8682-5.0069 2.6875-5.1875-0.5523-0.5523-6.666 5.8511-9.0312 9.4687-2.3473 3.59-9.3214 6.8974-11 5.2188-1.145-1.145 2.3354-7.9574 6.4062-12.594 2.0563-2.342 2.7081-3.4953 2.125-3.4062zm-121.62 33.062c-4.5458 0.1797-19.78 4.8977-26.781 8.4063-7.8801 3.9491-11.509 8.0292-16.813 18.906-4.5686 9.3694-6.0351 18.806-3.1874 20.469 1.9861 1.1594 2.5072 1.2262 4.5624 0.4374 2.2477-0.8624 1.9723-2.4062-0.4374-2.4062-1.1173 0-2.3046-0.6962-2.625-1.5312-1.5834-4.1259 5.6708-21.158 11.344-26.656 1.8244-1.7682 3.3025-2.7704 3.3125-2.25s0.4608 1.6031 0.9688 2.4063c0.7903 1.2497 1.2048 1.1901 2.9687-0.4063 1.1335-1.0258 2.0625-2.408 2.0625-3.0625 0-2.3178 3.7716-4.5529 8.5-5.0312 7.4463-0.7535 12.07-2.4679 15.688-5.8438 3.0939-2.8875 3.1669-3.1127 1.1875-3.4062-0.2027-0.03-0.4469-0.043-0.75-0.031zm237.4 0.7c-1.3074 0-1.2232 5.6682 0.125 8.1875 0.7794 1.4564 1.3892 1.7045 2.1562 0.9375 1.2602-1.2602-0.704-9.125-2.2812-9.125zm-12.563 9.9062c-0.2708 0.069-0.4062 0.6088-0.4062 1.625 0 3.3427 3.1997 14.036 5.1562 17.219 1.8369 2.9883 3.8648 4.302 3.8438 2.5-0.01-0.4125-1.5759-5.2279-3.4688-10.719-2.3865-6.9229-4.3125-10.83-5.125-10.625zm-134.5 33.156c0.6357 0.083 1.0938 0.9601 1.0938 2.7813 0 1.5648-0.8413 3.6269-1.875 4.5624-1.0338 0.9355-2.1551 3.437-2.5 5.5938-0.3448 2.1569-1.1467 5.0759-1.7812 6.4688-1.1583 2.542-2.8438 3.4284-2.8438 1.5 0-0.5674 0.8429-3.6049 1.875-6.75s2.2065-7.0719 2.5938-8.7188c0.8274-3.5199 2.378-5.5759 3.4374-5.4375zm7.3438 12.25c0.155-0.155 0.4046 0.222 0.875 1.0313 0.7696 1.3231 0.7598 2.1464-0.031 2.9374-0.8048 0.8048-1.0845 0.3076-1.0626-1.8437 0.013-1.293 0.064-1.97 0.2188-2.125zm1.5312 11.031c0.2135 0.025 0.4416 0.215 0.6563 0.5624 0.3758 0.6088 0.3641 1.6105-0.031 2.25-0.3952 0.6395-1.0628 2.552-1.4687 4.25-0.7186 3.0059-0.7275 2.9884-0.8125-0.9062-0.078-3.5696 0.7312-6.2655 1.6562-6.1562z"/>
    </g>
  </g>
  <metadata>
    <rdf:RDF>
      <cc:Work>
        <dc:format>image/svg+xml</dc:format>
        <dc:type rdf:resource="http://purl.org/dc/dcmitype/StillImage"/>
        <cc:license rdf:resource="http://creativecommons.org/licenses/publicdomain/"/>
        <dc:publisher>
          <cc:Agent rdf:about="http://openclipart.org/">
            <dc:title>Openclipart</dc:title>
          </cc:Agent>
        </dc:publisher>
        <dc:title>Mujina(Japanese badger)</dc:title>
        <dc:date>2012-05-16T01:22:13</dc:date>
        <dc:description>[Mujina is ...] http://en.wikipedia.org/wiki/Mujina&#13;\n[Creator]&#13;\nUtagawa Yoshitora / Woodblock printing in Japan (1857)&#13;\n[26 Free Vector Animal Graphics]&#13;\nhttp://fav.me/d4xjjxc</dc:description>
        <dc:source>https://openclipart.org/detail/170046/mujinajapanese-badger-by-hansendo</dc:source>
        <dc:creator>
          <cc:Agent>
            <dc:title>hansendo</dc:title>
          </cc:Agent>
        </dc:creator>
        <dc:subject>
          <rdf:Bag>
            <rdf:li>animal</rdf:li>
            <rdf:li>artwork</rdf:li>
            <rdf:li>badger</rdf:li>
            <rdf:li>line art</rdf:li>
            <rdf:li>mujina</rdf:li>
            <rdf:li>wood printing</rdf:li>
            <rdf:li>woodcut</rdf:li>
          </rdf:Bag>
        </dc:subject>
      </cc:Work>
      <cc:License rdf:about="http://creativecommons.org/licenses/publicdomain/">
        <cc:permits rdf:resource="http://creativecommons.org/ns#Reproduction"/>
        <cc:permits rdf:resource="http://creativecommons.org/ns#Distribution"/>
        <cc:permits rdf:resource="http://creativecommons.org/ns#DerivativeWorks"/>
      </cc:License>
    </rdf:RDF>
  </metadata>
</svg>
