<?xml version="1.0" encoding="UTF-8"?>
<!DOCTYPE svg PUBLIC "-//W3C//DTD SVG 1.1//EN" "http://www.w3.org/Graphics/SVG/1.1/DTD/svg11.dtd">
<!-- Creator: CorelDRAW X7 -->
<svg xmlns="http://www.w3.org/2000/svg" xml:space="preserve" width="50.8mm" height="25.4mm" version="1.1" style="shape-rendering:geometricPrecision; text-rendering:geometricPrecision; image-rendering:optimizeQuality; fill-rule:evenodd; clip-rule:evenodd"
viewBox="0 0 5080 2540"
 xmlns:xlink="http://www.w3.org/1999/xlink"
 xmlns:inkscape="http://www.inkscape.org/namespaces/inkscape"
 xmlns:rdf="http://www.w3.org/1999/02/22-rdf-syntax-ns#"
 xmlns:cc="http://creativecommons.org/ns#"
 xmlns:dc="http://purl.org/dc/elements/1.1/"
 xmlns:sodipodi="http://sodipodi.sourceforge.net/DTD/sodipodi-0.dtd"
 xmlns:svg="http://www.w3.org/2000/svg"
 xmlns:ns1="http://sozi.baierouge.fr"
 sodipodi:docname="fish.svg"
 inkscape:version="0.48.2 r9819">
 <defs>
  <style type="text/css">
   <![CDATA[
    .fil1 {fill:#5F5E14}
    .fil0 {fill:#E6E603}
   ]]>
  </style>
 </defs>
 <g id="Capa_x0020_1">
  <metadata id="CorelCorpID_0Corel-Layer"/>
  <sodipodi:namedview id="base" fit-margin-left="0" inkscape:zoom="1.4" borderopacity="1.0" inkscape:current-layer="layer1" inkscape:cx="142.24073" inkscape:cy="52.564162" borderlayer="true" inkscape:window-maximized="0" showgrid="false" fit-margin-right="0" inkscape:document-units="px" bordercolor="#666666" inkscape:window-x="110" inkscape:window-y="61" fit-margin-bottom="0" inkscape:window-width="696" inkscape:pageopacity="0.0" inkscape:pageshadow="2" pagecolor="#ffffff" inkscape:window-height="726" fit-margin-top="0"/>
  <path id="path3605" class="fil0" d="M3462 2220c-77,-7 -94,-39 -84,-169 6,-76 6,-76 -123,-92 -71,-8 -261,-45 -423,-81 -294,-66 -294,-66 -365,-17 -236,164 -585,109 -810,-129 -230,-243 -762,-198 -1320,110 -190,106 -192,105 -192,-67 0,-171 80,-348 213,-474 93,-88 93,-88 11,-180 -151,-171 -234,-361 -234,-535 0,-108 -3,-108 140,-1 527,394 1075,468 1854,251 598,-167 593,-165 574,-296 -17,-121 5,-139 166,-139 73,0 174,-8 225,-19 51,-10 158,-23 237,-29 203,-16 304,-27 351,-37 57,-13 177,83 236,189 64,115 73,122 276,196 429,156 877,486 762,560 -10,7 -15,32 -9,55 14,60 -42,147 -138,213 -45,31 -102,71 -128,90 -112,79 -482,253 -592,278 -27,6 -95,52 -151,102 -55,51 -149,112 -208,137 -58,24 -127,55 -153,67 -25,13 -77,20 -115,17l0 0z" inkscape:connector-curvature="0"/>
  <path id="path3603" class="fil1" d="M3462 2220c-77,-7 -94,-39 -84,-169 6,-76 6,-76 -123,-92 -71,-8 -261,-45 -423,-81 -294,-66 -294,-66 -365,-17 -236,164 -585,109 -810,-129 -230,-243 -762,-198 -1320,110 -190,106 -192,105 -192,-67 0,-171 80,-348 213,-474 93,-88 93,-88 11,-180 -151,-171 -234,-361 -234,-535 0,-108 -3,-108 140,-1 527,394 1075,468 1854,251 598,-167 593,-165 574,-296 -17,-121 5,-139 166,-139 73,0 174,-8 225,-19 51,-10 158,-23 237,-29 203,-16 304,-27 351,-37 57,-13 177,83 236,189 64,115 73,122 276,196 429,156 877,486 762,560 -10,7 -15,32 -9,55 14,60 -42,147 -138,213 -45,31 -102,71 -128,90 -112,79 -482,253 -592,278 -27,6 -95,52 -151,102 -55,51 -149,112 -208,137 -58,24 -127,55 -153,67 -25,13 -77,20 -115,17l0 0zm476 -338c162,-38 160,-35 90,-182 -104,-220 -126,-437 -56,-538 40,-57 50,-24 26,85 -81,367 124,616 395,481 395,-196 676,-456 410,-379 -118,34 -247,51 -272,35 -38,-25 -10,-37 181,-78 263,-56 273,-88 71,-236 -740,-541 -1291,-580 -2669,-189 -474,135 -870,160 -1184,75 -173,-47 -173,-47 -204,32 -96,237 -101,265 -68,400 16,69 30,145 30,169 0,60 31,66 166,31 351,-91 846,-56 1417,99 823,224 920,242 1279,230 152,-4 326,-20 388,-35l0 0zm333 -779c-28,-30 -11,-101 26,-114 52,-17 98,31 82,86 -12,39 -80,57 -108,28zm-1780 -36c0,-77 54,-164 101,-164 26,0 47,-8 47,-17 0,-45 100,-82 244,-88 83,-4 178,-18 211,-31 33,-12 72,-18 86,-12 13,5 34,0 45,-11 14,-15 28,-14 48,4 23,20 34,20 57,0 22,-19 33,-20 50,-2 17,18 16,27 -5,41 -21,14 -23,23 -5,41 24,25 33,11 46,-70 8,-53 59,-49 66,5 3,24 13,39 22,33 9,-5 12,-22 7,-37 -16,-42 33,-59 60,-20 23,33 26,33 59,3 30,-29 37,-30 57,-5 17,22 30,24 54,8 68,-45 161,36 110,95 -103,119 -111,125 -132,104 -32,-34 -49,-26 -69,30 -20,56 -61,28 -120,-81 -11,-20 -30,-40 -43,-44 -18,-6 -17,1 2,34 21,36 19,45 -11,69 -32,25 -31,26 17,23 67,-6 77,31 16,60 -33,16 -55,18 -71,4 -16,-14 -40,-11 -81,10 -33,18 -74,25 -97,18 -21,-8 -59,-2 -83,11 -38,22 -47,20 -68,-10 -20,-28 -32,-31 -60,-15 -27,16 -43,14 -67,-9 -30,-28 -35,-28 -67,1 -30,30 -36,30 -57,3 -14,-18 -38,-25 -59,-18 -19,6 -47,2 -60,-10 -18,-15 -29,-16 -37,-2 -7,11 -41,20 -76,20 -40,0 -68,11 -75,29 -14,38 -62,38 -62,0l0 0zm-385 750c41,-49 52,-75 35,-80 -22,-8 -126,104 -128,137 -1,33 37,10 93,-57zm1784 -1252c0,-18 -133,-164 -149,-164 -29,0 -18,28 40,102 48,61 109,96 109,62l0 0z" inkscape:connector-curvature="0"/>
 </g>
</svg>
