<?xml version="1.0" encoding="UTF-8" standalone="no"?>
<!-- Created with Inkscape (http://www.inkscape.org/) -->

<svg
   xmlns:dc="http://purl.org/dc/elements/1.1/"
   xmlns:cc="http://creativecommons.org/ns#"
   xmlns:rdf="http://www.w3.org/1999/02/22-rdf-syntax-ns#"
   xmlns:svg="http://www.w3.org/2000/svg"
   xmlns="http://www.w3.org/2000/svg"
   xmlns:xlink="http://www.w3.org/1999/xlink"
   xmlns:sodipodi="http://sodipodi.sourceforge.net/DTD/sodipodi-0.dtd"
   xmlns:inkscape="http://www.inkscape.org/namespaces/inkscape"
   width="50mm"
   height="50mm"
   viewBox="0 0 177.16535 177.16535"
   id="svg2"
   version="1.1"
   inkscape:version="0.91 r"
   sodipodi:docname="Red-Apple.svg">
  <defs
     id="defs4">
    <pattern
       patternTransform="matrix(.58999 0 0 .41356 1.7244 5.4391)"
       xlink:href="#pattern30609"
       id="pattern30614" />
    <pattern
       patternTransform="matrix(.58999 0 0 .41356 162.62 -160.56)"
       xlink:href="#pattern26663"
       id="pattern30609" />
    <linearGradient
       id="linearGradient15314">
      <stop
         offset="0"
         style="stop-color:#1d3300"
         id="stop15316" />
      <stop
         offset=".49645"
         style="stop-color:#68a02c;stop-opacity:.23684"
         id="stop15318" />
      <stop
         offset="1"
         style="stop-color:#61a334;stop-opacity:0"
         id="stop15320" />
    </linearGradient>
    <filter
       height="1.2376"
       x="-0.092224002"
       width="1.1844"
       y="-0.11882"
       id="filter7541">
      <feGaussianBlur
         inkscape:collect="always"
         stdDeviation="10.987584"
         id="feGaussianBlur7543" />
    </filter>
    <filter
       id="filter12154">
      <feGaussianBlur
         inkscape:collect="always"
         stdDeviation="2.9395372"
         id="feGaussianBlur12156" />
    </filter>
    <filter
       id="filter13287">
      <feGaussianBlur
         inkscape:collect="always"
         stdDeviation="5.8071908"
         id="feGaussianBlur13289" />
    </filter>
    <clipPath
       id="clipPath14282">
      <path
         d="m 100.84,272.89 c -21.478,104.6 -64.957,118.7 -105.82,117 -7.886,-0.33 -7.533,1.23 -16.451,0.1 -7.776,-0.99 -21.326,-6.02 -29.172,-5.44 -46.975,3.48 -91.997,-58.48 -91.997,-117.48 0,-66.55 44.038,-110.23 113.14,-111.82 95.302,-2.18 130.3,51.1 130.3,117.64 z"
         style="fill:#6ea827"
         id="path14284"
         inkscape:connector-curvature="0" />
    </clipPath>
    <clipPath
       id="clipPath14286">
      <path
         d="m 95.242,274.25 c -20.494,98.94 -61.977,112.27 -100.97,110.66 -7.518,-0.31 -7.181,1.16 -15.69,0.09 -7.418,-0.93 -20.347,-5.69 -27.832,-5.14 -44.818,3.29 -87.77,-55.32 -87.77,-111.12 0,-62.95 42.013,-104.26 107.94,-105.77 90.928,-2.07 124.32,48.33 124.32,111.28 z"
         style="fill:#6ea827"
         id="path14288"
         inkscape:connector-curvature="0" />
    </clipPath>
    <clipPath
       id="clipPath14290">
      <path
         d="m 97.162,268.96 c -21.018,104.6 -63.56,118.69 -103.54,116.99 -7.718,-0.33 -7.373,1.23 -16.099,0.1 -7.608,-0.98 -20.867,-6.02 -28.544,-5.44 -45.962,3.49 -90.009,-58.48 -90.009,-117.48 0,-66.54 43.084,-110.22 110.69,-111.82 93.256,-2.18 127.5,51.1 127.5,117.65 z"
         style="fill:#6ea827"
         id="path14292"
         inkscape:connector-curvature="0" />
    </clipPath>
    <clipPath
       id="clipPath14294">
      <path
         d="m 100.84,272.89 c -21.478,104.6 -64.957,118.7 -105.82,117 -7.886,-0.33 -7.533,1.23 -16.451,0.1 -7.776,-0.99 -21.326,-6.02 -29.172,-5.44 -46.975,3.48 -91.997,-58.48 -91.997,-117.48 0,-66.55 44.038,-110.23 113.14,-111.82 95.302,-2.18 130.3,51.1 130.3,117.64 z"
         style="fill:#6ea827"
         id="path14296"
         inkscape:connector-curvature="0" />
    </clipPath>
    <linearGradient
       x1="-24.924"
       y1="174.78"
       x2="-28.858999"
       gradientUnits="userSpaceOnUse"
       y2="272.92001"
       id="linearGradient14306">
      <stop
         offset="0"
         style="stop-color:#daa238"
         id="stop8742" />
      <stop
         offset="1"
         style="stop-color:#a3a827;stop-opacity:0"
         id="stop8744" />
    </linearGradient>
    <radialGradient
       r="121.72"
       gradientTransform="matrix(0.18752,0.97812,-0.90903,0.17428,237.7,251.61)"
       cx="-44.641998"
       cy="283.91"
       gradientUnits="userSpaceOnUse"
       id="radialGradient15285">
      <stop
         offset="0"
         style="stop-color:#fff44b"
         id="stop13293" />
      <stop
         offset=".73759"
         style="stop-color:#d68565"
         id="stop15283" />
      <stop
         offset="1"
         style="stop-color:#c0161b"
         id="stop13295" />
    </radialGradient>
    <filter
       height="1.2674"
       x="-0.02534"
       width="1.0506999"
       y="-0.1337"
       id="filter18604">
      <feGaussianBlur
         inkscape:collect="always"
         stdDeviation="0.99192556"
         id="feGaussianBlur18606" />
    </filter>
    <radialGradient
       r="41.193001"
       gradientTransform="matrix(-1.3366,-0.10351,0.027053,-0.2176,472.64,188.56)"
       cx="204"
       cy="148.67999"
       gradientUnits="userSpaceOnUse"
       id="radialGradient21659">
      <stop
         offset="0"
         style="stop-color:#ffffff"
         id="stop21655" />
      <stop
         offset="1"
         style="stop-color:#ffffff;stop-opacity:0"
         id="stop21657" />
    </radialGradient>
    <filter
       id="filter24623">
      <feGaussianBlur
         inkscape:collect="always"
         stdDeviation="0.21459882"
         id="feGaussianBlur24625" />
    </filter>
    <pattern
       height="46.659165"
       patternTransform="translate(163.81 -152.85)"
       patternUnits="userSpaceOnUse"
       width="55.732779"
       id="pattern26663">
      <path
         sodipodi:cx="-281.60489"
         sodipodi:cy="-209.70604"
         transform="matrix(.74092 0 0 .45974 262.24 100.96)"
         d="m-278.72-209.71a2.8861 7.8338 0 1 1 -5.77 0 2.8861 7.8338 0 1 1 5.77 0z"
         sodipodi:type="arc"
         style="color:rgb(0, 0, 0);fill-rule:evenodd;fill:rgb(215, 235, 144)"
         sodipodi:ry="7.8338113"
         sodipodi:rx="2.8861411"
         id="path26661" />
      <path
         sodipodi:cx="-281.60489"
         sodipodi:cy="-209.70604"
         transform="matrix(.74092 0 0 .45974 253.16 126.8)"
         d="m-278.72-209.71a2.8861 7.8338 0 1 1 -5.77 0 2.8861 7.8338 0 1 1 5.77 0z"
         sodipodi:type="arc"
         style="color:rgb(0, 0, 0);fill-rule:evenodd;fill:rgb(215, 235, 144)"
         sodipodi:ry="7.8338113"
         sodipodi:rx="2.8861411"
         id="path26657" />
      <path
         sodipodi:cx="-281.60489"
         sodipodi:cy="-209.70604"
         transform="matrix(.74092 0 0 .45974 241.64 111.22)"
         d="m-278.72-209.71a2.8861 7.8338 0 1 1 -5.77 0 2.8861 7.8338 0 1 1 5.77 0z"
         sodipodi:type="arc"
         style="color:rgb(0, 0, 0);fill-rule:evenodd;fill:rgb(215, 235, 144)"
         sodipodi:ry="7.8338113"
         sodipodi:rx="2.8861411"
         id="path26655" />
      <path
         sodipodi:cx="-281.60489"
         sodipodi:cy="-209.70604"
         transform="matrix(.74092 0 0 .45974 219.23 100.01)"
         d="m-278.72-209.71a2.8861 7.8338 0 1 1 -5.77 0 2.8861 7.8338 0 1 1 5.77 0z"
         sodipodi:type="arc"
         style="color:rgb(0, 0, 0);fill-rule:evenodd;fill:rgb(215, 235, 144)"
         sodipodi:ry="7.8338113"
         sodipodi:rx="2.8861411"
         id="path26649" />
      <path
         sodipodi:cx="-281.60489"
         sodipodi:cy="-209.70604"
         transform="matrix(.74092 0 0 .45974 236.44 139.47)"
         d="m-278.72-209.71a2.8861 7.8338 0 1 1 -5.77 0 2.8861 7.8338 0 1 1 5.77 0z"
         sodipodi:type="arc"
         style="color:rgb(0, 0, 0);fill-rule:evenodd;fill:rgb(215, 235, 144)"
         sodipodi:ry="7.8338113"
         sodipodi:rx="2.8861411"
         id="path26647" />
      <path
         sodipodi:cx="-281.60489"
         sodipodi:cy="-209.70604"
         transform="matrix(.74092 0 0 .45974 210.79 125.5)"
         d="m-278.72-209.71a2.8861 7.8338 0 1 1 -5.77 0 2.8861 7.8338 0 1 1 5.77 0z"
         sodipodi:type="arc"
         style="color:rgb(0, 0, 0);fill-rule:evenodd;fill:rgb(215, 235, 144)"
         sodipodi:ry="7.8338113"
         sodipodi:rx="2.8861411"
         id="path26645" />
      <path
         sodipodi:cx="-281.60489"
         sodipodi:cy="-209.70604"
         transform="matrix(.74092 0 0 .45974 210.79 125.5)"
         d="m-278.72-209.71a2.8861 7.8338 0 1 1 -5.77 0 2.8861 7.8338 0 1 1 5.77 0z"
         sodipodi:type="arc"
         style="color:rgb(0, 0, 0);fill-rule:evenodd;fill:rgb(215, 235, 144)"
         sodipodi:ry="7.8338113"
         sodipodi:rx="2.8861411"
         id="path26643" />
    </pattern>
    <clipPath
       id="clipPath29604">
      <path
         d="m 214.7,131.12 6.08,0.24 c -2.53,1.72 4.83,-35.347 16.01,-42.737 4.84,-3.194 -1.2,-12.315 -3.82,-10.933 0,0 -6.47,4.671 -7.23,8.094 -0.76,3.423 -6.72,17.606 -8.13,27.846 -1.41,10.24 -2.56,14.89 -2.91,17.49 z"
         style="fill:#372a07;fill-rule:evenodd"
         id="path29606"
         inkscape:connector-curvature="0" />
    </clipPath>
    <linearGradient
       x1="220.89999"
       y1="99.834"
       x2="225.37"
       gradientUnits="userSpaceOnUse"
       y2="101.95"
       id="linearGradient29608">
      <stop
         offset="0"
         style="stop-color:#ffffff"
         id="stop28624" />
      <stop
         offset="1"
         style="stop-color:#ffffff;stop-opacity:0"
         id="stop28626" />
    </linearGradient>
    <filter
       id="filter30589">
      <feGaussianBlur
         inkscape:collect="always"
         stdDeviation="0.5767807"
         id="feGaussianBlur30591" />
    </filter>
    <linearGradient
       x1="211.03"
       y1="147.25999"
       gradientTransform="translate(-0.1348,-0.80878)"
       x2="243.95"
       gradientUnits="userSpaceOnUse"
       y2="109.28"
       id="linearGradient30599">
      <stop
         offset="0"
         style="stop-color:#000000"
         id="stop30595" />
      <stop
         offset="1"
         style="stop-color:#000000;stop-opacity:0"
         id="stop30597" />
    </linearGradient>
    <clipPath
       id="clipPath30603">
      <path
         d="m 172.55,119.65 c 0,0 20.11,15.24 54.07,11.77 34.15,-3.52 40.79,-10.06 40.79,-10.06 28.52,-31.581 -136.2,-25.141 -94.86,-1.71 z"
         style="fill:url(#radialGradient30607) #000000;fill-rule:evenodd"
         id="path30605"
         inkscape:connector-curvature="0" />
    </clipPath>
    <radialGradient
       r="44.556"
       gradientTransform="matrix(-0.014602,-0.9602,1.9354,-0.028132,127.6,52.018)"
       cx="-81.082001"
       cy="44.942001"
       gradientUnits="userSpaceOnUse"
       xlink:href="#linearGradient15314"
       id="radialGradient30607" />
    <pattern
       height="24.735281"
       patternTransform="translate(160.89 -166)"
       patternUnits="userSpaceOnUse"
       width="39.501228"
       id="pattern30611">
      <rect
         x="1.7244"
         y="5.4391"
         width="32.882"
         height="19.296"
         style="fill:url(#pattern30614)"
         id="rect26672" />
      <rect
         x="0"
         y="0"
         width="39.501"
         height="24.735"
         style="fill:none"
         id="rect25640" />
    </pattern>
    <filter
       height="1.8775001"
       x="-0.062532"
       width="1.1251"
       y="-0.43877"
       id="filter35726">
      <feGaussianBlur
         inkscape:collect="always"
         stdDeviation="5.1544931"
         id="feGaussianBlur35728" />
    </filter>
    <linearGradient
       x1="-134.75999"
       y1="343.28"
       x2="-66.758003"
       gradientUnits="userSpaceOnUse"
       y2="311.95001"
       id="linearGradient37702">
      <stop
         offset="0"
         style="stop-color:#f8f8f8"
         id="stop37698" />
      <stop
         offset="1"
         style="stop-color:#f8f8f8;stop-opacity:0"
         id="stop37700" />
    </linearGradient>
    <filter
       height="2.1931"
       x="-0.074089997"
       width="1.1482"
       y="-0.59654999"
       id="filter38751">
      <feGaussianBlur
         inkscape:collect="always"
         stdDeviation="9.8808712"
         id="feGaussianBlur38753" />
    </filter>
    <filter
       id="filter3417">
      <feGaussianBlur
         inkscape:collect="always"
         stdDeviation="0.95731779"
         id="feGaussianBlur3419" />
    </filter>
    <radialGradient
       r="44.556"
       gradientTransform="matrix(-0.017898,-1.1769,2.3722,-0.03448,134.99,46.135)"
       cx="-81.082001"
       cy="44.942001"
       gradientUnits="userSpaceOnUse"
       xlink:href="#linearGradient15314"
       id="radialGradient2502" />
    <linearGradient
       x1="-47.223999"
       y1="206.27"
       x2="-51.159"
       gradientUnits="userSpaceOnUse"
       y2="295.47"
       id="linearGradient2511">
      <stop
         offset="0"
         style="stop-color:#ffffff"
         id="stop13305" />
      <stop
         offset="1"
         style="stop-color:#ffffff;stop-opacity:0"
         id="stop13307" />
    </linearGradient>
  </defs>
  <sodipodi:namedview
     id="base"
     pagecolor="#ffffff"
     bordercolor="#666666"
     borderopacity="1.0"
     inkscape:pageopacity="0.0"
     inkscape:pageshadow="2"
     inkscape:zoom="0.35"
     inkscape:cx="375"
     inkscape:cy="520"
     inkscape:document-units="px"
     inkscape:current-layer="layer1"
     showgrid="false"
     inkscape:window-width="1301"
     inkscape:window-height="744"
     inkscape:window-x="65"
     inkscape:window-y="24"
     inkscape:window-maximized="1" />
  <metadata
     id="metadata7">
    <rdf:RDF>
      <cc:Work
         rdf:about="">
        <dc:format>image/svg+xml</dc:format>
        <dc:type
           rdf:resource="http://purl.org/dc/dcmitype/StillImage" />
        <dc:title></dc:title>
      </cc:Work>
    </rdf:RDF>
  </metadata>
  <g
     inkscape:label="Capa 1"
     inkscape:groupmode="layer"
     id="layer1"
     transform="translate(0,-875.19685)">
    <g
       transform="matrix(0.51059669,0,0,0.46450364,-32.682744,847.59222)"
       id="layer1-7">
      <path
         transform="matrix(1.0479,0,0,4.0754,-28.316,-978.34)"
         d="m 411.8,322.43 a 133.365,16.563621 0 1 1 -266.73,0 133.365,16.563621 0 1 1 266.73,0 z"
         style="opacity:0.67691997;fill:#4d4d4d;fill-rule:evenodd;filter:url(#filter38751)"
         id="path32567"
         inkscape:connector-curvature="0" />
      <path
         transform="matrix(1.2257,0,0,1.5525,-21.402,-116.74)"
         d="m 304.27,315 a 82.43,11.748 0 1 1 -164.86,0 82.43,11.748 0 1 1 164.86,0 z"
         style="fill:#000000;fill-opacity:0.95339002;fill-rule:evenodd;filter:url(#filter35726)"
         id="path34711"
         inkscape:connector-curvature="0" />
      <path
         transform="matrix(1.2257,0,0,1.2257,269.61,-94.797)"
         d="m 100.84,272.89 c -21.478,104.6 -64.957,118.7 -105.82,117 -7.886,-0.33 -7.533,1.23 -16.451,0.1 -7.776,-0.99 -21.326,-6.02 -29.172,-5.44 -46.975,3.48 -91.997,-58.48 -91.997,-117.48 0,-66.55 44.038,-110.23 113.14,-111.82 95.302,-2.18 130.3,51.1 130.3,117.64 z"
         clip-path="url(#clipPath14294)"
         style="fill:url(#radialGradient15285);stroke:url(#linearGradient37702);stroke-width:2.0999999;stroke-opacity:0.30085"
         id="path2416"
         inkscape:connector-curvature="0" />
      <path
         transform="matrix(1.2257,0,0,1.2257,267.78,-94.797)"
         d="m 100.84,272.89 c -21.478,104.6 -64.957,118.7 -105.82,117 -7.886,-0.33 -7.533,1.23 -16.451,0.1 -7.776,-0.99 -21.326,-6.02 -29.172,-5.44 -46.975,3.48 -91.997,-58.48 -91.997,-117.48 0,-66.55 44.038,-110.23 113.14,-111.82 95.302,-2.18 130.3,51.1 130.3,117.64 z"
         clip-path="url(#clipPath14294)"
         style="opacity:0.24230999;fill:url(#pattern30611) #000000;stroke:url(#pattern26663) #000000;stroke-width:1px;filter:url(#filter3417)"
         id="path30619"
         inkscape:connector-curvature="0" />
      <path
         transform="matrix(1.2527,0,0,1.2257,271.5,-89.974)"
         d="m 92.378,214.65 c 3.1,12.07 4.531,25.05 4.531,38.56 -21.481,104.61 -64.948,118.71 -105.81,117 -7.887,-0.33 -7.553,1.23 -16.471,0.1 -7.776,-0.99 -21.311,-6.02 -29.157,-5.44 -29.224,2.17 -57.691,-21.01 -75.031,-53.03 13.12,45.79 49.338,84.68 86.813,81.9 7.845,-0.58 21.412,4.46 29.187,5.44 8.9184,1.13 8.5532,-0.45 16.438,-0.12 40.864,1.7 84.363,-12.37 105.84,-116.97 0,-25.13 -5,-48.37 -16.342,-67.44 z"
         clip-path="url(#clipPath14290)"
         style="opacity:0.47692003;fill:#241f1c;filter:url(#filter7541)"
         id="path6441"
         inkscape:connector-curvature="0" />
      <path
         transform="matrix(1.2847,0,0,1.2958,270.86,-115.69)"
         d="m -86.577,173.47 c -6.701,-0.91 -11.022,5.78 -15.743,10.5 -5.63,5.62 -12.1,9.77 -15.74,17.05 -3.48,6.96 -6.97,8.7 -10.49,15.74 -2.56,5.11 -1.32,13.59 -1.32,19.68 l 0,19.67 c 0,8.2 -0.67,12.45 3.94,17.06 6.87,6.87 5.25,-8.81 5.25,-14.43 0,-8.5 0.48,-12.29 5.24,-17.06 5.79,-5.78 14.35,-8.86 11.81,1.32 -1.89,7.57 -1.57,12.59 1.31,18.36 3.072,6.14 6.141,8.29 11.807,2.62 5.334,-5.33 -1.396,-10.57 6.559,-2.62 5.256,5.26 8.414,11.02 15.742,9.18 6.967,-1.74 5.096,-9.18 17.053,-9.18 8.965,0 8.049,3.94 15.741,3.94 11.333,0 10.82,0.65 14.43,7.87 3.952,7.9 7.301,8.61 11.806,13.11 5.6634,5.67 8.7081,2.76 11.806,10.5 1.8368,4.59 8.281,-6.07 10.494,-10.5 3.541,-7.08 11.39,-11.49 17.053,-15.74 3.635,-2.72 7.665,2.83 14.429,-3.93 6.523,-6.52 13.336,-1.1 17.054,2.62 1.96,1.96 16.559,0 19.676,0 5.103,0 6.559,-9.14 6.559,-14.43 0,-5.68 -2.994,-12.55 -5.247,-17.05 -2.815,-5.63 -3.962,-13.17 -6.559,-18.37 -2.846,-5.69 -5.591,-11.18 -7.871,-15.74 -3.377,-6.75 -8.218,-9.53 -11.806,-13.12 -3.752,-3.75 -5.893,-8.51 -9.182,-11.8 -5.401,-5.4 -7.408,-6.56 -15.741,-6.56 -6.267,0 -14.084,-0.24 -18.365,-1.31 -7.1684,-1.79 -9.5347,-2.15 -15.742,-5.25 -5.7279,-2.86 -5.6727,-5.25 -14.429,-5.25 l -19.677,0 -19.676,0 c -7.808,0 -10.69,5.45 -14.43,9.19 -3.346,3.34 -11.33,3.93 -15.741,3.93 z"
         clip-path="url(#clipPath14286)"
         style="fill:url(#linearGradient14306);filter:url(#filter13287)"
         id="path7549"
         inkscape:connector-curvature="0" />
      <path
         transform="matrix(1.2257,0,0,1.2257,262.28,-94.797)"
         d="m -97.072,237.75 c -2.436,2.89 -5.358,11.35 -3.938,17.05 2.491,9.95 1.566,10.03 9.186,15.74 4.888,3.67 4.65,8.89 10.494,11.81 2.431,1.21 2.623,-14.62 2.623,-17.05 0,-4.13 5.247,-6.54 5.247,-14.43 0,-8.84 0.196,-11.61 -3.935,-15.74 -2.875,-2.88 -17.745,1.85 -19.677,2.62 z m 52.472,-3.94 c -3.651,-3.65 -4.706,15.29 -3.936,18.37 2.476,9.9 7.871,6.73 7.871,18.36 0,9.44 0.889,10.07 5.247,14.43 4.41,4.41 10.106,3.51 17.053,5.25 7.33,1.83 12.21,5.25 19.677,5.25 8.5339,0 13.327,-4.04 20.988,-7.87 2.259,-1.13 6.374,-14.25 7.871,-15.75 3.338,-3.33 -2.624,-15.13 -2.624,-18.36 0,-7.51 1.312,-10.87 1.312,-18.36 0,-4.65 -10.873,-9.28 -15.741,-10.5 -5.6234,-1.4 -15.607,1.31 -22.3,1.31 -7.075,0 -12.452,2.63 -19.677,2.63 -8.658,0 -8.434,1.59 -15.741,5.24 z"
         clip-path="url(#clipPath14282)"
         style="opacity:0.35769001;fill:url(#linearGradient2511);fill-rule:evenodd;filter:url(#filter12154)"
         id="path10686"
         inkscape:connector-curvature="0" />
      <path
         d="m 190.08,129.03 c 0,0 24.66,18.68 66.29,14.42 41.85,-4.31 49.98,-12.32 49.98,-12.32 34.96,-38.713 -166.93,-30.82 -116.27,-2.1 z"
         style="fill:url(#radialGradient2502);fill-rule:evenodd"
         id="path15302"
         inkscape:connector-curvature="0" />
      <path
         transform="matrix(1.439,0.16791,-0.13347,1.8103,-51.018,-113.18)"
         d="m 207.5,98.429 c 0,0 -30.55,10.951 -18.44,9.801 22.79,-7.79 52.04,-6.13 74.93,1.73 C 246.94,95.473 230.38,97.192 207.5,98.429 Z"
         style="opacity:0.18461998;fill:#ffffff;fill-rule:evenodd;filter:url(#filter18604)"
         id="path18608"
         inkscape:connector-curvature="0" />
      <path
         transform="matrix(1.7247,0,0,2.1854,-131.68,-142.84)"
         d="m 186.03,121.66 c -6.7,-1.05 -15.38,6.99 -7.41,12.06 10.91,5.91 23.64,7.13 35.91,6.7 14.63,0.43 30.16,-1.11 42.63,-9.08 2.81,-6.06 -4.02,-2.73 -7.6,-1.53 -12.97,3.44 -26.76,3.78 -40.18,3.54 -7.02,-0.74 -15.23,-1.99 -21.1,-5.19 1.28,-2.36 0.96,-6.48 -2.25,-6.5 z"
         style="opacity:0.46538002;fill:url(#radialGradient21659);fill-rule:evenodd;filter:url(#filter18604)"
         id="path16291"
         inkscape:connector-curvature="0" />
      <path
         transform="matrix(1.2231,-0.07988,0.07988,1.2231,-36.666,0.48926)"
         d="m 223.09,127.66 6.6,-11.18 c 0,0 2.97,-7.82 10.11,-11.06 7.15,-3.23 12.81,-2.29 12.81,-2.29 l 7.41,6.34 c 0,0 -10.78,-2.7 -22.51,9.3 -11.73,11.99 -19.01,16.17 -19.01,16.17 -1.85,-2.82 -3.5,4.88 4.59,-7.28 z"
         clip-path="url(#clipPath30603)"
         style="fill:url(#linearGradient30599);fill-rule:evenodd;filter:url(#filter30589)"
         id="path29610"
         inkscape:connector-curvature="0" />
      <g
         clip-path="url(#clipPath29604)"
         transform="matrix(1.2257,0,0,1.2257,-24.046,-16.962)"
         id="g29599">
        <path
           d="m 214.7,131.12 6.08,0.24 c -2.53,1.72 4.83,-35.347 16.01,-42.737 4.84,-3.194 -1.2,-12.315 -3.82,-10.933 0,0 -6.47,4.671 -7.23,8.094 -0.76,3.423 -6.72,17.606 -8.13,27.846 -1.41,10.24 -2.56,14.89 -2.91,17.49 z"
           style="fill:#372a07;fill-rule:evenodd"
           id="path2419"
           inkscape:connector-curvature="0" />
        <path
           d="m 233.13,78.205 c -0.13,0.094 -1.51,1.101 -3.09,2.577 -1.65,1.544 -3.28,3.574 -3.54,4.745 -0.45,1.994 -2.1,6.279 -3.85,11.509 -1.76,5.234 -3.61,11.284 -4.3,16.274 -1.32,9.56 -2.49,14.88 -2.9,17.47 l 2.64,0.14 c -0.01,-0.98 0.78,-3.48 1.03,-5.11 0.52,-3.42 1.54,-8.17 3.01,-13.2 1.47,-5.04 3.38,-10.35 5.65,-14.926 2.26,-4.573 4.87,-8.407 7.99,-10.467 0.9,-0.599 1.24,-1.355 1.3,-2.376 0.06,-1.021 0,-2.832 -0.56,-3.958 -0.55,-1.125 -1.59,-1.589 -2.28,-2.163 -0.35,-0.288 -0.68,-0.461 -0.88,-0.522 -0.19,-0.06 -0.21,0 -0.22,0.007 z"
           style="fill:#db9b1e;fill-opacity:0.41102002;fill-rule:evenodd;filter:url(#filter24623)"
           id="path5464"
           inkscape:connector-curvature="0" />
        <path
           d="m 233.01,80.086 c -1.93,1.568 -4.25,3.001 -5.29,5.349 -4.08,10.785 -3.95,12.263 -6.11,18.325 -1.22,4.93 -2.08,9.94 -3.07,14.92 -0.73,3.88 -1.44,7.76 -2.15,11.64 1.24,0.8 0.82,-3.06 1.55,-4.41 1.84,-14.18 5.33,-27.653 10.86,-39.624 1.29,-2.309 3.6,-3.781 5.55,-5.454 -0.14,-0.508 -1.01,-0.385 -1.34,-0.746 z"
           style="opacity:0.26154001;fill:url(#linearGradient29608);fill-rule:evenodd"
           id="path24627"
           inkscape:connector-curvature="0" />
      </g>
    </g>
  </g>
</svg>
